<?xml version="1.0" encoding="UTF-8"?>
<svg id="intro-svg" xmlns="http://www.w3.org/2000/svg" viewBox="0 0 120 600">
  <g id="rotation1">
    <g id="rotation0">
      <g id="center-logo">
        <g id="friday-center">
          <path id="friday" d="M25.41,504.25l-9.21-10.63h17.95v8.03l-8.5-7.68v8.03h6.26v6.14l-6.26-5.91v14.06l-9.45-11.81,9.21-.24h0Zm10.51-6.14h4.84l.35,2.36c.59-1.06,1.3-1.77,2.01-2.24,.83-.47,1.54-.59,2.48-.59,.24,0,.83,.12,1.77,.24l-.59,4.96c-.95-.24-1.65-.35-2.36-.35-1.42,0-2.6,.83-3.31,2.48v9.45h-5.32l.12-16.3h0Zm13.94-6.02c.59-.47,1.3-.71,2.24-.71s1.65,.24,2.24,.59c.59,.47,.83,1.06,.83,1.89s-.24,1.54-.83,2.01c-.59,.47-1.3,.71-2.24,.71s-1.65-.24-2.24-.71-.83-1.18-.83-2.01c0-.71,.24-1.3,.83-1.77h0Zm-.47,6.02h5.32v16.3h-5.32v-16.3Zm9.33,1.65c1.06-1.42,2.6-2.13,4.49-2.13,.83,0,1.65,.24,2.36,.59,.83,.35,1.42,.95,1.89,1.54v-7.91h5.32v22.44h-4.61l-.35-1.89c-1.3,1.42-2.95,2.24-4.84,2.24-1.77,0-3.19-.71-4.25-2.24-1.06-1.54-1.65-3.66-1.65-6.38,.12-2.72,.59-4.84,1.65-6.26h0Zm4.37,9.69c.35,.83,1.06,1.18,1.77,1.18,1.06,0,1.89-.35,2.48-1.06v-6.73c-.59-.83-1.54-1.06-2.48-1.06-1.65,0-2.36,1.42-2.36,4.25,0,1.42,.24,2.6,.59,3.43h0Zm14.18-3.19c1.42-1.06,3.78-1.65,6.97-1.89v-.95c0-1.06-.59-1.54-1.89-1.54-.71,0-1.42,.12-2.24,.35-.83,.24-1.77,.59-2.95,1.18l-1.77-3.78c2.48-1.3,4.84-2.01,7.21-2.01s4.13,.47,5.2,1.65c1.18,1.06,1.65,2.48,1.65,4.37v6.26c0,.59,.35,.95,1.06,.95v3.66c-1.77,0-3.07-.12-3.78-.35-.83-.24-1.54-.83-2.01-1.65-.59,.83-1.3,1.3-2.13,1.77-.83,.35-1.77,.59-2.72,.59-1.42,0-2.48-.35-3.43-1.18-.95-.83-1.3-1.77-1.3-3.07,.12-1.89,.71-3.31,2.13-4.37h0Zm3.54,4.37c.24,.24,.71,.35,1.18,.35,.95,0,1.77-.35,2.36-1.06v-2.84c-1.18,.12-2.24,.35-2.95,.83s-1.06,1.06-1.06,1.77c0,.35,.12,.71,.47,.95h0Zm15.95-12.52l2.95,9.57h.12l2.95-9.57h5.2l-5.43,15.95c-.95,2.6-1.89,4.37-2.95,5.2-1.06,.95-2.48,1.3-4.13,1.3-1.3,0-2.72-.24-4.02-.59l1.3-4.02c.71,.24,1.54,.35,2.36,.35,.47,0,.95-.12,1.18-.35s.47-.59,.71-1.18l.24-.71-5.79-16.06,5.32,.12h0Z" style="fill: #98c9f1;"/>
          <circle id="rotation-bounds" cx="63.8" cy="489.95" r="111.98" style="fill: none;"/>
        </g>
        <g id="black-center">
          <path id="black" d="M18.32,486.65c1.18,.83,2.95,1.18,5.32,1.18,3.9,0,6.85-.83,8.86-2.36,2.01-1.65,2.95-3.66,2.95-6.26,0-1.3-.35-2.36-1.06-3.07s-1.77-1.06-3.07-1.06c-.47,0-.95,.12-1.54,.24-.47,.12-.83,.24-1.06,.24-.83,.24-1.3,.35-1.65,.35-.24,0-.35-.12-.35-.35s.12-.35,.47-.59c.24-.24,.59-.47,.95-.59,1.18-.83,2.01-1.42,2.72-2.01,.59-.59,.95-1.42,.95-2.48,0-1.18-.47-2.24-1.3-2.95s-2.01-1.06-3.78-1.06-3.31,.35-4.84,1.06c-1.54,.71-2.6,1.54-3.54,2.36s-1.3,1.65-1.3,2.36c0,.59,.24,.83,.83,.83,.35,0,1.54-.24,3.31-.83,2.01-.59,3.31-.95,4.13-.95s1.18,.35,1.18,1.06c0,.83-.24,1.65-.83,2.6-.35,.59-.59,1.06-.59,1.3,0,.59,.35,.95,.95,.95,.35,0,.59-.12,.83-.12,.24-.12,.47-.12,.83-.12,.47,0,.83,.35,.83,1.18,0,2.48-.47,4.61-1.3,6.5-.95,1.89-2.01,2.95-3.54,2.95-1.3,0-1.89-.59-1.89-1.89,0-.47,.12-.95,.35-1.65,.24-.59,.47-1.18,.71-1.77,.35-.83,.59-1.65,.83-2.36,.24-.59,.24-1.3,.24-2.01,0-1.42-.24-2.48-.71-3.43s-.95-1.3-1.42-1.3c-.24,0-.47,.12-.59,.24s-.24,.35-.24,.59c0,.47,.35,1.06,1.06,1.54l.95,.95c.24,.24,.35,.59,.35,.95,0,.47-.24,.83-.59,1.18s-1.06,.71-2.01,1.18c-1.3,.59-2.24,1.18-2.95,1.77s-1.06,1.3-1.06,2.36c-.12,1.54,.47,2.6,1.65,3.31h0Zm23.27-22.09c.83,0,1.42,.12,2.01,.35-1.06,6.97-1.54,13.23-1.54,18.31-1.65-.59-2.83-1.65-3.66-3.07-.83-1.42-1.18-3.78-1.18-7.09,0-5.79,1.42-8.62,4.37-8.51h0Zm-.35,19.25c1.18,.35,2.6,.59,4.13,.71-.12,.95-.35,1.77-.95,2.36s-1.54,.95-2.6,.95c-1.3,0-2.36-.35-3.07-1.18-.83-.83-1.18-1.89-1.18-3.43,0-.71,.12-1.18,.12-1.65,1.06,1.06,2.24,1.77,3.54,2.24h0Zm6.97-4.49c1.42-1.06,3.78-1.77,6.97-2.01v-.83c0-1.06-.59-1.54-1.89-1.54-.71,0-1.42,.12-2.24,.35-.83,.24-1.77,.59-2.95,1.18l-1.77-3.78c2.72-1.3,5.2-2.01,7.21-2.01,2.36,0,4.02,.47,5.2,1.54,1.06,1.06,1.65,2.48,1.65,4.49v6.14c0,.71,.35,1.06,1.18,1.06v3.54c-1.77,0-3.19-.12-3.9-.35-.83-.24-1.54-.83-2.01-1.65-.71,.83-1.42,1.42-2.24,1.77s-1.65,.59-2.72,.59c-1.42,0-2.48-.35-3.43-1.18-.95-.83-1.3-1.77-1.3-3.07,.24-1.89,.95-3.19,2.24-4.25h0Zm3.54,4.25c.35,.24,.71,.35,1.18,.35,.95,0,1.77-.35,2.36-1.06v-2.72c-1.18,.12-2.24,.35-2.95,.83-.83,.47-1.06,.95-1.06,1.65,0,.35,.12,.59,.47,.95h0Zm13.82-10.63c1.65-1.54,3.66-2.36,6.02-2.36,.95,0,1.89,.24,2.95,.47,1.06,.35,1.89,.83,2.72,1.65l-2.48,3.43c-.83-.83-1.89-1.06-3.07-1.06-.83,0-1.65,.35-2.36,1.06s-.95,1.77-.95,3.07,.35,2.36,.95,3.19,1.42,1.06,2.36,1.06c1.06,0,2.01-.35,2.83-1.18l2.72,3.07c-1.77,1.54-3.78,2.36-5.79,2.36-2.48,0-4.49-.83-6.02-2.36-1.65-1.54-2.36-3.66-2.36-6.26,.12-2.48,.95-4.49,2.48-6.14h0Zm13.82-8.15h5.32v12.76l5.43-6.61h5.32l-5.08,5.79,5.2,10.4h-6.14l-2.6-6.26-2.24,2.6v3.66h-5.32l.12-22.33h0Z" style="fill: #98c9f1;"/>
          <circle id="rotation-bounds-2" cx="63.8" cy="489.95" r="111.98" style="fill: none;"/>
        </g>
      </g>
    </g>
  </g>
</svg>