<?xml version="1.0" encoding="UTF-8"?>
<svg id="intro-svg" xmlns="http://www.w3.org/2000/svg" xmlns:xlink="http://www.w3.org/1999/xlink" viewBox="0 0 300 193">
  <defs>
    <radialGradient id="radial-gradient" cx="144.59" cy="75.39" fx="144.59" fy="75.39" r="100.19" gradientTransform="translate(0 55.67) scale(1 .54)" gradientUnits="userSpaceOnUse">
      <stop offset=".8" stop-color="#130c0e"/>
      <stop offset=".8" stop-color="#130c0e" stop-opacity=".96"/>
      <stop offset=".91" stop-color="#130c0e" stop-opacity=".25"/>
      <stop offset="1" stop-color="#130c0e" stop-opacity="0"/>
    </radialGradient>
  </defs>
  <g id="rotation1">
    <g id="rotation0">
      <g id="left">
        <g id="line">
          <path id="logo0-0" d="M14.62,179.64l-3.58-4.15h6.98v3.1s-3.31-3-3.31-3v3.12s2.45,0,2.45,0v2.4s-2.45-2.3-2.45-2.3v5.45s-3.67-4.61-3.67-4.61h3.58Zm4.08-2.4h1.9s.14,.91,.14,.91c.24-.42,.5-.7,.79-.86,.29-.16,.61-.24,.96-.24,.06,0,.29,.02,.67,.07l-.22,1.92c-.35-.08-.65-.12-.89-.12-.56,0-.99,.32-1.3,.96v3.67h-2.06v-6.31Zm5.39-2.33c.22-.18,.5-.26,.85-.26s.66,.08,.88,.25,.32,.42,.32,.76c0,.34-.11,.6-.32,.78-.22,.18-.51,.28-.88,.28s-.64-.09-.85-.28c-.22-.18-.32-.44-.32-.78,0-.32,.11-.57,.32-.74Zm-.16,2.33h2.06v6.31h-2.06v-6.31Zm3.62,.7c.42-.54,.99-.82,1.73-.82,.32,0,.63,.07,.92,.22,.3,.14,.54,.34,.73,.6v-3.07h2.06v8.69h-1.8s-.12-.72-.12-.72c-.51,.56-1.14,.84-1.87,.84-.69,0-1.24-.28-1.66-.85-.42-.57-.62-1.4-.62-2.48,0-1.06,.21-1.86,.62-2.4Zm1.69,3.72c.15,.32,.39,.48,.71,.48,.4,0,.73-.14,.98-.43v-2.59c-.26-.29-.58-.43-.98-.43-.62,0-.94,.55-.94,1.66,0,.56,.08,1,.23,1.32Zm5.52-1.22c.54-.4,1.46-.65,2.74-.74v-.36c0-.4-.25-.6-.74-.6-.27,0-.56,.05-.85,.14-.3,.1-.67,.26-1.12,.48l-.7-1.46c.96-.53,1.89-.79,2.78-.79,.91,0,1.59,.21,2.03,.62,.44,.42,.66,.98,.66,1.68v2.42c0,.26,.14,.38,.41,.38v1.39c-.67,0-1.17-.05-1.49-.16-.32-.1-.58-.32-.79-.66-.24,.3-.51,.53-.82,.68-.3,.15-.66,.23-1.08,.23-.54,0-.99-.15-1.33-.46-.34-.3-.52-.7-.52-1.2,0-.67,.27-1.21,.82-1.61Zm1.34,1.7c.11,.1,.26,.14,.46,.14,.37,0,.68-.14,.94-.43v-1.1c-.48,.03-.86,.13-1.14,.3-.28,.17-.42,.4-.42,.71,0,.16,.06,.29,.17,.38Zm6.17-4.9l1.13,3.7h.02l1.15-3.7h2.02s-2.11,6.17-2.11,6.17c-.35,.99-.74,1.66-1.15,2.02-.42,.35-.95,.53-1.61,.53-.53,0-1.05-.07-1.56-.22l.5-1.56c.29,.1,.58,.14,.89,.14,.21,0,.37-.04,.48-.13,.11-.09,.2-.24,.26-.47l.1-.26-2.26-6.22h2.14Zm-30.42-4.42c.45,.3,1.14,.46,2.09,.46,1.52,0,2.66-.31,3.43-.92,.77-.62,1.15-1.43,1.15-2.44,0-.51-.14-.9-.41-1.18-.27-.27-.66-.41-1.18-.41-.18,0-.36,.02-.56,.07-.2,.05-.33,.08-.4,.1-.32,.1-.54,.14-.65,.14-.1,0-.14-.04-.14-.12,0-.06,.06-.14,.17-.23,.11-.09,.24-.17,.38-.25,.45-.29,.8-.55,1.04-.79,.25-.24,.37-.56,.37-.96,0-.48-.16-.86-.49-1.14-.33-.28-.81-.42-1.45-.42-.67,0-1.3,.13-1.87,.4s-1.04,.58-1.38,.94c-.34,.36-.52,.66-.52,.9,0,.22,.1,.34,.29,.34,.14,0,.57-.1,1.27-.29,.77-.26,1.31-.38,1.63-.38,.3,0,.46,.14,.46,.41s-.1,.62-.31,1.01c-.14,.22-.22,.4-.22,.53,0,.26,.13,.38,.38,.38,.13,0,.24-.01,.34-.04,.1-.02,.19-.04,.29-.04,.21,0,.31,.16,.31,.48,0,.94-.18,1.79-.53,2.53-.35,.74-.81,1.12-1.37,1.12-.5,0-.74-.24-.74-.72,0-.18,.04-.38,.12-.62,.08-.24,.17-.47,.26-.7,.14-.34,.25-.63,.32-.89,.07-.26,.11-.51,.11-.77,0-.54-.09-.99-.26-1.33-.18-.34-.36-.52-.55-.52-.1,0-.18,.03-.25,.1-.07,.06-.11,.14-.11,.24,0,.19,.14,.39,.41,.6,.16,.14,.28,.27,.36,.37,.08,.1,.12,.23,.12,.37,0,.18-.08,.32-.24,.44-.16,.12-.42,.27-.79,.44-.5,.24-.88,.47-1.15,.7-.27,.22-.41,.53-.41,.91,0,.48,.22,.87,.67,1.18Zm9.02-8.62c.29,0,.55,.04,.79,.12-.4,2.74-.6,5.11-.6,7.13-.64-.24-1.11-.64-1.4-1.2-.3-.56-.44-1.48-.44-2.76,0-2.19,.55-3.29,1.66-3.29Zm-.13,7.49c.49,.16,1.02,.25,1.6,.26-.02,.37-.14,.67-.37,.91-.23,.24-.57,.36-1.02,.36-.5,0-.89-.16-1.19-.47-.3-.31-.44-.76-.44-1.33,0-.27,.02-.48,.05-.62,.43,.43,.89,.73,1.38,.89Zm2.72-1.74c.54-.41,1.46-.67,2.74-.78v-.31c0-.4-.24-.6-.72-.6-.27,0-.56,.05-.86,.14-.3,.1-.68,.25-1.13,.46l-.7-1.46c1.06-.53,1.99-.79,2.81-.79,.91,0,1.58,.2,2,.61,.42,.41,.64,.98,.64,1.72v2.38c0,.27,.15,.41,.46,.41v1.37c-.7,0-1.22-.05-1.54-.16-.32-.1-.58-.32-.77-.66-.27,.32-.55,.56-.84,.71-.29,.15-.64,.23-1.06,.23-.54,0-.99-.15-1.33-.46-.34-.3-.52-.7-.52-1.2,0-.66,.27-1.19,.82-1.6Zm1.36,1.66c.12,.1,.27,.16,.44,.16,.35,0,.66-.14,.94-.41v-1.08c-.48,.03-.86,.13-1.14,.29-.28,.16-.42,.38-.42,.65,0,.16,.06,.29,.18,.4Zm5.38-4.1c.62-.6,1.4-.9,2.34-.9,.37,0,.75,.06,1.14,.19,.39,.13,.75,.34,1.07,.62l-.96,1.32c-.34-.29-.73-.43-1.18-.43-.34,0-.63,.14-.89,.41-.26,.27-.38,.66-.38,1.18s.13,.94,.38,1.22c.26,.29,.55,.43,.89,.43,.4,0,.77-.15,1.1-.46l1.08,1.2c-.69,.61-1.44,.91-2.26,.91-.94,0-1.72-.3-2.34-.9-.62-.6-.92-1.4-.92-2.41s.31-1.79,.92-2.39Zm5.36-3.16h2.06v4.97s2.11-2.54,2.11-2.54h2.06s-1.94,2.26-1.94,2.26l2.02,4.03h-2.35s-1.03-2.42-1.03-2.42l-.86,1.01v1.42h-2.06v-8.71Z" style="fill: #ffb0b0;"/>
          <path id="logo0-1" d="M139.48,179.64l-3.58-4.15h6.98v3.1s-3.31-3-3.31-3v3.12s2.45,0,2.45,0v2.4s-2.45-2.3-2.45-2.3v5.45s-3.67-4.61-3.67-4.61h3.58Zm4.08-2.4h1.9s.14,.91,.14,.91c.24-.42,.5-.7,.79-.86,.29-.16,.61-.24,.96-.24,.06,0,.29,.02,.67,.07l-.22,1.92c-.35-.08-.65-.12-.89-.12-.56,0-.99,.32-1.3,.96v3.67h-2.06v-6.31Zm5.39-2.33c.22-.18,.5-.26,.85-.26s.66,.08,.88,.25,.32,.42,.32,.76c0,.34-.11,.6-.32,.78-.22,.18-.51,.28-.88,.28s-.64-.09-.85-.28c-.22-.18-.32-.44-.32-.78s.11-.57,.32-.74Zm-.16,2.33h2.06v6.31h-2.06v-6.31Zm3.62,.7c.42-.54,.99-.82,1.73-.82,.32,0,.63,.07,.92,.22,.3,.14,.54,.34,.73,.6v-3.07h2.06v8.69h-1.8s-.12-.72-.12-.72c-.51,.56-1.14,.84-1.87,.84-.69,0-1.24-.28-1.66-.85-.42-.57-.62-1.4-.62-2.48,0-1.06,.21-1.86,.62-2.4Zm1.69,3.72c.15,.32,.39,.48,.71,.48,.4,0,.73-.14,.98-.43v-2.59c-.26-.29-.58-.43-.98-.43-.62,0-.94,.55-.94,1.66,0,.56,.08,1,.23,1.32Zm5.52-1.22c.54-.4,1.46-.65,2.74-.74v-.36c0-.4-.25-.6-.74-.6-.27,0-.56,.05-.85,.14-.3,.1-.67,.26-1.12,.48l-.7-1.46c.96-.53,1.89-.79,2.78-.79,.91,0,1.59,.21,2.03,.62,.44,.42,.66,.98,.66,1.68v2.42c0,.26,.14,.38,.41,.38v1.39c-.67,0-1.17-.05-1.49-.16-.32-.1-.58-.32-.79-.66-.24,.3-.51,.53-.82,.68-.3,.15-.66,.23-1.08,.23-.54,0-.99-.15-1.33-.46-.34-.3-.52-.7-.52-1.2,0-.67,.27-1.21,.82-1.61Zm1.34,1.7c.11,.1,.26,.14,.46,.14,.37,0,.68-.14,.94-.43v-1.1c-.48,.03-.86,.13-1.14,.3-.28,.17-.42,.4-.42,.71,0,.16,.06,.29,.17,.38Zm6.17-4.9l1.13,3.7h.02s1.15-3.7,1.15-3.7h2.02s-2.11,6.17-2.11,6.17c-.35,.99-.74,1.66-1.15,2.02-.42,.35-.95,.53-1.61,.53-.53,0-1.05-.07-1.56-.22l.5-1.56c.29,.1,.58,.14,.89,.14,.21,0,.37-.04,.48-.13,.11-.09,.2-.24,.26-.47l.1-.26-2.26-6.22h2.14Zm-30.42-4.42c.45,.3,1.14,.46,2.09,.46,1.52,0,2.66-.31,3.43-.92,.77-.62,1.15-1.43,1.15-2.44,0-.51-.14-.9-.41-1.18-.27-.27-.66-.41-1.18-.41-.18,0-.36,.02-.56,.07-.2,.05-.33,.08-.4,.1-.32,.1-.54,.14-.65,.14-.1,0-.14-.04-.14-.12,0-.06,.06-.14,.17-.23,.11-.09,.24-.17,.38-.25,.45-.29,.8-.55,1.04-.79,.25-.24,.37-.56,.37-.96,0-.48-.16-.86-.49-1.14-.33-.28-.81-.42-1.45-.42-.67,0-1.3,.13-1.87,.4s-1.04,.58-1.38,.94c-.34,.36-.52,.66-.52,.9,0,.22,.1,.34,.29,.34,.14,0,.57-.1,1.27-.29,.77-.26,1.31-.38,1.63-.38,.3,0,.46,.14,.46,.41s-.1,.62-.31,1.01c-.14,.22-.22,.4-.22,.53,0,.26,.13,.38,.38,.38,.13,0,.24-.01,.34-.04,.1-.02,.19-.04,.29-.04,.21,0,.31,.16,.31,.48,0,.94-.18,1.79-.53,2.53-.35,.74-.81,1.12-1.37,1.12-.5,0-.74-.24-.74-.72,0-.18,.04-.38,.12-.62,.08-.24,.17-.47,.26-.7,.14-.34,.25-.63,.32-.89,.07-.26,.11-.51,.11-.77,0-.54-.09-.99-.26-1.33-.18-.34-.36-.52-.55-.52-.1,0-.18,.03-.25,.1-.07,.06-.11,.14-.11,.24,0,.19,.14,.39,.41,.6,.16,.14,.28,.27,.36,.37,.08,.1,.12,.23,.12,.37,0,.18-.08,.32-.24,.44-.16,.12-.42,.27-.79,.44-.5,.24-.88,.47-1.15,.7-.27,.22-.41,.53-.41,.91,0,.48,.22,.87,.67,1.18Zm9.02-8.62c.29,0,.55,.04,.79,.12-.4,2.74-.6,5.11-.6,7.13-.64-.24-1.11-.64-1.4-1.2-.3-.56-.44-1.48-.44-2.76,0-2.19,.55-3.29,1.66-3.29Zm-.13,7.49c.49,.16,1.02,.25,1.6,.26-.02,.37-.14,.67-.37,.91-.23,.24-.57,.36-1.02,.36-.5,0-.89-.16-1.19-.47-.3-.31-.44-.76-.44-1.33,0-.27,.02-.48,.05-.62,.43,.43,.89,.73,1.38,.89Zm2.72-1.74c.54-.41,1.46-.67,2.74-.78v-.31c0-.4-.24-.6-.72-.6-.27,0-.56,.05-.86,.14-.3,.1-.68,.25-1.13,.46l-.7-1.46c1.06-.53,1.99-.79,2.81-.79,.91,0,1.58,.2,2,.61,.42,.41,.64,.98,.64,1.72v2.38c0,.27,.15,.41,.46,.41v1.37c-.7,0-1.22-.05-1.54-.16-.32-.1-.58-.32-.77-.66-.27,.32-.55,.56-.84,.71-.29,.15-.64,.23-1.06,.23-.54,0-.99-.15-1.33-.46-.34-.3-.52-.7-.52-1.2,0-.66,.27-1.19,.82-1.6Zm1.36,1.66c.12,.1,.27,.16,.44,.16,.35,0,.66-.14,.94-.41v-1.08c-.48,.03-.86,.13-1.14,.29-.28,.16-.42,.38-.42,.65,0,.16,.06,.29,.18,.4Zm5.38-4.1c.62-.6,1.4-.9,2.34-.9,.37,0,.75,.06,1.14,.19,.39,.13,.75,.34,1.07,.62l-.96,1.32c-.34-.29-.73-.43-1.18-.43-.34,0-.63,.14-.89,.41-.26,.27-.38,.66-.38,1.18,0,.53,.13,.94,.38,1.22,.26,.29,.55,.43,.89,.43,.4,0,.77-.15,1.1-.46l1.08,1.2c-.69,.61-1.44,.91-2.26,.91-.94,0-1.72-.3-2.34-.9-.62-.6-.92-1.4-.92-2.41s.31-1.79,.92-2.39Zm5.36-3.16h2.06v4.97s2.11-2.54,2.11-2.54h2.06s-1.94,2.26-1.94,2.26l2.02,4.03h-2.35s-1.03-2.42-1.03-2.42l-.86,1.01v1.42h-2.06v-8.71Z" style="fill: #fffab0;"/>
          <path id="logo0-2" d="M255.44,179.64l-3.58-4.15h6.98v3.1s-3.31-3-3.31-3v3.12s2.45,0,2.45,0v2.4s-2.45-2.3-2.45-2.3v5.45s-3.67-4.61-3.67-4.61h3.58Zm4.08-2.4h1.9s.14,.91,.14,.91c.24-.42,.5-.7,.79-.86,.29-.16,.61-.24,.96-.24,.06,0,.29,.02,.67,.07l-.22,1.92c-.35-.08-.65-.12-.89-.12-.56,0-.99,.32-1.3,.96v3.67h-2.06v-6.31Zm5.39-2.33c.22-.18,.5-.26,.85-.26s.66,.08,.88,.25,.32,.42,.32,.76-.11,.6-.32,.78c-.22,.18-.51,.28-.88,.28s-.64-.09-.85-.28c-.22-.18-.32-.44-.32-.78,0-.32,.11-.57,.32-.74Zm-.16,2.33h2.06v6.31h-2.06v-6.31Zm3.62,.7c.42-.54,.99-.82,1.73-.82,.32,0,.63,.07,.92,.22,.3,.14,.54,.34,.73,.6v-3.07h2.06v8.69h-1.8s-.12-.72-.12-.72c-.51,.56-1.14,.84-1.87,.84-.69,0-1.24-.28-1.66-.85-.42-.57-.62-1.4-.62-2.48,0-1.06,.21-1.86,.62-2.4Zm1.69,3.72c.15,.32,.39,.48,.71,.48,.4,0,.73-.14,.98-.43v-2.59c-.26-.29-.58-.43-.98-.43-.62,0-.94,.55-.94,1.66,0,.56,.08,1,.23,1.32Zm5.52-1.22c.54-.4,1.46-.65,2.74-.74v-.36c0-.4-.25-.6-.74-.6-.27,0-.56,.05-.85,.14-.3,.1-.67,.26-1.12,.48l-.7-1.46c.96-.53,1.89-.79,2.78-.79s1.59,.21,2.03,.62c.44,.42,.66,.98,.66,1.68v2.42c0,.26,.14,.38,.41,.38v1.39c-.67,0-1.17-.05-1.49-.16-.32-.1-.58-.32-.79-.66-.24,.3-.51,.53-.82,.68-.3,.15-.66,.23-1.08,.23-.54,0-.99-.15-1.33-.46-.34-.3-.52-.7-.52-1.2,0-.67,.27-1.21,.82-1.61Zm1.34,1.7c.11,.1,.26,.14,.46,.14,.37,0,.68-.14,.94-.43v-1.1c-.48,.03-.86,.13-1.14,.3-.28,.17-.42,.4-.42,.71,0,.16,.06,.29,.17,.38Zm6.17-4.9l1.13,3.7h.02l1.15-3.7h2.02s-2.11,6.17-2.11,6.17c-.35,.99-.74,1.66-1.15,2.02-.42,.35-.95,.53-1.61,.53-.53,0-1.05-.07-1.56-.22l.5-1.56c.29,.1,.58,.14,.89,.14,.21,0,.37-.04,.48-.13,.11-.09,.2-.24,.26-.47l.1-.26-2.26-6.22h2.14Zm-30.42-4.42c.45,.3,1.14,.46,2.09,.46,1.52,0,2.66-.31,3.43-.92,.77-.62,1.15-1.43,1.15-2.44,0-.51-.14-.9-.41-1.18-.27-.27-.66-.41-1.18-.41-.18,0-.36,.02-.56,.07-.2,.05-.33,.08-.4,.1-.32,.1-.54,.14-.65,.14-.1,0-.14-.04-.14-.12,0-.06,.06-.14,.17-.23,.11-.09,.24-.17,.38-.25,.45-.29,.8-.55,1.04-.79,.25-.24,.37-.56,.37-.96,0-.48-.16-.86-.49-1.14-.33-.28-.81-.42-1.45-.42-.67,0-1.3,.13-1.87,.4s-1.04,.58-1.38,.94c-.34,.36-.52,.66-.52,.9s.1,.34,.29,.34c.14,0,.57-.1,1.27-.29,.77-.26,1.31-.38,1.63-.38,.3,0,.46,.14,.46,.41,0,.29-.1,.62-.31,1.01-.14,.22-.22,.4-.22,.53,0,.26,.13,.38,.38,.38,.13,0,.24-.01,.34-.04,.1-.02,.19-.04,.29-.04,.21,0,.31,.16,.31,.48,0,.94-.18,1.79-.53,2.53-.35,.74-.81,1.12-1.37,1.12-.5,0-.74-.24-.74-.72,0-.18,.04-.38,.12-.62,.08-.24,.17-.47,.26-.7,.14-.34,.25-.63,.32-.89,.07-.26,.11-.51,.11-.77,0-.54-.09-.99-.26-1.33-.18-.34-.36-.52-.55-.52-.1,0-.18,.03-.25,.1-.07,.06-.11,.14-.11,.24s.14,.39,.41,.6c.16,.14,.28,.27,.36,.37,.08,.1,.12,.23,.12,.37,0,.18-.08,.32-.24,.44-.16,.12-.42,.27-.79,.44-.5,.24-.88,.47-1.15,.7-.27,.22-.41,.53-.41,.91,0,.48,.22,.87,.67,1.18Zm9.02-8.62c.29,0,.55,.04,.79,.12-.4,2.74-.6,5.11-.6,7.13-.64-.24-1.11-.64-1.4-1.2-.3-.56-.44-1.48-.44-2.76,0-2.19,.55-3.29,1.66-3.29Zm-.13,7.49c.49,.16,1.02,.25,1.6,.26-.02,.37-.14,.67-.37,.91-.23,.24-.57,.36-1.02,.36-.5,0-.89-.16-1.19-.47-.3-.31-.44-.76-.44-1.33,0-.27,.02-.48,.05-.62,.43,.43,.89,.73,1.38,.89Zm2.72-1.74c.54-.41,1.46-.67,2.74-.78v-.31c0-.4-.24-.6-.72-.6-.27,0-.56,.05-.86,.14-.3,.1-.68,.25-1.13,.46l-.7-1.46c1.06-.53,1.99-.79,2.81-.79,.91,0,1.58,.2,2,.61,.42,.41,.64,.98,.64,1.72v2.38c0,.27,.15,.41,.46,.41v1.37c-.7,0-1.22-.05-1.54-.16-.32-.1-.58-.32-.77-.66-.27,.32-.55,.56-.84,.71-.29,.15-.64,.23-1.06,.23-.54,0-.99-.15-1.33-.46-.34-.3-.52-.7-.52-1.2,0-.66,.27-1.19,.82-1.6Zm1.36,1.66c.12,.1,.27,.16,.44,.16,.35,0,.66-.14,.94-.41v-1.08c-.48,.03-.86,.13-1.14,.29-.28,.16-.42,.38-.42,.65,0,.16,.06,.29,.18,.4Zm5.38-4.1c.62-.6,1.4-.9,2.34-.9,.37,0,.75,.06,1.14,.19,.39,.13,.75,.34,1.07,.62l-.96,1.32c-.34-.29-.73-.43-1.18-.43-.34,0-.63,.14-.89,.41-.26,.27-.38,.66-.38,1.18s.13,.94,.38,1.22c.26,.29,.55,.43,.89,.43,.4,0,.77-.15,1.1-.46l1.08,1.2c-.69,.61-1.44,.91-2.26,.91-.94,0-1.72-.3-2.34-.9-.62-.6-.92-1.4-.92-2.41s.31-1.79,.92-2.39Zm5.36-3.16h2.06v4.97s2.11-2.54,2.11-2.54h2.06s-1.94,2.26-1.94,2.26l2.02,4.03h-2.35s-1.03-2.42-1.03-2.42l-.86,1.01v1.42h-2.06v-8.71Z" style="fill: #b5e0d6;"/>
        </g>
        <g id="line-2" data-name="line">
          <path id="l1-2" d="M15.25,42.54c.45,.3,1.14,.46,2.09,.46,1.52,0,2.66-.31,3.43-.92,.77-.62,1.15-1.43,1.15-2.44,0-.51-.14-.9-.41-1.18-.27-.27-.66-.41-1.18-.41-.18,0-.36,.02-.56,.07-.2,.05-.33,.08-.4,.1-.32,.1-.54,.14-.65,.14-.1,0-.14-.04-.14-.12,0-.06,.06-.14,.17-.23,.11-.09,.24-.17,.38-.25,.45-.29,.8-.55,1.04-.79,.25-.24,.37-.56,.37-.96,0-.48-.16-.86-.49-1.14-.33-.28-.81-.42-1.45-.42-.67,0-1.3,.13-1.87,.4s-1.04,.58-1.38,.94c-.34,.36-.52,.66-.52,.9,0,.22,.1,.34,.29,.34,.14,0,.57-.1,1.27-.29,.77-.26,1.31-.38,1.63-.38,.3,0,.46,.14,.46,.41,0,.29-.1,.62-.31,1.01-.14,.22-.22,.4-.22,.53,0,.26,.13,.38,.38,.38,.13,0,.24-.01,.34-.04,.1-.02,.19-.04,.29-.04,.21,0,.31,.16,.31,.48,0,.94-.18,1.79-.53,2.53-.35,.74-.81,1.12-1.37,1.12-.5,0-.74-.24-.74-.72,0-.18,.04-.38,.12-.62,.08-.24,.17-.47,.26-.7,.14-.34,.25-.63,.32-.89,.07-.26,.11-.51,.11-.77,0-.54-.09-.99-.26-1.33-.18-.34-.36-.52-.55-.52-.1,0-.18,.03-.25,.1-.07,.06-.11,.14-.11,.24,0,.19,.14,.39,.41,.6,.16,.14,.28,.27,.36,.37,.08,.1,.12,.23,.12,.37,0,.18-.08,.32-.24,.44-.16,.12-.42,.27-.79,.44-.5,.24-.88,.47-1.15,.7-.27,.22-.41,.53-.41,.91,0,.48,.22,.87,.67,1.18Z" style="fill: #feb0b0;"/>
          <polygon id="l1-1" points="142.21 38.55 139.52 35.44 144.76 35.44 144.76 37.76 142.28 35.51 142.28 37.85 144.11 37.85 144.11 39.65 142.28 37.92 142.28 42.01 139.52 38.55 142.21 38.55" style="fill: #b5e0d5;"/>
          <polygon id="l1-0" points="250.57 38.5 246.99 34.35 253.97 34.35 253.97 37.44 250.66 34.44 250.66 37.56 253.11 37.56 253.11 39.96 250.66 37.66 250.66 43.11 246.99 38.5 250.57 38.5" style="fill: #fffab0;"/>
        </g>
      </g>
      <g id="right">
        <g id="line-3" data-name="line">
          <polygon id="l3-0" points="18.01 149.64 14.44 145.49 21.42 145.49 21.42 148.58 18.11 145.58 18.11 148.7 20.56 148.7 20.56 151.1 18.11 148.8 18.11 154.25 14.44 149.64 18.01 149.64" style="fill: #fff9b0;"/>
          <path id="l3-1" d="M139.89,151.2c.34,.23,.86,.34,1.57,.34,1.14,0,2-.23,2.57-.69,.58-.46,.86-1.07,.86-1.83,0-.38-.1-.68-.31-.88-.2-.2-.5-.31-.88-.31-.13,0-.27,.02-.42,.05-.15,.04-.25,.06-.3,.07-.24,.07-.4,.11-.49,.11-.07,0-.11-.03-.11-.09,0-.05,.04-.1,.13-.17,.08-.07,.18-.13,.29-.19,.34-.22,.6-.41,.78-.59,.19-.18,.28-.42,.28-.72,0-.36-.12-.64-.37-.86-.25-.21-.61-.31-1.09-.31-.5,0-.97,.1-1.4,.3s-.78,.43-1.04,.7c-.26,.27-.39,.5-.39,.68,0,.17,.07,.25,.22,.25,.11,0,.43-.07,.95-.22,.58-.19,.98-.29,1.22-.29,.23,0,.34,.1,.34,.31s-.08,.47-.23,.76c-.11,.17-.16,.3-.16,.4,0,.19,.1,.29,.29,.29,.1,0,.18,0,.25-.03,.07-.02,.14-.03,.22-.03,.16,0,.23,.12,.23,.36,0,.71-.13,1.34-.4,1.9-.26,.56-.61,.84-1.03,.84-.37,0-.56-.18-.56-.54,0-.13,.03-.29,.09-.47,.06-.18,.13-.35,.2-.52,.11-.25,.19-.47,.24-.67,.05-.19,.08-.38,.08-.58,0-.41-.07-.74-.2-1-.13-.26-.27-.39-.41-.39-.07,0-.14,.02-.19,.07-.05,.05-.08,.11-.08,.18,0,.14,.1,.29,.31,.45,.12,.11,.21,.2,.27,.28,.06,.08,.09,.17,.09,.28,0,.13-.06,.24-.18,.33-.12,.09-.32,.2-.59,.33-.37,.18-.66,.35-.86,.52-.2,.17-.31,.4-.31,.68,0,.36,.17,.65,.5,.88Z" style="fill: #daf0f9;"/>
          <path id="l3-2" d="M247.48,152.15c.45,.3,1.14,.46,2.09,.46,1.52,0,2.66-.31,3.43-.92,.77-.62,1.15-1.43,1.15-2.44,0-.51-.14-.9-.41-1.18-.27-.27-.66-.41-1.18-.41-.18,0-.36,.02-.56,.07-.2,.05-.33,.08-.4,.1-.32,.1-.54,.14-.65,.14-.1,0-.14-.04-.14-.12,0-.06,.06-.14,.17-.23,.11-.09,.24-.17,.38-.25,.45-.29,.8-.55,1.04-.79,.25-.24,.37-.56,.37-.96,0-.48-.16-.86-.49-1.14-.33-.28-.81-.42-1.45-.42-.67,0-1.3,.13-1.87,.4s-1.04,.58-1.38,.94c-.34,.36-.52,.66-.52,.9,0,.22,.1,.34,.29,.34,.14,0,.57-.1,1.27-.29,.77-.26,1.31-.38,1.63-.38,.3,0,.46,.14,.46,.41,0,.29-.1,.62-.31,1.01-.14,.22-.22,.4-.22,.53,0,.26,.13,.38,.38,.38,.13,0,.24-.01,.34-.04,.1-.02,.19-.04,.29-.04,.21,0,.31,.16,.31,.48,0,.94-.18,1.79-.53,2.53-.35,.74-.81,1.12-1.37,1.12-.5,0-.74-.24-.74-.72,0-.18,.04-.38,.12-.62,.08-.24,.17-.47,.26-.7,.14-.34,.25-.63,.32-.89,.07-.26,.11-.51,.11-.77,0-.54-.09-.99-.26-1.33-.18-.34-.36-.52-.55-.52-.1,0-.18,.03-.25,.1-.07,.06-.11,.14-.11,.24,0,.19,.14,.39,.41,.6,.16,.14,.28,.27,.36,.37,.08,.1,.12,.23,.12,.37,0,.18-.08,.32-.24,.44-.16,.12-.42,.27-.79,.44-.5,.24-.88,.47-1.15,.7-.27,.22-.41,.53-.41,.91,0,.48,.22,.87,.67,1.18Z" style="fill: #ffafb0;"/>
        </g>
        <g id="line-4" data-name="line">
          <polygon id="l3-0-2" data-name="l3-0" points="18.01 65.64 14.44 61.49 21.42 61.49 21.42 64.58 18.11 61.58 18.11 64.7 20.56 64.7 20.56 67.1 18.11 64.8 18.11 70.25 14.44 65.64 18.01 65.64" style="fill: #fff9b0;"/>
          <path id="l3-1-2" data-name="l3-1" d="M139.89,67.2c.34,.23,.86,.34,1.57,.34,1.14,0,2-.23,2.57-.69,.58-.46,.86-1.07,.86-1.83,0-.38-.1-.68-.31-.88-.2-.2-.5-.31-.88-.31-.13,0-.27,.02-.42,.05-.15,.04-.25,.06-.3,.07-.24,.07-.4,.11-.49,.11-.07,0-.11-.03-.11-.09,0-.05,.04-.1,.13-.17,.08-.07,.18-.13,.29-.19,.34-.22,.6-.41,.78-.59,.19-.18,.28-.42,.28-.72,0-.36-.12-.64-.37-.86-.25-.21-.61-.31-1.09-.31-.5,0-.97,.1-1.4,.3s-.78,.43-1.04,.7c-.26,.27-.39,.5-.39,.68,0,.17,.07,.25,.22,.25,.11,0,.43-.07,.95-.22,.58-.19,.98-.29,1.22-.29,.23,0,.34,.1,.34,.31s-.08,.47-.23,.76c-.11,.17-.16,.3-.16,.4,0,.19,.1,.29,.29,.29,.1,0,.18,0,.25-.03,.07-.02,.14-.03,.22-.03,.16,0,.23,.12,.23,.36,0,.71-.13,1.34-.4,1.9-.26,.56-.61,.84-1.03,.84-.37,0-.56-.18-.56-.54,0-.13,.03-.29,.09-.47,.06-.18,.13-.35,.2-.52,.11-.25,.19-.47,.24-.67,.05-.19,.08-.38,.08-.58,0-.41-.07-.74-.2-1-.13-.26-.27-.39-.41-.39-.07,0-.14,.02-.19,.07-.05,.05-.08,.11-.08,.18,0,.14,.1,.29,.31,.45,.12,.11,.21,.2,.27,.28,.06,.08,.09,.17,.09,.28,0,.13-.06,.24-.18,.33-.12,.09-.32,.2-.59,.33-.37,.18-.66,.35-.86,.52-.2,.17-.31,.4-.31,.68,0,.36,.17,.65,.5,.88Z" style="fill: #daf0f9;"/>
          <path id="l3-2-2" data-name="l3-2" d="M247.48,68.15c.45,.3,1.14,.46,2.09,.46,1.52,0,2.66-.31,3.43-.92,.77-.62,1.15-1.43,1.15-2.44,0-.51-.14-.9-.41-1.18-.27-.27-.66-.41-1.18-.41-.18,0-.36,.02-.56,.07-.2,.05-.33,.08-.4,.1-.32,.1-.54,.14-.65,.14-.1,0-.14-.04-.14-.12,0-.06,.06-.14,.17-.23,.11-.09,.24-.17,.38-.25,.45-.29,.8-.55,1.04-.79,.25-.24,.37-.56,.37-.96,0-.48-.16-.86-.49-1.14-.33-.28-.81-.42-1.45-.42-.67,0-1.3,.13-1.87,.4s-1.04,.58-1.38,.94c-.34,.36-.52,.66-.52,.9,0,.22,.1,.34,.29,.34,.14,0,.57-.1,1.27-.29,.77-.26,1.31-.38,1.63-.38,.3,0,.46,.14,.46,.41,0,.29-.1,.62-.31,1.01-.14,.22-.22,.4-.22,.53,0,.26,.13,.38,.38,.38,.13,0,.24-.01,.34-.04,.1-.02,.19-.04,.29-.04,.21,0,.31,.16,.31,.48,0,.94-.18,1.79-.53,2.53-.35,.74-.81,1.12-1.37,1.12-.5,0-.74-.24-.74-.72,0-.18,.04-.38,.12-.62,.08-.24,.17-.47,.26-.7,.14-.34,.25-.63,.32-.89,.07-.26,.11-.51,.11-.77,0-.54-.09-.99-.26-1.33-.18-.34-.36-.52-.55-.52-.1,0-.18,.03-.25,.1-.07,.06-.11,.14-.11,.24,0,.19,.14,.39,.41,.6,.16,.14,.28,.27,.36,.37,.08,.1,.12,.23,.12,.37,0,.18-.08,.32-.24,.44-.16,.12-.42,.27-.79,.44-.5,.24-.88,.47-1.15,.7-.27,.22-.41,.53-.41,.91,0,.48,.22,.87,.67,1.18Z" style="fill: #ffafb0;"/>
        </g>
        <g id="line-5" data-name="line">
          <path id="l2-0" d="M16,96.36c.34,.23,.86,.34,1.57,.34,1.14,0,2-.23,2.57-.69,.58-.46,.86-1.07,.86-1.83,0-.38-.1-.68-.31-.88-.2-.2-.5-.31-.88-.31-.13,0-.27,.02-.42,.05-.15,.04-.25,.06-.3,.07-.24,.07-.4,.11-.49,.11-.07,0-.11-.03-.11-.09,0-.05,.04-.1,.13-.17,.08-.07,.18-.13,.29-.19,.34-.22,.6-.41,.78-.59,.19-.18,.28-.42,.28-.72,0-.36-.12-.64-.37-.86-.25-.21-.61-.31-1.09-.31-.5,0-.97,.1-1.4,.3s-.78,.43-1.04,.7c-.26,.27-.39,.5-.39,.68s.07,.25,.22,.25c.11,0,.43-.07,.95-.22,.58-.19,.98-.29,1.22-.29,.23,0,.34,.1,.34,.31,0,.22-.08,.47-.23,.76-.11,.17-.16,.3-.16,.4,0,.19,.1,.29,.29,.29,.1,0,.18,0,.25-.03,.07-.02,.14-.03,.22-.03,.16,0,.23,.12,.23,.36,0,.71-.13,1.34-.4,1.9-.26,.56-.61,.84-1.03,.84-.37,0-.56-.18-.56-.54,0-.13,.03-.29,.09-.47,.06-.18,.13-.35,.2-.52,.11-.25,.19-.47,.24-.67,.05-.19,.08-.38,.08-.58,0-.41-.07-.74-.2-1-.13-.26-.27-.39-.41-.39-.07,0-.14,.02-.19,.07-.05,.05-.08,.11-.08,.18,0,.14,.1,.29,.31,.45,.12,.11,.21,.2,.27,.28,.06,.08,.09,.17,.09,.28s-.06,.24-.18,.33c-.12,.09-.32,.2-.59,.33-.37,.18-.66,.35-.86,.52-.2,.17-.31,.4-.31,.68,0,.36,.17,.65,.5,.88Z" style="fill: #ffd6f5;"/>
          <polygon id="l2-1" points="142.23 93.27 138.65 89.12 145.63 89.12 145.63 92.22 142.32 89.22 142.32 92.34 144.77 92.34 144.77 94.74 142.32 92.43 142.32 97.88 138.65 93.27 142.23 93.27" style="fill: #b6e0d6;"/>
          <polygon id="l2-2" points="250.54 93.33 247.86 90.21 253.1 90.21 253.1 92.54 250.62 90.29 250.62 92.63 252.45 92.63 252.45 94.43 250.62 92.7 250.62 96.79 247.86 93.33 250.54 93.33" style="fill: #fff9b0;"/>
        </g>
        <g id="line-6" data-name="line">
          <path id="logo0-0-2" data-name="logo0-0" d="M18.01,19.36l-3.58-4.15h6.98v3.1s-3.31-3-3.31-3v3.12s2.45,0,2.45,0v2.4s-2.45-2.3-2.45-2.3v5.45s-3.67-4.61-3.67-4.61h3.58Zm4.08-2.4h1.9s.14,.91,.14,.91c.24-.42,.5-.7,.79-.86,.29-.16,.61-.24,.96-.24,.06,0,.29,.02,.67,.07l-.22,1.92c-.35-.08-.65-.12-.89-.12-.56,0-.99,.32-1.3,.96v3.67h-2.06v-6.31Zm5.39-2.33c.22-.18,.5-.26,.85-.26s.66,.08,.88,.25,.32,.42,.32,.76-.11,.6-.32,.78c-.22,.18-.51,.28-.88,.28s-.64-.09-.85-.28c-.22-.18-.32-.44-.32-.78,0-.32,.11-.57,.32-.74Zm-.16,2.33h2.06v6.31h-2.06v-6.31Zm3.62,.7c.42-.54,.99-.82,1.73-.82,.32,0,.63,.07,.92,.22,.3,.14,.54,.34,.73,.6v-3.07h2.06v8.69h-1.8s-.12-.72-.12-.72c-.51,.56-1.14,.84-1.87,.84-.69,0-1.24-.28-1.66-.85-.42-.57-.62-1.4-.62-2.48,0-1.06,.21-1.86,.62-2.4Zm1.69,3.72c.15,.32,.39,.48,.71,.48,.4,0,.73-.14,.98-.43v-2.59c-.26-.29-.58-.43-.98-.43-.62,0-.94,.55-.94,1.66,0,.56,.08,1,.23,1.32Zm5.52-1.22c.54-.4,1.46-.65,2.74-.74v-.36c0-.4-.25-.6-.74-.6-.27,0-.56,.05-.85,.14-.3,.1-.67,.26-1.12,.48l-.7-1.46c.96-.53,1.89-.79,2.78-.79s1.59,.21,2.03,.62c.44,.42,.66,.98,.66,1.68v2.42c0,.26,.14,.38,.41,.38v1.39c-.67,0-1.17-.05-1.49-.16-.32-.1-.58-.32-.79-.66-.24,.3-.51,.53-.82,.68-.3,.15-.66,.23-1.08,.23-.54,0-.99-.15-1.33-.46-.34-.3-.52-.7-.52-1.2,0-.67,.27-1.21,.82-1.61Zm1.34,1.7c.11,.1,.26,.14,.46,.14,.37,0,.68-.14,.94-.43v-1.1c-.48,.03-.86,.13-1.14,.3-.28,.17-.42,.4-.42,.71,0,.16,.06,.29,.17,.38Zm6.17-4.9l1.13,3.7h.02l1.15-3.7h2.02s-2.11,6.17-2.11,6.17c-.35,.99-.74,1.66-1.15,2.02-.42,.35-.95,.53-1.61,.53-.53,0-1.05-.07-1.56-.22l.5-1.56c.29,.1,.58,.14,.89,.14,.21,0,.37-.04,.48-.13,.11-.09,.2-.24,.26-.47l.1-.26-2.26-6.22h2.14ZM15.25,12.54c.45,.3,1.14,.46,2.09,.46,1.52,0,2.66-.31,3.43-.92,.77-.62,1.15-1.43,1.15-2.44,0-.51-.14-.9-.41-1.18-.27-.27-.66-.41-1.18-.41-.18,0-.36,.02-.56,.07-.2,.05-.33,.08-.4,.1-.32,.1-.54,.14-.65,.14-.1,0-.14-.04-.14-.12,0-.06,.06-.14,.17-.23,.11-.09,.24-.17,.38-.25,.45-.29,.8-.55,1.04-.79,.25-.24,.37-.56,.37-.96s-.16-.86-.49-1.14c-.33-.28-.81-.42-1.45-.42-.67,0-1.3,.13-1.87,.4s-1.04,.58-1.38,.94c-.34,.36-.52,.66-.52,.9,0,.22,.1,.34,.29,.34,.14,0,.57-.1,1.27-.29,.77-.26,1.31-.38,1.63-.38,.3,0,.46,.14,.46,.41,0,.29-.1,.62-.31,1.01-.14,.22-.22,.4-.22,.53,0,.26,.13,.38,.38,.38,.13,0,.24-.01,.34-.04,.1-.02,.19-.04,.29-.04,.21,0,.31,.16,.31,.48,0,.94-.18,1.79-.53,2.53-.35,.74-.81,1.12-1.37,1.12-.5,0-.74-.24-.74-.72,0-.18,.04-.38,.12-.62,.08-.24,.17-.47,.26-.7,.14-.34,.25-.63,.32-.89,.07-.26,.11-.51,.11-.77,0-.54-.09-.99-.26-1.33-.18-.34-.36-.52-.55-.52-.1,0-.18,.03-.25,.1-.07,.06-.11,.14-.11,.24,0,.19,.14,.39,.41,.6,.16,.14,.28,.27,.36,.37,.08,.1,.12,.23,.12,.37,0,.18-.08,.32-.24,.44-.16,.12-.42,.27-.79,.44-.5,.24-.88,.47-1.15,.7-.27,.22-.41,.53-.41,.91,0,.48,.22,.87,.67,1.18ZM24.28,3.93c.29,0,.55,.04,.79,.12-.4,2.74-.6,5.11-.6,7.13-.64-.24-1.11-.64-1.4-1.2-.3-.56-.44-1.48-.44-2.76,0-2.19,.55-3.29,1.66-3.29Zm-.13,7.49c.49,.16,1.02,.25,1.6,.26-.02,.37-.14,.67-.37,.91-.23,.24-.57,.36-1.02,.36-.5,0-.89-.16-1.19-.47-.3-.31-.44-.76-.44-1.33,0-.27,.02-.48,.05-.62,.43,.43,.89,.73,1.38,.89Zm2.72-1.74c.54-.41,1.46-.67,2.74-.78v-.31c0-.4-.24-.6-.72-.6-.27,0-.56,.05-.86,.14-.3,.1-.68,.25-1.13,.46l-.7-1.46c1.06-.53,1.99-.79,2.81-.79,.91,0,1.58,.2,2,.61,.42,.41,.64,.98,.64,1.72v2.38c0,.27,.15,.41,.46,.41v1.37c-.7,0-1.22-.05-1.54-.16-.32-.1-.58-.32-.77-.66-.27,.32-.55,.56-.84,.71-.29,.15-.64,.23-1.06,.23-.54,0-.99-.15-1.33-.46-.34-.3-.52-.7-.52-1.2,0-.66,.27-1.19,.82-1.6Zm1.36,1.66c.12,.1,.27,.16,.44,.16,.35,0,.66-.14,.94-.41v-1.08c-.48,.03-.86,.13-1.14,.29-.28,.16-.42,.38-.42,.65,0,.16,.06,.29,.18,.4Zm5.38-4.1c.62-.6,1.4-.9,2.34-.9,.37,0,.75,.06,1.14,.19,.39,.13,.75,.34,1.07,.62l-.96,1.32c-.34-.29-.73-.43-1.18-.43-.34,0-.63,.14-.89,.41-.26,.27-.38,.66-.38,1.18,0,.53,.13,.94,.38,1.22,.26,.29,.55,.43,.89,.43,.4,0,.77-.15,1.1-.46l1.08,1.2c-.69,.61-1.44,.91-2.26,.91-.94,0-1.72-.3-2.34-.9-.62-.6-.92-1.4-.92-2.41s.31-1.79,.92-2.39Zm5.36-3.16h2.06v4.97s2.11-2.54,2.11-2.54h2.06s-1.94,2.26-1.94,2.26l2.02,4.03h-2.35s-1.03-2.42-1.03-2.42l-.86,1.01v1.42h-2.06V4.07Z" style="fill: #98c9f1;"/>
          <path id="logo0-2-2" data-name="logo0-2" d="M242.44,19.36l-3.58-4.15h6.98v3.1s-3.31-3-3.31-3v3.12s2.45,0,2.45,0v2.4s-2.45-2.3-2.45-2.3v5.45s-3.67-4.61-3.67-4.61h3.58Zm4.08-2.4h1.9s.14,.91,.14,.91c.24-.42,.5-.7,.79-.86,.29-.16,.61-.24,.96-.24,.06,0,.29,.02,.67,.07l-.22,1.92c-.35-.08-.65-.12-.89-.12-.56,0-.99,.32-1.3,.96v3.67h-2.06v-6.31Zm5.39-2.33c.22-.18,.5-.26,.85-.26s.66,.08,.88,.25,.32,.42,.32,.76-.11,.6-.32,.78c-.22,.18-.51,.28-.88,.28s-.64-.09-.85-.28c-.22-.18-.32-.44-.32-.78,0-.32,.11-.57,.32-.74Zm-.16,2.33h2.06v6.31h-2.06v-6.31Zm3.62,.7c.42-.54,.99-.82,1.73-.82,.32,0,.63,.07,.92,.22,.3,.14,.54,.34,.73,.6v-3.07h2.06v8.69h-1.8s-.12-.72-.12-.72c-.51,.56-1.14,.84-1.87,.84-.69,0-1.24-.28-1.66-.85-.42-.57-.62-1.4-.62-2.48s.21-1.86,.62-2.4Zm1.69,3.72c.15,.32,.39,.48,.71,.48,.4,0,.73-.14,.98-.43v-2.59c-.26-.29-.58-.43-.98-.43-.62,0-.94,.55-.94,1.66,0,.56,.08,1,.23,1.32Zm5.52-1.22c.54-.4,1.46-.65,2.74-.74v-.36c0-.4-.25-.6-.74-.6-.27,0-.56,.05-.85,.14-.3,.1-.67,.26-1.12,.48l-.7-1.46c.96-.53,1.89-.79,2.78-.79s1.59,.21,2.03,.62c.44,.42,.66,.98,.66,1.68v2.42c0,.26,.14,.38,.41,.38v1.39c-.67,0-1.17-.05-1.49-.16-.32-.1-.58-.32-.79-.66-.24,.3-.51,.53-.82,.68-.3,.15-.66,.23-1.08,.23-.54,0-.99-.15-1.33-.46-.34-.3-.52-.7-.52-1.2,0-.67,.27-1.21,.82-1.61Zm1.34,1.7c.11,.1,.26,.14,.46,.14,.37,0,.68-.14,.94-.43v-1.1c-.48,.03-.86,.13-1.14,.3-.28,.17-.42,.4-.42,.71,0,.16,.06,.29,.17,.38Zm6.17-4.9l1.13,3.7h.02s1.15-3.7,1.15-3.7h2.02s-2.11,6.17-2.11,6.17c-.35,.99-.74,1.66-1.15,2.02-.42,.35-.95,.53-1.61,.53-.53,0-1.05-.07-1.56-.22l.5-1.56c.29,.1,.58,.14,.89,.14,.21,0,.37-.04,.48-.13,.11-.09,.2-.24,.26-.47l.1-.26-2.26-6.22h2.14Zm-30.42-4.42c.45,.3,1.14,.46,2.09,.46,1.52,0,2.66-.31,3.43-.92,.77-.62,1.15-1.43,1.15-2.44,0-.51-.14-.9-.41-1.18-.27-.27-.66-.41-1.18-.41-.18,0-.36,.02-.56,.07-.2,.05-.33,.08-.4,.1-.32,.1-.54,.14-.65,.14-.1,0-.14-.04-.14-.12,0-.06,.06-.14,.17-.23,.11-.09,.24-.17,.38-.25,.45-.29,.8-.55,1.04-.79,.25-.24,.37-.56,.37-.96,0-.48-.16-.86-.49-1.14-.33-.28-.81-.42-1.45-.42-.67,0-1.3,.13-1.87,.4s-1.04,.58-1.38,.94c-.34,.36-.52,.66-.52,.9,0,.22,.1,.34,.29,.34,.14,0,.57-.1,1.27-.29,.77-.26,1.31-.38,1.63-.38,.3,0,.46,.14,.46,.41s-.1,.62-.31,1.01c-.14,.22-.22,.4-.22,.53,0,.26,.13,.38,.38,.38,.13,0,.24-.01,.34-.04,.1-.02,.19-.04,.29-.04,.21,0,.31,.16,.31,.48,0,.94-.18,1.79-.53,2.53-.35,.74-.81,1.12-1.37,1.12-.5,0-.74-.24-.74-.72,0-.18,.04-.38,.12-.62,.08-.24,.17-.47,.26-.7,.14-.34,.25-.63,.32-.89,.07-.26,.11-.51,.11-.77,0-.54-.09-.99-.26-1.33-.18-.34-.36-.52-.55-.52-.1,0-.18,.03-.25,.1-.07,.06-.11,.14-.11,.24,0,.19,.14,.39,.41,.6,.16,.14,.28,.27,.36,.37,.08,.1,.12,.23,.12,.37,0,.18-.08,.32-.24,.44-.16,.12-.42,.27-.79,.44-.5,.24-.88,.47-1.15,.7-.27,.22-.41,.53-.41,.91,0,.48,.22,.87,.67,1.18Zm9.02-8.62c.29,0,.55,.04,.79,.12-.4,2.74-.6,5.11-.6,7.13-.64-.24-1.11-.64-1.4-1.2-.3-.56-.44-1.48-.44-2.76,0-2.19,.55-3.29,1.66-3.29Zm-.13,7.49c.49,.16,1.02,.25,1.6,.26-.02,.37-.14,.67-.37,.91-.23,.24-.57,.36-1.02,.36-.5,0-.89-.16-1.19-.47-.3-.31-.44-.76-.44-1.33,0-.27,.02-.48,.05-.62,.43,.43,.89,.73,1.38,.89Zm2.72-1.74c.54-.41,1.46-.67,2.74-.78v-.31c0-.4-.24-.6-.72-.6-.27,0-.56,.05-.86,.14-.3,.1-.68,.25-1.13,.46l-.7-1.46c1.06-.53,1.99-.79,2.81-.79,.91,0,1.58,.2,2,.61,.42,.41,.64,.98,.64,1.72v2.38c0,.27,.15,.41,.46,.41v1.37c-.7,0-1.22-.05-1.54-.16-.32-.1-.58-.32-.77-.66-.27,.32-.55,.56-.84,.71-.29,.15-.64,.23-1.06,.23-.54,0-.99-.15-1.33-.46-.34-.3-.52-.7-.52-1.2,0-.66,.27-1.19,.82-1.6Zm1.36,1.66c.12,.1,.27,.16,.44,.16,.35,0,.66-.14,.94-.41v-1.08c-.48,.03-.86,.13-1.14,.29-.28,.16-.42,.38-.42,.65,0,.16,.06,.29,.18,.4Zm5.38-4.1c.62-.6,1.4-.9,2.34-.9,.37,0,.75,.06,1.14,.19,.39,.13,.75,.34,1.07,.62l-.96,1.32c-.34-.29-.73-.43-1.18-.43-.34,0-.63,.14-.89,.41-.26,.27-.38,.66-.38,1.18s.13,.94,.38,1.22c.26,.29,.55,.43,.89,.43,.4,0,.77-.15,1.1-.46l1.08,1.2c-.69,.61-1.44,.91-2.26,.91-.94,0-1.72-.3-2.34-.9-.62-.6-.92-1.4-.92-2.41s.31-1.79,.92-2.39Zm5.36-3.16h2.06v4.97s2.11-2.54,2.11-2.54h2.06s-1.94,2.26-1.94,2.26l2.02,4.03h-2.35s-1.03-2.42-1.03-2.42l-.86,1.01v1.42h-2.06V4.07Z" style="fill: #b5e0d6;"/>
        </g>
      </g>
      <g id="center-logo">
        <ellipse id="blend" cx="144.59" cy="96.5" rx="100.19" ry="54.26" style="fill: url(#radial-gradient);"/>
        <g id="friday-center">
          <path id="friday" d="M90.4,118.67l-14.3-16.61h27.94v12.38s-13.25-12-13.25-12v12.48s9.79,0,9.79,0v9.6s-9.79-9.22-9.79-9.22v21.79s-14.69-18.43-14.69-18.43h14.3Zm16.32-9.6h7.58s.58,3.65,.58,3.65c.96-1.66,2.02-2.82,3.17-3.46,1.15-.64,2.43-.96,3.84-.96,.26,0,1.15,.1,2.69,.29l-.86,7.68c-1.41-.32-2.59-.48-3.55-.48-2.24,0-3.97,1.28-5.18,3.84v14.69h-8.26v-25.25Zm21.55-9.31c.86-.7,2-1.06,3.41-1.06,1.47,0,2.64,.34,3.5,1.01,.86,.67,1.3,1.68,1.3,3.02,0,1.34-.43,2.39-1.3,3.12-.86,.74-2.03,1.1-3.5,1.1-1.41,0-2.54-.37-3.41-1.1-.86-.73-1.3-1.78-1.3-3.12,0-1.28,.43-2.27,1.3-2.98Zm-.62,9.31h8.26v25.25h-8.26v-25.25Zm14.5,2.78c1.66-2.17,3.97-3.26,6.91-3.26,1.28,0,2.51,.29,3.7,.86,1.18,.58,2.16,1.38,2.93,2.4v-12.29h8.26v34.75h-7.2s-.48-2.88-.48-2.88c-2.05,2.24-4.54,3.36-7.49,3.36-2.75,0-4.96-1.14-6.62-3.41-1.67-2.27-2.5-5.58-2.5-9.94,0-4.22,.83-7.42,2.5-9.6Zm6.77,14.88c.61,1.28,1.55,1.92,2.83,1.92,1.6,0,2.91-.58,3.94-1.73v-10.37c-1.02-1.15-2.34-1.73-3.94-1.73-2.5,0-3.74,2.21-3.74,6.62,0,2.24,.3,4,.91,5.28Zm22.09-4.9c2.18-1.6,5.82-2.59,10.94-2.98v-1.44c0-1.6-.99-2.4-2.98-2.4-1.09,0-2.22,.19-3.41,.58-1.19,.38-2.67,1.02-4.46,1.92l-2.78-5.86c3.84-2.11,7.55-3.17,11.14-3.17,3.65,0,6.35,.83,8.11,2.5,1.76,1.66,2.64,3.9,2.64,6.72v9.7c0,1.02,.54,1.54,1.63,1.54v5.57c-2.69,0-4.67-.21-5.95-.62-1.28-.42-2.34-1.3-3.17-2.64-.96,1.22-2.05,2.13-3.26,2.74-1.22,.61-2.66,.91-4.32,.91-2.18,0-3.95-.61-5.33-1.82-1.38-1.22-2.06-2.82-2.06-4.8,0-2.69,1.09-4.83,3.26-6.43Zm5.38,6.82c.45,.38,1.06,.58,1.82,.58,1.47,0,2.72-.58,3.74-1.73v-4.42c-1.92,.13-3.44,.53-4.56,1.2-1.12,.67-1.68,1.62-1.68,2.83,0,.64,.22,1.15,.67,1.54Zm24.67-19.58l4.51,14.78h.1s4.61-14.78,4.61-14.78h8.06s-8.45,24.67-8.45,24.67c-1.41,3.97-2.94,6.66-4.61,8.06-1.67,1.41-3.81,2.11-6.43,2.11-2.11,0-4.19-.29-6.24-.86l2.02-6.24c1.15,.38,2.33,.58,3.55,.58,.83,0,1.47-.18,1.92-.53,.45-.35,.8-.98,1.06-1.87l.38-1.06-9.02-24.86h8.54Z" style="fill: #98c9f1;"/>
          <circle id="rotation-bounds" cx="150" cy="96.5" r="173.93" style="fill: none;"/>
        </g>
        <g id="black-center">
          <path id="black" d="M79.36,91.41c1.79,1.22,4.58,1.82,8.35,1.82,6.08,0,10.66-1.23,13.73-3.7,3.07-2.46,4.61-5.71,4.61-9.74,0-2.05-.54-3.61-1.63-4.7-1.09-1.09-2.66-1.63-4.7-1.63-.7,0-1.46,.1-2.26,.29-.8,.19-1.33,.32-1.58,.38-1.28,.38-2.14,.58-2.59,.58-.38,0-.58-.16-.58-.48,0-.26,.22-.56,.67-.91,.45-.35,.96-.69,1.54-1.01,1.79-1.15,3.18-2.21,4.18-3.17,.99-.96,1.49-2.24,1.49-3.84,0-1.92-.66-3.44-1.97-4.56-1.31-1.12-3.25-1.68-5.81-1.68-2.69,0-5.18,.53-7.49,1.58s-4.14,2.3-5.52,3.74c-1.38,1.44-2.06,2.64-2.06,3.6,0,.9,.38,1.34,1.15,1.34,.58,0,2.27-.38,5.09-1.15,3.07-1.02,5.25-1.54,6.53-1.54,1.22,0,1.82,.54,1.82,1.63,0,1.15-.42,2.5-1.25,4.03-.58,.9-.86,1.6-.86,2.11,0,1.02,.51,1.54,1.54,1.54,.51,0,.96-.05,1.34-.14,.38-.1,.77-.14,1.15-.14,.83,0,1.25,.64,1.25,1.92,0,3.78-.7,7.15-2.11,10.13-1.41,2.98-3.23,4.46-5.47,4.46-1.98,0-2.98-.96-2.98-2.88,0-.7,.16-1.54,.48-2.5,.32-.96,.67-1.89,1.06-2.78,.58-1.34,1.01-2.53,1.3-3.55,.29-1.02,.43-2.05,.43-3.07,0-2.17-.35-3.95-1.06-5.33-.7-1.38-1.44-2.06-2.21-2.06-.38,0-.72,.13-1.01,.38-.29,.26-.43,.58-.43,.96,0,.77,.54,1.57,1.63,2.4,.64,.58,1.12,1.07,1.44,1.49,.32,.42,.48,.91,.48,1.49,0,.7-.32,1.3-.96,1.78-.64,.48-1.7,1.07-3.17,1.78-1.98,.96-3.52,1.89-4.61,2.78-1.09,.9-1.63,2.11-1.63,3.65,0,1.92,.9,3.49,2.69,4.7Zm36.1-34.46c1.15,0,2.21,.16,3.17,.48-1.6,10.94-2.4,20.45-2.4,28.51-2.56-.96-4.43-2.56-5.62-4.8-1.18-2.24-1.78-5.92-1.78-11.04,0-8.77,2.21-13.15,6.62-13.15Zm-.53,29.95c1.95,.64,4.08,.99,6.38,1.06-.06,1.47-.56,2.69-1.49,3.65-.93,.96-2.29,1.44-4.08,1.44-1.98,0-3.57-.62-4.75-1.87-1.19-1.25-1.78-3.02-1.78-5.33,0-1.09,.06-1.92,.19-2.5,1.73,1.73,3.57,2.91,5.52,3.55Zm10.9-6.96c2.18-1.63,5.82-2.67,10.94-3.12v-1.25c0-1.6-.96-2.4-2.88-2.4-1.09,0-2.24,.19-3.46,.58-1.22,.38-2.72,.99-4.51,1.82l-2.78-5.86c4.22-2.11,7.97-3.17,11.23-3.17,3.65,0,6.32,.82,8.02,2.45,1.7,1.63,2.54,3.92,2.54,6.86v9.5c0,1.09,.61,1.63,1.82,1.63v5.47c-2.82,0-4.86-.21-6.14-.62-1.28-.42-2.3-1.3-3.07-2.64-1.09,1.28-2.21,2.22-3.36,2.83-1.15,.61-2.56,.91-4.22,.91-2.18,0-3.95-.61-5.33-1.82-1.38-1.21-2.06-2.82-2.06-4.8,0-2.62,1.09-4.75,3.26-6.38Zm5.42,6.62c.48,.42,1.07,.62,1.78,.62,1.41,0,2.66-.54,3.74-1.63v-4.32c-1.92,.13-3.44,.51-4.56,1.15-1.12,.64-1.68,1.5-1.68,2.59,0,.64,.24,1.17,.72,1.58Zm21.5-16.42c2.46-2.4,5.58-3.6,9.36-3.6,1.47,0,2.99,.26,4.56,.77,1.57,.51,2.99,1.34,4.27,2.5l-3.84,5.28c-1.34-1.15-2.91-1.73-4.7-1.73-1.34,0-2.53,.54-3.55,1.63-1.02,1.09-1.54,2.66-1.54,4.7,0,2.11,.51,3.74,1.54,4.9,1.02,1.15,2.21,1.73,3.55,1.73,1.6,0,3.07-.61,4.42-1.82l4.32,4.8c-2.75,2.43-5.76,3.65-9.02,3.65-3.78,0-6.9-1.2-9.36-3.6-2.46-2.4-3.7-5.62-3.7-9.65,0-3.97,1.23-7.15,3.7-9.55Zm21.46-12.62h8.26v19.87s8.45-10.18,8.45-10.18h8.26s-7.78,9.02-7.78,9.02l8.06,16.13h-9.41s-4.13-9.7-4.13-9.7l-3.46,4.03v5.66h-8.26V57.52Z" style="fill: #98c9f1;"/>
          <circle id="rotation-bounds-2" data-name="rotation-bounds" cx="150" cy="96.5" r="173.93" style="fill: none;"/>
        </g>
      </g>
      <circle id="rotation-bounds-3" data-name="rotation-bounds" cx="150" cy="96.5" r="173.93" style="fill: none;"/>
    </g>
  </g>
</svg>