<?xml version="1.0" encoding="utf-8"?>
<!-- Generator: Adobe Illustrator 26.5.0, SVG Export Plug-In . SVG Version: 6.00 Build 0)  -->
<svg version="1.1" id="intro-svg" xmlns="http://www.w3.org/2000/svg" xmlns:xlink="http://www.w3.org/1999/xlink" x="0px" y="0px"
	 viewBox="0 0 300 193" style="enable-background:new 0 0 300 193;" xml:space="preserve">
<style type="text/css">
	.st0{fill:url(#blend_00000018206130785745340540000003656570278684298155_);}
	.st1{fill:#98C9F1;}
	.st2{fill:none;}
</style>
<g id="rotation1">
	<g id="rotation0">
		<g id="center-logo">
			
				<radialGradient id="blend_00000074424719884161980080000017572407341636148925_" cx="147.0562" cy="1716.2312" r="54.6341" gradientTransform="matrix(1 0 0 0.54 0 -830.33)" gradientUnits="userSpaceOnUse">
				<stop  offset="0.8" style="stop-color:#130C0E"/>
				<stop  offset="0.8" style="stop-color:#130C0E;stop-opacity:0.96"/>
				<stop  offset="0.91" style="stop-color:#130C0E;stop-opacity:0.25"/>
				<stop  offset="1" style="stop-color:#130C0E;stop-opacity:0"/>
			</radialGradient>
			
				<ellipse id="blend" style="fill:url(#blend_00000074424719884161980080000017572407341636148925_);" cx="147.1" cy="96.5" rx="54.6" ry="29.6"/>
			<g id="friday-center">
				<path id="friday" class="st1" d="M117.5,108.6l-7.8-9h15.2v6.8l-7.2-6.5v6.8h5.3v5.2l-5.3-5v11.9l-8-10L117.5,108.6L117.5,108.6
					z M126.4,103.4h4.1l0.3,2c0.5-0.9,1.1-1.5,1.7-1.9c0.7-0.4,1.3-0.5,2.1-0.5c0.2,0,0.7,0.1,1.5,0.2l-0.5,4.2
					c-0.8-0.2-1.4-0.3-2-0.3c-1.2,0-2.2,0.7-2.8,2.1v8h-4.5L126.4,103.4L126.4,103.4z M138.2,98.3c0.5-0.4,1.1-0.6,1.9-0.6
					c0.8,0,1.4,0.2,1.9,0.5c0.5,0.4,0.7,0.9,0.7,1.6s-0.2,1.3-0.7,1.7c-0.5,0.4-1.1,0.6-1.9,0.6c-0.8,0-1.4-0.2-1.9-0.6
					c-0.5-0.4-0.7-1-0.7-1.7C137.5,99.2,137.7,98.7,138.2,98.3L138.2,98.3z M137.8,103.4h4.5v13.8h-4.5
					C137.8,117.1,137.8,103.4,137.8,103.4z M145.7,104.8c0.9-1.2,2.2-1.8,3.8-1.8c0.7,0,1.4,0.2,2,0.5c0.7,0.3,1.2,0.8,1.6,1.3v-6.7
					h4.5v19h-3.9l-0.3-1.6c-1.1,1.2-2.5,1.9-4.1,1.9c-1.5,0-2.7-0.6-3.6-1.9c-0.9-1.3-1.4-3.1-1.4-5.4
					C144.4,107.8,144.8,106,145.7,104.8L145.7,104.8z M149.4,113c0.3,0.7,0.9,1,1.5,1c0.9,0,1.6-0.3,2.1-0.9v-5.7
					c-0.5-0.7-1.3-0.9-2.1-0.9c-1.4,0-2,1.2-2,3.6C148.9,111.3,149.1,112.3,149.4,113L149.4,113z M161.4,110.3
					c1.2-0.9,3.2-1.4,5.9-1.6v-0.8c0-0.9-0.5-1.3-1.6-1.3c-0.6,0-1.2,0.1-1.9,0.3c-0.7,0.2-1.5,0.5-2.5,1l-1.5-3.2
					c2.1-1.1,4.1-1.7,6.1-1.7c2,0,3.5,0.4,4.4,1.4c1,0.9,1.4,2.1,1.4,3.7v5.3c0,0.5,0.3,0.8,0.9,0.8v3.1c-1.5,0-2.6-0.1-3.2-0.3
					c-0.7-0.2-1.3-0.7-1.7-1.4c-0.5,0.7-1.1,1.1-1.8,1.5c-0.7,0.3-1.5,0.5-2.3,0.5c-1.2,0-2.1-0.3-2.9-1c-0.8-0.7-1.1-1.5-1.1-2.6
					C159.7,112.4,160.2,111.2,161.4,110.3L161.4,110.3z M164.4,114c0.2,0.2,0.6,0.3,1,0.3c0.8,0,1.5-0.3,2-0.9V111
					c-1,0.1-1.9,0.3-2.5,0.7s-0.9,0.9-0.9,1.5C164,113.5,164.1,113.8,164.4,114L164.4,114z M177.9,103.4l2.5,8.1h0.1l2.5-8.1h4.4
					l-4.6,13.5c-0.8,2.2-1.6,3.7-2.5,4.4c-0.9,0.8-2.1,1.1-3.5,1.1c-1.1,0-2.3-0.2-3.4-0.5l1.1-3.4c0.6,0.2,1.3,0.3,2,0.3
					c0.4,0,0.8-0.1,1-0.3s0.4-0.5,0.6-1l0.2-0.6l-4.9-13.6L177.9,103.4L177.9,103.4z"/>
				<circle id="rotation-bounds" class="st2" cx="150" cy="96.5" r="94.8"/>
			</g>
			<g id="black-center">
				<path id="black" class="st1" d="M111.5,93.7c1,0.7,2.5,1,4.5,1c3.3,0,5.8-0.7,7.5-2c1.7-1.4,2.5-3.1,2.5-5.3
					c0-1.1-0.3-2-0.9-2.6c-0.6-0.6-1.5-0.9-2.6-0.9c-0.4,0-0.8,0.1-1.3,0.2c-0.4,0.1-0.7,0.2-0.9,0.2c-0.7,0.2-1.1,0.3-1.4,0.3
					c-0.2,0-0.3-0.1-0.3-0.3s0.1-0.3,0.4-0.5c0.2-0.2,0.5-0.4,0.8-0.5c1-0.7,1.7-1.2,2.3-1.7c0.5-0.5,0.8-1.2,0.8-2.1
					c0-1-0.4-1.9-1.1-2.5c-0.7-0.6-1.7-0.9-3.2-0.9c-1.5,0-2.8,0.3-4.1,0.9c-1.3,0.6-2.2,1.3-3,2s-1.1,1.4-1.1,2
					c0,0.5,0.2,0.7,0.7,0.7c0.3,0,1.3-0.2,2.8-0.7c1.7-0.5,2.8-0.8,3.5-0.8c0.7,0,1,0.3,1,0.9c0,0.7-0.2,1.4-0.7,2.2
					c-0.3,0.5-0.5,0.9-0.5,1.1c0,0.5,0.3,0.8,0.8,0.8c0.3,0,0.5-0.1,0.7-0.1c0.2-0.1,0.4-0.1,0.7-0.1c0.4,0,0.7,0.3,0.7,1
					c0,2.1-0.4,3.9-1.1,5.5c-0.8,1.6-1.7,2.5-3,2.5c-1.1,0-1.6-0.5-1.6-1.6c0-0.4,0.1-0.8,0.3-1.4c0.2-0.5,0.4-1,0.6-1.5
					c0.3-0.7,0.5-1.4,0.7-2c0.2-0.5,0.2-1.1,0.2-1.7c0-1.2-0.2-2.1-0.6-2.9c-0.4-0.8-0.8-1.1-1.2-1.1c-0.2,0-0.4,0.1-0.5,0.2
					s-0.2,0.3-0.2,0.5c0,0.4,0.3,0.9,0.9,1.3c0.3,0.3,0.6,0.6,0.8,0.8c0.2,0.2,0.3,0.5,0.3,0.8c0,0.4-0.2,0.7-0.5,1
					c-0.3,0.3-0.9,0.6-1.7,1c-1.1,0.5-1.9,1-2.5,1.5c-0.6,0.5-0.9,1.1-0.9,2C110,92.2,110.5,93.1,111.5,93.7L111.5,93.7z M131.2,75
					c0.7,0,1.2,0.1,1.7,0.3c-0.9,5.9-1.3,11.2-1.3,15.5c-1.4-0.5-2.4-1.4-3.1-2.6c-0.7-1.2-1-3.2-1-6
					C127.5,77.3,128.7,74.9,131.2,75L131.2,75z M130.9,91.3c1,0.3,2.2,0.5,3.5,0.6c-0.1,0.8-0.3,1.5-0.8,2c-0.5,0.5-1.3,0.8-2.2,0.8
					c-1.1,0-2-0.3-2.6-1c-0.7-0.7-1-1.6-1-2.9c0-0.6,0.1-1,0.1-1.4C128.8,90.3,129.8,90.9,130.9,91.3L130.9,91.3z M136.8,87.5
					c1.2-0.9,3.2-1.5,5.9-1.7v-0.7c0-0.9-0.5-1.3-1.6-1.3c-0.6,0-1.2,0.1-1.9,0.3c-0.7,0.2-1.5,0.5-2.5,1l-1.5-3.2
					c2.3-1.1,4.4-1.7,6.1-1.7c2,0,3.4,0.4,4.4,1.3c0.9,0.9,1.4,2.1,1.4,3.8v5.2c0,0.6,0.3,0.9,1,0.9v3c-1.5,0-2.7-0.1-3.3-0.3
					c-0.7-0.2-1.3-0.7-1.7-1.4c-0.6,0.7-1.2,1.2-1.9,1.5c-0.7,0.3-1.4,0.5-2.3,0.5c-1.2,0-2.1-0.3-2.9-1c-0.8-0.7-1.1-1.5-1.1-2.6
					C135.1,89.5,135.7,88.4,136.8,87.5L136.8,87.5z M139.8,91.1c0.3,0.2,0.6,0.3,1,0.3c0.8,0,1.5-0.3,2-0.9v-2.3
					c-1,0.1-1.9,0.3-2.5,0.7c-0.7,0.4-0.9,0.8-0.9,1.4C139.4,90.6,139.5,90.8,139.8,91.1L139.8,91.1z M151.5,82.1
					c1.4-1.3,3.1-2,5.1-2c0.8,0,1.6,0.2,2.5,0.4c0.9,0.3,1.6,0.7,2.3,1.4l-2.1,2.9c-0.7-0.7-1.6-0.9-2.6-0.9c-0.7,0-1.4,0.3-2,0.9
					s-0.8,1.5-0.8,2.6c0,1.1,0.3,2,0.8,2.7c0.5,0.7,1.2,0.9,2,0.9c0.9,0,1.7-0.3,2.4-1l2.3,2.6c-1.5,1.3-3.2,2-4.9,2
					c-2.1,0-3.8-0.7-5.1-2c-1.4-1.3-2-3.1-2-5.3C149.5,85.2,150.2,83.5,151.5,82.1L151.5,82.1z M163.2,75.2h4.5v10.8l4.6-5.6h4.5
					l-4.3,4.9l4.4,8.8h-5.2l-2.2-5.3l-1.9,2.2v3.1h-4.5L163.2,75.2L163.2,75.2z"/>
				<circle id="rotation-bounds-2" class="st2" cx="150" cy="96.5" r="94.8"/>
			</g>
		</g>
		<circle id="rotation-bounds-3" class="st2" cx="150" cy="96.5" r="173.9"/>
	</g>
</g>
</svg>
