<?xml version="1.0" encoding="UTF-8"?>
<svg id="headline-svg" xmlns="http://www.w3.org/2000/svg" viewBox="0 0 960 960">
  <g id="center-logo">
    <g id="friday-center">
      <path id="friday" d="M313.99,236.75l-42.29-49.05h82.5v36.67l-39.02-35.48v36.94h28.99v28.38l-28.99-27.2v64.48l-43.47-54.41,42.29-.29h0v-.05h0Zm48.2-28.43h22.46l1.74,10.93c2.98-5.02,5.92-8.27,9.46-10.31s7.1-2.98,11.26-2.98c.9,0,3.55,.29,8,.9l-2.65,22.75c-4.16-.9-7.71-1.47-10.64-1.47-6.48,0-11.82,3.84-15.37,11.26v43.47h-24.56l.29-74.5h0v-.05h0Zm63.86-27.6c2.65-2.08,5.92-3.26,10.03-3.26,4.45,0,7.71,.9,10.31,2.98s3.84,5.02,3.84,8.85-1.18,7.1-3.84,9.18c-2.65,2.08-5.92,3.26-10.31,3.26-4.16,0-7.43-1.18-10.03-3.26-2.65-2.08-3.84-5.29-3.84-9.18,0-3.55,1.18-6.48,3.84-8.56h0Zm-1.74,27.47h24.56v74.79h-24.56v-74.79Zm42.57,8c5.02-6.48,11.82-9.74,20.43-9.74,3.84,0,7.43,.9,10.93,2.65,3.5,1.74,6.48,4.16,8.56,7.1v-36.04h24.56v102.89h-21.29l-1.47-8.56c-6.19,6.48-13.29,10.03-22.19,10.03-8.27,0-14.76-3.26-19.49-10.03-5.02-6.81-7.43-16.56-7.43-29.28,.29-13.01,2.65-22.46,7.43-28.99h-.05Zm20.11,44.03c1.74,3.84,4.73,5.58,8.27,5.58,4.73,0,8.56-1.74,11.54-5.02v-30.75c-2.98-3.55-6.81-5.02-11.54-5.02-7.43,0-10.93,6.48-10.93,19.49,0,6.81,.9,11.82,2.65,15.66h0v.05h.01Zm65.33-14.48c6.48-4.73,17.17-7.71,32.22-8.85v-4.16c0-4.73-2.98-7.1-8.85-7.1-3.26,0-6.48,.57-10.03,1.74s-8,2.98-13.29,5.58l-8.27-17.46c11.26-6.19,22.46-9.46,32.83-9.46s18.92,2.37,23.93,7.43c5.29,5.02,7.71,11.54,7.71,19.82v28.67c0,2.98,1.47,4.45,4.73,4.45v16.56c-8,0-13.91-.57-17.46-1.74-3.84-1.18-6.81-3.84-9.46-7.71-2.98,3.55-6.19,6.19-9.74,8s-8,2.65-12.72,2.65c-6.48,0-11.54-1.74-15.66-5.29s-6.19-8.27-6.19-14.19c.9-7.71,3.84-14.19,10.31-18.92h-.03Zm15.99,20.1c1.18,1.18,3.26,1.74,5.29,1.74,4.45,0,8-1.74,10.93-5.02v-13.01c-5.58,.29-10.03,1.47-13.58,3.55s-5.02,4.73-5.02,8.27c.29,1.74,.9,3.55,2.37,4.45h0Zm73.05-57.61l13.29,43.76h.29l13.58-43.76h23.93l-24.83,73.05c-4.16,11.82-8.56,19.82-13.58,23.93s-11.26,6.19-18.92,6.19c-6.19,0-12.45-.9-18.3-2.65l5.92-18.3c3.26,1.18,6.81,1.74,10.64,1.74,2.37,0,4.45-.57,5.58-1.47s2.37-2.98,3.26-5.58l1.18-3.26-26.59-73.61h24.5l.05-.05h.01Z" style="fill: #98c9f1;"/>
    </g>
    <g id="black-center">
      <path id="black" d="M281.43,155.99c5.29,3.55,13.58,5.29,24.56,5.29,18.03,0,31.61-3.55,40.49-10.93,9.18-7.43,13.58-16.84,13.58-28.67,0-6.19-1.47-10.64-4.73-13.91s-8-4.73-13.91-4.73c-2.08,0-4.45,.29-6.81,.9s-3.84,.9-4.73,1.18c-3.84,1.18-6.19,1.74-7.71,1.74-1.18,0-1.74-.57-1.74-1.47s.57-1.74,2.08-2.65c1.18-.9,2.98-2.08,4.45-2.98,5.29-3.55,9.46-6.48,12.45-9.46s4.45-6.48,4.45-11.26c0-5.58-2.08-10.03-5.92-13.58-3.84-3.26-9.46-5.02-17.17-5.02s-15.37,1.47-22.19,4.73c-6.81,3.26-12.11,6.81-16.27,10.93s-5.92,7.71-5.92,10.64c0,2.65,1.18,3.84,3.55,3.84,1.74,0,6.81-1.18,15.09-3.55,9.18-2.98,15.37-4.45,19.21-4.45,3.55,0,5.29,1.47,5.29,4.73,0,3.55-1.18,7.43-3.55,11.82-1.74,2.65-2.65,4.73-2.65,6.19,0,2.98,1.47,4.45,4.45,4.45,1.47,0,2.98-.29,3.84-.29,1.18-.29,2.37-.29,3.55-.29,2.37,0,3.55,1.74,3.55,5.58,0,11.26-2.08,21.29-6.19,29.85-4.16,8.85-9.46,13.29-16.27,13.29-5.92,0-8.85-2.98-8.85-8.56,0-2.08,.57-4.45,1.47-7.43s2.08-5.58,3.26-8.27c1.74-3.84,2.98-7.43,3.84-10.64,.9-2.98,1.18-6.19,1.18-9.18,0-6.48-.9-11.54-3.26-15.66-2.08-4.16-4.16-6.19-6.48-6.19-1.18,0-2.08,.29-2.98,1.18s-1.18,1.74-1.18,2.98c0,2.37,1.47,4.73,4.73,7.1,1.74,1.74,3.26,3.26,4.16,4.45s1.47,2.65,1.47,4.45c0,2.08-.9,3.84-2.98,5.29-1.74,1.47-5.02,3.26-9.46,5.29-5.92,2.98-10.31,5.58-13.58,8.27-3.26,2.69-4.73,6.19-4.73,10.93,.57,5.58,3.26,10.31,8.56,13.91h.09v.05l-.05,.05-.02,.05Zm106.72-101.7c3.55,0,6.48,.57,9.46,1.47-4.73,32.22-7.1,60.6-7.1,84.25-7.71-2.98-13.01-7.71-16.56-14.19-3.55-6.48-5.29-17.46-5.29-32.5-.29-26.3,6.19-39.31,19.49-39.02h-.01Zm-1.74,88.36c5.58,1.74,12.11,2.98,18.92,3.26-.29,4.45-1.74,8-4.45,10.93-2.69,2.94-6.81,4.16-12.11,4.16-5.92,0-10.64-1.74-14.19-5.58-3.55-3.55-5.29-8.85-5.29-15.66,0-3.26,.29-5.58,.57-7.43,5.29,5.02,10.93,8.56,16.56,10.31h0Zm32.22-20.71c6.48-4.73,17.17-8,32.22-9.18v-3.55c0-4.73-2.98-7.1-8.56-7.1-3.26,0-6.48,.57-10.31,1.74-3.55,1.18-8,2.98-13.29,5.29l-8.27-17.46c12.45-6.19,23.66-9.46,33.12-9.46,10.64,0,18.59,2.37,23.66,7.1s7.43,11.54,7.43,20.43v28.1c0,3.26,1.74,4.73,5.29,4.73v16.27c-8.27,0-14.48-.57-18.03-1.74-3.84-1.18-6.81-3.84-9.18-7.71-3.26,3.84-6.48,6.48-10.03,8.27-3.55,1.8-7.71,2.65-12.45,2.65-6.48,0-11.54-1.74-15.66-5.29-4.16-3.55-6.19-8.27-6.19-14.19,.9-7.71,4.16-13.91,10.31-18.92h-.06Zm15.99,19.88c1.47,1.18,3.26,1.74,5.29,1.74,4.16,0,8-1.47,10.93-4.73v-12.72c-5.58,.29-10.03,1.47-13.58,3.55s-5.02,4.45-5.02,7.71c.29,1.47,1.18,2.98,2.37,4.45h0Zm63.86-48.78c7.43-7.1,16.56-10.64,27.77-10.64,4.45,0,8.85,.9,13.58,2.37s8.85,3.84,12.72,7.43l-11.26,15.66c-3.84-3.55-8.56-5.02-13.91-5.02-3.84,0-7.43,1.47-10.64,4.73s-4.45,8-4.45,13.91,1.47,10.93,4.45,14.48,6.48,5.02,10.64,5.02c4.73,0,9.18-1.74,13.01-5.29l12.72,14.19c-8.27,7.1-17.17,10.93-26.59,10.93-11.26,0-20.43-3.55-27.77-10.64-7.34-7.1-10.93-16.56-10.93-28.67-.29-11.82,3.26-21.01,10.64-28.38h0v-.07Zm63.26-37.33h24.56v58.84l24.83-30.18h24.56l-23.04,26.59,23.93,47.59h-28.1l-12.11-28.67-10.31,11.82v16.84h-24.56l.29-102.89h0v.05h-.05v.02Z" style="fill: #98c9f1;"/>
    </g>
  </g>
</svg>