<?xml version="1.0" encoding="UTF-8"?>
<svg id="headline-svg" xmlns="http://www.w3.org/2000/svg" viewBox="0 0 960 960">
  <g id="button">
    <g>
      <path d="M394.6,702.99l3.28-2.3c.7,1.34,1.73,2.42,3.28,2.42,1.78,0,2.83-1.28,2.83-3.37v-14.36h4.44v14.41c0,4.83-2.78,7.38-6.96,7.38-3.13,0-5.37-1.56-6.87-4.19Z" style="fill: #fff;"/>
      <path d="M411.4,698.61c0-5.26,3.47-8.6,7.86-8.6s7.04,2.93,7.04,7.38c0,.7-.09,1.56-.17,2.14h-10.41c.26,2.75,1.52,4.14,3.89,4.14,1.58,0,3.07-.56,4.38-1.38l1.76,2.75c-1.87,1.44-4.06,2.17-6.43,2.17-4.56,0-7.92-3.22-7.92-8.6h0Zm4.44-1.73h6.37c0-2.11-.79-3.71-2.87-3.71-1.66,0-3.09,1.25-3.51,3.71Z" style="fill: #fff;"/>
      <path d="M430.23,701.7v-8.21h-2.42v-3.09h2.42v-4.13h4.33v4.13h4.32v3.09h-4.32v8.11c0,1.32,.47,1.99,1.55,1.99,.76,0,1.49-.31,2.04-.74l1.52,2.66c-1.26,1.01-2.87,1.65-4.59,1.65-3.36,0-4.85-1.72-4.85-5.48h0Z" style="fill: #fff;"/>
      <path d="M441.45,703.9l7.46-10.13h-7.22v-3.37h12.42v3.03l-7.34,10h7.65v3.37h-12.98v-2.91h0Z" style="fill: #fff;"/>
      <path d="M458.46,701.7v-8.21h-2.42v-3.09h2.42v-4.13h4.33v4.13h4.32v3.09h-4.32v8.11c0,1.32,.47,1.99,1.55,1.99,.76,0,1.49-.31,2.04-.74l1.52,2.66c-1.26,1.01-2.87,1.65-4.59,1.65-3.36,0-4.85-1.72-4.85-5.48h0Z" style="fill: #fff;"/>
      <path d="M476.43,705.49l1.61-3.09c1.46,.83,3.19,1.41,4.8,1.41s2.37-.58,2.37-1.56c0-1.23-1.38-1.56-3.01-1.99-2.37-.58-5.44-1.41-5.44-5.14,0-3.33,2.87-5.11,6.25-5.11,1.69,0,3.59,.36,5.75,1.41l-1.49,3.03c-1.46-.74-3.19-1.07-4.21-1.07-1.43,0-2.16,.61-2.16,1.56,0,1.19,1.35,1.53,2.95,1.93,2.37,.58,5.44,1.34,5.44,5.11,0,3.34-2.6,5.21-6.37,5.21-2.4,0-4.61-.65-6.49-1.68v-.02Z" style="fill: #fff;"/>
      <path d="M492.1,690.41h3.86l.35,2.05c1.14-1.47,2.69-2.42,4.53-2.42,3.62,0,6.05,2.84,6.05,8.39s-2.43,8.75-5.87,8.75c-1.95,0-3.45-.89-4.65-2.14v7.9h-4.27v-22.53Zm10.49,8.05c0-3.15-1.05-5.02-3.09-5.02-1.26,0-2.28,.67-3.13,1.65v7.1c.88,1.04,1.93,1.59,3.13,1.59,2.07,0,3.09-2.2,3.09-5.32Z" style="fill: #fff;"/>
      <path d="M508.92,702.9c0-3.49,2.78-5.54,9.12-6.03v-1.32c0-1.25-.7-1.99-2.19-1.99s-3.04,.58-5.03,1.59l-1.52-3.24c2.16-1.14,4.59-1.9,6.75-1.9,4.5,0,6.28,2.33,6.28,5.69v6.95c0,.85,.47,1.23,1.23,1.23v3c-2.92,0-4.21-.46-5.06-2.08-1.28,1.53-2.75,2.39-4.97,2.39-2.69,0-4.61-1.72-4.61-4.29h0Zm9.12-.35v-3.15c-2.54,.15-4.94,.89-4.94,2.91,0,1.04,.79,1.75,1.95,1.75,1.28,0,2.37-.67,2.98-1.5h0Z" style="fill: #fff;"/>
      <path d="M526.26,690.41h4l.29,2.45c1.2-2.24,2.78-2.93,4.5-2.93,.64,0,1.26,.12,1.78,.25l-.55,4.16c-.52-.18-1.23-.34-2.04-.34-1.61,0-2.75,.95-3.66,2.73v10.1h-4.32v-16.4h0Z" style="fill: #fff;"/>
      <path d="M537.99,698.61c0-5.26,3.47-8.6,7.86-8.6s7.04,2.93,7.04,7.38c0,.7-.09,1.56-.17,2.14h-10.41c.26,2.75,1.52,4.14,3.89,4.14,1.58,0,3.07-.56,4.38-1.38l1.76,2.75c-1.87,1.44-4.06,2.17-6.43,2.17-4.56,0-7.92-3.22-7.92-8.6h0Zm4.44-1.73h6.37c0-2.11-.79-3.71-2.87-3.71-1.66,0-3.09,1.25-3.51,3.71Z" style="fill: #fff;"/>
      <path d="M555.84,690.41h4.09l.21,1.96c1.2-1.28,2.87-2.35,4.88-2.35,3.54,0,4.88,2.17,4.88,5.88v10.92h-4.33v-11.05c0-1.44-.55-2.42-2.07-2.42-1.26,0-2.43,.7-3.33,1.9v11.57h-4.32v-16.4h0Z" style="fill: #fff;"/>
    </g>
    <path d="M376.73,667.87h211.95c7.97,0,14.43,6.77,14.43,15.11v28.37c0,8.35-6.46,15.11-14.43,15.11h-211.95c-7.97,0-14.43-6.77-14.43-15.11v-28.37c0-8.35,6.46-15.11,14.43-15.11Z" style="fill: none; stroke: #fff; stroke-miterlimit: 10; stroke-width: 5px;"/>
  </g>
  <g id="Ellipse_1" data-name="Ellipse 1">
    <ellipse cx="374" cy="532.14" rx="102.43" ry="102.1" style="fill: #9ac9ec;"/>
  </g>
  <g>
    <path d="M310.69,502.64h10.44c6.05,0,8.78,2.73,8.78,6.55,0,2.65-1.49,4.39-3.89,5.39,2.73,.75,4.81,2.65,4.81,5.8,0,4.48-3.65,6.96-9.2,6.96h-10.94s0-24.7,0-24.7Zm10.03,10.44c2.57,0,3.81-1.24,3.81-3.15s-1.24-3.07-3.81-3.07h-4.64v6.22h4.64Zm.83,10.03c2.49,0,3.98-1.08,3.98-3.31,0-2.07-1.66-3.23-3.98-3.23h-5.47v6.55h5.47Z" style="fill: #020202;"/>
    <path d="M333.56,503.22c0-1.82,1.24-2.82,3.07-2.82s3.07,.99,3.07,2.82-1.24,2.82-3.07,2.82-3.07-.99-3.07-2.82Zm.5,5.14h5.22v18.89h-5.22v-18.89Z" style="fill: #020202;"/>
    <path d="M342.51,525.84l1.91-3.56c1.74,.99,3.89,1.66,5.8,1.66s2.9-.66,2.9-1.82c0-1.41-1.66-1.82-3.65-2.32-2.9-.66-6.55-1.66-6.55-5.88,0-3.81,3.48-5.88,7.54-5.88,2.07,0,4.39,.41,6.96,1.66l-1.82,3.48c-1.74-.83-3.89-1.24-5.14-1.24-1.74,0-2.65,.66-2.65,1.82,0,1.41,1.66,1.74,3.56,2.24,2.9,.66,6.55,1.57,6.55,5.88,0,3.81-3.15,5.97-7.71,5.97-2.9,0-5.55-.75-7.87-1.91l.17-.08Z" style="fill: #020202;"/>
    <path d="M367.79,524.02l9.03-11.68h-8.78v-3.89h15.08v3.48l-8.87,11.52h9.28v3.89h-15.75v-3.31Z" style="fill: #020202;"/>
    <path d="M387.51,520.95v-12.6h5.22v12.68c0,1.66,.58,2.82,2.49,2.82,1.57,0,2.9-.83,4.06-2.15v-13.34h5.22v18.89h-4.89l-.33-2.24c-1.41,1.41-3.48,2.65-5.88,2.65-4.31,0-5.97-2.49-5.97-6.8l.08,.08Z" style="fill: #020202;"/>
    <path d="M408.98,508.44h4.97l.25,2.07c1.49-1.41,3.65-2.49,5.64-2.49,2.65,0,4.14,1.08,4.89,2.82,1.82-1.74,3.89-2.82,6.3-2.82,3.98,0,5.72,2.57,5.72,6.63v12.68h-5.22v-12.85c0-1.66-.75-2.65-2.24-2.65-1.33,0-2.65,.66-3.81,1.99v13.51h-5.22v-12.85c0-1.74-.66-2.65-2.24-2.65-1.41,0-2.82,.83-3.81,2.07v13.43h-5.22s0-18.89,0-18.89Z" style="fill: #020202;"/>
    <path d="M329.01,563.13c-.25-7.13,4.48-9.53,8.12-11.35,2.4-1.16,4.39-2.15,4.39-4.23,0-1.74-1.24-2.98-3.89-2.98-2.24,0-4.56,1.16-6.38,2.65l-2.65-3.4c2.49-2.15,5.88-3.56,9.36-3.56,5.72,0,8.78,3.23,8.78,7.13,0,4.72-3.81,6.55-7.21,8.12-2.9,1.33-5.55,2.57-5.55,5.64h12.43v4.23h-17.4v-2.24Z" style="fill: #020202;"/>
    <path d="M350.47,558.74c0-3.15,2.24-5.39,5.22-6.38-2.4-.91-4.23-2.73-4.23-5.39,0-4.31,3.81-6.88,8.87-6.88s8.95,2.49,8.95,6.88c0,2.57-1.82,4.48-4.23,5.39,2.9,.99,5.22,3.23,5.22,6.38,0,4.48-4.14,6.96-9.86,6.96s-9.86-2.49-9.86-6.96h-.08Zm14.5-.33c0-2.07-2.07-3.65-4.64-4.06-2.57,.41-4.64,1.91-4.64,4.06s1.99,3.56,4.64,3.56,4.64-1.41,4.64-3.56Zm-.75-11.44c0-1.91-1.66-3.15-3.89-3.15s-3.89,1.33-3.89,3.15,1.57,3.23,3.89,3.56c2.4-.33,3.89-1.66,3.89-3.56Z" style="fill: #020202;"/>
    <path d="M376.41,562.55c0-1.82,1.33-3.15,3.15-3.15s3.15,1.33,3.15,3.15-1.41,3.15-3.15,3.15-3.15-1.24-3.15-3.15Z" style="fill: #020202;"/>
    <path d="M390.58,545.81l-5.39,2.32-1.74-3.73,8.62-3.73h3.89v24.7h-5.39v-19.56Z" style="fill: #020202;"/>
    <path d="M407.15,545.81l-5.39,2.32-1.74-3.73,8.62-3.73h3.89v24.7h-5.39v-19.56Z" style="fill: #020202;"/>
    <path d="M417.84,562.55c0-1.82,1.33-3.15,3.15-3.15s3.15,1.33,3.15,3.15-1.41,3.15-3.15,3.15-3.15-1.24-3.15-3.15Z" style="fill: #020202;"/>
  </g>
</svg>