<?xml version="1.0" encoding="UTF-8"?>
<svg id="teaser-svg" xmlns="http://www.w3.org/2000/svg" viewBox="0 0 24.73 24.64">
  <g id="Ellipse_1">
    <ellipse cx="12.36" cy="12.32" rx="12.36" ry="12.32" style="fill: #9ac9ec; stroke-width: 0px;"/>
  </g>
  <g>
    <path d="m4.8,8.44h1.25c.72,0,1.04.33,1.04.79,0,.32-.18.53-.46.64.33.09.57.32.57.69,0,.54-.43.84-1.09.84h-1.31v-2.96Zm1.19,1.25c.3,0,.46-.15.46-.38s-.15-.37-.46-.37h-.55v.75h.55Zm.1,1.21c.3,0,.48-.13.48-.4,0-.25-.2-.38-.48-.38h-.65v.79h.65Z" style="fill: #231f20; stroke-width: 0px;"/>
    <path d="m7.59,8.51c0-.22.15-.33.36-.33s.37.12.37.33-.15.33-.37.33-.36-.12-.36-.33Zm.06.62h.63v2.27h-.63v-2.27Z" style="fill: #231f20; stroke-width: 0px;"/>
    <path d="m8.65,11.22l.23-.43c.21.11.46.19.69.19s.34-.08.34-.22c0-.17-.2-.22-.44-.27-.34-.08-.79-.19-.79-.71,0-.46.41-.71.9-.71.25,0,.52.05.83.19l-.22.42c-.21-.1-.46-.15-.61-.15-.21,0-.31.08-.31.22,0,.16.19.21.43.27.34.08.79.19.79.71,0,.46-.38.72-.92.72-.35,0-.67-.09-.94-.23Z" style="fill: #231f20; stroke-width: 0px;"/>
    <path d="m11.84,11l1.08-1.4h-1.04v-.46h1.8v.42l-1.06,1.38h1.11v.46h-1.88v-.4Z" style="fill: #231f20; stroke-width: 0px;"/>
    <path d="m14.11,10.64v-1.5h.63v1.52c0,.2.07.34.3.34.19,0,.35-.1.49-.26v-1.6h.62v2.27h-.58l-.04-.27c-.17.17-.42.32-.7.32-.51,0-.71-.3-.71-.81Z" style="fill: #231f20; stroke-width: 0px;"/>
    <path d="m16.65,9.13h.6l.03.25c.18-.17.43-.3.68-.3.31,0,.49.13.59.33.22-.21.46-.33.75-.33.47,0,.68.31.68.8v1.52h-.62v-1.54c0-.2-.08-.32-.27-.32-.16,0-.32.08-.45.24,0,.05,0,.1,0,.15v1.47h-.63v-1.54c0-.21-.08-.32-.27-.32-.17,0-.34.1-.45.25v1.61h-.63v-2.27Z" style="fill: #231f20; stroke-width: 0px;"/>
    <path d="m7.13,15.64c-.03-.85.53-1.14.97-1.36.28-.14.52-.26.52-.51,0-.21-.15-.36-.46-.36-.27,0-.55.14-.76.31l-.32-.41c.3-.25.7-.42,1.12-.42.68,0,1.05.39,1.05.85,0,.57-.45.79-.86.98-.34.16-.66.31-.66.68h1.49v.5h-2.08v-.26Z" style="fill: #231f20; stroke-width: 0px;"/>
    <path d="m11.12,13.45h-1.53v-.51h2.18v.44l-1.12,2.51h-.69l1.17-2.45Z" style="fill: #231f20; stroke-width: 0px;"/>
    <path d="m11.89,15.57c0-.21.16-.38.38-.38s.38.16.38.38-.17.37-.38.37-.38-.15-.38-.37Z" style="fill: #231f20; stroke-width: 0px;"/>
    <path d="m13.56,13.56l-.65.27-.21-.45,1.03-.45h.47v2.96h-.65v-2.34Z" style="fill: #231f20; stroke-width: 0px;"/>
    <path d="m15.54,13.56l-.65.27-.21-.45,1.03-.45h.47v2.96h-.65v-2.34Z" style="fill: #231f20; stroke-width: 0px;"/>
    <path d="m16.87,15.57c0-.21.16-.38.38-.38s.38.16.38.38-.17.37-.38.37-.38-.15-.38-.37Z" style="fill: #231f20; stroke-width: 0px;"/>
  </g>
</svg>