<?xml version="1.0" encoding="UTF-8"?>
<svg id="headline-svg" xmlns="http://www.w3.org/2000/svg" viewBox="0 0 1200 1200">
  <path id="l1" d="m338.41,120.98h42.11c43.87,0,66.83,22.11,66.83,59.87s-21.41,61.95-66.83,61.95h-42.11s0-121.82,0-121.82Zm45.07,96.06c21.07,0,31.49-13.57,31.49-35.84s-11.31-34.46-31.49-34.46h-12.88v70.32h12.88v-.03Zm75.58-21.41c0-30.99,21.41-50.14,48.22-50.14s43.68,16.53,43.68,42.99c0,4.69-.69,10.27-1.39,13.92h-58.64c1.57,12.35,7.84,17.92,18.96,17.92,9.04,0,17.57-2.77,25.41-7.49l12.35,19.15c-11.84,8.88-25.23,13.07-40.22,13.07-26.61,0-48.38-17.92-48.38-49.42Zm32.19-10.45h30.11c.16-10.8-3.84-17.92-13.57-17.92-7.65,0-14.27,5.39-16.53,17.92Zm66.48,34.8c0-18.27,13.04-32.19,53.79-35.68v-5.04c0-6.08-3.84-9.04-10.96-9.04-8.35,0-17.07,2.96-29.95,9.23l-10.61-22.11c14.11-7.31,29.23-11.84,42.46-11.84,28.88,0,40.03,14.11,40.03,34.99v36.19c0,4,2.27,5.73,6.45,5.92v20.72c-19.84,0-28.03-2.08-34.3-12.19-7.65,9.04-15.84,13.92-28.88,13.92-16,0-28.03-9.92-28.03-25.07h0Zm53.79-3.12v-15.84c-13.57.69-23.31,5.23-23.31,14.27,0,4.88,3.65,8.19,9.39,8.19s10.8-2.96,13.92-6.61Zm51.39-105.47h31.49v131.39h-31.49V111.38Zm43.12,123.93l10.8-21.57c9.39,4.69,19.49,8,28.53,8,7.84,0,10.8-2.43,10.8-6.27,0-4.88-6.77-6.43-15.15-8.69-13.92-3.31-33.07-8-33.07-30.64,0-20.19,18.45-30.64,39.34-30.64,10.27,0,21.57,1.92,35.68,8.53l-10.45,20.72c-9.23-4.35-19.49-5.92-24.72-5.92-6.96,0-9.92,2.43-9.92,6.08,0,4.88,6.8,6.61,14.96,8.53,13.92,3.12,32.88,7.65,32.88,29.95,0,20.19-16.53,31.68-39.68,31.68-14.27,0-28.19-3.65-40.03-9.73l.03-.03Z" style="fill: #fff; stroke-width: 0px;"/>
  <path id="l0" d="m340.72,35.36h16.57v48.27h28.2v14.42h-44.77v-62.69Zm49.56,50.96c0-9.4,6.71-16.57,27.66-18.35v-2.6c0-3.14-1.97-4.66-5.65-4.66-4.29,0-8.77,1.51-15.41,4.75l-5.47-11.37c7.25-3.75,15.05-6.08,21.85-6.08,14.87,0,20.59,7.25,20.59,17.99v18.62c0,2.06,1.18,2.96,3.32,3.05v10.67c-10.22,0-14.42-1.08-17.65-6.26-3.93,4.66-8.16,7.16-14.87,7.16-8.25,0-14.42-5.11-14.42-12.9l.05-.02Zm27.66-1.6v-8.16c-6.98.36-12,2.69-12,7.34,0,2.51,1.88,4.2,4.84,4.2s5.56-1.51,7.16-3.41v.02Zm23.78,9.49l5.56-11.1c4.84,2.42,10.03,4.11,14.69,4.11,4.02,0,5.56-1.24,5.56-3.23,0-2.51-3.5-3.32-7.8-4.47-7.16-1.7-17.02-4.11-17.02-15.75,0-10.4,9.49-15.75,20.25-15.75,5.29,0,11.1.99,18.35,4.38l-5.38,10.67c-4.75-2.24-10.03-3.05-12.72-3.05-3.57,0-5.11,1.24-5.11,3.14,0,2.51,3.5,3.41,7.71,4.38,7.16,1.6,16.93,3.93,16.93,15.41,0,10.4-8.5,16.29-20.41,16.29-7.34,0-14.51-1.88-20.59-5.02l-.02-.02Zm51.19-12.36v-21.76h-7.07v-10.92h7.07v-11.19h16.11v11.19h12.9v10.92h-12.9v21.31c0,3.32,1.27,4.84,4.02,4.84,2.06,0,4.2-.9,5.74-1.97l5.47,9.58c-4.2,3.23-9.58,5.38-15.59,5.38-10.92,0-15.75-5.38-15.75-17.38Zm32.75-15.05h27.69v13.33h-27.69v-13.33Zm38.78-31.44h16.66l15.93,22.49,16.02-22.49h16.57v62.69h-15.5v-37.88l-17.11,22.31-17.02-22.31v37.88h-15.59v-62.69h.05Zm75.24,1.42c0-5.47,3.75-8.25,9.13-8.25s9.31,2.78,9.31,8.25-3.84,8.25-9.31,8.25-9.13-2.96-9.13-8.25Zm1.18,12.36h16.2v48.91h-16.2v-48.91Zm24.77,0h15.32l.72,5.38c3.5-3.5,8.34-6.44,14.24-6.44,10.83,0,14.87,6.17,14.87,17.56v32.43h-16.02v-32.86c0-3.23-1.42-5.38-5.02-5.38-2.78,0-5.74,1.69-7.98,4.38v33.85h-16.11v-48.91l-.02-.02Zm53.97,32.41v-32.41h16.02v32.86c0,3.23,1.33,5.38,4.93,5.38,2.96,0,5.74-1.69,8.07-4.38v-33.85h16.11v48.91h-15.14l-.9-5.38c-3.32,3.5-8.59,6.53-14.24,6.53-10.76,0-14.87-6.26-14.87-17.65h.02Zm58.08.27v-21.76h-7.07v-10.92h7.07v-11.19h16.11v11.19h12.9v10.92h-12.9v21.31c0,3.32,1.24,4.84,4.02,4.84,2.06,0,4.2-.9,5.74-1.97l5.47,9.58c-4.2,3.23-9.58,5.38-15.59,5.38-10.92,0-15.75-5.38-15.75-17.38Zm32.95-8.07c0-15.93,11.01-25.79,24.81-25.79s22.49,8.5,22.49,22.13c0,2.42-.36,5.29-.72,7.16h-30.17c.81,6.35,4.02,9.22,9.76,9.22,4.66,0,9.04-1.42,13.09-3.84l6.35,9.85c-6.1,4.57-12.99,6.71-20.68,6.71-13.7,0-24.91-9.22-24.91-25.43l-.02-.02Zm16.57-5.38h15.5c.09-5.56-1.97-9.22-6.98-9.22-3.93,0-7.34,2.78-8.5,9.22h-.02Z" style="fill: #98c9f1; stroke-width: 0px;"/>
</svg>