<?xml version="1.0" encoding="UTF-8"?>
<svg id="headline-svg" xmlns="http://www.w3.org/2000/svg" viewBox="0 0 1024 768">
  <path id="l1" d="m53.95,193.18h41.08c42.79,0,65.22,21.55,65.22,58.41s-20.89,60.47-65.22,60.47h-41.08v-118.88Zm43.98,93.77c20.54,0,30.74-13.24,30.74-34.96s-11.04-33.64-30.74-33.64h-12.58v68.61h12.58Zm73.75-20.89c0-30.21,20.89-48.91,47.06-48.91s42.62,16.14,42.62,41.96c0,4.57-.66,10.03-1.36,13.59h-57.22c1.54,12.05,7.65,17.5,18.52,17.5,8.84,0,17.15-2.73,24.8-7.3l12.05,18.69c-11.57,8.66-24.63,12.75-39.23,12.75-25.99,0-47.19-17.5-47.19-48.25l-.04-.04Zm31.4-10.2h29.38c.18-10.51-3.74-17.5-13.24-17.5-7.48,0-13.94,5.28-16.14,17.5Zm64.87,33.95c0-17.81,12.75-31.4,52.47-34.83v-4.93c0-5.94-3.74-8.84-10.69-8.84-8.14,0-16.62,2.9-29.2,9.02l-10.38-21.55c13.77-7.12,28.54-11.57,41.43-11.57,28.19,0,39.05,13.77,39.05,34.13v35.32c0,3.91,2.2,5.59,6.29,5.76v20.23c-19.35,0-27.36-2.02-33.47-11.87-7.48,8.84-15.44,13.59-28.19,13.59-15.61,0-27.36-9.68-27.36-24.45h.04Zm52.47-3.08v-15.44c-13.24.66-22.74,5.1-22.74,13.94,0,4.75,3.56,7.96,9.19,7.96s10.51-2.9,13.59-6.47h-.04Zm50.14-102.91h30.74v128.2h-30.74v-128.2Zm42.09,120.9l10.51-21.07c9.19,4.57,19.04,7.83,27.84,7.83,7.65,0,10.51-2.37,10.51-6.11,0-4.75-6.64-6.29-14.78-8.49-13.59-3.21-32.28-7.83-32.28-29.91,0-19.7,17.99-29.91,38.39-29.91,10.03,0,21.07,1.85,34.83,8.31l-10.2,20.23c-9.02-4.27-19.04-5.76-24.1-5.76-6.77,0-9.68,2.37-9.68,5.94,0,4.75,6.64,6.47,14.6,8.31,13.59,3.08,32.11,7.48,32.11,29.2,0,19.7-16.14,30.92-38.7,30.92-13.94,0-27.53-3.56-39.05-9.5Z" style="fill: #fff; stroke-width: 0px;"/>
  <g id="l0">
    <path d="m51.95,57.47h25.95l24.84,35.02,24.98-35.02h25.81v97.68h-24.14v-59.03l-26.65,34.75-26.51-34.75v59.03h-24.28V57.47Z" style="fill: #98c9f1; stroke-width: 0px;"/>
    <path d="m165.67,117.33c0-24.84,17.16-40.19,38.65-40.19s35.02,13.26,35.02,34.47c0,3.77-.56,8.23-1.12,11.16h-47.03c1.26,9.91,6.28,14.37,15.21,14.37,7.26,0,14.09-2.23,20.37-6l9.91,15.35c-9.49,7.12-20.23,10.47-32.23,10.47-21.35,0-38.79-14.37-38.79-39.63Zm25.82-8.37h24.14c.14-8.65-3.07-14.37-10.88-14.37-6.14,0-11.44,4.33-13.26,14.37Z" style="fill: #98c9f1; stroke-width: 0px;"/>
    <path d="m270.89,131.15c-1.12.84-1.81,1.95-1.81,3.21,0,2.79,3.35,4.05,16.47,4.47,24.28.7,37.12,6.98,37.12,21.91s-12.84,23.72-39.91,23.72c-23.58,0-38.51-6.28-38.51-19.54,0-7.12,3.07-12,9.77-15.63-2.79-3.35-4.05-6.98-4.05-10.33,0-5.3,2.51-10.47,7.54-13.81-6.14-4.75-10.19-11.72-10.19-20.51,0-16.33,13.95-27.49,33.49-27.49,8.65,0,16.33,2.23,22.05,6.28,5.16-3.63,12.14-5.86,21.77-5.86v14.79c-4.74,0-9.07.42-12.98,1.54,1.4,3.21,2.23,6.98,2.23,10.88,0,17.58-15.63,27.49-33.07,27.49-3.35,0-6.7-.42-9.91-1.12Zm11.86,39.21c12.7,0,17.3-1.67,17.3-5.58,0-3.63-3.49-5.02-16.33-5.3-5.3-.14-9.77-.7-13.68-1.54-1.95,1.54-3.07,3.63-3.07,6.14,0,4.19,4.05,6.28,15.77,6.28Zm7.95-65.58c0-7.26-3.91-11.86-9.91-11.86s-9.77,4.74-9.77,11.86,3.91,11.86,9.77,11.86,9.91-4.74,9.91-11.86Z" style="fill: #98c9f1; stroke-width: 0px;"/>
    <path d="m327.96,136.87c0-14.65,10.47-25.81,43.12-28.61v-4.05c0-4.88-3.07-7.26-8.79-7.26-6.7,0-13.68,2.37-24,7.4l-8.51-17.72c11.3-5.86,23.44-9.49,34.05-9.49,23.16,0,32.09,11.3,32.09,28.05v29.02c0,3.21,1.81,4.61,5.16,4.75v16.61c-15.91,0-22.47-1.67-27.49-9.77-6.14,7.26-12.7,11.16-23.16,11.16-12.84,0-22.47-7.95-22.47-20.09Zm43.12-2.51v-12.7c-10.88.56-18.7,4.19-18.7,11.44,0,3.91,2.93,6.56,7.54,6.56s8.65-2.37,11.16-5.3Z" style="fill: #98c9f1; stroke-width: 0px;"/>
  </g>
</svg>