<?xml version="1.0" encoding="UTF-8"?>
<svg id="headline-svg" xmlns="http://www.w3.org/2000/svg" viewBox="0 0 300 250">
  <path id="l1" d="m17.5,60.35h13.2c13.76,0,20.97,6.93,20.97,18.77s-6.72,19.44-20.97,19.44h-13.2v-38.21Zm14.14,30.14c6.6,0,9.88-4.26,9.88-11.24s-3.55-10.81-9.88-10.81h-4.04v22.05h4.04Zm23.71-6.72c0-9.71,6.72-15.72,15.13-15.72s13.7,5.19,13.7,13.49c0,1.47-.21,3.22-.44,4.37h-18.39c.49,3.87,2.46,5.63,5.95,5.63,2.84,0,5.51-.88,7.97-2.35l3.87,6.01c-3.72,2.79-7.92,4.1-12.61,4.1-8.36,0-15.17-5.63-15.17-15.51h-.01Zm10.09-3.28h9.44c.06-3.38-1.2-5.63-4.26-5.63-2.4,0-4.48,1.7-5.19,5.63Zm20.85,10.91c0-5.73,4.1-10.09,16.87-11.2v-1.58c0-1.91-1.2-2.84-3.44-2.84-2.62,0-5.34.93-9.39,2.9l-3.34-6.93c4.42-2.29,9.18-3.72,13.32-3.72,9.06,0,12.55,4.42,12.55,10.97v11.35c0,1.26.71,1.8,2.02,1.85v6.5c-6.22,0-8.79-.65-10.76-3.82-2.4,2.84-4.96,4.37-9.06,4.37-5.02,0-8.79-3.11-8.79-7.86h.01Zm16.87-.99v-4.96c-4.26.21-7.31,1.64-7.31,4.48,0,1.53,1.15,2.56,2.95,2.56s3.38-.93,4.37-2.08h-.01Zm16.12-33.08h9.88v41.21h-9.88v-41.21Zm13.53,38.86l3.38-6.77c2.95,1.47,6.12,2.52,8.95,2.52,2.46,0,3.38-.76,3.38-1.97,0-1.53-2.13-2.02-4.75-2.73-4.37-1.03-10.38-2.52-10.38-9.61,0-6.33,5.78-9.61,12.34-9.61,3.22,0,6.77.59,11.2,2.67l-3.28,6.5c-2.9-1.37-6.12-1.85-7.75-1.85-2.18,0-3.11.76-3.11,1.91,0,1.53,2.13,2.08,4.69,2.67,4.37.99,10.32,2.4,10.32,9.39,0,6.33-5.19,9.94-12.44,9.94-4.48,0-8.85-1.15-12.55-3.05Z" style="fill: #fff; stroke-width: 0px;"/>
  <g id="l0">
    <path d="m16.85,16.72h8.34l7.98,11.26,8.03-11.26h8.3v31.4h-7.76v-18.98l-8.57,11.17-8.52-11.17v18.98h-7.81v-31.4Z" style="fill: #98c9f1; stroke-width: 0px;"/>
    <path d="m53.41,35.97c0-7.99,5.52-12.92,12.43-12.92s11.26,4.26,11.26,11.08c0,1.21-.18,2.65-.36,3.59h-15.12c.4,3.19,2.02,4.62,4.89,4.62,2.33,0,4.53-.72,6.55-1.93l3.19,4.93c-3.05,2.29-6.5,3.36-10.36,3.36-6.86,0-12.47-4.62-12.47-12.74Zm8.3-2.69h7.76c.04-2.78-.99-4.62-3.5-4.62-1.97,0-3.68,1.39-4.26,4.62Z" style="fill: #98c9f1; stroke-width: 0px;"/>
    <path d="m87.23,40.41c-.36.27-.58.63-.58,1.03,0,.9,1.08,1.3,5.29,1.44,7.81.22,11.93,2.24,11.93,7.04s-4.13,7.63-12.83,7.63c-7.58,0-12.38-2.02-12.38-6.28,0-2.29.99-3.86,3.14-5.02-.9-1.08-1.3-2.24-1.3-3.32,0-1.7.81-3.36,2.42-4.44-1.97-1.53-3.27-3.77-3.27-6.59,0-5.25,4.49-8.84,10.77-8.84,2.78,0,5.25.72,7.09,2.02,1.66-1.17,3.9-1.88,7-1.88v4.75c-1.53,0-2.92.13-4.17.49.45,1.03.72,2.24.72,3.5,0,5.65-5.02,8.84-10.63,8.84-1.08,0-2.15-.13-3.19-.36Zm3.81,12.61c4.08,0,5.56-.54,5.56-1.79,0-1.17-1.12-1.61-5.25-1.7-1.7-.04-3.14-.22-4.4-.49-.63.49-.99,1.17-.99,1.97,0,1.35,1.3,2.02,5.07,2.02Zm2.56-21.08c0-2.33-1.26-3.81-3.19-3.81s-3.14,1.53-3.14,3.81,1.26,3.81,3.14,3.81,3.19-1.52,3.19-3.81Z" style="fill: #98c9f1; stroke-width: 0px;"/>
    <path d="m105.57,42.25c0-4.71,3.36-8.3,13.86-9.2v-1.3c0-1.57-.99-2.33-2.83-2.33-2.15,0-4.4.76-7.72,2.38l-2.74-5.7c3.63-1.88,7.54-3.05,10.95-3.05,7.45,0,10.32,3.63,10.32,9.02v9.33c0,1.03.58,1.48,1.66,1.52v5.34c-5.11,0-7.22-.54-8.84-3.14-1.97,2.33-4.08,3.59-7.45,3.59-4.13,0-7.22-2.56-7.22-6.46Zm13.86-.81v-4.08c-3.5.18-6.01,1.35-6.01,3.68,0,1.26.94,2.11,2.42,2.11s2.78-.76,3.59-1.7Z" style="fill: #98c9f1; stroke-width: 0px;"/>
  </g>
</svg>