<?xml version="1.0" encoding="UTF-8"?>
<svg id="headline-svg" xmlns="http://www.w3.org/2000/svg" viewBox="0 0 300 300">
  <g id="head">
    <path id="last-min" d="M20.36,17.68h8.28v24.14h14.1v7.21H20.36V17.68Zm24.78,25.48c0-4.7,3.36-8.28,13.83-9.18v-1.3c0-1.57-.98-2.33-2.82-2.33-2.15,0-4.38,.76-7.71,2.37l-2.73-5.68c3.63-1.88,7.53-3.04,10.93-3.04,7.44,0,10.29,3.63,10.29,8.99v9.31c0,1.03,.59,1.48,1.66,1.53v5.33c-5.11,0-7.21-.54-8.83-3.13-1.97,2.33-4.08,3.58-7.44,3.58-4.12,0-7.21-2.55-7.21-6.45h.02Zm13.83-.81v-4.08c-3.49,.18-6,1.34-6,3.67,0,1.25,.94,2.1,2.42,2.1s2.78-.76,3.58-1.71h0Zm11.89,4.76l2.78-5.55c2.42,1.21,5.02,2.06,7.34,2.06,2.01,0,2.78-.62,2.78-1.62,0-1.25-1.75-1.66-3.9-2.24-3.58-.85-8.51-2.06-8.51-7.88,0-5.2,4.75-7.88,10.12-7.88,2.64,0,5.55,.5,9.18,2.19l-2.69,5.33c-2.37-1.12-5.02-1.53-6.36-1.53-1.79,0-2.55,.62-2.55,1.57,0,1.25,1.75,1.71,3.85,2.19,3.58,.8,8.46,1.97,8.46,7.71,0,5.2-4.25,8.15-10.2,8.15-3.67,0-7.25-.94-10.29-2.51h-.01Zm25.59-6.19v-10.88h-3.54v-5.46h3.54v-5.59h8.06v5.59h6.45v5.46h-6.45v10.66c0,1.66,.63,2.42,2.01,2.42,1.03,0,2.1-.45,2.87-.98l2.73,4.79c-2.1,1.62-4.79,2.69-7.8,2.69-5.46,0-7.88-2.69-7.88-8.69Zm16.37-7.53h13.84v6.67h-13.84v-6.67Zm19.39-15.72h8.33l7.97,11.24,8.01-11.24h8.28v31.35h-7.75V30.09l-8.55,11.15-8.51-11.15v18.94h-7.8V17.68h.02Zm37.62,.71c0-2.73,1.88-4.12,4.57-4.12s4.66,1.39,4.66,4.12-1.92,4.12-4.66,4.12-4.57-1.48-4.57-4.12Zm.59,6.18h8.1v24.45h-8.1V24.58h0Zm12.38-.01h7.66l.36,2.69c1.75-1.75,4.17-3.22,7.12-3.22,5.41,0,7.44,3.08,7.44,8.78v16.22h-8.01v-16.43c0-1.62-.71-2.69-2.51-2.69-1.39,0-2.87,.85-3.99,2.19v16.93h-8.06V24.58h-.01Zm26.98,16.19V24.57h8.01v16.43c0,1.62,.67,2.69,2.46,2.69,1.48,0,2.87-.85,4.03-2.19V24.57h8.06v24.45h-7.57l-.45-2.69c-1.66,1.75-4.29,3.27-7.12,3.27-5.38,0-7.44-3.13-7.44-8.83h.01Zm29.04,.14v-10.88h-3.54v-5.46h3.54v-5.59h8.06v5.59h6.45v5.46h-6.45v10.66c0,1.66,.62,2.42,2.01,2.42,1.03,0,2.1-.45,2.87-.98l2.73,4.79c-2.1,1.62-4.79,2.69-7.8,2.69-5.46,0-7.88-2.69-7.88-8.69Zm16.48-4.03c0-7.97,5.5-12.89,12.41-12.89s11.24,4.25,11.24,11.06c0,1.21-.18,2.64-.36,3.58h-15.09c.41,3.18,2.01,4.61,4.88,4.61,2.33,0,4.52-.71,6.54-1.92l3.18,4.93c-3.05,2.28-6.5,3.36-10.34,3.36-6.85,0-12.45-4.61-12.45-12.71h-.01Zm8.28-2.7h7.75c.05-2.78-.98-4.61-3.49-4.61-1.97,0-3.67,1.39-4.25,4.61h-.01Z" style="fill: #98c9f1;"/>
    <path id="deals" d="M19.21,60.49h21.05c21.93,0,33.42,11.05,33.42,29.93s-10.71,30.97-33.42,30.97H19.21s0-60.91,0-60.91Zm22.53,48.03c10.53,0,15.75-6.79,15.75-17.92s-5.65-17.23-15.75-17.23h-6.44v35.16h6.44Zm37.79-10.72c0-15.49,10.71-25.07,24.11-25.07s21.84,8.27,21.84,21.49c0,2.35-.35,5.13-.69,6.96h-29.32c.79,6.17,3.92,8.96,9.48,8.96,4.52,0,8.79-1.39,12.71-3.75l6.17,9.57c-5.92,4.44-12.61,6.53-20.11,6.53-13.31,0-24.19-8.96-24.19-24.71Zm16.09-5.23h15.05c.08-5.4-1.92-8.96-6.79-8.96-3.83,0-7.13,2.69-8.27,8.96Zm33.24,17.4c0-9.13,6.52-16.09,26.89-17.84v-2.52c0-3.04-1.92-4.52-5.48-4.52-4.17,0-8.53,1.48-14.97,4.61l-5.31-11.05c7.05-3.65,14.61-5.92,21.23-5.92,14.44,0,20.01,7.05,20.01,17.49v18.09c0,2,1.13,2.87,3.23,2.96v10.36c-9.92,0-14.01-1.04-17.15-6.09-3.83,4.52-7.92,6.96-14.44,6.96-8,0-14.01-4.96-14.01-12.53h0Zm26.89-1.56v-7.92c-6.79,.35-11.65,2.61-11.65,7.13,0,2.44,1.83,4.09,4.69,4.09s5.4-1.48,6.96-3.31Zm25.69-52.74h15.75V121.39h-15.75V55.7h0Zm21.56,61.95l5.4-10.79c4.69,2.35,9.75,4,14.27,4,3.92,0,5.4-1.21,5.4-3.13,0-2.44-3.39-3.21-7.57-4.35-6.96-1.65-16.53-4-16.53-15.32,0-10.09,9.23-15.32,19.67-15.32,5.13,0,10.79,.96,17.84,4.27l-5.23,10.36c-4.61-2.17-9.75-2.96-12.36-2.96-3.48,0-4.96,1.21-4.96,3.04,0,2.44,3.4,3.31,7.48,4.27,6.96,1.56,16.44,3.83,16.44,14.97,0,10.09-8.27,15.84-19.84,15.84-7.13,0-14.09-1.83-20.01-4.87h.01Z" style="fill: #fff;"/>
  </g>
</svg>