<?xml version="1.0" encoding="utf-8"?>
<!-- Generator: Adobe Illustrator 26.5.0, SVG Export Plug-In . SVG Version: 6.00 Build 0)  -->
<svg version="1.1" id="intro-svg" xmlns="http://www.w3.org/2000/svg" xmlns:xlink="http://www.w3.org/1999/xlink" x="0px" y="0px"
	 viewBox="0 0 300 193" style="enable-background:new 0 0 300 193;" xml:space="preserve">
<style type="text/css">
	.st0{fill:url(#blend_00000043442629166716064270000000046053561646925215_);}
	.st1{fill:#98C9F1;}
	.st2{fill:none;}
</style>
<g id="rotation1">
	<g id="rotation0">
		<g id="center-logo">
			
				<radialGradient id="blend_00000039113305410021181540000011945313146386765720_" cx="144.59" cy="-258.7603" r="100.2252" gradientTransform="matrix(1 0 0 -0.54 0 -43.35)" gradientUnits="userSpaceOnUse">
				<stop  offset="0.8" style="stop-color:#130C0E"/>
				<stop  offset="0.8" style="stop-color:#130C0E;stop-opacity:0.96"/>
				<stop  offset="0.91" style="stop-color:#130C0E;stop-opacity:0.25"/>
				<stop  offset="1" style="stop-color:#130C0E;stop-opacity:0"/>
			</radialGradient>
			
				<ellipse id="blend" style="fill:url(#blend_00000039113305410021181540000011945313146386765720_);" cx="144.6" cy="96.5" rx="100.2" ry="54.3"/>
			<g id="friday-center">
				<path id="friday" class="st1" d="M90.4,118.7l-14.3-16.6H104v12.4l-13.2-12v12.5h9.8v9.6l-9.8-9.2v21.8l-14.7-18.4L90.4,118.7
					L90.4,118.7z M106.7,109.1h7.6l0.6,3.7c1-1.7,2-2.8,3.2-3.5s2.4-1,3.8-1c0.3,0,1.2,0.1,2.7,0.3l-0.9,7.7
					c-1.4-0.3-2.6-0.5-3.6-0.5c-2.2,0-4,1.3-5.2,3.8v14.7h-8.3L106.7,109.1L106.7,109.1z M128.3,99.8c0.9-0.7,2-1.1,3.4-1.1
					c1.5,0,2.6,0.3,3.5,1c0.9,0.7,1.3,1.7,1.3,3s-0.4,2.4-1.3,3.1c-0.9,0.7-2,1.1-3.5,1.1c-1.4,0-2.5-0.4-3.4-1.1
					c-0.9-0.7-1.3-1.8-1.3-3.1C127,101.5,127.4,100.5,128.3,99.8L128.3,99.8z M127.7,109.1h8.3v25.3h-8.3
					C127.7,134.3,127.7,109.1,127.7,109.1z M142.1,111.8c1.7-2.2,4-3.3,6.9-3.3c1.3,0,2.5,0.3,3.7,0.9c1.2,0.6,2.2,1.4,2.9,2.4V99.6
					h8.3v34.8h-7.2l-0.5-2.9c-2.1,2.2-4.5,3.4-7.5,3.4c-2.8,0-5-1.1-6.6-3.4c-1.7-2.3-2.5-5.6-2.5-9.9
					C139.7,117.2,140.5,114,142.1,111.8L142.1,111.8z M148.9,126.7c0.6,1.3,1.6,1.9,2.8,1.9c1.6,0,2.9-0.6,3.9-1.7v-10.4
					c-1-1.2-2.3-1.7-3.9-1.7c-2.5,0-3.7,2.2-3.7,6.6C148,123.7,148.3,125.4,148.9,126.7L148.9,126.7z M171,121.8
					c2.2-1.6,5.8-2.6,10.9-3v-1.4c0-1.6-1-2.4-3-2.4c-1.1,0-2.2,0.2-3.4,0.6c-1.2,0.4-2.7,1-4.5,1.9l-2.8-5.9
					c3.8-2.1,7.6-3.2,11.1-3.2c3.6,0,6.4,0.8,8.1,2.5c1.8,1.7,2.6,3.9,2.6,6.7v9.7c0,1,0.5,1.5,1.6,1.5v5.6c-2.7,0-4.7-0.2-5.9-0.6
					c-1.3-0.4-2.3-1.3-3.2-2.6c-1,1.2-2.1,2.1-3.3,2.7c-1.2,0.6-2.7,0.9-4.3,0.9c-2.2,0-3.9-0.6-5.3-1.8c-1.4-1.2-2.1-2.8-2.1-4.8
					C167.8,125.6,168.8,123.4,171,121.8L171,121.8z M176.4,128.6c0.4,0.4,1.1,0.6,1.8,0.6c1.5,0,2.7-0.6,3.7-1.7v-4.4
					c-1.9,0.1-3.4,0.5-4.6,1.2s-1.7,1.6-1.7,2.8C175.7,127.7,175.9,128.3,176.4,128.6L176.4,128.6z M201.1,109.1l4.5,14.8h0.1
					l4.6-14.8h8.1l-8.4,24.7c-1.4,4-2.9,6.7-4.6,8.1c-1.7,1.4-3.8,2.1-6.4,2.1c-2.1,0-4.2-0.3-6.2-0.9l2-6.2
					c1.1,0.4,2.3,0.6,3.6,0.6c0.8,0,1.5-0.2,1.9-0.5s0.8-1,1.1-1.9l0.4-1.1l-9-24.9H201.1z"/>
				<circle id="rotation-bounds" class="st2" cx="150" cy="96.5" r="173.9"/>
			</g>
			<g id="black-center">
				<path id="black" class="st1" d="M79.4,91.4c1.8,1.2,4.6,1.8,8.3,1.8c6.1,0,10.7-1.2,13.7-3.7c3.1-2.5,4.6-5.7,4.6-9.7
					c0-2.1-0.5-3.6-1.6-4.7s-2.7-1.6-4.7-1.6c-0.7,0-1.5,0.1-2.3,0.3s-1.3,0.3-1.6,0.4c-1.3,0.4-2.1,0.6-2.6,0.6
					c-0.4,0-0.6-0.2-0.6-0.5c0-0.3,0.2-0.6,0.7-0.9c0.4-0.3,1-0.7,1.5-1c1.8-1.2,3.2-2.2,4.2-3.2c1-1,1.5-2.2,1.5-3.8
					c0-1.9-0.7-3.4-2-4.6c-1.3-1.1-3.2-1.7-5.8-1.7c-2.7,0-5.2,0.5-7.5,1.6s-4.1,2.3-5.5,3.7S77.7,67,77.7,68c0,0.9,0.4,1.3,1.2,1.3
					c0.6,0,2.3-0.4,5.1-1.2c3.1-1,5.2-1.5,6.5-1.5c1.2,0,1.8,0.5,1.8,1.6c0,1.2-0.4,2.5-1.2,4c-0.6,0.9-0.9,1.6-0.9,2.1
					c0,1,0.5,1.5,1.5,1.5c0.5,0,1-0.1,1.3-0.1c0.4-0.1,0.8-0.1,1.2-0.1c0.8,0,1.2,0.6,1.2,1.9c0,3.8-0.7,7.2-2.1,10.1
					c-1.4,3-3.2,4.5-5.5,4.5c-2,0-3-1-3-2.9c0-0.7,0.2-1.5,0.5-2.5s0.7-1.9,1.1-2.8c0.6-1.3,1-2.5,1.3-3.6c0.3-1,0.4-2.1,0.4-3.1
					c0-2.2-0.3-3.9-1.1-5.3c-0.7-1.4-1.4-2.1-2.2-2.1c-0.4,0-0.7,0.1-1,0.4c-0.3,0.3-0.4,0.6-0.4,1c0,0.8,0.5,1.6,1.6,2.4
					c0.6,0.6,1.1,1.1,1.4,1.5s0.5,0.9,0.5,1.5c0,0.7-0.3,1.3-1,1.8c-0.6,0.5-1.7,1.1-3.2,1.8c-2,1-3.5,1.9-4.6,2.8
					c-1.1,0.9-1.6,2.1-1.6,3.7C76.7,88.6,77.6,90.2,79.4,91.4L79.4,91.4z M115.5,57c1.2,0,2.2,0.2,3.2,0.5
					c-1.6,10.9-2.4,20.5-2.4,28.5c-2.6-1-4.4-2.6-5.6-4.8c-1.2-2.2-1.8-5.9-1.8-11C108.8,61.3,111,56.9,115.5,57L115.5,57z
					 M114.9,86.9c1.9,0.6,4.1,1,6.4,1.1c-0.1,1.5-0.6,2.7-1.5,3.7s-2.3,1.4-4.1,1.4c-2,0-3.6-0.6-4.8-1.9c-1.2-1.2-1.8-3-1.8-5.3
					c0-1.1,0.1-1.9,0.2-2.5C111.1,85.1,113,86.3,114.9,86.9L114.9,86.9z M125.8,79.9c2.2-1.6,5.8-2.7,10.9-3.1v-1.2
					c0-1.6-1-2.4-2.9-2.4c-1.1,0-2.2,0.2-3.5,0.6c-1.2,0.4-2.7,1-4.5,1.8l-2.8-5.9c4.2-2.1,8-3.2,11.2-3.2c3.6,0,6.3,0.8,8,2.4
					s2.5,3.9,2.5,6.9v9.5c0,1.1,0.6,1.6,1.8,1.6v5.5c-2.8,0-4.9-0.2-6.1-0.6c-1.3-0.4-2.3-1.3-3.1-2.6c-1.1,1.3-2.2,2.2-3.4,2.8
					s-2.6,0.9-4.2,0.9c-2.2,0-3.9-0.6-5.3-1.8c-1.4-1.2-2.1-2.8-2.1-4.8C122.6,83.7,123.7,81.6,125.8,79.9L125.8,79.9z M131.2,86.6
					c0.5,0.4,1.1,0.6,1.8,0.6c1.4,0,2.7-0.5,3.7-1.6v-4.3c-1.9,0.1-3.4,0.5-4.6,1.2s-1.7,1.5-1.7,2.6
					C130.5,85.6,130.8,86.1,131.2,86.6L131.2,86.6z M152.8,70.1c2.5-2.4,5.6-3.6,9.4-3.6c1.5,0,3,0.3,4.6,0.8c1.6,0.5,3,1.3,4.3,2.5
					l-3.8,5.3c-1.3-1.2-2.9-1.7-4.7-1.7c-1.3,0-2.5,0.5-3.6,1.6s-1.5,2.7-1.5,4.7c0,2.1,0.5,3.7,1.5,4.9c1,1.2,2.2,1.7,3.6,1.7
					c1.6,0,3.1-0.6,4.4-1.8l4.3,4.8c-2.8,2.4-5.8,3.7-9,3.7c-3.8,0-6.9-1.2-9.4-3.6s-3.7-5.6-3.7-9.7
					C149.1,75.7,150.3,72.6,152.8,70.1L152.8,70.1z M174.2,57.5h8.3v19.9l8.4-10.2h8.3l-7.8,9l8.1,16.1H190l-4.1-9.7l-3.5,4v5.7
					h-8.3L174.2,57.5L174.2,57.5z"/>
				<circle id="rotation-bounds-2" class="st2" cx="150" cy="96.5" r="173.9"/>
			</g>
		</g>
		<circle id="rotation-bounds-3" class="st2" cx="150" cy="96.5" r="173.9"/>
	</g>
</g>
</svg>
