<?xml version="1.0" encoding="UTF-8"?>
<svg id="headline-svg" xmlns="http://www.w3.org/2000/svg" viewBox="0 0 300 600">
  <path id="l1" d="m20.12,70.93h24.25c25.27,0,38.49,12.96,38.49,35.11s-12.33,36.32-38.49,36.32h-24.25s0-71.43,0-71.43Zm25.96,56.34c12.14,0,18.14-7.96,18.14-21.01s-6.51-20.21-18.14-20.21h-7.42v41.24h7.42v-.02Zm43.53-12.58c0-18.17,12.33-29.4,27.77-29.4s25.16,9.7,25.16,25.21c0,2.75-.39,6.02-.81,8.16h-33.78c.9,7.24,4.52,10.51,10.92,10.51,5.21,0,10.13-1.63,14.63-4.39l7.1,11.23c-6.82,5.21-14.54,7.66-23.17,7.66-15.33,0-27.86-10.51-27.86-28.97h.02Zm18.53-6.13h17.35c.1-6.33-2.22-10.51-7.81-10.51-4.41,0-8.22,3.16-9.52,10.51h-.02Zm38.3,20.41c0-10.7,7.51-18.88,30.98-20.92v-2.96c0-3.57-2.22-5.29-6.31-5.29-4.8,0-9.83,1.74-17.25,5.41l-6.12-12.96c8.12-4.29,16.84-6.94,24.45-6.94,16.64,0,23.05,8.27,23.05,20.52v21.23c0,2.35,1.3,3.35,3.72,3.47v12.15c-11.43,0-16.15-1.22-19.75-7.15-4.41,5.29-9.13,8.16-16.64,8.16-9.21,0-16.15-5.82-16.15-14.7h0l.02-.02Zm30.98-1.83v-9.29c-7.81.41-13.42,3.06-13.42,8.37,0,2.86,2.1,4.8,5.41,4.8s6.22-1.74,8.02-3.88h-.02Zm29.6-61.84h18.14v77.05h-18.14v-77.04h0v-.02Zm24.83,72.65l6.22-12.65c5.41,2.75,11.23,4.69,16.43,4.69,4.52,0,6.22-1.43,6.22-3.67,0-2.86-3.9-3.77-8.73-5.1-8.02-1.94-19.04-4.69-19.04-17.97,0-11.84,10.62-17.97,22.66-17.97,5.92,0,12.43,1.12,20.55,5l-6.02,12.15c-5.31-2.55-11.23-3.47-14.24-3.47-4.01,0-5.71,1.43-5.71,3.57,0,2.86,3.91,3.88,8.62,5,8.02,1.83,18.94,4.49,18.94,17.56,0,11.84-9.52,18.58-22.86,18.58-8.22,0-16.23-2.14-23.05-5.71h0l.02-.02Z" style="fill: #fff; stroke-width: 0px;"/>
  <g id="l0">
    <path d="m30.12,29.98h-9.03v-6.93h25.83v6.93h-9.03v22.47h-7.77v-22.47Z" style="fill: #ffb0b0; stroke-width: 0px;"/>
    <path d="m48.35,46.94c0-4.41,3.15-7.77,12.98-8.61v-1.22c0-1.47-.92-2.18-2.65-2.18-2.02,0-4.12.71-7.22,2.23l-2.56-5.33c3.4-1.76,7.05-2.86,10.25-2.86,6.97,0,9.66,3.4,9.66,8.44v8.73c0,.97.55,1.39,1.55,1.43v5c-4.79,0-6.76-.5-8.27-2.94-1.85,2.18-3.82,3.36-6.97,3.36-3.86,0-6.76-2.39-6.76-6.05Zm2.48-23.14c0-1.97,1.3-3.07,3.11-3.07s3.19,1.09,3.19,3.07-1.39,3.07-3.19,3.07-3.11-1.09-3.11-3.07Zm10.5,22.38v-3.82c-3.28.17-5.63,1.26-5.63,3.44,0,1.18.88,1.97,2.27,1.97s2.6-.71,3.36-1.6Zm-.25-22.38c0-1.97,1.26-3.07,3.11-3.07s3.15,1.09,3.15,3.07-1.34,3.07-3.15,3.07-3.11-1.09-3.11-3.07Z" style="fill: #ffb0b0; stroke-width: 0px;"/>
    <path d="m79.93,45.22c-.34.25-.55.59-.55.97,0,.84,1.01,1.22,4.96,1.34,7.31.21,11.17,2.1,11.17,6.59s-3.86,7.14-12.01,7.14c-7.1,0-11.59-1.89-11.59-5.88,0-2.14.92-3.61,2.94-4.7-.84-1.01-1.22-2.1-1.22-3.11,0-1.6.76-3.15,2.27-4.16-1.85-1.43-3.07-3.53-3.07-6.17,0-4.91,4.2-8.27,10.08-8.27,2.6,0,4.91.67,6.63,1.89,1.55-1.09,3.65-1.76,6.55-1.76v4.45c-1.43,0-2.73.13-3.91.46.42.97.67,2.1.67,3.28,0,5.29-4.7,8.27-9.95,8.27-1.01,0-2.02-.13-2.98-.34Zm3.57,11.8c3.82,0,5.21-.5,5.21-1.68,0-1.09-1.05-1.51-4.91-1.6-1.6-.04-2.94-.21-4.12-.46-.59.46-.92,1.09-.92,1.85,0,1.26,1.22,1.89,4.75,1.89Zm2.39-19.74c0-2.18-1.18-3.57-2.98-3.57s-2.94,1.43-2.94,3.57,1.18,3.57,2.94,3.57,2.98-1.43,2.98-3.57Z" style="fill: #ffb0b0; stroke-width: 0px;"/>
    <path d="m98.62,20.74h7.6v31.7h-7.6v-31.7Z" style="fill: #ffb0b0; stroke-width: 0px;"/>
    <path d="m110.13,23.72c0-2.56,1.76-3.86,4.28-3.86s4.37,1.3,4.37,3.86-1.81,3.86-4.37,3.86-4.28-1.39-4.28-3.86Zm.55,5.79h7.6v22.93h-7.6v-22.93Z" style="fill: #ffb0b0; stroke-width: 0px;"/>
    <path d="m121.58,40.9c0-7.43,5.12-11.93,11.88-11.93,2.52,0,5.5.76,8.1,2.9l-3.61,4.79c-1.18-.97-2.56-1.55-4.2-1.55-2.35,0-4.58,1.81-4.58,5.79s2.18,6,4.58,6c1.64,0,2.86-.59,4.03-1.55l3.86,4.37c-2.39,2.18-5.12,3.28-8.19,3.28-6.63,0-11.88-4.49-11.88-12.09Z" style="fill: #ffb0b0; stroke-width: 0px;"/>
    <path d="m144.16,20.74h7.6v11.3c1.6-1.64,3.82-2.98,6.59-2.98,5.08,0,6.97,2.86,6.97,8.19v15.2h-7.56v-15.41c0-1.51-.67-2.52-2.31-2.52-1.34,0-2.69.8-3.7,2.06v15.87h-7.6v-31.7Z" style="fill: #ffb0b0; stroke-width: 0px;"/>
    <path d="m179.6,29.52h7.18l.34,2.52c1.64-1.64,3.91-3.02,6.68-3.02,5.08,0,6.97,2.9,6.97,8.23v15.2h-7.52v-15.41c0-1.51-.67-2.52-2.35-2.52-1.3,0-2.69.8-3.74,2.06v15.87h-7.56v-22.93Z" style="fill: #ffb0b0; stroke-width: 0px;"/>
    <path d="m204.04,41.06c0-7.47,5.17-12.09,11.63-12.09s10.54,3.99,10.54,10.37c0,1.13-.17,2.48-.34,3.36h-14.15c.38,2.98,1.89,4.33,4.58,4.33,2.18,0,4.24-.67,6.13-1.81l2.98,4.62c-2.86,2.14-6.09,3.15-9.7,3.15-6.42,0-11.67-4.33-11.67-11.93Zm7.77-2.52h7.26c.04-2.6-.92-4.33-3.28-4.33-1.85,0-3.44,1.3-3.99,4.33Z" style="fill: #ffb0b0; stroke-width: 0px;"/>
    <path d="m229.55,44.72v-15.2h7.52v15.41c0,1.51.63,2.52,2.31,2.52,1.39,0,2.69-.8,3.78-2.06v-15.87h7.56v22.93h-7.1l-.42-2.52c-1.55,1.64-4.03,3.07-6.68,3.07-5.04,0-6.97-2.94-6.97-8.27Z" style="fill: #ffb0b0; stroke-width: 0px;"/>
    <path d="m254.12,41.06c0-7.47,5.17-12.09,11.63-12.09s10.54,3.99,10.54,10.37c0,1.13-.17,2.48-.34,3.36h-14.15c.38,2.98,1.89,4.33,4.58,4.33,2.18,0,4.24-.67,6.13-1.81l2.98,4.62c-2.86,2.14-6.09,3.15-9.7,3.15-6.42,0-11.67-4.33-11.67-11.93Zm7.77-2.52h7.26c.04-2.6-.92-4.33-3.28-4.33-1.85,0-3.44,1.3-3.99,4.33Z" style="fill: #ffb0b0; stroke-width: 0px;"/>
  </g>
</svg>