<?xml version="1.0" encoding="UTF-8"?>
<svg id="headline-svg" xmlns="http://www.w3.org/2000/svg" viewBox="0 0 320 50">
  <path id="l1" d="m8.11,25.42h5.16c5.38,0,8.2,2.71,8.2,7.34s-2.63,7.6-8.2,7.6h-5.16v-14.94Zm5.53,11.79c2.58,0,3.86-1.66,3.86-4.4s-1.39-4.23-3.86-4.23h-1.58v8.62h1.58Zm9.27-2.63c0-3.8,2.63-6.15,5.92-6.15s5.36,2.03,5.36,5.27c0,.57-.08,1.26-.17,1.71h-7.19c.19,1.51.96,2.2,2.33,2.2,1.11,0,2.16-.34,3.12-.92l1.51,2.35c-1.45,1.09-3.1,1.6-4.93,1.6-3.27,0-5.93-2.2-5.93-6.07h0Zm3.95-1.28h3.69c.02-1.32-.47-2.2-1.66-2.2-.94,0-1.75.66-2.03,2.2Zm8.15,4.27c0-2.24,1.6-3.95,6.6-4.38v-.62c0-.75-.47-1.11-1.34-1.11-1.02,0-2.09.36-3.67,1.13l-1.3-2.71c1.73-.9,3.59-1.45,5.21-1.45,3.54,0,4.91,1.73,4.91,4.29v4.44c0,.49.28.7.79.72v2.54c-2.43,0-3.44-.25-4.21-1.49-.94,1.11-1.94,1.71-3.54,1.71-1.96,0-3.44-1.22-3.44-3.07h0Zm6.6-.39v-1.94c-1.66.08-2.86.64-2.86,1.75,0,.6.45,1,1.16,1s1.32-.36,1.71-.81h0Zm6.3-12.94h3.86v16.12h-3.86v-16.12Zm5.29,15.2l1.32-2.65c1.16.57,2.39.98,3.5.98.96,0,1.32-.3,1.32-.77,0-.6-.83-.79-1.86-1.07-1.71-.4-4.06-.98-4.06-3.76,0-2.48,2.26-3.76,4.83-3.76,1.26,0,2.65.23,4.38,1.04l-1.28,2.54c-1.13-.54-2.39-.72-3.03-.72-.85,0-1.22.3-1.22.75,0,.6.83.81,1.84,1.04,1.71.39,4.04.94,4.04,3.67,0,2.48-2.03,3.89-4.87,3.89-1.75,0-3.46-.45-4.91-1.19Z" style="fill: #fff; stroke-width: 0px;"/>
  <g id="l0">
    <path d="m7.86,8.36h3.26l3.12,4.4,3.14-4.4h3.25v12.28h-3.04v-7.42l-3.35,4.37-3.33-4.37v7.42h-3.05v-12.28Z" style="fill: #98c9f1; stroke-width: 0px;"/>
    <path d="m22.16,15.88c0-3.12,2.16-5.05,4.86-5.05s4.4,1.67,4.4,4.33c0,.47-.07,1.04-.14,1.4h-5.91c.16,1.25.79,1.81,1.91,1.81.91,0,1.77-.28,2.56-.75l1.25,1.93c-1.19.9-2.54,1.32-4.05,1.32-2.69,0-4.88-1.81-4.88-4.98Zm3.25-1.05h3.04c.02-1.09-.39-1.81-1.37-1.81-.77,0-1.44.54-1.67,1.81Z" style="fill: #98c9f1; stroke-width: 0px;"/>
    <path d="m35.39,17.62c-.14.1-.23.25-.23.4,0,.35.42.51,2.07.56,3.05.09,4.67.88,4.67,2.75s-1.61,2.98-5.02,2.98c-2.97,0-4.84-.79-4.84-2.46,0-.9.39-1.51,1.23-1.97-.35-.42-.51-.88-.51-1.3,0-.67.32-1.32.95-1.74-.77-.6-1.28-1.47-1.28-2.58,0-2.05,1.75-3.46,4.21-3.46,1.09,0,2.05.28,2.77.79.65-.46,1.53-.74,2.74-.74v1.86c-.6,0-1.14.05-1.63.19.18.4.28.88.28,1.37,0,2.21-1.97,3.46-4.16,3.46-.42,0-.84-.05-1.25-.14Zm1.49,4.93c1.6,0,2.18-.21,2.18-.7,0-.46-.44-.63-2.05-.67-.67-.02-1.23-.09-1.72-.19-.25.19-.39.46-.39.77,0,.53.51.79,1.98.79Zm1-8.25c0-.91-.49-1.49-1.25-1.49s-1.23.6-1.23,1.49.49,1.49,1.23,1.49,1.25-.6,1.25-1.49Z" style="fill: #98c9f1; stroke-width: 0px;"/>
    <path d="m42.56,18.34c0-1.84,1.32-3.25,5.42-3.6v-.51c0-.61-.39-.91-1.11-.91-.84,0-1.72.3-3.02.93l-1.07-2.23c1.42-.74,2.95-1.19,4.28-1.19,2.91,0,4.04,1.42,4.04,3.53v3.65c0,.4.23.58.65.6v2.09c-2,0-2.83-.21-3.46-1.23-.77.91-1.6,1.4-2.91,1.4-1.61,0-2.83-1-2.83-2.53Zm5.42-.32v-1.6c-1.37.07-2.35.53-2.35,1.44,0,.49.37.82.95.82s1.09-.3,1.4-.67Z" style="fill: #98c9f1; stroke-width: 0px;"/>
  </g>
</svg>