<?xml version="1.0" encoding="UTF-8"?>
<svg id="headline-svg" xmlns="http://www.w3.org/2000/svg" viewBox="0 0 320 50">
  <g id="l1">
    <path d="m7.46,26.55h4.77c4.96,0,7.56,2.5,7.56,6.78s-2.42,7.01-7.56,7.01h-4.77v-13.79Zm5.1,10.87c2.38,0,3.57-1.54,3.57-4.06s-1.28-3.9-3.57-3.9h-1.46v7.96h1.46Z" style="fill: #fff; stroke-width: 0px;"/>
    <path d="m21.03,35c0-3.51,2.42-5.67,5.46-5.67s4.94,1.87,4.94,4.87c0,.53-.08,1.16-.16,1.58h-6.64c.18,1.4.89,2.03,2.15,2.03,1.02,0,1.99-.32,2.88-.85l1.4,2.17c-1.34,1-2.86,1.48-4.55,1.48-3.01,0-5.48-2.03-5.48-5.59Zm3.64-1.18h3.41c.02-1.22-.43-2.03-1.54-2.03-.87,0-1.62.61-1.87,2.03Z" style="fill: #fff; stroke-width: 0px;"/>
    <path d="m32.38,37.76c0-2.07,1.48-3.64,6.09-4.04v-.57c0-.69-.43-1.02-1.24-1.02-.95,0-1.93.33-3.39,1.04l-1.2-2.5c1.6-.83,3.31-1.34,4.81-1.34,3.27,0,4.53,1.6,4.53,3.96v4.1c0,.45.26.65.73.67v2.34c-2.25,0-3.17-.24-3.88-1.38-.87,1.02-1.79,1.58-3.27,1.58-1.81,0-3.17-1.12-3.17-2.84Zm6.09-.35v-1.79c-1.54.08-2.64.59-2.64,1.62,0,.55.41.93,1.06.93s1.22-.33,1.58-.75Z" style="fill: #fff; stroke-width: 0px;"/>
    <path d="m44.16,25.47h3.57v14.87h-3.57v-14.87Z" style="fill: #fff; stroke-width: 0px;"/>
    <path d="m49.2,39.49l1.22-2.44c1.06.53,2.21.91,3.23.91.89,0,1.22-.28,1.22-.71,0-.55-.77-.73-1.71-.98-1.58-.37-3.74-.91-3.74-3.47,0-2.29,2.09-3.47,4.45-3.47,1.16,0,2.44.22,4.04.97l-1.18,2.34c-1.04-.49-2.21-.67-2.8-.67-.79,0-1.12.28-1.12.69,0,.55.77.75,1.69.97,1.58.35,3.72.87,3.72,3.39,0,2.28-1.87,3.58-4.49,3.58-1.62,0-3.19-.41-4.53-1.1Z" style="fill: #fff; stroke-width: 0px;"/>
  </g>
  <g id="l0">
    <path d="m11.15,11.35h-4.24v-3.25h12.11v3.25h-4.24v10.54h-3.64v-10.54Z" style="fill: #ffb0b0; stroke-width: 0px;"/>
    <path d="m19.38,19.31c0-2.07,1.48-3.64,6.09-4.04v-.57c0-.69-.43-1.02-1.24-1.02-.95,0-1.93.33-3.39,1.04l-1.2-2.5c1.6-.83,3.31-1.34,4.81-1.34,3.27,0,4.53,1.6,4.53,3.96v4.1c0,.45.26.65.73.67v2.34c-2.25,0-3.17-.24-3.88-1.38-.87,1.02-1.79,1.58-3.27,1.58-1.81,0-3.17-1.12-3.17-2.84Zm1.16-10.85c0-.93.61-1.44,1.46-1.44s1.5.51,1.5,1.44-.65,1.44-1.5,1.44-1.46-.51-1.46-1.44Zm4.92,10.5v-1.79c-1.54.08-2.64.59-2.64,1.62,0,.55.41.93,1.06.93s1.22-.33,1.58-.75Zm-.12-10.5c0-.93.59-1.44,1.46-1.44s1.48.51,1.48,1.44-.63,1.44-1.48,1.44-1.46-.51-1.46-1.44Z" style="fill: #ffb0b0; stroke-width: 0px;"/>
    <path d="m34.03,18.5c-.16.12-.26.28-.26.45,0,.39.47.57,2.32.63,3.43.1,5.24.98,5.24,3.09s-1.81,3.35-5.63,3.35c-3.33,0-5.44-.89-5.44-2.76,0-1,.43-1.69,1.38-2.21-.39-.47-.57-.99-.57-1.46,0-.75.35-1.48,1.06-1.95-.87-.67-1.44-1.65-1.44-2.9,0-2.31,1.97-3.88,4.73-3.88,1.22,0,2.31.31,3.11.89.73-.51,1.71-.83,3.07-.83v2.09c-.67,0-1.28.06-1.83.22.2.45.32.98.32,1.54,0,2.48-2.21,3.88-4.67,3.88-.47,0-.95-.06-1.4-.16Zm1.67,5.54c1.79,0,2.44-.24,2.44-.79,0-.51-.49-.71-2.3-.75-.75-.02-1.38-.1-1.93-.22-.28.22-.43.51-.43.87,0,.59.57.89,2.23.89Zm1.12-9.26c0-1.02-.55-1.67-1.4-1.67s-1.38.67-1.38,1.67.55,1.67,1.38,1.67,1.4-.67,1.4-1.67Z" style="fill: #ffb0b0; stroke-width: 0px;"/>
    <path d="m42.94,7.01h3.57v14.87h-3.57V7.01Z" style="fill: #ffb0b0; stroke-width: 0px;"/>
    <path d="m48.28,8.41c0-1.2.83-1.81,2.01-1.81s2.05.61,2.05,1.81-.85,1.81-2.05,1.81-2.01-.65-2.01-1.81Zm.26,2.72h3.57v10.76h-3.57v-10.76Z" style="fill: #ffb0b0; stroke-width: 0px;"/>
    <path d="m53.69,16.47c0-3.49,2.4-5.59,5.58-5.59,1.18,0,2.58.35,3.8,1.36l-1.69,2.25c-.55-.45-1.2-.73-1.97-.73-1.1,0-2.15.85-2.15,2.72s1.02,2.82,2.15,2.82c.77,0,1.34-.28,1.89-.73l1.81,2.05c-1.12,1.02-2.4,1.54-3.84,1.54-3.11,0-5.58-2.11-5.58-5.67Z" style="fill: #ffb0b0; stroke-width: 0px;"/>
    <path d="m64.43,7.01h3.57v5.3c.75-.77,1.79-1.4,3.09-1.4,2.38,0,3.27,1.34,3.27,3.84v7.13h-3.55v-7.23c0-.71-.31-1.18-1.08-1.18-.63,0-1.26.37-1.73.97v7.45h-3.57V7.01Z" style="fill: #ffb0b0; stroke-width: 0px;"/>
    <path d="m80.86,11.13h3.37l.16,1.18c.77-.77,1.83-1.42,3.13-1.42,2.38,0,3.27,1.36,3.27,3.86v7.13h-3.53v-7.23c0-.71-.31-1.18-1.1-1.18-.61,0-1.26.37-1.75.97v7.45h-3.55v-10.76Z" style="fill: #ffb0b0; stroke-width: 0px;"/>
    <path d="m92.32,16.55c0-3.51,2.42-5.67,5.46-5.67s4.94,1.87,4.94,4.87c0,.53-.08,1.16-.16,1.58h-6.64c.18,1.4.89,2.03,2.15,2.03,1.02,0,1.99-.32,2.88-.85l1.4,2.17c-1.34,1-2.86,1.48-4.55,1.48-3.01,0-5.48-2.03-5.48-5.59Zm3.64-1.18h3.41c.02-1.22-.43-2.03-1.54-2.03-.87,0-1.62.61-1.87,2.03Z" style="fill: #ffb0b0; stroke-width: 0px;"/>
    <path d="m104.24,18.26v-7.13h3.53v7.23c0,.71.3,1.18,1.08,1.18.65,0,1.26-.37,1.77-.97v-7.45h3.55v10.76h-3.33l-.2-1.18c-.73.77-1.89,1.44-3.13,1.44-2.36,0-3.27-1.38-3.27-3.88Z" style="fill: #ffb0b0; stroke-width: 0px;"/>
    <path d="m115.74,16.55c0-3.51,2.42-5.67,5.46-5.67s4.94,1.87,4.94,4.87c0,.53-.08,1.16-.16,1.58h-6.64c.18,1.4.89,2.03,2.15,2.03,1.02,0,1.99-.32,2.88-.85l1.4,2.17c-1.34,1-2.86,1.48-4.55,1.48-3.01,0-5.48-2.03-5.48-5.59Zm3.64-1.18h3.41c.02-1.22-.43-2.03-1.54-2.03-.87,0-1.62.61-1.87,2.03Z" style="fill: #ffb0b0; stroke-width: 0px;"/>
  </g>
</svg>