<?xml version="1.0" encoding="UTF-8"?><svg id="headline-svg" xmlns="http://www.w3.org/2000/svg" viewBox="0 0 320 50"><g id="last-min"><path id="last" d="m7.35,10.16h3.43v9.77h5.84v2.92H7.35v-12.69Zm10.27,10.32c0-1.91,1.39-3.35,5.73-3.71v-.53c0-.63-.41-.94-1.17-.94-.89,0-1.82.31-3.19.96l-1.13-2.3c1.5-.76,3.12-1.23,4.53-1.23,3.08,0,4.27,1.47,4.27,3.64v3.77c0,.42.24.6.69.62v2.16c-2.12,0-2.99-.22-3.66-1.27-.82.94-1.69,1.45-3.08,1.45-1.71,0-2.99-1.03-2.99-2.61Zm5.73-.32v-1.65c-1.45.07-2.49.54-2.49,1.49,0,.51.39.85,1,.85s1.15-.31,1.48-.69Zm4.92,1.92l1.15-2.25c1,.49,2.08.83,3.04.83.83,0,1.15-.25,1.15-.66,0-.51-.73-.67-1.61-.9-1.48-.35-3.53-.83-3.53-3.19,0-2.1,1.97-3.19,4.19-3.19,1.09,0,2.3.2,3.8.89l-1.12,2.16c-.99-.45-2.08-.62-2.64-.62-.74,0-1.06.25-1.06.63,0,.51.73.69,1.6.89,1.48.32,3.51.8,3.51,3.12,0,2.1-1.76,3.3-4.23,3.3-1.52,0-3.01-.38-4.27-1.02h0Zm10.61-2.5v-4.41h-1.47v-2.21h1.47v-2.27h3.34v2.27h2.67v2.21h-2.67v4.32c0,.67.26.98.83.98.43,0,.87-.18,1.19-.4l1.13,1.94c-.87.66-1.99,1.09-3.23,1.09-2.26,0-3.27-1.09-3.27-3.52h0Zm6.78-3.05h5.73v2.7h-5.73v-2.7Z" style="fill:#98c9f1; stroke-width:0px;"/><path id="min" d="m53.44,10.16h3.45l3.3,4.55,3.32-4.55h3.43v12.69h-3.21v-7.67l-3.54,4.52-3.53-4.52v7.67h-3.23v-12.69Zm15.58.29c0-1.1.78-1.67,1.89-1.67s1.93.56,1.93,1.67-.8,1.67-1.93,1.67-1.89-.6-1.89-1.67Zm.24,2.5h3.36v9.9h-3.36v-9.9Zm5.13,0h3.17l.15,1.09c.73-.71,1.73-1.31,2.95-1.31,2.25,0,3.08,1.25,3.08,3.55v6.56h-3.32v-6.66c0-.66-.3-1.09-1.04-1.09-.57,0-1.19.35-1.65.89v6.86h-3.34v-9.9Zm11.18,6.56v-6.56h3.32v6.66c0,.66.28,1.09,1.02,1.09.61,0,1.19-.35,1.67-.89v-6.86h3.34v9.9h-3.14l-.18-1.09c-.69.71-1.78,1.32-2.95,1.32-2.23,0-3.08-1.27-3.08-3.57h0Zm12.03.05v-4.41h-1.47v-2.21h1.47v-2.27h3.34v2.27h2.67v2.21h-2.67v4.32c0,.67.26.98.83.98.43,0,.87-.18,1.19-.4l1.13,1.94c-.87.66-1.99,1.09-3.23,1.09-2.26,0-3.27-1.09-3.27-3.52h0Zm6.83-1.63c0-3.23,2.28-5.22,5.14-5.22s4.66,1.72,4.66,4.48c0,.49-.08,1.07-.15,1.45h-6.25c.17,1.29.83,1.87,2.02,1.87.96,0,1.87-.29,2.71-.78l1.32,1.99c-1.26.93-2.69,1.36-4.28,1.36-2.84,0-5.16-1.87-5.16-5.15h0Zm3.43-1.09h3.21c.02-1.13-.41-1.87-1.45-1.87-.82,0-1.52.56-1.76,1.87h0Z" style="fill:#98c9f1; stroke-width:0px;"/></g><path id="deals" d="m7.26,26.49h4.5c4.69,0,7.14,2.36,7.14,6.4s-2.29,6.62-7.14,6.62h-4.5v-13.02Zm4.82,10.27c2.25,0,3.37-1.45,3.37-3.83s-1.21-3.68-3.37-3.68h-1.38v7.52h1.38Zm8.08-2.29c0-3.31,2.29-5.36,5.16-5.36s4.67,1.77,4.67,4.6c0,.5-.08,1.1-.15,1.49h-6.27c.17,1.32.84,1.92,2.03,1.92.97,0,1.88-.3,2.72-.8l1.32,2.05c-1.27.95-2.7,1.4-4.3,1.4-2.85,0-5.17-1.92-5.17-5.29h0Zm3.44-1.12h3.22c.02-1.15-.41-1.92-1.45-1.92-.82,0-1.53.58-1.77,1.92Zm7.1,3.72c0-1.95,1.4-3.44,5.75-3.81v-.54c0-.65-.41-.97-1.17-.97-.89,0-1.82.31-3.2.99l-1.14-2.36c1.51-.78,3.12-1.27,4.54-1.27,3.09,0,4.28,1.51,4.28,3.74v3.87c0,.43.24.61.69.63v2.21c-2.12,0-2.99-.22-3.67-1.3-.82.97-1.69,1.49-3.09,1.49-1.71,0-2.99-1.06-2.99-2.68h0Zm5.75-.34v-1.69c-1.45.08-2.49.56-2.49,1.53,0,.52.39.87,1.01.87s1.15-.31,1.49-.71h0Zm5.49-11.27h3.37v14.05h-3.37v-14.05Zm4.61,13.25l1.15-2.31c1.01.5,2.08.86,3.05.86.84,0,1.15-.26,1.15-.67,0-.52-.73-.69-1.62-.93-1.49-.35-3.54-.86-3.54-3.28,0-2.16,1.97-3.28,4.2-3.28,1.1,0,2.31.21,3.81.91l-1.12,2.21c-.99-.47-2.08-.63-2.64-.63-.74,0-1.06.26-1.06.65,0,.52.73.71,1.6.91,1.49.34,3.51.82,3.51,3.2,0,2.16-1.77,3.38-4.24,3.38-1.53,0-3.02-.39-4.28-1.04h.01Z" style="fill:#fff; stroke-width:0px;"/></svg>