<?xml version="1.0" encoding="UTF-8"?>
<svg id="headline-svg" xmlns="http://www.w3.org/2000/svg" viewBox="0 0 480 320">
  <path id="l1" d="m26.12,72.95h24.25c25.27,0,38.49,12.96,38.49,35.11s-12.33,36.32-38.49,36.32h-24.25s0-71.43,0-71.43Zm25.96,56.34c12.14,0,18.14-7.96,18.14-21.01s-6.51-20.21-18.14-20.21h-7.42v41.24h7.42v-.02Zm43.53-12.58c0-18.17,12.33-29.4,27.77-29.4s25.16,9.7,25.16,25.21c0,2.75-.39,6.02-.81,8.16h-33.78c.9,7.24,4.52,10.51,10.92,10.51,5.21,0,10.13-1.63,14.63-4.39l7.1,11.23c-6.82,5.21-14.54,7.66-23.17,7.66-15.33,0-27.86-10.51-27.86-28.97h.02Zm18.53-6.13h17.35c.1-6.33-2.22-10.51-7.81-10.51-4.41,0-8.22,3.16-9.52,10.51h-.02Zm38.3,20.41c0-10.7,7.51-18.88,30.98-20.92v-2.96c0-3.57-2.22-5.29-6.31-5.29-4.8,0-9.83,1.74-17.25,5.41l-6.12-12.96c8.12-4.29,16.84-6.94,24.45-6.94,16.64,0,23.05,8.27,23.05,20.52v21.23c0,2.35,1.3,3.35,3.72,3.47v12.15c-11.43,0-16.15-1.22-19.75-7.15-4.41,5.29-9.13,8.16-16.64,8.16-9.21,0-16.15-5.82-16.15-14.7h0l.02-.02Zm30.98-1.83v-9.29c-7.81.41-13.42,3.06-13.42,8.37,0,2.86,2.1,4.8,5.41,4.8s6.22-1.74,8.02-3.88h-.02Zm29.6-61.84h18.14v77.05h-18.14v-77.04h0v-.02Zm24.83,72.65l6.22-12.65c5.41,2.75,11.23,4.69,16.43,4.69,4.52,0,6.22-1.43,6.22-3.67,0-2.86-3.9-3.77-8.73-5.1-8.02-1.94-19.04-4.69-19.04-17.97,0-11.84,10.62-17.97,22.66-17.97,5.92,0,12.43,1.12,20.55,5l-6.02,12.15c-5.31-2.55-11.23-3.47-14.24-3.47-4.01,0-5.71,1.43-5.71,3.57,0,2.86,3.91,3.88,8.62,5,8.02,1.83,18.94,4.49,18.94,17.56,0,11.84-9.52,18.58-22.86,18.58-8.22,0-16.23-2.14-23.05-5.71h0l.02-.02Z" style="fill: #fff; stroke-width: 0px;"/>
  <g id="l0">
    <path d="m35.21,32.82h-9.09v-6.98h26v6.98h-9.09v22.62h-7.82v-22.62Z" style="fill: #ffb0b0; stroke-width: 0px;"/>
    <path d="m53.58,49.9c0-4.44,3.17-7.82,13.06-8.67v-1.23c0-1.48-.93-2.2-2.66-2.2-2.03,0-4.14.72-7.27,2.24l-2.58-5.37c3.42-1.78,7.1-2.88,10.32-2.88,7.02,0,9.73,3.42,9.73,8.5v8.79c0,.97.55,1.4,1.56,1.44v5.03c-4.82,0-6.81-.51-8.33-2.96-1.86,2.2-3.85,3.38-7.02,3.38-3.89,0-6.81-2.41-6.81-6.09Zm2.49-23.3c0-1.99,1.31-3.09,3.13-3.09s3.21,1.1,3.21,3.09-1.4,3.09-3.21,3.09-3.13-1.1-3.13-3.09Zm10.57,22.54v-3.85c-3.3.17-5.67,1.27-5.67,3.47,0,1.18.89,1.99,2.28,1.99s2.62-.72,3.38-1.61Zm-.25-22.54c0-1.99,1.27-3.09,3.13-3.09s3.17,1.1,3.17,3.09-1.35,3.09-3.17,3.09-3.13-1.1-3.13-3.09Z" style="fill: #ffb0b0; stroke-width: 0px;"/>
    <path d="m85.37,48.17c-.34.25-.55.59-.55.97,0,.85,1.01,1.23,4.99,1.35,7.36.21,11.25,2.11,11.25,6.64s-3.89,7.19-12.09,7.19c-7.15,0-11.67-1.9-11.67-5.92,0-2.16.93-3.64,2.96-4.74-.85-1.01-1.23-2.11-1.23-3.13,0-1.61.76-3.17,2.28-4.19-1.86-1.44-3.09-3.55-3.09-6.22,0-4.95,4.23-8.33,10.15-8.33,2.62,0,4.95.68,6.68,1.9,1.56-1.1,3.68-1.78,6.6-1.78v4.48c-1.44,0-2.75.13-3.93.46.42.97.68,2.11.68,3.3,0,5.33-4.74,8.33-10.02,8.33-1.02,0-2.03-.13-3-.34Zm3.59,11.88c3.85,0,5.24-.51,5.24-1.69,0-1.1-1.06-1.52-4.95-1.61-1.61-.04-2.96-.21-4.14-.46-.59.46-.93,1.1-.93,1.86,0,1.27,1.23,1.9,4.78,1.9Zm2.41-19.87c0-2.2-1.18-3.59-3-3.59s-2.96,1.44-2.96,3.59,1.18,3.59,2.96,3.59,3-1.44,3-3.59Z" style="fill: #ffb0b0; stroke-width: 0px;"/>
    <path d="m104.2,23.52h7.65v31.92h-7.65v-31.92Z" style="fill: #ffb0b0; stroke-width: 0px;"/>
    <path d="m115.78,26.52c0-2.58,1.78-3.89,4.31-3.89s4.4,1.31,4.4,3.89-1.82,3.89-4.4,3.89-4.31-1.4-4.31-3.89Zm.55,5.83h7.65v23.09h-7.65v-23.09Z" style="fill: #ffb0b0; stroke-width: 0px;"/>
    <path d="m127.32,43.81c0-7.48,5.16-12.01,11.97-12.01,2.54,0,5.54.76,8.16,2.92l-3.64,4.82c-1.18-.97-2.58-1.56-4.23-1.56-2.37,0-4.61,1.82-4.61,5.83s2.2,6.05,4.61,6.05c1.65,0,2.88-.59,4.06-1.56l3.89,4.4c-2.41,2.2-5.16,3.3-8.25,3.3-6.68,0-11.97-4.52-11.97-12.18Z" style="fill: #ffb0b0; stroke-width: 0px;"/>
    <path d="m150.05,23.52h7.65v11.37c1.61-1.65,3.85-3,6.64-3,5.12,0,7.02,2.88,7.02,8.25v15.31h-7.61v-15.52c0-1.52-.68-2.54-2.33-2.54-1.35,0-2.71.8-3.72,2.07v15.98h-7.65v-31.92Z" style="fill: #ffb0b0; stroke-width: 0px;"/>
    <path d="m185.75,32.35h7.23l.34,2.54c1.65-1.65,3.93-3.04,6.72-3.04,5.12,0,7.02,2.92,7.02,8.29v15.31h-7.57v-15.52c0-1.52-.68-2.54-2.37-2.54-1.31,0-2.71.8-3.76,2.07v15.98h-7.61v-23.09Z" style="fill: #ffb0b0; stroke-width: 0px;"/>
    <path d="m210.36,43.98c0-7.53,5.2-12.18,11.71-12.18s10.61,4.02,10.61,10.44c0,1.14-.17,2.49-.34,3.38h-14.25c.38,3,1.9,4.35,4.61,4.35,2.2,0,4.27-.68,6.17-1.82l3,4.65c-2.88,2.16-6.13,3.17-9.77,3.17-6.47,0-11.75-4.35-11.75-12.01Zm7.82-2.54h7.31c.04-2.62-.93-4.35-3.3-4.35-1.86,0-3.47,1.31-4.02,4.35Z" style="fill: #ffb0b0; stroke-width: 0px;"/>
    <path d="m236.05,47.66v-15.31h7.57v15.52c0,1.52.63,2.54,2.33,2.54,1.4,0,2.71-.8,3.81-2.07v-15.98h7.61v23.09h-7.15l-.42-2.54c-1.56,1.65-4.06,3.09-6.72,3.09-5.07,0-7.02-2.96-7.02-8.33Z" style="fill: #ffb0b0; stroke-width: 0px;"/>
    <path d="m260.79,43.98c0-7.53,5.2-12.18,11.71-12.18s10.61,4.02,10.61,10.44c0,1.14-.17,2.49-.34,3.38h-14.25c.38,3,1.9,4.35,4.61,4.35,2.2,0,4.27-.68,6.17-1.82l3,4.65c-2.88,2.16-6.13,3.17-9.77,3.17-6.47,0-11.75-4.35-11.75-12.01Zm7.82-2.54h7.31c.04-2.62-.93-4.35-3.3-4.35-1.86,0-3.47,1.31-4.02,4.35Z" style="fill: #ffb0b0; stroke-width: 0px;"/>
  </g>
</svg>