<?xml version="1.0" encoding="UTF-8"?><svg id="intro-svg" xmlns="http://www.w3.org/2000/svg" viewBox="0 0 320 50"><g id="rotation1"><g id="rotation0"><g id="center-logo"><g id="friday-center"><path id="friday" d="m134.14,35.79l-6.95-8.02h13.55v6.06l-6.42-5.79v6.06h4.73v4.64l-4.73-4.46v10.61l-7.13-8.92,6.95-.18h0Zm7.93-4.64h3.66l.27,1.78c.45-.8.98-1.34,1.52-1.69.62-.36,1.16-.45,1.87-.45.18,0,.62.09,1.34.18l-.45,3.74c-.71-.18-1.25-.27-1.78-.27-1.07,0-1.96.62-2.5,1.87v7.13h-4.01l.09-12.3h0Zm10.52-4.55c.45-.36.98-.53,1.69-.53s1.25.18,1.69.45c.45.36.62.8.62,1.43s-.18,1.16-.62,1.52c-.45.36-.98.53-1.69.53s-1.25-.18-1.69-.53c-.45-.36-.62-.89-.62-1.52,0-.53.18-.98.62-1.34h0Zm-.36,4.55h4.01v12.3h-4.01v-12.3Zm7.04,1.25c.8-1.07,1.96-1.6,3.39-1.6.62,0,1.25.18,1.78.45.62.27,1.07.71,1.43,1.16v-5.97h4.01v16.94h-3.48l-.27-1.43c-.98,1.07-2.23,1.69-3.66,1.69-1.34,0-2.41-.53-3.21-1.69-.8-1.16-1.25-2.76-1.25-4.81.09-2.05.45-3.66,1.25-4.73h0Zm3.3,7.31c.27.62.8.89,1.34.89.8,0,1.43-.27,1.87-.8v-5.08c-.45-.62-1.16-.8-1.87-.8-1.25,0-1.78,1.07-1.78,3.21,0,1.07.18,1.96.45,2.59h0Zm10.7-2.41c1.07-.8,2.85-1.25,5.26-1.43v-.71c0-.8-.45-1.16-1.43-1.16-.53,0-1.07.09-1.69.27-.62.18-1.34.45-2.23.89l-1.34-2.85c1.87-.98,3.66-1.52,5.44-1.52s3.12.36,3.92,1.25c.89.8,1.25,1.87,1.25,3.3v4.73c0,.45.27.71.8.71v2.76c-1.34,0-2.32-.09-2.85-.27-.62-.18-1.16-.62-1.52-1.25-.45.62-.98.98-1.6,1.34-.62.27-1.34.45-2.05.45-1.07,0-1.87-.27-2.59-.89-.71-.62-.98-1.34-.98-2.32.09-1.43.53-2.5,1.6-3.3h0Zm2.67,3.3c.18.18.53.27.89.27.71,0,1.34-.27,1.78-.8v-2.14c-.89.09-1.69.27-2.23.62s-.8.8-.8,1.34c0,.27.09.53.36.71h0Zm12.04-9.45l2.23,7.22h.09l2.23-7.22h3.92l-4.1,12.04c-.71,1.96-1.43,3.3-2.23,3.92-.8.71-1.87.98-3.12.98-.98,0-2.05-.18-3.03-.45l.98-3.03c.53.18,1.16.27,1.78.27.36,0,.71-.09.89-.27s.36-.45.53-.89l.18-.53-4.37-12.12,4.01.09h0Z" style="fill:#98c9f1; stroke-width:0px;"/><circle id="rotation-bounds" cx="163.12" cy="25" r="84.52" style="fill:none; stroke-width:0px;"/></g><g id="black-center"><path id="black" d="m128.79,22.5c.89.62,2.23.89,4.01.89,2.94,0,5.17-.62,6.69-1.78,1.52-1.25,2.23-2.76,2.23-4.73,0-.98-.27-1.78-.8-2.32s-1.34-.8-2.32-.8c-.36,0-.71.09-1.16.18-.36.09-.62.18-.8.18-.62.18-.98.27-1.25.27-.18,0-.27-.09-.27-.27s.09-.27.36-.45c.18-.18.45-.36.71-.45.89-.62,1.52-1.07,2.05-1.52.45-.45.71-1.07.71-1.87,0-.89-.36-1.69-.98-2.23s-1.52-.8-2.85-.8-2.5.27-3.66.8c-1.16.53-1.96,1.16-2.67,1.78-.71.62-.98,1.25-.98,1.78,0,.45.18.62.62.62.27,0,1.16-.18,2.5-.62,1.52-.45,2.5-.71,3.12-.71s.89.27.89.8c0,.62-.18,1.25-.62,1.96-.27.45-.45.8-.45.98,0,.45.27.71.71.71.27,0,.45-.09.62-.09.18-.09.36-.09.62-.09.36,0,.62.27.62.89,0,1.87-.36,3.48-.98,4.9-.71,1.43-1.52,2.23-2.67,2.23-.98,0-1.43-.45-1.43-1.43,0-.36.09-.71.27-1.25.18-.45.36-.89.53-1.34.27-.62.45-1.25.62-1.78.18-.45.18-.98.18-1.52,0-1.07-.18-1.87-.53-2.59-.36-.71-.71-.98-1.07-.98-.18,0-.36.09-.45.18s-.18.27-.18.45c0,.36.27.8.8,1.16l.71.71c.18.18.27.45.27.71,0,.36-.18.62-.45.89s-.8.53-1.52.89c-.98.45-1.69.89-2.23,1.34-.53.45-.8.98-.8,1.78-.09,1.16.36,1.96,1.25,2.5h0Zm17.56-16.67c.62,0,1.07.09,1.52.27-.8,5.26-1.16,9.98-1.16,13.82-1.25-.45-2.14-1.25-2.76-2.32-.62-1.07-.89-2.85-.89-5.35,0-4.37,1.07-6.51,3.3-6.42h0Zm-.27,14.53c.89.27,1.96.45,3.12.53-.09.71-.27,1.34-.71,1.78s-1.16.71-1.96.71c-.98,0-1.78-.27-2.32-.89-.62-.62-.89-1.43-.89-2.59,0-.53.09-.89.09-1.25.8.8,1.69,1.34,2.67,1.69h0Zm5.26-3.39c1.07-.8,2.85-1.34,5.26-1.52v-.62c0-.8-.45-1.16-1.43-1.16-.53,0-1.07.09-1.69.27-.62.18-1.34.45-2.23.89l-1.34-2.85c2.05-.98,3.92-1.52,5.44-1.52,1.78,0,3.03.36,3.92,1.16.8.8,1.25,1.87,1.25,3.39v4.64c0,.53.27.8.89.8v2.67c-1.34,0-2.41-.09-2.94-.27-.62-.18-1.16-.62-1.52-1.25-.53.62-1.07,1.07-1.69,1.34s-1.25.45-2.05.45c-1.07,0-1.87-.27-2.59-.89-.71-.62-.98-1.34-.98-2.32.18-1.43.71-2.41,1.69-3.21h0Zm2.67,3.21c.27.18.53.27.89.27.71,0,1.34-.27,1.78-.8v-2.05c-.89.09-1.69.27-2.23.62-.62.36-.8.71-.8,1.25,0,.27.09.45.36.71h0Zm10.43-8.02c1.25-1.16,2.76-1.78,4.55-1.78.71,0,1.43.18,2.23.36.8.27,1.43.62,2.05,1.25l-1.87,2.59c-.62-.62-1.43-.8-2.32-.8-.62,0-1.25.27-1.78.8s-.71,1.34-.71,2.32.27,1.78.71,2.41c.45.62,1.07.8,1.78.8.8,0,1.52-.27,2.14-.89l2.05,2.32c-1.34,1.16-2.85,1.78-4.37,1.78-1.87,0-3.39-.62-4.55-1.78-1.25-1.16-1.78-2.76-1.78-4.73.09-1.87.71-3.39,1.87-4.64h0Zm10.43-6.15h4.01v9.63l4.1-4.99h4.01l-3.83,4.37,3.92,7.85h-4.64l-1.96-4.73-1.69,1.96v2.76h-4.01l.09-16.85h0Z" style="fill:#98c9f1; stroke-width:0px;"/><circle id="rotation-bounds-2" cx="163.12" cy="25" r="84.52" style="fill:none; stroke-width:0px;"/></g></g></g></g></svg>