<?xml version="1.0" encoding="UTF-8"?>
<svg id="headline-svg" xmlns="http://www.w3.org/2000/svg" viewBox="0 0 728 90">
  <g id="l1">
    <path d="m15.57,49.54h9.19c9.57,0,14.59,4.83,14.59,13.07s-4.67,13.53-14.59,13.53h-9.19v-26.6Zm9.84,20.97c4.6,0,6.88-2.96,6.88-7.83s-2.47-7.52-6.88-7.52h-2.81v15.35h2.81Z" style="fill: #fff; stroke-width: 0px;"/>
    <path d="m41.76,65.84c0-6.76,4.67-10.94,10.52-10.94s9.54,3.61,9.54,9.38c0,1.03-.15,2.24-.3,3.04h-12.8c.34,2.7,1.71,3.91,4.14,3.91,1.98,0,3.84-.61,5.55-1.63l2.7,4.18c-2.58,1.94-5.51,2.85-8.78,2.85-5.81,0-10.56-3.91-10.56-10.79Zm7.03-2.28h6.57c.04-2.36-.84-3.91-2.96-3.91-1.67,0-3.12,1.18-3.61,3.91Z" style="fill: #fff; stroke-width: 0px;"/>
    <path d="m63.64,71.16c0-3.99,2.85-7.03,11.74-7.79v-1.1c0-1.33-.84-1.98-2.39-1.98-1.82,0-3.72.65-6.53,2.01l-2.32-4.83c3.08-1.6,6.38-2.58,9.27-2.58,6.31,0,8.74,3.08,8.74,7.64v7.9c0,.87.49,1.25,1.41,1.29v4.52c-4.33,0-6.12-.46-7.48-2.66-1.67,1.98-3.46,3.04-6.31,3.04-3.5,0-6.12-2.17-6.12-5.47Zm11.74-.68v-3.46c-2.96.15-5.09,1.14-5.09,3.12,0,1.06.8,1.79,2.05,1.79s2.36-.65,3.04-1.44Z" style="fill: #fff; stroke-width: 0px;"/>
    <path d="m86.37,47.45h6.88v28.69h-6.88v-28.69Z" style="fill: #fff; stroke-width: 0px;"/>
    <path d="m96.1,74.51l2.36-4.71c2.05,1.03,4.26,1.75,6.23,1.75,1.71,0,2.36-.53,2.36-1.37,0-1.06-1.48-1.41-3.31-1.9-3.04-.72-7.22-1.75-7.22-6.69,0-4.41,4.03-6.69,8.59-6.69,2.24,0,4.71.42,7.79,1.86l-2.28,4.52c-2.01-.95-4.26-1.29-5.4-1.29-1.52,0-2.17.53-2.17,1.33,0,1.06,1.48,1.44,3.27,1.86,3.04.68,7.18,1.67,7.18,6.54,0,4.41-3.61,6.92-8.66,6.92-3.12,0-6.15-.8-8.74-2.13Z" style="fill: #fff; stroke-width: 0px;"/>
  </g>
  <g id="l0">
    <path d="m22.68,20.21h-8.17v-6.27h23.37v6.27h-8.17v20.33h-7.03v-20.33Z" style="fill: #98c9f1; stroke-width: 0px;"/>
    <path d="m38.57,35.56c0-3.99,2.85-7.03,11.74-7.79v-1.1c0-1.33-.84-1.98-2.39-1.98-1.82,0-3.72.65-6.54,2.01l-2.32-4.83c3.08-1.6,6.38-2.58,9.27-2.58,6.31,0,8.74,3.08,8.74,7.64v7.9c0,.87.49,1.25,1.41,1.29v4.52c-4.33,0-6.12-.46-7.48-2.66-1.67,1.98-3.46,3.04-6.31,3.04-3.5,0-6.12-2.17-6.12-5.47Zm2.24-20.94c0-1.79,1.18-2.77,2.81-2.77s2.89.99,2.89,2.77-1.25,2.77-2.89,2.77-2.81-.99-2.81-2.77Zm9.5,20.25v-3.46c-2.96.15-5.09,1.14-5.09,3.12,0,1.06.8,1.79,2.05,1.79s2.36-.65,3.04-1.44Zm-.23-20.25c0-1.79,1.14-2.77,2.81-2.77s2.85.99,2.85,2.77-1.22,2.77-2.85,2.77-2.81-.99-2.81-2.77Z" style="fill: #98c9f1; stroke-width: 0px;"/>
    <path d="m66.84,34c-.3.23-.49.53-.49.87,0,.76.91,1.1,4.48,1.22,6.61.19,10.11,1.9,10.11,5.96s-3.5,6.46-10.87,6.46c-6.42,0-10.49-1.71-10.49-5.32,0-1.94.84-3.27,2.66-4.26-.76-.91-1.1-1.9-1.1-2.81,0-1.44.68-2.85,2.05-3.76-1.67-1.29-2.77-3.19-2.77-5.58,0-4.45,3.8-7.48,9.12-7.48,2.36,0,4.45.61,6,1.71,1.41-.99,3.31-1.6,5.93-1.6v4.03c-1.29,0-2.47.11-3.53.42.38.87.61,1.9.61,2.96,0,4.79-4.26,7.48-9,7.48-.91,0-1.82-.11-2.7-.3Zm3.23,10.68c3.46,0,4.71-.46,4.71-1.52,0-.99-.95-1.37-4.45-1.44-1.44-.04-2.66-.19-3.72-.42-.53.42-.84.99-.84,1.67,0,1.14,1.1,1.71,4.29,1.71Zm2.17-17.86c0-1.98-1.06-3.23-2.7-3.23s-2.66,1.29-2.66,3.23,1.06,3.23,2.66,3.23,2.7-1.29,2.7-3.23Z" style="fill: #98c9f1; stroke-width: 0px;"/>
    <path d="m84.02,11.85h6.88v28.69h-6.88V11.85Z" style="fill: #98c9f1; stroke-width: 0px;"/>
    <path d="m94.31,14.55c0-2.32,1.6-3.5,3.88-3.5s3.95,1.18,3.95,3.5-1.63,3.5-3.95,3.5-3.88-1.25-3.88-3.5Zm.49,5.24h6.88v20.75h-6.88v-20.75Z" style="fill: #98c9f1; stroke-width: 0px;"/>
    <path d="m104.76,30.09c0-6.73,4.64-10.79,10.75-10.79,2.28,0,4.98.68,7.33,2.62l-3.27,4.33c-1.06-.87-2.32-1.41-3.8-1.41-2.13,0-4.14,1.63-4.14,5.24s1.98,5.43,4.14,5.43c1.48,0,2.58-.53,3.65-1.41l3.5,3.95c-2.17,1.98-4.64,2.96-7.41,2.96-6,0-10.75-4.07-10.75-10.94Z" style="fill: #98c9f1; stroke-width: 0px;"/>
    <path d="m125.47,11.85h6.88v10.22c1.44-1.48,3.46-2.7,5.97-2.7,4.6,0,6.31,2.58,6.31,7.41v13.75h-6.84v-13.94c0-1.37-.61-2.28-2.09-2.28-1.22,0-2.43.72-3.34,1.86v14.36h-6.88V11.85Z" style="fill: #98c9f1; stroke-width: 0px;"/>
    <path d="m157.16,19.79h6.5l.3,2.28c1.48-1.48,3.53-2.74,6.04-2.74,4.6,0,6.31,2.62,6.31,7.45v13.75h-6.8v-13.94c0-1.37-.61-2.28-2.13-2.28-1.18,0-2.43.72-3.38,1.86v14.36h-6.84v-20.75Z" style="fill: #98c9f1; stroke-width: 0px;"/>
    <path d="m179.28,30.24c0-6.76,4.67-10.94,10.52-10.94s9.54,3.61,9.54,9.38c0,1.03-.15,2.24-.3,3.04h-12.8c.34,2.7,1.71,3.91,4.14,3.91,1.98,0,3.84-.61,5.55-1.63l2.7,4.18c-2.58,1.94-5.51,2.85-8.78,2.85-5.81,0-10.56-3.91-10.56-10.79Zm7.03-2.28h6.57c.04-2.36-.84-3.91-2.96-3.91-1.67,0-3.12,1.18-3.61,3.91Z" style="fill: #98c9f1; stroke-width: 0px;"/>
    <path d="m202.27,33.55v-13.75h6.8v13.94c0,1.37.57,2.28,2.09,2.28,1.25,0,2.43-.72,3.42-1.86v-14.36h6.84v20.75h-6.42l-.38-2.28c-1.41,1.48-3.65,2.77-6.04,2.77-4.56,0-6.31-2.66-6.31-7.49Z" style="fill: #98c9f1; stroke-width: 0px;"/>
    <path d="m224.46,30.24c0-6.76,4.67-10.94,10.52-10.94s9.54,3.61,9.54,9.38c0,1.03-.15,2.24-.3,3.04h-12.8c.34,2.7,1.71,3.91,4.14,3.91,1.98,0,3.84-.61,5.55-1.63l2.7,4.18c-2.58,1.94-5.51,2.85-8.78,2.85-5.81,0-10.56-3.91-10.56-10.79Zm7.03-2.28h6.57c.04-2.36-.84-3.91-2.96-3.91-1.67,0-3.12,1.18-3.61,3.91Z" style="fill: #98c9f1; stroke-width: 0px;"/>
  </g>
</svg>