<?xml version="1.0" encoding="UTF-8"?>
<svg id="headline-svg" xmlns="http://www.w3.org/2000/svg" viewBox="0 0 728 90">
  <path id="l1" d="m15.83,44.05h10.1c10.52,0,16.04,5.3,16.04,14.36s-5.14,14.87-16.04,14.87h-10.1v-29.24Zm10.82,23.06c5.05,0,7.56-3.26,7.56-8.6s-2.72-8.27-7.56-8.27h-3.09v16.87h3.09Zm18.14-5.14c0-7.43,5.14-12.03,11.57-12.03s10.48,3.97,10.48,10.32c0,1.12-.16,2.47-.34,3.34h-14.07c.38,2.96,1.88,4.31,4.55,4.31,2.17,0,4.22-.67,6.1-1.8l2.96,4.6c-2.84,2.13-6.06,3.14-9.65,3.14-6.39,0-11.61-4.31-11.61-11.87h-.01Zm7.72-2.51h7.23c.04-2.59-.92-4.31-3.26-4.31-1.84,0-3.43,1.3-3.97,4.31Zm15.96,8.35c0-4.38,3.14-7.72,12.9-8.57v-1.21c0-1.46-.92-2.17-2.63-2.17-2,0-4.09.71-7.18,2.22l-2.55-5.3c3.39-1.75,7.02-2.84,10.19-2.84,6.93,0,9.61,3.39,9.61,8.39v8.69c0,.96.54,1.37,1.55,1.42v4.98c-4.76,0-6.73-.5-8.23-2.92-1.84,2.17-3.8,3.34-6.93,3.34-3.84,0-6.73-2.38-6.73-6.01h.01Zm12.9-.76v-3.8c-3.26.16-5.59,1.25-5.59,3.43,0,1.17.88,1.96,2.26,1.96s2.59-.71,3.34-1.59h-.01Zm12.33-25.31h7.56v31.53h-7.56v-31.53Zm10.35,29.74l2.59-5.18c2.26,1.12,4.68,1.93,6.85,1.93,1.88,0,2.59-.58,2.59-1.5,0-1.17-1.63-1.55-3.63-2.09-3.34-.79-7.94-1.93-7.94-7.36,0-4.85,4.42-7.36,9.44-7.36,2.47,0,5.18.45,8.57,2.04l-2.51,4.98c-2.22-1.05-4.68-1.42-5.93-1.42-1.67,0-2.38.58-2.38,1.46,0,1.17,1.63,1.59,3.59,2.04,3.34.76,7.9,1.84,7.9,7.18,0,4.85-3.97,7.6-9.52,7.6-3.43,0-6.77-.88-9.61-2.34Z" style="fill: #fff; stroke-width: 0px;"/>
  <g id="l0">
    <path d="m15.34,10.67h6.38l6.11,8.61,6.14-8.61h6.35v24.02h-5.94v-14.52l-6.55,8.54-6.52-8.54v14.52h-5.97V10.67Z" style="fill: #98c9f1; stroke-width: 0px;"/>
    <path d="m43.31,25.4c0-6.11,4.22-9.88,9.51-9.88s8.61,3.26,8.61,8.48c0,.93-.14,2.02-.27,2.75h-11.56c.31,2.44,1.54,3.53,3.74,3.53,1.78,0,3.47-.55,5.01-1.48l2.44,3.77c-2.33,1.75-4.98,2.57-7.93,2.57-5.25,0-9.54-3.53-9.54-9.75Zm6.35-2.06h5.94c.03-2.13-.75-3.53-2.68-3.53-1.51,0-2.81,1.06-3.26,3.53Z" style="fill: #98c9f1; stroke-width: 0px;"/>
    <path d="m69.19,28.79c-.27.21-.45.48-.45.79,0,.69.82,1,4.05,1.1,5.97.17,9.13,1.72,9.13,5.39s-3.16,5.83-9.81,5.83c-5.8,0-9.47-1.54-9.47-4.8,0-1.75.75-2.95,2.4-3.84-.69-.82-1-1.72-1-2.54,0-1.3.62-2.57,1.85-3.4-1.51-1.17-2.51-2.88-2.51-5.04,0-4.02,3.43-6.76,8.24-6.76,2.13,0,4.02.55,5.42,1.54,1.27-.89,2.99-1.44,5.35-1.44v3.64c-1.17,0-2.23.1-3.19.38.34.79.55,1.72.55,2.68,0,4.32-3.84,6.76-8.13,6.76-.82,0-1.65-.1-2.44-.27Zm2.92,9.64c3.12,0,4.25-.41,4.25-1.37,0-.89-.86-1.24-4.01-1.3-1.3-.03-2.4-.17-3.36-.38-.48.38-.75.89-.75,1.51,0,1.03,1,1.54,3.88,1.54Zm1.96-16.13c0-1.78-.96-2.92-2.44-2.92s-2.4,1.17-2.4,2.92.96,2.92,2.4,2.92,2.44-1.17,2.44-2.92Z" style="fill: #98c9f1; stroke-width: 0px;"/>
    <path d="m83.23,30.2c0-3.6,2.57-6.35,10.6-7.04v-1c0-1.2-.75-1.78-2.16-1.78-1.65,0-3.36.58-5.9,1.82l-2.09-4.36c2.78-1.44,5.77-2.33,8.37-2.33,5.7,0,7.89,2.78,7.89,6.9v7.14c0,.79.45,1.13,1.27,1.17v4.08c-3.91,0-5.52-.41-6.76-2.4-1.51,1.78-3.12,2.75-5.7,2.75-3.16,0-5.53-1.96-5.53-4.94Zm10.6-.62v-3.12c-2.68.14-4.6,1.03-4.6,2.81,0,.96.72,1.61,1.85,1.61s2.13-.58,2.75-1.3Z" style="fill: #98c9f1; stroke-width: 0px;"/>
  </g>
</svg>