<?xml version="1.0" encoding="UTF-8"?>
<svg id="headline-svg" xmlns="http://www.w3.org/2000/svg" viewBox="0 0 768 1024">
  <path id="l1" d="m53,157.75h51.74c53.92,0,82.12,27.64,82.12,74.89s-26.31,77.49-82.12,77.49h-51.74s0-152.39,0-152.39Zm55.39,120.18c25.89,0,38.69-16.98,38.69-44.83s-13.89-43.11-38.69-43.11h-15.82v87.98h15.82v-.04Zm92.86-26.84c0-38.76,26.31-62.72,59.25-62.72s53.67,20.7,53.67,53.78c0,5.86-.84,12.84-1.72,17.4h-72.05c1.93,15.44,9.65,22.42,23.29,22.42,11.12,0,21.61-3.47,31.22-9.37l15.15,23.96c-14.56,11.12-31.01,16.35-49.43,16.35-32.69,0-59.42-22.42-59.42-61.81h.04Zm39.53-13.08h37.01c.21-13.51-4.74-22.42-16.66-22.42-9.4,0-17.54,6.74-20.31,22.42h-.04Zm81.7,43.53c0-22.84,16.03-40.27,66.09-44.62v-6.31c0-7.61-4.74-11.3-13.47-11.3-10.24,0-20.98,3.72-36.8,11.54l-13.05-27.64c17.33-9.16,35.92-14.8,52.16-14.8,35.5,0,49.18,17.65,49.18,43.78v45.29c0,5.02,2.77,7.16,7.93,7.4v25.92c-24.38,0-34.45-2.6-42.13-15.26-9.4,11.3-19.47,17.4-35.5,17.4-19.64,0-34.45-12.42-34.45-31.36h0l.04-.04Zm66.09-3.89v-19.82c-16.66.88-28.62,6.52-28.62,17.86,0,6.1,4.49,10.24,11.54,10.24s13.26-3.72,17.12-8.28h-.04Zm63.14-131.93h38.69v164.38h-38.69v-164.35h0v-.04Zm52.97,154.98l13.26-26.98c11.54,5.86,23.96,10,35.04,10,9.65,0,13.26-3.05,13.26-7.82,0-6.1-8.31-8.03-18.63-10.87-17.12-4.14-40.62-10-40.62-38.34,0-25.26,22.66-38.34,48.34-38.34,12.63,0,26.52,2.39,43.85,10.66l-12.84,25.92c-11.33-5.44-23.96-7.4-30.38-7.4-8.56,0-12.17,3.05-12.17,7.61,0,6.1,8.35,8.28,18.38,10.66,17.12,3.89,40.41,9.58,40.41,37.46,0,25.26-20.31,39.64-48.76,39.64-17.54,0-34.62-4.56-49.18-12.17h0l.04-.04Z" style="fill: #fff; stroke-width: 0px;"/>
  <g id="l0">
    <path d="m74.58,71.08h-19.47v-14.94h55.69v14.94h-19.47v48.45h-16.75v-48.45Z" style="fill: #ffb0b0; stroke-width: 0px;"/>
    <path d="m113.14,107.67c0-9.51,6.79-16.75,27.98-18.57v-2.63c0-3.17-1.99-4.71-5.71-4.71-4.35,0-8.88,1.54-15.58,4.8l-5.52-11.5c7.34-3.8,15.21-6.16,22.1-6.16,15.03,0,20.83,7.34,20.83,18.2v18.84c0,2.08,1.18,2.99,3.35,3.08v10.78c-10.32,0-14.58-1.09-17.84-6.34-3.98,4.71-8.24,7.24-15.03,7.24-8.33,0-14.58-5.16-14.58-13.04Zm5.34-49.9c0-4.26,2.81-6.61,6.7-6.61s6.88,2.35,6.88,6.61-2.99,6.61-6.88,6.61-6.7-2.35-6.7-6.61Zm22.64,48.27v-8.24c-7.06.36-12.14,2.72-12.14,7.43,0,2.54,1.9,4.26,4.89,4.26s5.61-1.54,7.25-3.44Zm-.54-48.27c0-4.26,2.72-6.61,6.7-6.61s6.79,2.35,6.79,6.61-2.9,6.61-6.79,6.61-6.7-2.35-6.7-6.61Z" style="fill: #ffb0b0; stroke-width: 0px;"/>
    <path d="m180.63,103.96c-.72.54-1.18,1.27-1.18,2.08,0,1.81,2.17,2.63,10.69,2.9,15.76.45,24.09,4.53,24.09,14.22s-8.33,15.4-25.9,15.4c-15.31,0-25-4.08-25-12.68,0-4.62,1.99-7.79,6.34-10.14-1.81-2.17-2.63-4.53-2.63-6.7,0-3.44,1.63-6.79,4.89-8.97-3.98-3.08-6.61-7.61-6.61-13.31,0-10.6,9.06-17.84,21.73-17.84,5.61,0,10.6,1.45,14.31,4.08,3.35-2.35,7.88-3.8,14.13-3.8v9.6c-3.08,0-5.89.27-8.42,1,.91,2.08,1.45,4.53,1.45,7.06,0,11.41-10.14,17.84-21.46,17.84-2.17,0-4.35-.27-6.43-.72Zm7.7,25.45c8.24,0,11.23-1.09,11.23-3.62,0-2.35-2.26-3.26-10.6-3.44-3.44-.09-6.34-.45-8.88-1-1.27,1-1.99,2.35-1.99,3.98,0,2.72,2.63,4.08,10.23,4.08Zm5.16-42.56c0-4.71-2.54-7.7-6.43-7.7s-6.34,3.08-6.34,7.7,2.54,7.7,6.34,7.7,6.43-3.08,6.43-7.7Z" style="fill: #ffb0b0; stroke-width: 0px;"/>
    <path d="m220.26,51.16h16.39v68.37h-16.39V51.16Z" style="fill: #ffb0b0; stroke-width: 0px;"/>
    <path d="m244.43,57.59c0-5.52,3.8-8.33,9.24-8.33s9.42,2.81,9.42,8.33-3.89,8.33-9.42,8.33-9.24-2.99-9.24-8.33Zm1.18,12.5h16.39v49.45h-16.39v-49.45Z" style="fill: #ffb0b0; stroke-width: 0px;"/>
    <path d="m268.46,94.63c0-16.03,11.05-25.72,25.63-25.72,5.43,0,11.86,1.63,17.48,6.25l-7.79,10.32c-2.54-2.08-5.52-3.35-9.06-3.35-5.07,0-9.87,3.89-9.87,12.5s4.71,12.95,9.87,12.95c3.53,0,6.16-1.27,8.69-3.35l8.33,9.42c-5.16,4.71-11.05,7.06-17.66,7.06-14.31,0-25.63-9.69-25.63-26.08Z" style="fill: #ffb0b0; stroke-width: 0px;"/>
    <path d="m316.48,51.16h16.39v24.36c3.44-3.53,8.24-6.43,14.22-6.43,10.96,0,15.03,6.16,15.03,17.66v32.78h-16.3v-33.24c0-3.26-1.45-5.43-4.98-5.43-2.9,0-5.8,1.72-7.97,4.44v34.23h-16.39V51.16Z" style="fill: #ffb0b0; stroke-width: 0px;"/>
    <path d="m392.9,70.09h15.49l.72,5.43c3.53-3.53,8.42-6.52,14.4-6.52,10.96,0,15.03,6.25,15.03,17.75v32.78h-16.21v-33.24c0-3.26-1.45-5.43-5.07-5.43-2.81,0-5.8,1.72-8.06,4.44v34.23h-16.3v-49.45Z" style="fill: #ffb0b0; stroke-width: 0px;"/>
    <path d="m444.97,94.99c0-16.12,11.14-26.08,25.08-26.08s22.73,8.6,22.73,22.37c0,2.44-.36,5.34-.72,7.24h-30.52c.82,6.43,4.08,9.33,9.87,9.33,4.71,0,9.15-1.45,13.22-3.89l6.43,9.96c-6.16,4.62-13.13,6.79-20.92,6.79-13.86,0-25.18-9.33-25.18-25.72Zm16.75-5.43h15.67c.09-5.61-1.99-9.33-7.06-9.33-3.99,0-7.43,2.81-8.6,9.33Z" style="fill: #ffb0b0; stroke-width: 0px;"/>
    <path d="m499.35,102.87v-32.78h16.21v33.24c0,3.26,1.36,5.43,4.98,5.43,2.99,0,5.8-1.72,8.15-4.44v-34.23h16.3v49.45h-15.3l-.91-5.43c-3.35,3.53-8.69,6.61-14.4,6.61-10.87,0-15.03-6.34-15.03-17.84Z" style="fill: #ffb0b0; stroke-width: 0px;"/>
    <path d="m551.67,94.99c0-16.12,11.14-26.08,25.08-26.08s22.73,8.6,22.73,22.37c0,2.44-.36,5.34-.72,7.24h-30.52c.82,6.43,4.08,9.33,9.87,9.33,4.71,0,9.15-1.45,13.22-3.89l6.43,9.96c-6.16,4.62-13.13,6.79-20.92,6.79-13.86,0-25.18-9.33-25.18-25.72Zm16.75-5.43h15.67c.09-5.61-1.99-9.33-7.06-9.33-3.99,0-7.43,2.81-8.6,9.33Z" style="fill: #ffb0b0; stroke-width: 0px;"/>
  </g>
</svg>