<?xml version="1.0" encoding="UTF-8"?>
<svg id="headline-svg" xmlns="http://www.w3.org/2000/svg" viewBox="0 0 300 250">
  <path id="last-min" d="M18.36,15.68h6.94v20.23h11.82v6.04H18.36V15.68Zm20.77,21.35c0-3.94,2.81-6.94,11.6-7.69v-1.09c0-1.31-.83-1.95-2.36-1.95-1.8,0-3.68,.64-6.46,1.99l-2.29-4.77c3.04-1.58,6.3-2.55,9.16-2.55,6.23,0,8.63,3.04,8.63,7.54v7.81c0,.86,.49,1.24,1.39,1.28v4.47c-4.28,0-6.04-.45-7.39-2.63-1.65,1.95-3.42,3-6.23,3-3.45,0-6.04-2.14-6.04-5.4Zm11.6-.68v-3.42c-2.93,.15-5.03,1.13-5.03,3.08,0,1.05,.79,1.76,2.03,1.76s2.33-.64,3-1.43Zm9.96,3.98l2.33-4.65c2.03,1.01,4.2,1.73,6.16,1.73,1.69,0,2.33-.53,2.33-1.35,0-1.05-1.46-1.39-3.27-1.88-3-.71-7.13-1.73-7.13-6.61,0-4.35,3.98-6.6,8.48-6.6,2.21,0,4.65,.41,7.69,1.84l-2.25,4.47c-1.99-.94-4.2-1.28-5.33-1.28-1.5,0-2.14,.53-2.14,1.31,0,1.05,1.46,1.43,3.23,1.84,3,.68,7.09,1.65,7.09,6.46,0,4.35-3.57,6.83-8.56,6.83-3.08,0-6.08-.79-8.63-2.1Zm21.46-5.18v-9.12h-2.96v-4.58h2.96v-4.69h6.76v4.69h5.4v4.58h-5.4v8.93c0,1.39,.53,2.03,1.69,2.03,.86,0,1.76-.38,2.4-.83l2.29,4.02c-1.76,1.35-4.02,2.25-6.53,2.25-4.58,0-6.61-2.25-6.61-7.28Zm13.73-6.31h11.6v5.59h-11.6v-5.59Zm16.25-13.17h6.98l6.68,9.42,6.72-9.42h6.94v26.27h-6.49v-15.88l-7.17,9.34-7.13-9.34v15.88h-6.53V15.68Zm31.52,.6c0-2.29,1.58-3.45,3.83-3.45s3.9,1.16,3.9,3.45-1.61,3.45-3.9,3.45-3.83-1.24-3.83-3.45Zm.49,5.18h6.79v20.49h-6.79V21.46Zm10.38,0h6.42l.3,2.25c1.46-1.46,3.49-2.7,5.97-2.7,4.54,0,6.23,2.59,6.23,7.36v13.59h-6.72v-13.77c0-1.35-.6-2.25-2.1-2.25-1.16,0-2.4,.71-3.34,1.84v14.19h-6.76V21.46Zm22.62,13.59v-13.59h6.72v13.77c0,1.35,.56,2.25,2.06,2.25,1.24,0,2.4-.71,3.38-1.84v-14.19h6.76v20.49h-6.34l-.37-2.25c-1.39,1.46-3.6,2.74-5.97,2.74-4.5,0-6.23-2.63-6.23-7.39Zm24.34,.11v-9.12h-2.97v-4.58h2.97v-4.69h6.76v4.69h5.4v4.58h-5.4v8.93c0,1.39,.53,2.03,1.69,2.03,.86,0,1.76-.38,2.4-.83l2.29,4.02c-1.76,1.35-4.02,2.25-6.53,2.25-4.58,0-6.6-2.25-6.6-7.28Zm13.81-3.38c0-6.68,4.62-10.81,10.4-10.81s9.42,3.57,9.42,9.27c0,1.01-.15,2.21-.3,3h-12.65c.34,2.66,1.69,3.87,4.09,3.87,1.95,0,3.79-.6,5.48-1.61l2.66,4.13c-2.55,1.91-5.44,2.81-8.67,2.81-5.74,0-10.43-3.87-10.43-10.66Zm6.94-2.25h6.49c.04-2.33-.82-3.87-2.93-3.87-1.65,0-3.08,1.16-3.57,3.87Z" style="fill: #98c9f1;"/>
  <path id="deals" d="M17.4,52.4h12.89c13.42,0,20.45,6.76,20.45,18.32s-6.55,18.96-20.45,18.96h-12.89V52.4Zm13.79,29.39c6.44,0,9.64-4.15,9.64-10.97s-3.46-10.54-9.64-10.54h-3.94v21.51h3.94Zm23.12-6.55c0-9.48,6.55-15.34,14.75-15.34s13.37,5.06,13.37,13.15c0,1.44-.21,3.14-.43,4.26h-17.94c.48,3.78,2.4,5.48,5.8,5.48,2.77,0,5.38-.85,7.77-2.29l3.78,5.86c-3.62,2.72-7.72,3.99-12.3,3.99-8.15,0-14.8-5.48-14.8-15.12Zm9.85-3.19h9.21c.05-3.3-1.17-5.48-4.15-5.48-2.34,0-4.37,1.65-5.06,5.48Zm20.34,10.65c0-5.59,3.99-9.85,16.45-10.92v-1.54c0-1.86-1.17-2.77-3.35-2.77-2.56,0-5.22,.91-9.16,2.82l-3.25-6.76c4.31-2.24,8.95-3.62,12.99-3.62,8.84,0,12.25,4.31,12.25,10.7v11.08c0,1.22,.69,1.76,1.97,1.81v6.34c-6.07,0-8.57-.64-10.49-3.73-2.34,2.77-4.85,4.26-8.84,4.26-4.9,0-8.57-3.04-8.57-7.67Zm16.45-.96v-4.85c-4.15,.21-7.13,1.6-7.13,4.37,0,1.49,1.12,2.5,2.88,2.5s3.3-.91,4.26-2.02Zm15.72-32.27h9.64v40.2h-9.64V49.47Zm13.2,37.91l3.3-6.6c2.88,1.44,5.96,2.45,8.73,2.45,2.4,0,3.3-.75,3.3-1.92,0-1.49-2.08-1.97-4.63-2.66-4.26-1.01-10.12-2.45-10.12-9.37,0-6.18,5.64-9.37,12.03-9.37,3.14,0,6.6,.59,10.92,2.61l-3.2,6.34c-2.82-1.33-5.96-1.81-7.56-1.81-2.13,0-3.04,.75-3.04,1.86,0,1.49,2.08,2.02,4.58,2.61,4.26,.96,10.06,2.34,10.06,9.16,0,6.18-5.06,9.69-12.14,9.69-4.37,0-8.63-1.12-12.25-2.98Z" style="fill: #fff;"/>
</svg>