<?xml version="1.0" encoding="UTF-8"?>
<svg id="intro-svg"
    xmlns="http://www.w3.org/2000/svg" viewBox="0 0 800 250">
    <g id="rotation1">
        <g id="rotation0">
            <g id="center-logo">
                <g id="friday-center">
                    <path id="friday" d="m430.36,212.42l-13.08-15.09h25.49v11.41l-12.08-10.9v11.41h8.89v8.72l-8.89-8.39v19.96l-13.42-16.77,13.08-.34h0Zm14.93-8.72h6.88l.5,3.35c.84-1.51,1.84-2.52,2.85-3.19,1.17-.67,2.18-.84,3.52-.84.34,0,1.17.17,2.52.34l-.84,7.04c-1.34-.34-2.35-.5-3.35-.5-2.01,0-3.69,1.17-4.7,3.52v13.42h-7.55l.17-23.15h0Zm19.79-8.55c.84-.67,1.84-1.01,3.19-1.01s2.35.34,3.19.84c.84.67,1.17,1.51,1.17,2.68s-.34,2.18-1.17,2.85c-.84.67-1.84,1.01-3.19,1.01s-2.35-.34-3.19-1.01c-.84-.67-1.17-1.68-1.17-2.85,0-1.01.34-1.84,1.17-2.52h0Zm-.67,8.55h7.55v23.15h-7.55v-23.15Zm13.25,2.35c1.51-2.01,3.69-3.02,6.37-3.02,1.17,0,2.35.34,3.35.84,1.17.5,2.01,1.34,2.68,2.18v-11.24h7.55v31.87h-6.54l-.5-2.68c-1.84,2.01-4.19,3.19-6.88,3.19-2.52,0-4.53-1.01-6.04-3.19-1.51-2.18-2.35-5.2-2.35-9.06.17-3.86.84-6.88,2.35-8.89h0Zm6.21,13.75c.5,1.17,1.51,1.68,2.52,1.68,1.51,0,2.68-.5,3.52-1.51v-9.56c-.84-1.17-2.18-1.51-3.52-1.51-2.35,0-3.35,2.01-3.35,6.04,0,2.01.34,3.69.84,4.86h0Zm20.13-4.53c2.01-1.51,5.37-2.35,9.9-2.68v-1.34c0-1.51-.84-2.18-2.68-2.18-1.01,0-2.01.17-3.19.5-1.17.34-2.52.84-4.19,1.68l-2.52-5.37c3.52-1.84,6.88-2.85,10.23-2.85s5.87.67,7.38,2.35c1.68,1.51,2.35,3.52,2.35,6.21v8.89c0,.84.5,1.34,1.51,1.34v5.2c-2.52,0-4.36-.17-5.37-.5-1.17-.34-2.18-1.17-2.85-2.35-.84,1.17-1.84,1.84-3.02,2.52-1.17.5-2.52.84-3.86.84-2.01,0-3.52-.5-4.86-1.68-1.34-1.17-1.84-2.52-1.84-4.36.17-2.68,1.01-4.7,3.02-6.21h0Zm5.03,6.21c.34.34,1.01.5,1.68.5,1.34,0,2.52-.5,3.35-1.51v-4.03c-1.68.17-3.19.5-4.19,1.17-1.01.67-1.51,1.51-1.51,2.52,0,.5.17,1.01.67,1.34h0Zm22.64-17.78l4.19,13.59h.17l4.19-13.59h7.38l-7.72,22.64c-1.34,3.69-2.68,6.21-4.19,7.38-1.51,1.34-3.52,1.84-5.87,1.84-1.84,0-3.86-.34-5.7-.84l1.84-5.7c1.01.34,2.18.5,3.35.5.67,0,1.34-.17,1.68-.5.34-.34.67-.84,1.01-1.68l.34-1.01-8.22-22.81,7.55.17h0Z" style="fill:#98c9f1; stroke-width:0px;"/>
                    <circle id="rotation-bounds" cx="484.87" cy="192.13" r="159" style="fill:none; stroke-width:0px;"/>
                </g>
                <g id="black-center">
                    <path id="black" d="m420.29,187.43c1.68,1.17,4.19,1.68,7.55,1.68,5.53,0,9.73-1.17,12.58-3.35,2.85-2.35,4.19-5.2,4.19-8.89,0-1.84-.5-3.35-1.51-4.36-1.01-1.01-2.52-1.51-4.36-1.51-.67,0-1.34.17-2.18.34-.67.17-1.17.34-1.51.34-1.17.34-1.84.5-2.35.5-.34,0-.5-.17-.5-.5s.17-.5.67-.84c.34-.34.84-.67,1.34-.84,1.68-1.17,2.85-2.01,3.86-2.85.84-.84,1.34-2.01,1.34-3.52,0-1.68-.67-3.19-1.84-4.19-1.17-1.01-2.85-1.51-5.37-1.51s-4.7.5-6.88,1.51c-2.18,1.01-3.69,2.18-5.03,3.35-1.34,1.17-1.84,2.35-1.84,3.35,0,.84.34,1.17,1.17,1.17.5,0,2.18-.34,4.7-1.17,2.85-.84,4.7-1.34,5.87-1.34s1.68.5,1.68,1.51c0,1.17-.34,2.35-1.17,3.69-.5.84-.84,1.51-.84,1.84,0,.84.5,1.34,1.34,1.34.5,0,.84-.17,1.17-.17.34-.17.67-.17,1.17-.17.67,0,1.17.5,1.17,1.68,0,3.52-.67,6.54-1.84,9.22-1.34,2.68-2.85,4.19-5.03,4.19-1.84,0-2.68-.84-2.68-2.68,0-.67.17-1.34.5-2.35.34-.84.67-1.68,1.01-2.52.5-1.17.84-2.35,1.17-3.35.34-.84.34-1.84.34-2.85,0-2.01-.34-3.52-1.01-4.86-.67-1.34-1.34-1.84-2.01-1.84-.34,0-.67.17-.84.34s-.34.5-.34.84c0,.67.5,1.51,1.51,2.18.5.5,1.01,1.01,1.34,1.34.34.34.5.84.5,1.34,0,.67-.34,1.17-.84,1.68s-1.51,1.01-2.85,1.68c-1.84.84-3.19,1.68-4.19,2.52-1.01.84-1.51,1.84-1.51,3.35-.17,2.18.67,3.69,2.35,4.7h0Zm33.04-31.36c1.17,0,2.01.17,2.85.5-1.51,9.9-2.18,18.78-2.18,26-2.35-.84-4.03-2.35-5.2-4.36-1.17-2.01-1.68-5.37-1.68-10.06,0-8.22,2.01-12.24,6.21-12.08h0Zm-.5,27.34c1.68.5,3.69.84,5.87,1.01-.17,1.34-.5,2.52-1.34,3.35-.84.84-2.18,1.34-3.69,1.34-1.84,0-3.35-.5-4.36-1.68-1.17-1.17-1.68-2.68-1.68-4.86,0-1.01.17-1.68.17-2.35,1.51,1.51,3.19,2.52,5.03,3.19h0Zm9.9-6.37c2.01-1.51,5.37-2.52,9.9-2.85v-1.17c0-1.51-.84-2.18-2.68-2.18-1.01,0-2.01.17-3.19.5-1.17.34-2.52.84-4.19,1.68l-2.52-5.37c3.86-1.84,7.38-2.85,10.23-2.85,3.35,0,5.7.67,7.38,2.18,1.51,1.51,2.35,3.52,2.35,6.37v8.72c0,1.01.5,1.51,1.68,1.51v5.03c-2.52,0-4.53-.17-5.53-.5-1.17-.34-2.18-1.17-2.85-2.35-1.01,1.17-2.01,2.01-3.19,2.52-1.17.5-2.35.84-3.86.84-2.01,0-3.52-.5-4.86-1.68-1.34-1.17-1.84-2.52-1.84-4.36.34-2.68,1.34-4.53,3.19-6.04h0Zm5.03,6.04c.5.34,1.01.5,1.68.5,1.34,0,2.52-.5,3.35-1.51v-3.86c-1.68.17-3.19.5-4.19,1.17-1.17.67-1.51,1.34-1.51,2.35,0,.5.17.84.67,1.34h0Zm19.62-15.09c2.35-2.18,5.2-3.35,8.55-3.35,1.34,0,2.68.34,4.19.67,1.51.5,2.68,1.17,3.86,2.35l-3.52,4.86c-1.17-1.17-2.68-1.51-4.36-1.51-1.17,0-2.35.5-3.35,1.51-1.01,1.01-1.34,2.52-1.34,4.36s.5,3.35,1.34,4.53c.84,1.17,2.01,1.51,3.35,1.51,1.51,0,2.85-.5,4.03-1.68l3.86,4.36c-2.52,2.18-5.37,3.35-8.22,3.35-3.52,0-6.37-1.17-8.55-3.35-2.35-2.18-3.35-5.2-3.35-8.89.17-3.52,1.34-6.37,3.52-8.72h0Zm19.62-11.57h7.55v18.11l7.72-9.39h7.55l-7.21,8.22,7.38,14.76h-8.72l-3.69-8.89-3.19,3.69v5.2h-7.55l.17-31.7h0Z" style="fill:#98c9f1; stroke-width:0px;"/>
                    <circle id="rotation-bounds-2" cx="484.87" cy="192.13" r="159" style="fill:none; stroke-width:0px;"/>
                </g>
            </g>
        </g>
    </g>
</svg>