<?xml version="1.0" encoding="UTF-8"?>
<svg id="headline-svg" xmlns="http://www.w3.org/2000/svg" viewBox="0 0 800 250">
  <path id="l1" d="m32.21,89.77h22.18c23.09,0,35.19,11.64,35.19,31.52s-11.27,32.63-35.19,32.63h-22.18v-64.15Zm23.74,50.59c11.09,0,16.59-7.15,16.59-18.88s-5.96-18.15-16.59-18.15h-6.78v37.02h6.78Zm39.79-11.27c0-16.31,11.27-26.39,25.38-26.39s23,8.71,23,22.64c0,2.47-.37,5.41-.73,7.33h-30.88c.82,6.51,4.12,9.44,9.99,9.44,4.77,0,9.26-1.47,13.38-3.94l6.51,10.08c-6.23,4.67-13.29,6.87-21.17,6.87-14.02,0-25.48-9.44-25.48-26.03Zm16.95-5.5h15.85c.09-5.68-2.02-9.44-7.15-9.44-4.03,0-7.51,2.84-8.71,9.44Zm35,18.33c0-9.62,6.87-16.95,28.32-18.79v-2.66c0-3.21-2.02-4.77-5.77-4.77-4.4,0-8.98,1.56-15.76,4.86l-5.59-11.64c7.42-3.85,15.4-6.23,22.36-6.23,15.21,0,21.08,7.42,21.08,18.42v19.06c0,2.11,1.19,3.02,3.39,3.12v10.91c-10.45,0-14.75-1.1-18.05-6.42-4.03,4.77-8.34,7.33-15.21,7.33-8.43,0-14.75-5.22-14.75-13.2Zm28.32-1.65v-8.34c-7.15.37-12.28,2.75-12.28,7.51,0,2.57,1.92,4.31,4.95,4.31s5.68-1.56,7.33-3.48Zm27.06-55.54h16.59v69.19h-16.59v-69.19Zm22.71,65.25l5.68-11.36c4.95,2.47,10.26,4.22,15.03,4.22,4.12,0,5.68-1.28,5.68-3.3,0-2.57-3.57-3.39-7.97-4.58-7.33-1.74-17.41-4.22-17.41-16.13,0-10.63,9.71-16.13,20.71-16.13,5.41,0,11.36,1.01,18.79,4.49l-5.5,10.91c-4.86-2.29-10.26-3.12-13.01-3.12-3.67,0-5.22,1.28-5.22,3.21,0,2.57,3.58,3.48,7.88,4.49,7.33,1.65,17.32,4.03,17.32,15.76,0,10.63-8.71,16.68-20.89,16.68-7.51,0-14.85-1.92-21.08-5.13Z" style="fill: #fff; stroke-width: 0px;"/>
  <path id="l0" d="m33.87,26.57h11.95v34.81h20.35v10.4h-32.29V26.57Zm35.74,36.75c0-6.78,4.84-11.95,19.96-13.24v-1.87c0-2.26-1.42-3.36-4.07-3.36-3.1,0-6.33,1.1-11.11,3.42l-3.94-8.2c5.23-2.71,10.85-4.39,15.76-4.39,10.72,0,14.86,5.23,14.86,12.98v13.44c0,1.49.84,2.13,2.39,2.2v7.69c-7.36,0-10.4-.77-12.72-4.52-2.84,3.36-5.88,5.17-10.72,5.17-5.94,0-10.4-3.68-10.4-9.3Zm19.96-1.16v-5.88c-5.04.26-8.66,1.94-8.66,5.3,0,1.81,1.36,3.04,3.49,3.04s4-1.1,5.17-2.45Zm17.14,6.85l4-8.01c3.49,1.74,7.23,2.97,10.59,2.97,2.91,0,4-.9,4-2.33,0-1.81-2.52-2.39-5.62-3.23-5.17-1.23-12.27-2.97-12.27-11.37,0-7.49,6.85-11.37,14.6-11.37,3.81,0,8.01.71,13.24,3.16l-3.88,7.69c-3.42-1.61-7.23-2.2-9.17-2.2-2.58,0-3.68.9-3.68,2.26,0,1.81,2.52,2.45,5.56,3.17,5.17,1.16,12.21,2.84,12.21,11.11,0,7.49-6.14,11.76-14.73,11.76-5.3,0-10.46-1.36-14.86-3.62Zm36.93-8.91v-15.7h-5.1v-7.88h5.1v-8.07h11.63v8.07h9.3v7.88h-9.3v15.37c0,2.39.9,3.49,2.91,3.49,1.49,0,3.04-.65,4.13-1.42l3.94,6.91c-3.04,2.32-6.91,3.88-11.24,3.88-7.88,0-11.37-3.88-11.37-12.53Zm23.62-10.85h19.96v9.62h-19.96v-9.62Zm27.97-22.67h12.01l11.5,16.21,11.56-16.21h11.95v45.21h-11.17v-27.32l-12.34,16.08-12.27-16.08v27.32h-11.24V26.57Zm54.26,1.03c0-3.94,2.71-5.94,6.59-5.94s6.72,2,6.72,5.94-2.78,5.94-6.72,5.94-6.59-2.13-6.59-5.94Zm.84,8.91h11.69v35.27h-11.69v-35.27Zm17.86,0h11.05l.52,3.88c2.52-2.52,6.01-4.65,10.27-4.65,7.82,0,10.72,4.46,10.72,12.66v23.38h-11.56v-23.7c0-2.33-1.03-3.88-3.62-3.88-2,0-4.13,1.23-5.75,3.17v24.41h-11.63v-35.27Zm38.93,23.38v-23.38h11.56v23.7c0,2.33.97,3.88,3.55,3.88,2.13,0,4.13-1.23,5.81-3.16v-24.41h11.63v35.27h-10.92l-.64-3.88c-2.39,2.52-6.2,4.71-10.27,4.71-7.75,0-10.72-4.52-10.72-12.72Zm41.9.19v-15.7h-5.1v-7.88h5.1v-8.07h11.63v8.07h9.3v7.88h-9.3v15.37c0,2.39.9,3.49,2.91,3.49,1.49,0,3.04-.65,4.13-1.42l3.94,6.91c-3.04,2.32-6.91,3.88-11.24,3.88-7.88,0-11.37-3.88-11.37-12.53Zm23.77-5.81c0-11.5,7.94-18.6,17.89-18.6s16.21,6.14,16.21,15.95c0,1.74-.26,3.81-.52,5.17h-21.77c.58,4.59,2.91,6.65,7.04,6.65,3.36,0,6.52-1.03,9.43-2.78l4.59,7.1c-4.39,3.29-9.37,4.84-14.92,4.84-9.88,0-17.96-6.65-17.96-18.34Zm11.95-3.88h11.17c.07-4-1.42-6.65-5.04-6.65-2.84,0-5.3,2-6.14,6.65Z" style="fill: #98c9f1; stroke-width: 0px;"/>
</svg>