<?xml version="1.0" encoding="UTF-8"?>
<svg id="headline-svg" xmlns="http://www.w3.org/2000/svg" viewBox="0 0 300 600">
  <path id="l1" d="m23.83,106.12h24.19c25.2,0,38.4,12.69,38.4,34.39s-12.3,35.61-38.4,35.61h-24.19v-70Zm25.9,55.21c12.09,0,18.1-7.79,18.1-20.59s-6.5-19.81-18.1-19.81h-7.41v40.4h7.41Zm43.43-12.3c0-17.79,12.3-28.8,27.71-28.8s25.09,9.5,25.09,24.71c0,2.69-.39,5.9-.8,8h-33.69c.91,7.1,4.51,10.31,10.9,10.31,5.21,0,10.1-1.61,14.61-4.3l7.1,11.01c-6.81,5.1-14.5,7.51-23.1,7.51-15.3,0-27.79-10.31-27.79-28.41l-.03-.03Zm18.49-6.01h17.3c.1-6.19-2.2-10.31-7.79-10.31-4.4,0-8.21,3.11-9.5,10.31Zm38.2,19.99c0-10.49,7.51-18.49,30.89-20.51v-2.9c0-3.5-2.2-5.21-6.29-5.21-4.79,0-9.79,1.71-17.2,5.31l-6.11-12.69c8.11-4.2,16.81-6.81,24.39-6.81,16.6,0,23,8.11,23,20.1v20.79c0,2.3,1.29,3.29,3.7,3.39v11.91c-11.39,0-16.11-1.19-19.71-6.99-4.4,5.21-9.09,8-16.6,8-9.19,0-16.11-5.7-16.11-14.4h.03Zm30.89-1.81v-9.09c-7.79.39-13.39,3-13.39,8.21,0,2.8,2.1,4.69,5.41,4.69s6.19-1.71,8-3.81h-.03Zm29.52-60.6h18.1v75.49h-18.1v-75.49Zm24.78,71.19l6.19-12.4c5.41,2.69,11.21,4.61,16.39,4.61,4.51,0,6.19-1.4,6.19-3.6,0-2.8-3.91-3.7-8.7-5-8-1.89-19.01-4.61-19.01-17.61,0-11.6,10.59-17.61,22.61-17.61,5.9,0,12.4,1.09,20.51,4.89l-6.01,11.91c-5.31-2.51-11.21-3.39-14.19-3.39-3.99,0-5.7,1.4-5.7,3.5,0,2.8,3.91,3.81,8.6,4.89,8,1.81,18.9,4.4,18.9,17.2,0,11.6-9.5,18.21-22.79,18.21-8.21,0-16.21-2.1-23-5.59Z" style="fill: #fff; stroke-width: 0px;"/>
  <g id="l0">
    <path d="m22.65,26.21h15.28l14.63,20.62,14.71-20.62h15.2v57.52h-14.22v-34.76l-15.69,20.46-15.61-20.46v34.76h-14.3V26.21Z" style="fill: #98c9f1; stroke-width: 0px;"/>
    <path d="m89.61,61.46c0-14.63,10.11-23.66,22.76-23.66s20.62,7.81,20.62,20.3c0,2.22-.33,4.85-.66,6.57h-27.69c.74,5.83,3.7,8.46,8.96,8.46,4.27,0,8.3-1.31,12-3.53l5.83,9.04c-5.59,4.19-11.91,6.16-18.98,6.16-12.57,0-22.84-8.46-22.84-23.34Zm15.2-4.93h14.22c.08-5.09-1.81-8.46-6.41-8.46-3.62,0-6.74,2.55-7.81,8.46Z" style="fill: #98c9f1; stroke-width: 0px;"/>
    <path d="m151.56,69.6c-.66.49-1.07,1.15-1.07,1.89,0,1.64,1.97,2.38,9.7,2.63,14.3.41,21.86,4.11,21.86,12.9s-7.56,13.97-23.5,13.97c-13.89,0-22.68-3.7-22.68-11.5,0-4.19,1.81-7.07,5.75-9.2-1.64-1.97-2.38-4.11-2.38-6.08,0-3.12,1.48-6.16,4.44-8.13-3.62-2.79-6-6.9-6-12.08,0-9.61,8.22-16.19,19.72-16.19,5.09,0,9.61,1.31,12.98,3.7,3.04-2.14,7.15-3.45,12.82-3.45v8.71c-2.79,0-5.34.25-7.64.9.82,1.89,1.31,4.11,1.31,6.41,0,10.35-9.2,16.19-19.47,16.19-1.97,0-3.94-.25-5.83-.66Zm6.98,23.09c7.48,0,10.19-.99,10.19-3.29,0-2.14-2.05-2.96-9.61-3.12-3.12-.08-5.75-.41-8.05-.9-1.15.9-1.81,2.14-1.81,3.62,0,2.46,2.38,3.7,9.29,3.7Zm4.68-38.62c0-4.27-2.3-6.98-5.83-6.98s-5.75,2.79-5.75,6.98,2.3,6.98,5.75,6.98,5.83-2.79,5.83-6.98Z" style="fill: #98c9f1; stroke-width: 0px;"/>
    <path d="m185.17,72.97c0-8.63,6.16-15.2,25.39-16.84v-2.38c0-2.88-1.81-4.27-5.18-4.27-3.94,0-8.05,1.4-14.13,4.35l-5.01-10.44c6.66-3.45,13.8-5.59,20.05-5.59,13.64,0,18.9,6.66,18.9,16.52v17.09c0,1.89,1.07,2.71,3.04,2.79v9.78c-9.37,0-13.23-.99-16.19-5.75-3.62,4.27-7.48,6.57-13.64,6.57-7.56,0-13.23-4.68-13.23-11.83Zm25.39-1.48v-7.48c-6.41.33-11.01,2.47-11.01,6.74,0,2.3,1.73,3.86,4.44,3.86s5.09-1.4,6.57-3.12Z" style="fill: #98c9f1; stroke-width: 0px;"/>
  </g>
</svg>