<?xml version="1.0" encoding="UTF-8"?>
<svg id="headline-svg" xmlns="http://www.w3.org/2000/svg" viewBox="0 0 320 480">
  <path id="l1" d="m31.79,97.59h24.05c25.05,0,38.18,12.62,38.18,34.19s-12.23,35.4-38.18,35.4h-24.05v-69.59Zm25.75,54.89c12.02,0,18-7.75,18-20.47s-6.46-19.7-18-19.7h-7.36v40.16h7.36Zm43.18-12.23c0-17.69,12.23-28.63,27.55-28.63s24.95,9.45,24.95,24.56c0,2.68-.39,5.87-.8,7.96h-33.5c.9,7.05,4.48,10.25,10.84,10.25,5.17,0,10.04-1.6,14.52-4.27l7.05,10.94c-6.77,5.07-14.42,7.47-22.97,7.47-15.22,0-27.63-10.25-27.63-28.24l-.03-.03Zm18.38-5.97h17.2c.1-6.15-2.19-10.25-7.75-10.25-4.38,0-8.16,3.09-9.45,10.25Zm37.97,19.88c0-10.43,7.47-18.38,30.71-20.39v-2.88c0-3.48-2.19-5.17-6.26-5.17-4.76,0-9.73,1.7-17.1,5.28l-6.08-12.62c8.06-4.17,16.71-6.77,24.25-6.77,16.5,0,22.86,8.06,22.86,19.98v20.67c0,2.29,1.29,3.27,3.68,3.37v11.84c-11.33,0-16.01-1.18-19.59-6.95-4.38,5.17-9.04,7.96-16.5,7.96-9.14,0-16.01-5.66-16.01-14.31h.03Zm30.71-1.8v-9.04c-7.75.39-13.31,2.99-13.31,8.16,0,2.78,2.09,4.66,5.38,4.66s6.15-1.7,7.96-3.78h-.03Zm29.35-60.25h18v75.05h-18v-75.05Zm24.64,70.78l6.15-12.33c5.38,2.68,11.15,4.58,16.3,4.58,4.48,0,6.15-1.39,6.15-3.58,0-2.78-3.89-3.68-8.65-4.97-7.96-1.88-18.9-4.58-18.9-17.51,0-11.53,10.53-17.51,22.48-17.51,5.87,0,12.33,1.08,20.39,4.87l-5.97,11.84c-5.28-2.5-11.15-3.37-14.11-3.37-3.96,0-5.66,1.39-5.66,3.48,0,2.78,3.89,3.78,8.55,4.87,7.96,1.8,18.79,4.38,18.79,17.1,0,11.53-9.45,18.1-22.66,18.1-8.16,0-16.12-2.09-22.86-5.56Z" style="fill: #fff; stroke-width: 0px;"/>
  <g id="l0">
    <path d="m30.62,18.15h15.19l14.54,20.5,14.62-20.5h15.11v57.18h-14.13v-34.55l-15.6,20.34-15.52-20.34v34.55h-14.21V18.15Z" style="fill: #98c9f1; stroke-width: 0px;"/>
    <path d="m97.2,53.19c0-14.54,10.05-23.52,22.63-23.52s20.5,7.76,20.5,20.17c0,2.21-.33,4.82-.65,6.53h-27.53c.73,5.8,3.68,8.41,8.9,8.41,4.25,0,8.25-1.31,11.93-3.51l5.8,8.98c-5.55,4.17-11.84,6.13-18.87,6.13-12.5,0-22.71-8.41-22.71-23.2Zm15.11-4.9h14.13c.08-5.06-1.8-8.41-6.37-8.41-3.59,0-6.7,2.53-7.76,8.41Z" style="fill: #98c9f1; stroke-width: 0px;"/>
    <path d="m158.79,61.28c-.65.49-1.06,1.14-1.06,1.88,0,1.63,1.96,2.37,9.64,2.61,14.21.41,21.73,4.08,21.73,12.82s-7.51,13.89-23.36,13.89c-13.8,0-22.54-3.68-22.54-11.44,0-4.17,1.8-7.02,5.72-9.15-1.63-1.96-2.37-4.08-2.37-6.04,0-3.1,1.47-6.13,4.41-8.09-3.59-2.78-5.96-6.86-5.96-12.01,0-9.56,8.17-16.09,19.6-16.09,5.06,0,9.56,1.31,12.91,3.68,3.02-2.12,7.11-3.43,12.74-3.43v8.66c-2.78,0-5.31.25-7.6.9.82,1.88,1.31,4.08,1.31,6.37,0,10.29-9.15,16.09-19.36,16.09-1.96,0-3.92-.25-5.8-.65Zm6.94,22.95c7.43,0,10.13-.98,10.13-3.27,0-2.12-2.04-2.94-9.56-3.1-3.1-.08-5.72-.41-8-.9-1.14.9-1.8,2.12-1.8,3.59,0,2.45,2.37,3.68,9.23,3.68Zm4.66-38.39c0-4.25-2.29-6.94-5.8-6.94s-5.72,2.78-5.72,6.94,2.29,6.94,5.72,6.94,5.8-2.78,5.8-6.94Z" style="fill: #98c9f1; stroke-width: 0px;"/>
    <path d="m192.19,64.63c0-8.58,6.13-15.11,25.24-16.74v-2.37c0-2.86-1.8-4.25-5.15-4.25-3.92,0-8,1.39-14.05,4.33l-4.98-10.37c6.62-3.43,13.72-5.55,19.93-5.55,13.56,0,18.79,6.62,18.79,16.42v16.99c0,1.88,1.06,2.7,3.02,2.78v9.72c-9.31,0-13.15-.98-16.09-5.72-3.59,4.25-7.43,6.53-13.56,6.53-7.51,0-13.15-4.66-13.15-11.76Zm25.24-1.47v-7.43c-6.37.33-10.95,2.45-10.95,6.7,0,2.29,1.72,3.84,4.41,3.84s5.06-1.39,6.53-3.1Z" style="fill: #98c9f1; stroke-width: 0px;"/>
  </g>
</svg>