<?xml version="1.0" encoding="UTF-8"?>
<svg id="headline-svg" xmlns="http://www.w3.org/2000/svg" viewBox="0 0 970 250">
  <path id="l1" d="m51.12,132.68h29.38c30.61,0,46.65,15.41,46.65,41.77s-14.94,43.25-46.65,43.25h-29.38v-85.02Zm31.45,67.06c14.69,0,21.99-9.47,21.99-25.01s-7.9-24.06-21.99-24.06h-9v49.07h9Zm52.75-14.94c0-21.61,14.94-34.98,33.66-34.98s30.48,11.54,30.48,30.01c0,3.27-.47,7.17-.98,9.72h-40.92c1.1,8.62,5.47,12.52,13.24,12.52,6.32,0,12.27-1.95,17.74-5.22l8.62,13.37c-8.27,6.2-17.61,9.12-28.06,9.12-18.59,0-33.75-12.52-33.75-34.51l-.03-.03Zm22.46-7.3h21.01c.13-7.52-2.67-12.52-9.47-12.52-5.35,0-9.97,3.77-11.54,12.52Zm46.4,24.28c0-12.74,9.12-22.46,37.53-24.91v-3.52c0-4.25-2.67-6.32-7.64-6.32-5.82,0-11.89,2.08-20.89,6.45l-7.42-15.41c9.85-5.1,20.41-8.27,29.63-8.27,20.16,0,27.93,9.85,27.93,24.41v25.26c0,2.8,1.57,3.99,4.5,4.12v14.47c-13.84,0-19.56-1.45-23.94-8.49-5.35,6.32-11.04,9.72-20.16,9.72-11.17,0-19.56-6.92-19.56-17.49h.03Zm37.53-2.2v-11.04c-9.47.47-16.26,3.65-16.26,9.97,0,3.4,2.55,5.69,6.57,5.69s7.52-2.08,9.72-4.62h-.03Zm35.86-73.6h21.99v91.69h-21.99v-91.69Zm30.1,86.47l7.52-15.07c6.57,3.27,13.62,5.6,19.91,5.6,5.47,0,7.52-1.7,7.52-4.37,0-3.4-4.75-4.5-10.57-6.07-9.72-2.3-23.09-5.6-23.09-21.39,0-14.09,12.86-21.39,27.46-21.39,7.17,0,15.07,1.32,24.91,5.94l-7.3,14.47c-6.45-3.05-13.62-4.12-17.24-4.12-4.84,0-6.92,1.7-6.92,4.25,0,3.4,4.75,4.62,10.44,5.94,9.72,2.2,22.96,5.35,22.96,20.89,0,14.09-11.54,22.11-27.68,22.11-9.97,0-19.69-2.55-27.93-6.79Z" style="fill: #fff; stroke-width: 0px;"/>
  <g id="l0">
    <path d="m49.69,35.62h18.56l17.76,25.05,17.86-25.05h18.46v69.85h-17.26v-42.21l-19.06,24.85-18.96-24.85v42.21h-17.36V35.62Z" style="fill: #98c9f1; stroke-width: 0px;"/>
    <path d="m131.02,78.43c0-17.76,12.27-28.74,27.64-28.74s25.05,9.48,25.05,24.65c0,2.69-.4,5.89-.8,7.98h-33.63c.9,7.09,4.49,10.28,10.88,10.28,5.19,0,10.08-1.6,14.57-4.29l7.08,10.98c-6.79,5.09-14.47,7.48-23.05,7.48-15.27,0-27.74-10.28-27.74-28.34Zm18.46-5.99h17.26c.1-6.19-2.2-10.28-7.78-10.28-4.39,0-8.18,3.09-9.48,10.28Z" style="fill: #98c9f1; stroke-width: 0px;"/>
    <path d="m206.27,88.31c-.8.6-1.3,1.4-1.3,2.3,0,2,2.4,2.89,11.78,3.19,17.36.5,26.54,4.99,26.54,15.67s-9.18,16.96-28.54,16.96c-16.86,0-27.54-4.49-27.54-13.97,0-5.09,2.2-8.58,6.99-11.18-2-2.4-2.89-4.99-2.89-7.38,0-3.79,1.8-7.48,5.39-9.88-4.39-3.39-7.28-8.38-7.28-14.67,0-11.68,9.98-19.66,23.95-19.66,6.19,0,11.68,1.6,15.77,4.49,3.69-2.59,8.68-4.19,15.57-4.19v10.58c-3.39,0-6.49.3-9.28,1.1,1,2.3,1.6,4.99,1.6,7.78,0,12.57-11.18,19.66-23.65,19.66-2.4,0-4.79-.3-7.09-.8Zm8.48,28.04c9.08,0,12.37-1.2,12.37-3.99,0-2.59-2.5-3.59-11.68-3.79-3.79-.1-6.99-.5-9.78-1.1-1.4,1.1-2.2,2.59-2.2,4.39,0,2.99,2.89,4.49,11.28,4.49Zm5.69-46.9c0-5.19-2.79-8.48-7.09-8.48s-6.99,3.39-6.99,8.48,2.79,8.48,6.99,8.48,7.09-3.39,7.09-8.48Z" style="fill: #98c9f1; stroke-width: 0px;"/>
    <path d="m247.08,92.41c0-10.48,7.48-18.46,30.84-20.46v-2.89c0-3.49-2.2-5.19-6.29-5.19-4.79,0-9.78,1.7-17.16,5.29l-6.09-12.67c8.08-4.19,16.77-6.79,24.35-6.79,16.57,0,22.95,8.08,22.95,20.06v20.76c0,2.29,1.3,3.29,3.69,3.39v11.88c-11.38,0-16.07-1.2-19.66-6.99-4.39,5.19-9.08,7.98-16.57,7.98-9.18,0-16.07-5.69-16.07-14.37Zm30.84-1.8v-9.08c-7.78.4-13.37,2.99-13.37,8.18,0,2.79,2.1,4.69,5.39,4.69s6.19-1.7,7.98-3.79Z" style="fill: #98c9f1; stroke-width: 0px;"/>
  </g>
</svg>