<?xml version="1.0" encoding="UTF-8"?>
<svg id="logo-svg" xmlns="http://www.w3.org/2000/svg" viewBox="0 0 1200 1200">
  <rect y="952" width="1200" height="248" style="fill: #fff; stroke-width: 0px;"/>
  <path id="logo" d="m735.35,1068.73l-.3,3.63c-2.12,26.04-10.6,34.06-21.04,34.06-9.39,0-16.05-6.36-14.69-23.31l.3-3.79c2.12-25.89,10.6-34.06,21.04-34.06,9.24,0,16.05,6.51,14.69,23.47m-234.67,0l-.3,3.63c-2.12,26.04-10.6,34.06-21.04,34.06-9.39,0-16.05-6.36-14.68-23.31l.3-3.79c2.12-25.89,10.6-34.06,21.05-34.06,9.23,0,16.05,6.51,14.68,23.47m223.01-49.05c-16.63,0-30.16,5.13-39.72,15.74,1.36-3.68,2.08-8.18,2.17-13.47h-58.29c-12.72,0-19.98,5.6-24.98,19.98l2.57-19.98h-58.89c-10.78,0-18.18,5.16-20.86,15.25-7.3-11.7-20.27-17.52-36.67-17.52-31.19,0-51.47,18.02-55.11,56.47l-.45,4.85c-3.18,34.37,14.84,51.32,42.84,51.32,31.19,0,51.48-18.17,55.11-56.62l.45-4.84c.82-8.82.22-16.48-1.58-23.01h26.41l-7.57,64.8c-1.52,12.87,5.45,18.77,17.11,18.77,7.12,0,9.54-.45,12.26-.91l9.39-82.66h30.73l-7.57,64.8c-1.51,12.87,5.45,18.77,17.11,18.77,7.11,0,9.54-.45,12.26-.91l9.38-82.66h15.14c5.24,0,9.47-1.22,12.73-3.62-4.77,8.4-7.88,19.01-9.1,31.93l-.45,4.85c-3.18,34.37,14.84,51.32,42.84,51.32,31.19,0,51.47-18.17,55.11-56.62l.45-4.84c3.18-34.22-14.84-51.17-42.85-51.17" style="fill: #f00020; stroke-width: 0px;"/>
</svg>