<?xml version="1.0" encoding="UTF-8"?>
<svg id="logo-svg" xmlns="http://www.w3.org/2000/svg" viewBox="0 0 1024 1024">
  <rect x="712.53" width="311.47" height="1024" style="fill: #fff; stroke-width: 0px;"/>
  <path id="logo" d="m957.97,923.34l-.2,2.44c-1.42,17.45-7.1,22.83-14.1,22.83-6.29,0-10.76-4.26-9.84-15.63l.2-2.54c1.42-17.35,7.1-22.83,14.1-22.83,6.19,0,10.76,4.36,9.84,15.73m-157.28,0l-.2,2.44c-1.42,17.45-7.1,22.83-14.1,22.83-6.29,0-10.76-4.26-9.84-15.63l.2-2.54c1.42-17.35,7.1-22.83,14.11-22.83,6.19,0,10.76,4.36,9.84,15.73m149.47-32.88c-11.15,0-20.22,3.44-26.62,10.55.91-2.47,1.39-5.48,1.46-9.03h-39.07c-8.52,0-13.39,3.75-16.74,13.39l1.73-13.39h-39.47c-7.23,0-12.19,3.46-13.98,10.22-4.89-7.84-13.58-11.74-24.58-11.74-20.9,0-34.5,12.08-36.94,37.85l-.3,3.25c-2.13,23.04,9.95,34.4,28.72,34.4,20.9,0,34.5-12.18,36.94-37.95l.3-3.25c.55-5.91.15-11.05-1.06-15.42h17.7l-5.07,43.43c-1.02,8.62,3.65,12.58,11.46,12.58,4.77,0,6.39-.3,8.22-.61l6.29-55.41h20.6l-5.07,43.43c-1.01,8.62,3.65,12.58,11.47,12.58,4.77,0,6.39-.3,8.22-.61l6.29-55.41h10.15c3.51,0,6.35-.82,8.53-2.43-3.2,5.63-5.28,12.74-6.1,21.4l-.3,3.25c-2.13,23.04,9.94,34.4,28.72,34.4,20.9,0,34.5-12.18,36.94-37.95l.3-3.25c2.13-22.93-9.94-34.3-28.72-34.3" style="fill: #f00020; stroke-width: 0px;"/>
</svg>