<?xml version="1.0" encoding="UTF-8"?>
<svg id="logo-svg" xmlns="http://www.w3.org/2000/svg" viewBox="0 0 120 600">
  <rect y="536" width="120" height="64" style="fill: #fff; stroke-width: 0px;"/>
  <path id="path3354" d="m89.84,566.4l-.07.8c-.47,5.74-2.34,7.51-4.64,7.51-2.07,0-3.54-1.4-3.24-5.14l.07-.83c.47-5.71,2.34-7.51,4.64-7.51,2.04,0,3.54,1.44,3.24,5.17m-51.73,0l-.07.8c-.47,5.74-2.34,7.51-4.64,7.51-2.07,0-3.54-1.4-3.24-5.14l.07-.83c.47-5.71,2.34-7.51,4.64-7.51,2.04,0,3.54,1.44,3.24,5.17m49.16-10.81c-3.67,0-6.65,1.13-8.76,3.47.3-.81.46-1.8.48-2.97h-12.85c-2.8,0-4.41,1.23-5.51,4.41l.57-4.41h-12.98c-2.38,0-4.01,1.14-4.6,3.36-1.61-2.58-4.47-3.86-8.08-3.86-6.88,0-11.35,3.97-12.15,12.45l-.1,1.07c-.7,7.58,3.27,11.31,9.45,11.31,6.88,0,11.35-4.01,12.15-12.48l.1-1.07c.18-1.94.05-3.63-.35-5.07h5.82l-1.67,14.29c-.33,2.84,1.2,4.14,3.77,4.14,1.57,0,2.1-.1,2.7-.2l2.07-18.22h6.78l-1.67,14.29c-.33,2.84,1.2,4.14,3.77,4.14,1.57,0,2.1-.1,2.7-.2l2.07-18.22h3.34c1.15,0,2.09-.27,2.81-.8-1.05,1.85-1.74,4.19-2.01,7.04l-.1,1.07c-.7,7.58,3.27,11.31,9.45,11.31,6.88,0,11.35-4.01,12.15-12.48l.1-1.07c.7-7.54-3.27-11.28-9.45-11.28" style="fill: #f00020; stroke-width: 0px;"/>
</svg>