<?xml version="1.0" encoding="UTF-8"?>
<svg id="logo-svg" xmlns="http://www.w3.org/2000/svg" viewBox="0 0 300 600">
  <rect y="476" width="300" height="124" style="fill: #fff; stroke-width: 0px;"/>
  <path id="logo" d="m217.68,534.37l-.15,1.82c-1.06,13.02-5.3,17.03-10.52,17.03-4.69,0-8.03-3.18-7.34-11.66l.15-1.89c1.06-12.94,5.3-17.03,10.52-17.03,4.62,0,8.03,3.26,7.34,11.73m-117.33,0l-.15,1.82c-1.06,13.02-5.3,17.03-10.52,17.03-4.69,0-8.02-3.18-7.34-11.66l.15-1.89c1.06-12.94,5.3-17.03,10.52-17.03,4.62,0,8.02,3.26,7.34,11.73m111.5-24.53c-8.32,0-15.08,2.56-19.86,7.87.68-1.84,1.04-4.09,1.09-6.74h-29.14c-6.36,0-9.99,2.8-12.49,9.99l1.29-9.99h-29.45c-5.39,0-9.09,2.58-10.43,7.63-3.65-5.85-10.13-8.76-18.34-8.76-15.59,0-25.74,9.01-27.55,28.24l-.23,2.42c-1.59,17.18,7.42,25.66,21.42,25.66,15.59,0,25.74-9.08,27.56-28.31l.23-2.42c.41-4.41.11-8.24-.79-11.51h13.21l-3.78,32.4c-.76,6.43,2.73,9.39,8.55,9.39,3.56,0,4.77-.23,6.13-.45l4.69-41.33h15.37l-3.79,32.4c-.76,6.43,2.73,9.39,8.55,9.39,3.56,0,4.77-.23,6.13-.45l4.69-41.33h7.57c2.62,0,4.73-.61,6.37-1.81-2.38,4.2-3.94,9.5-4.55,15.97l-.23,2.42c-1.59,17.18,7.42,25.66,21.42,25.66,15.6,0,25.74-9.08,27.55-28.31l.23-2.42c1.59-17.11-7.42-25.59-21.42-25.59" style="fill: #f00020; stroke-width: 0px;"/>
</svg>