<?xml version="1.0" encoding="UTF-8"?>
<svg id="logo-svg" xmlns="http://www.w3.org/2000/svg" viewBox="0 0 480 480">
  <rect y="362" width="480" height="118" style="fill: #fff; stroke-width: 0px;"/>
  <path id="logo" d="m300.92,417.73l-.14,1.64c-.95,11.72-4.77,15.33-9.47,15.33-4.23,0-7.22-2.86-6.61-10.49l.14-1.7c.95-11.65,4.77-15.33,9.47-15.33,4.16,0,7.22,2.93,6.61,10.56m-105.62,0l-.14,1.64c-.95,11.72-4.77,15.33-9.47,15.33-4.23,0-7.22-2.86-6.61-10.49l.14-1.7c.95-11.65,4.77-15.33,9.47-15.33,4.16,0,7.22,2.93,6.61,10.56m100.38-22.08c-7.49,0-13.58,2.31-17.88,7.09.61-1.66.94-3.68.98-6.06h-26.24c-5.72,0-9,2.52-11.24,9l1.16-9h-26.51c-4.85,0-8.18,2.32-9.39,6.86-3.28-5.26-9.12-7.89-16.51-7.89-14.04,0-23.17,8.11-24.8,25.42l-.2,2.18c-1.43,15.47,6.68,23.1,19.28,23.1,14.04,0,23.17-8.18,24.81-25.49l.2-2.18c.37-3.97.1-7.42-.71-10.36h11.89l-3.41,29.17c-.68,5.79,2.45,8.45,7.7,8.45,3.2,0,4.29-.2,5.52-.41l4.23-37.21h13.83l-3.41,29.17c-.68,5.79,2.45,8.45,7.7,8.45,3.2,0,4.29-.2,5.52-.41l4.22-37.21h6.82c2.36,0,4.26-.55,5.73-1.63-2.15,3.78-3.55,8.56-4.1,14.37l-.2,2.18c-1.43,15.47,6.68,23.1,19.28,23.1,14.04,0,23.17-8.18,24.8-25.49l.2-2.18c1.43-15.4-6.68-23.03-19.28-23.03" style="fill: #f00020; stroke-width: 0px;"/>
</svg>