<?xml version="1.0" encoding="UTF-8"?>
<svg id="logo-svg" xmlns="http://www.w3.org/2000/svg" viewBox="0 0 320 50">
  <rect x="228" width="92" height="50" style="fill: #fff; stroke-width: 0px;"/>
  <path id="logo" d="m298.88,23.66l-.06.67c-.39,4.79-1.95,6.26-3.87,6.26-1.73,0-2.95-1.17-2.7-4.28l.06-.7c.39-4.76,1.95-6.26,3.87-6.26,1.7,0,2.95,1.2,2.7,4.31m-43.13,0l-.06.67c-.39,4.79-1.95,6.26-3.87,6.26-1.73,0-2.95-1.17-2.7-4.28l.06-.7c.39-4.76,1.95-6.26,3.87-6.26,1.7,0,2.95,1.2,2.7,4.31m40.99-9.02c-3.06,0-5.54.94-7.3,2.89.25-.68.38-1.5.4-2.48h-10.71c-2.34,0-3.67,1.03-4.59,3.67l.47-3.67h-10.82c-1.98,0-3.34.95-3.83,2.8-1.34-2.15-3.72-3.22-6.74-3.22-5.73,0-9.46,3.31-10.13,10.38l-.08.89c-.58,6.32,2.73,9.43,7.87,9.43,5.73,0,9.46-3.34,10.13-10.41l.08-.89c.15-1.62.04-3.03-.29-4.23h4.85l-1.39,11.91c-.28,2.37,1,3.45,3.14,3.45,1.31,0,1.75-.08,2.25-.17l1.73-15.19h5.65l-1.39,11.91c-.28,2.37,1,3.45,3.14,3.45,1.31,0,1.75-.08,2.25-.17l1.72-15.19h2.78c.96,0,1.74-.22,2.34-.67-.88,1.54-1.45,3.49-1.67,5.87l-.08.89c-.58,6.32,2.73,9.43,7.87,9.43,5.73,0,9.46-3.34,10.13-10.41l.08-.89c.58-6.29-2.73-9.41-7.87-9.41" style="fill: #f00020; stroke-width: 0px;"/>
</svg>