<?xml version="1.0" encoding="UTF-8"?>
<svg id="logo-svg" xmlns="http://www.w3.org/2000/svg" viewBox="0 0 480 480">
  <rect x="334" width="146" height="480" style="fill: #fff; stroke-width: 0px;"/>
  <path id="logo" d="m449.05,432.81l-.1,1.14c-.67,8.18-3.33,10.7-6.61,10.7-2.95,0-5.04-2-4.61-7.32l.1-1.19c.67-8.13,3.33-10.7,6.61-10.7,2.9,0,5.04,2.05,4.61,7.37m-73.73,0l-.1,1.14c-.67,8.18-3.33,10.7-6.61,10.7-2.95,0-5.04-2-4.61-7.32l.09-1.19c.67-8.13,3.33-10.7,6.61-10.7,2.9,0,5.04,2.05,4.61,7.37m70.06-15.41c-5.23,0-9.48,1.61-12.48,4.95.43-1.16.65-2.57.68-4.23h-18.31c-4,0-6.28,1.76-7.85,6.28l.81-6.28h-18.5c-3.39,0-5.71,1.62-6.55,4.79-2.29-3.67-6.37-5.51-11.52-5.51-9.8,0-16.17,5.66-17.31,17.74l-.14,1.52c-1,10.8,4.66,16.12,13.46,16.12,9.8,0,16.17-5.71,17.31-17.79l.14-1.52c.26-2.77.07-5.18-.5-7.23h8.3l-2.38,20.36c-.48,4.04,1.71,5.9,5.37,5.9,2.24,0,3-.14,3.85-.29l2.95-25.97h9.66l-2.38,20.36c-.48,4.04,1.71,5.9,5.38,5.9,2.23,0,3-.14,3.85-.29l2.95-25.97h4.76c1.65,0,2.97-.38,4-1.14-1.5,2.64-2.48,5.97-2.86,10.03l-.14,1.52c-1,10.8,4.66,16.12,13.46,16.12,9.8,0,16.17-5.71,17.31-17.79l.14-1.52c1-10.75-4.66-16.08-13.46-16.08" style="fill: #f00020; stroke-width: 0px;"/>
</svg>