<?xml version="1.0" encoding="UTF-8"?>
<svg id="logo-svg" xmlns="http://www.w3.org/2000/svg" viewBox="0 0 640 100">
  <rect x="456" width="184" height="100" style="fill: #fff; stroke-width: 0px;"/>
  <path id="logo" d="m597.75,47.33l-.11,1.34c-.78,9.57-3.9,12.52-7.73,12.52-3.45,0-5.9-2.34-5.4-8.57l.11-1.39c.78-9.52,3.9-12.52,7.74-12.52,3.4,0,5.9,2.39,5.4,8.63m-86.26,0l-.11,1.34c-.78,9.57-3.9,12.52-7.74,12.52-3.45,0-5.9-2.34-5.4-8.57l.11-1.39c.78-9.52,3.9-12.52,7.74-12.52,3.39,0,5.9,2.39,5.4,8.63m81.98-18.03c-6.11,0-11.09,1.88-14.6,5.79.5-1.35.76-3.01.8-4.95h-21.43c-4.67,0-7.35,2.06-9.18,7.35l.95-7.35h-21.65c-3.96,0-6.68,1.9-7.67,5.61-2.68-4.3-7.45-6.44-13.48-6.44-11.46,0-18.92,6.62-20.26,20.76l-.17,1.78c-1.17,12.63,5.45,18.87,15.75,18.87,11.46,0,18.92-6.68,20.26-20.81l.17-1.78c.3-3.24.08-6.06-.58-8.46h9.71l-2.78,23.82c-.56,4.73,2,6.9,6.29,6.9,2.62,0,3.51-.17,4.51-.33l3.45-30.39h11.3l-2.78,23.82c-.56,4.73,2,6.9,6.29,6.9,2.61,0,3.51-.17,4.51-.33l3.45-30.39h5.57c1.93,0,3.48-.45,4.68-1.33-1.75,3.09-2.9,6.99-3.35,11.74l-.17,1.78c-1.17,12.63,5.45,18.87,15.75,18.87,11.47,0,18.92-6.68,20.26-20.81l.17-1.78c1.17-12.58-5.45-18.81-15.75-18.81" style="fill: #f00020; stroke-width: 0px;"/>
</svg>