<?xml version="1.0" encoding="UTF-8"?>
<svg id="logo-svg" xmlns="http://www.w3.org/2000/svg" viewBox="0 0 728 90">
  <rect x="582" y=".21" width="146" height="89.57" style="fill: #fff; stroke-width: 0px;"/>
  <path id="logo" d="m690.74,43.08l-.08.96c-.56,6.88-2.8,8.99-5.56,8.99-2.48,0-4.24-1.68-3.88-6.16l.08-1c.56-6.84,2.8-8.99,5.56-8.99,2.44,0,4.24,1.72,3.88,6.2m-61.96,0l-.08.96c-.56,6.88-2.8,8.99-5.56,8.99-2.48,0-4.24-1.68-3.88-6.16l.08-1c.56-6.84,2.8-8.99,5.56-8.99,2.44,0,4.24,1.72,3.88,6.2m58.88-12.95c-4.39,0-7.96,1.35-10.49,4.16.36-.97.55-2.16.57-3.56h-15.39c-3.36,0-5.28,1.48-6.6,5.28l.68-5.28h-15.55c-2.85,0-4.8,1.36-5.51,4.03-1.93-3.09-5.35-4.63-9.68-4.63-8.23,0-13.59,4.76-14.55,14.91l-.12,1.28c-.84,9.07,3.92,13.55,11.31,13.55,8.24,0,13.59-4.8,14.55-14.95l.12-1.28c.22-2.33.06-4.35-.42-6.08h6.97l-2,17.11c-.4,3.4,1.44,4.96,4.52,4.96,1.88,0,2.52-.12,3.24-.24l2.48-21.83h8.12l-2,17.11c-.4,3.4,1.44,4.96,4.52,4.96,1.88,0,2.52-.12,3.24-.24l2.48-21.83h4c1.38,0,2.5-.32,3.36-.96-1.26,2.22-2.08,5.02-2.4,8.43l-.12,1.28c-.84,9.07,3.92,13.55,11.31,13.55,8.24,0,13.59-4.8,14.55-14.95l.12-1.28c.84-9.03-3.92-13.51-11.31-13.51" style="fill: #f00020; stroke-width: 0px;"/>
</svg>