<?xml version="1.0" encoding="UTF-8"?>
<svg id="logo-svg" xmlns="http://www.w3.org/2000/svg" viewBox="0 0 1024 1024">
  <rect y="772.27" width="1024" height="251.73" style="fill: #fff; stroke-width: 0px;"/>
  <path id="logo" d="m641.97,891.16l-.29,3.49c-2.04,25-10.17,32.71-20.21,32.71-9.01,0-15.41-6.11-14.1-22.39l.29-3.64c2.04-24.86,10.18-32.71,20.21-32.71,8.87,0,15.41,6.25,14.1,22.53m-225.33,0l-.29,3.49c-2.03,25-10.18,32.71-20.21,32.71-9.01,0-15.41-6.11-14.1-22.39l.29-3.64c2.04-24.86,10.18-32.71,20.21-32.71,8.87,0,15.41,6.25,14.1,22.53m214.14-47.1c-15.97,0-28.96,4.92-38.14,15.12,1.31-3.54,2-7.85,2.09-12.93h-55.97c-12.21,0-19.19,5.38-23.99,19.19l2.47-19.19h-56.55c-10.35,0-17.46,4.95-20.03,14.65-7.01-11.23-19.46-16.83-35.21-16.83-29.95,0-49.43,17.3-52.92,54.22l-.44,4.65c-3.05,33,14.25,49.28,41.14,49.28,29.95,0,49.43-17.44,52.92-54.37l.44-4.65c.79-8.47.21-15.83-1.52-22.1h25.36l-7.27,62.22c-1.46,12.36,5.23,18.03,16.43,18.03,6.83,0,9.16-.44,11.78-.87l9.01-79.38h29.51l-7.27,62.22c-1.45,12.36,5.23,18.03,16.43,18.03,6.83,0,9.16-.44,11.78-.87l9.01-79.38h14.54c5.03,0,9.09-1.17,12.23-3.48-4.58,8.07-7.57,18.25-8.74,30.66l-.44,4.65c-3.05,33,14.25,49.28,41.14,49.28,29.95,0,49.43-17.44,52.92-54.37l.44-4.65c3.05-32.86-14.25-49.14-41.14-49.14" style="fill: #f00020; stroke-width: 0px;"/>
</svg>