<?xml version="1.0" encoding="UTF-8"?>
<svg id="logo-svg" xmlns="http://www.w3.org/2000/svg" viewBox="0 0 800 250">
  <rect x="630" width="170" height="250" style="fill: #fff; stroke-width: 0px;"/>
  <path id="logo" d="m764.36,198.56l-.11,1.33c-.77,9.5-3.86,12.42-7.67,12.42-3.42,0-5.85-2.32-5.36-8.5l.11-1.38c.77-9.44,3.86-12.42,7.67-12.42,3.37,0,5.85,2.37,5.36,8.56m-85.59,0l-.11,1.33c-.77,9.5-3.86,12.42-7.67,12.42-3.42,0-5.85-2.32-5.36-8.5l.11-1.38c.77-9.44,3.87-12.42,7.68-12.42,3.37,0,5.85,2.37,5.36,8.56m81.33-17.89c-6.07,0-11,1.87-14.49,5.74.5-1.34.76-2.98.79-4.91h-21.26c-4.64,0-7.29,2.04-9.11,7.29l.94-7.29h-21.48c-3.93,0-6.63,1.88-7.61,5.56-2.66-4.27-7.39-6.39-13.37-6.39-11.37,0-18.77,6.57-20.1,20.6l-.17,1.77c-1.16,12.53,5.41,18.72,15.63,18.72,11.37,0,18.77-6.63,20.1-20.65l.17-1.77c.3-3.22.08-6.01-.58-8.39h9.63l-2.76,23.63c-.55,4.69,1.99,6.85,6.24,6.85,2.6,0,3.48-.17,4.47-.33l3.42-30.15h11.21l-2.76,23.63c-.55,4.69,1.99,6.85,6.24,6.85,2.59,0,3.48-.17,4.47-.33l3.42-30.15h5.52c1.91,0,3.45-.44,4.64-1.32-1.74,3.06-2.87,6.93-3.32,11.65l-.17,1.77c-1.16,12.53,5.41,18.72,15.63,18.72,11.38,0,18.77-6.63,20.1-20.65l.17-1.77c1.16-12.48-5.41-18.66-15.63-18.66" style="fill: #f00020; stroke-width: 0px;"/>
</svg>