<?xml version="1.0" encoding="UTF-8"?>
<svg id="headline-svg" xmlns="http://www.w3.org/2000/svg" viewBox="0 0 960 960">
  <g id="head">
    <g id="head-h">
      <g id="tenk">
        <path d="M237.22,65.51h-18.27v-14.02h52.25v14.02h-18.27v45.45h-15.72v-45.45Z" style="fill: #ffb0b0;"/>
        <path d="M273.4,99.84c0-8.92,6.37-15.72,26.25-17.42v-2.46c0-2.97-1.87-4.42-5.35-4.42-4.08,0-8.33,1.44-14.61,4.5l-5.18-10.79c6.88-3.57,14.27-5.78,20.73-5.78,14.1,0,19.54,6.88,19.54,17.08v17.67c0,1.95,1.1,2.8,3.14,2.89v10.11c-9.69,0-13.68-1.02-16.74-5.95-3.74,4.42-7.73,6.8-14.1,6.8-7.82,0-13.68-4.84-13.68-12.23Zm5.01-46.81c0-3.99,2.63-6.2,6.29-6.2s6.46,2.21,6.46,6.2-2.8,6.2-6.46,6.2-6.29-2.21-6.29-6.2Zm21.24,45.28v-7.73c-6.63,.34-11.38,2.55-11.38,6.97,0,2.38,1.78,3.99,4.59,3.99s5.27-1.44,6.8-3.23Zm-.51-45.28c0-3.99,2.55-6.2,6.29-6.2s6.37,2.21,6.37,6.2-2.72,6.2-6.37,6.2-6.29-2.21-6.29-6.2Z" style="fill: #ffb0b0;"/>
        <path d="M336.71,96.35c-.68,.51-1.1,1.19-1.1,1.95,0,1.7,2.04,2.46,10.03,2.72,14.78,.42,22.6,4.25,22.6,13.34s-7.82,14.44-24.3,14.44c-14.36,0-23.45-3.82-23.45-11.89,0-4.33,1.87-7.31,5.95-9.52-1.7-2.04-2.46-4.25-2.46-6.29,0-3.23,1.53-6.37,4.59-8.41-3.74-2.89-6.2-7.14-6.2-12.49,0-9.94,8.5-16.74,20.39-16.74,5.27,0,9.94,1.36,13.42,3.82,3.14-2.21,7.39-3.57,13.25-3.57v9.01c-2.89,0-5.52,.25-7.9,.93,.85,1.95,1.36,4.25,1.36,6.63,0,10.71-9.52,16.74-20.14,16.74-2.04,0-4.08-.25-6.03-.68Zm7.22,23.87c7.73,0,10.54-1.02,10.54-3.4,0-2.21-2.12-3.06-9.94-3.23-3.23-.08-5.95-.42-8.33-.93-1.19,.93-1.87,2.21-1.87,3.74,0,2.55,2.46,3.82,9.6,3.82Zm4.84-39.93c0-4.42-2.38-7.22-6.03-7.22s-5.95,2.89-5.95,7.22,2.38,7.22,5.95,7.22,6.03-2.89,6.03-7.22Z" style="fill: #ffb0b0;"/>
        <path d="M373.89,46.82h15.38V110.97h-15.38V46.82Z" style="fill: #ffb0b0;"/>
        <path d="M396.56,52.85c0-5.18,3.57-7.82,8.67-7.82s8.84,2.63,8.84,7.82-3.65,7.82-8.84,7.82-8.67-2.8-8.67-7.82Zm1.1,11.72h15.38v46.39h-15.38v-46.39Z" style="fill: #ffb0b0;"/>
        <path d="M419.11,87.6c0-15.04,10.37-24.13,24.04-24.13,5.1,0,11.13,1.53,16.4,5.86l-7.31,9.69c-2.38-1.95-5.18-3.14-8.5-3.14-4.76,0-9.26,3.65-9.26,11.72s4.42,12.15,9.26,12.15c3.31,0,5.78-1.19,8.16-3.14l7.82,8.84c-4.84,4.42-10.37,6.63-16.57,6.63-13.42,0-24.04-9.09-24.04-24.47Z" style="fill: #ffb0b0;"/>
        <path d="M464.15,46.82h15.38v22.85c3.23-3.31,7.73-6.03,13.34-6.03,10.28,0,14.1,5.78,14.1,16.57v30.76h-15.29v-31.18c0-3.06-1.36-5.1-4.67-5.1-2.72,0-5.44,1.61-7.48,4.16v32.12h-15.38V46.82Z" style="fill: #ffb0b0;"/>
        <path d="M535.85,64.58h14.53l.68,5.1c3.31-3.31,7.9-6.12,13.51-6.12,10.28,0,14.1,5.86,14.1,16.65v30.76h-15.21v-31.18c0-3.06-1.36-5.1-4.76-5.1-2.63,0-5.44,1.61-7.56,4.16v32.12h-15.29v-46.39Z" style="fill: #ffb0b0;"/>
        <path d="M584.7,87.94c0-15.12,10.45-24.47,23.53-24.47s21.33,8.07,21.33,20.99c0,2.29-.34,5.01-.68,6.8h-28.63c.76,6.03,3.82,8.75,9.26,8.75,4.42,0,8.58-1.36,12.4-3.65l6.03,9.35c-5.78,4.33-12.32,6.37-19.63,6.37-13,0-23.62-8.75-23.62-24.13Zm15.72-5.1h14.7c.08-5.27-1.87-8.75-6.63-8.75-3.74,0-6.97,2.63-8.07,8.75Z" style="fill: #ffb0b0;"/>
        <path d="M635.72,95.33v-30.76h15.21v31.18c0,3.06,1.27,5.1,4.67,5.1,2.8,0,5.44-1.61,7.65-4.16v-32.12h15.29v46.39h-14.36l-.85-5.1c-3.14,3.31-8.16,6.2-13.51,6.2-10.2,0-14.1-5.95-14.1-16.74Z" style="fill: #ffb0b0;"/>
        <path d="M684.8,87.94c0-15.12,10.45-24.47,23.53-24.47s21.33,8.07,21.33,20.99c0,2.29-.34,5.01-.68,6.8h-28.63c.76,6.03,3.82,8.75,9.26,8.75,4.42,0,8.58-1.36,12.4-3.65l6.03,9.35c-5.78,4.33-12.32,6.37-19.63,6.37-13,0-23.62-8.75-23.62-24.13Zm15.72-5.1h14.7c.08-5.27-1.87-8.75-6.63-8.75-3.74,0-6.97,2.63-8.07,8.75Z" style="fill: #ffb0b0;"/>
      </g>
    </g>
    <g id="head-h-2" data-name="head-h">
      <path id="deals" d="M222.51,144.85h48.12c50.14,0,76.37,25.71,76.37,69.65s-24.47,72.07-76.37,72.07h-48.12s0-141.72,0-141.72Zm51.51,111.77c24.08,0,35.98-15.79,35.98-41.69s-12.92-40.1-35.98-40.1h-14.71v81.82h14.71v-.03Zm86.36-24.96c0-36.05,24.47-58.33,55.1-58.33s49.92,19.25,49.92,50.01c0,5.45-.78,11.94-1.6,16.18h-67.01c1.79,14.35,8.97,20.85,21.66,20.85,10.34,0,20.1-3.23,29.04-8.71l14.09,22.28c-13.54,10.34-28.84,15.2-45.97,15.2-30.41,0-55.27-20.85-55.27-57.48h.03Zm36.77-12.17h34.42c.2-12.56-4.4-20.85-15.5-20.85-8.74,0-16.31,6.26-18.89,20.85h-.03Zm75.98,40.49c0-21.24,14.91-37.45,61.46-41.5v-5.87c0-7.08-4.4-10.51-12.53-10.51-9.53,0-19.51,3.46-34.22,10.73l-12.14-25.71c16.12-8.51,33.41-13.77,48.51-13.77,33.02,0,45.74,16.41,45.74,40.72v42.12c0,4.67,2.58,6.66,7.37,6.88v24.11c-22.67,0-32.04-2.41-39.18-14.19-8.74,10.51-18.11,16.18-33.02,16.18-18.27,0-32.04-11.55-32.04-29.17h0l.03-.03Zm61.46-3.62v-18.43c-15.5,.82-26.62,6.07-26.62,16.61,0,5.68,4.18,9.53,10.73,9.53s12.33-3.46,15.92-7.7h-.03Zm58.72-122.7h35.98v152.88h-35.98V133.69h0v-.03Zm49.26,144.13l12.33-25.09c10.73,5.45,22.28,9.3,32.59,9.3,8.97,0,12.33-2.84,12.33-7.28,0-5.68-7.73-7.47-17.32-10.11-15.92-3.85-37.78-9.3-37.78-35.66,0-23.49,21.08-35.66,44.96-35.66,11.74,0,24.66,2.22,40.78,9.92l-11.94,24.11c-10.54-5.06-22.28-6.88-28.25-6.88-7.96,0-11.32,2.84-11.32,7.08,0,5.68,7.76,7.7,17.1,9.92,15.92,3.62,37.58,8.91,37.58,34.84,0,23.49-18.89,36.87-45.35,36.87-16.31,0-32.2-4.24-45.74-11.32h0l.03-.03Z" style="fill: #fff;"/>
    </g>
  </g>
</svg>