<?xml version="1.0" encoding="UTF-8"?>
<svg id="headline-svg" xmlns="http://www.w3.org/2000/svg" viewBox="0 0 960 960">
  <g id="teaser">
    <ellipse cx="289.37" cy="504.08" rx="98.07" ry="97.74" style="fill: #ffb0b0;"/>
    <path d="M249.59,481.8c0-12.89,9.05-20.08,19.34-20.08s18.97,7.19,18.97,20.08-8.68,20.33-18.97,20.33-19.34-7.31-19.34-20.33Zm63.6-19.72h10.79l-60,86.78h-10.91l60.13-86.78Zm-37.32,19.72c0-7.07-2.48-11.53-6.94-11.53s-7.19,4.46-7.19,11.53,2.48,11.65,7.19,11.65c4.46,0,6.94-4.59,6.94-11.65Zm13.51,49.22c0-13.02,9.05-20.08,19.34-20.08s18.97,7.07,18.97,20.08-8.55,20.33-18.97,20.33-19.34-7.44-19.34-20.33Zm26.16,0c0-7.07-2.48-11.53-6.82-11.53-4.59,0-7.31,4.46-7.31,11.53s2.6,11.65,7.31,11.65c4.34,0,6.82-4.46,6.82-11.65Z"/>
  </g>
  <g id="center-logo">
    <g id="friday-center">
      <path id="friday" d="M458.2,550.57l-29.28-33.96h57.11v25.38l-27.02-24.56v25.58h20.08v19.65l-20.08-18.83v44.64l-30.1-37.66,29.28-.2h0v-.03Zm33.37-19.68h15.56l1.21,7.56c2.06-3.47,4.09-5.73,6.55-7.14s4.91-2.06,7.79-2.06c.62,0,2.46,.2,5.53,.62l-1.83,15.75c-2.88-.62-5.34-1.02-7.37-1.02-4.49,0-8.19,2.65-10.64,7.79v30.1h-17l.2-51.58h0v-.03Zm44.21-19.09c1.83-1.44,4.09-2.26,6.94-2.26,3.08,0,5.34,.62,7.14,2.06s2.65,3.47,2.65,6.12-.82,4.91-2.65,6.35-4.09,2.26-7.14,2.26c-2.88,0-5.14-.82-6.94-2.26-1.83-1.44-2.65-3.67-2.65-6.35,0-2.46,.82-4.49,2.65-5.93h0Zm-1.21,19.03h17v51.78h-17v-51.78Zm29.47,5.53c3.47-4.49,8.19-6.75,14.15-6.75,2.65,0,5.14,.62,7.56,1.83,2.42,1.21,4.49,2.88,5.93,4.91v-24.95h17v71.23h-14.74l-1.02-5.93c-4.29,4.49-9.2,6.94-15.36,6.94-5.73,0-10.22-2.26-13.49-6.94-3.47-4.72-5.14-11.46-5.14-20.27,.2-9.01,1.83-15.56,5.14-20.08h-.03Zm13.92,30.49c1.21,2.65,3.27,3.86,5.73,3.86,3.27,0,5.93-1.21,7.99-3.47v-21.29c-2.06-2.46-4.72-3.47-7.99-3.47-5.14,0-7.56,4.49-7.56,13.49,0,4.72,.62,8.19,1.83,10.84h0v.03Zm45.23-10.02c4.49-3.27,11.89-5.34,22.3-6.12v-2.88c0-3.27-2.06-4.91-6.12-4.91-2.26,0-4.49,.39-6.94,1.21-2.46,.82-5.53,2.06-9.2,3.86l-5.73-12.08c7.79-4.29,15.56-6.55,22.73-6.55s13.1,1.64,16.57,5.14c3.67,3.47,5.34,7.99,5.34,13.72v19.85c0,2.06,1.02,3.08,3.27,3.08v11.46c-5.53,0-9.63-.39-12.08-1.21-2.65-.82-4.72-2.65-6.55-5.34-2.06,2.46-4.29,4.29-6.75,5.53s-5.53,1.83-8.81,1.83c-4.49,0-7.99-1.21-10.84-3.67s-4.29-5.73-4.29-9.82c.62-5.34,2.65-9.82,7.14-13.1h-.03Zm11.07,13.92c.82,.82,2.26,1.21,3.67,1.21,3.08,0,5.53-1.21,7.56-3.47v-9.01c-3.86,.2-6.94,1.02-9.4,2.46s-3.47,3.27-3.47,5.73c.2,1.21,.62,2.46,1.64,3.08h0Zm50.56-39.89l9.2,30.29h.2l9.4-30.29h16.57l-17.19,50.56c-2.88,8.19-5.93,13.72-9.4,16.57-3.47,2.85-7.79,4.29-13.1,4.29-4.29,0-8.61-.62-12.67-1.83l4.09-12.67c2.26,.82,4.72,1.21,7.37,1.21,1.64,0,3.08-.39,3.86-1.02,.79-.62,1.64-2.06,2.26-3.86l.82-2.26-18.4-50.96h16.96l.03-.03Z" style="fill: #ffb0b0;"/>
    </g>
    <g id="black-center">
      <path id="black" d="M435.66,494.67c3.67,2.46,9.4,3.67,17,3.67,12.48,0,21.88-2.46,28.03-7.56,6.35-5.14,9.4-11.66,9.4-19.85,0-4.29-1.02-7.37-3.27-9.63-2.26-2.26-5.53-3.27-9.63-3.27-1.44,0-3.08,.2-4.72,.62-1.64,.43-2.65,.62-3.27,.82-2.65,.82-4.29,1.21-5.34,1.21-.82,0-1.21-.39-1.21-1.02s.39-1.21,1.44-1.83c.82-.62,2.06-1.44,3.08-2.06,3.67-2.46,6.55-4.49,8.61-6.55s3.08-4.49,3.08-7.79c0-3.86-1.44-6.94-4.09-9.4-2.65-2.26-6.55-3.47-11.89-3.47s-10.64,1.02-15.36,3.27c-4.72,2.26-8.38,4.72-11.27,7.56s-4.09,5.34-4.09,7.37c0,1.83,.82,2.65,2.46,2.65,1.21,0,4.72-.82,10.45-2.46,6.35-2.06,10.64-3.08,13.3-3.08,2.46,0,3.67,1.02,3.67,3.27,0,2.46-.82,5.14-2.46,8.19-1.21,1.83-1.83,3.27-1.83,4.29,0,2.06,1.02,3.08,3.08,3.08,1.02,0,2.06-.2,2.65-.2,.82-.2,1.64-.2,2.46-.2,1.64,0,2.46,1.21,2.46,3.86,0,7.79-1.44,14.74-4.29,20.66-2.88,6.12-6.55,9.2-11.27,9.2-4.09,0-6.12-2.06-6.12-5.93,0-1.44,.39-3.08,1.02-5.14s1.44-3.86,2.26-5.73c1.21-2.65,2.06-5.14,2.65-7.37,.62-2.06,.82-4.29,.82-6.35,0-4.49-.62-7.99-2.26-10.84-1.44-2.88-2.88-4.29-4.49-4.29-.82,0-1.44,.2-2.06,.82s-.82,1.21-.82,2.06c0,1.64,1.02,3.27,3.27,4.91,1.21,1.21,2.26,2.26,2.88,3.08s1.02,1.83,1.02,3.08c0,1.44-.62,2.65-2.06,3.67-1.21,1.02-3.47,2.26-6.55,3.67-4.09,2.06-7.14,3.86-9.4,5.73-2.26,1.87-3.27,4.29-3.27,7.56,.39,3.86,2.26,7.14,5.93,9.63h.07v.03l-.03,.03Zm73.88-70.41c2.46,0,4.49,.39,6.55,1.02-3.27,22.3-4.91,41.95-4.91,58.33-5.34-2.06-9.01-5.34-11.46-9.82-2.46-4.49-3.67-12.08-3.67-22.5-.2-18.21,4.29-27.21,13.49-27.02h0Zm-1.21,61.17c3.86,1.21,8.38,2.06,13.1,2.26-.2,3.08-1.21,5.53-3.08,7.56s-4.72,2.88-8.38,2.88c-4.09,0-7.37-1.21-9.82-3.86-2.46-2.46-3.67-6.12-3.67-10.84,0-2.26,.2-3.86,.39-5.14,3.67,3.47,7.56,5.93,11.46,7.14h0Zm22.3-14.34c4.49-3.27,11.89-5.53,22.3-6.35v-2.46c0-3.27-2.06-4.91-5.93-4.91-2.26,0-4.49,.39-7.14,1.21-2.46,.82-5.53,2.06-9.2,3.67l-5.73-12.08c8.61-4.29,16.37-6.55,22.92-6.55,7.37,0,12.87,1.64,16.37,4.91,3.5,3.27,5.14,7.99,5.14,14.15v19.45c0,2.26,1.21,3.27,3.67,3.27v11.27c-5.73,0-10.02-.39-12.48-1.21-2.65-.82-4.72-2.65-6.35-5.34-2.26,2.65-4.49,4.49-6.94,5.73-2.46,1.24-5.34,1.83-8.61,1.83-4.49,0-7.99-1.21-10.84-3.67-2.88-2.46-4.29-5.73-4.29-9.82,.62-5.34,2.88-9.63,7.14-13.1h-.03Zm11.07,13.75c1.02,.82,2.26,1.21,3.67,1.21,2.88,0,5.53-1.02,7.56-3.27v-8.81c-3.86,.2-6.94,1.02-9.4,2.46s-3.47,3.08-3.47,5.34c.2,1.02,.82,2.06,1.64,3.08h0Zm44.21-33.76c5.14-4.91,11.46-7.37,19.22-7.37,3.08,0,6.12,.62,9.4,1.64s6.12,2.65,8.81,5.14l-7.79,10.84c-2.65-2.46-5.93-3.47-9.63-3.47-2.65,0-5.14,1.02-7.37,3.27-2.23,2.26-3.08,5.53-3.08,9.63s1.02,7.56,3.08,10.02c2.06,2.46,4.49,3.47,7.37,3.47,3.27,0,6.35-1.21,9.01-3.67l8.81,9.82c-5.73,4.91-11.89,7.56-18.4,7.56-7.79,0-14.15-2.46-19.22-7.37-5.08-4.91-7.56-11.46-7.56-19.85-.2-8.19,2.26-14.54,7.37-19.65h0v-.03Zm43.79-25.84h17v40.74l17.19-20.89h17l-15.95,18.4,16.57,32.95h-19.45l-8.38-19.85-7.14,8.19v11.66h-17l.2-71.23h0v.03h-.03Z" style="fill: #ffb0b0;"/>
    </g>
  </g>
  <g id="button">
    <g>
      <path d="M368.68,662.39l4.14-2.77c.89,1.62,2.18,2.92,4.14,2.92,2.25,0,3.58-1.55,3.58-4.06v-17.32h5.61v17.39c0,5.83-3.51,8.9-8.79,8.9-3.95,0-6.79-1.88-8.68-5.06Z" style="fill: #fff;"/>
      <path d="M389.91,657.11c0-6.35,4.39-10.38,9.93-10.38s8.9,3.54,8.9,8.9c0,.85-.11,1.88-.22,2.58h-13.15c.33,3.32,1.92,4.99,4.91,4.99,1.99,0,3.88-.67,5.54-1.66l2.22,3.32c-2.36,1.74-5.13,2.62-8.12,2.62-5.76,0-10.01-3.88-10.01-10.38Zm5.61-2.1h8.05c0-2.55-1-4.47-3.62-4.47-2.1,0-3.91,1.51-4.43,4.47Z" style="fill: #fff;"/>
      <path d="M413.69,660.84v-9.9h-3.06v-3.73h3.06v-4.98h5.47v4.98h5.46v3.73h-5.46v9.79c0,1.59,.59,2.4,1.96,2.4,.96,0,1.88-.37,2.58-.89l1.92,3.21c-1.59,1.22-3.62,1.99-5.8,1.99-4.25,0-6.13-2.07-6.13-6.61Z" style="fill: #fff;"/>
      <path d="M427.88,663.49l9.42-12.22h-9.12v-4.06h15.69v3.66l-9.27,12.07h9.67v4.06h-16.4v-3.51Z" style="fill: #fff;"/>
      <path d="M449.37,660.84v-9.9h-3.06v-3.73h3.06v-4.98h5.47v4.98h5.46v3.73h-5.46v9.79c0,1.59,.59,2.4,1.96,2.4,.96,0,1.88-.37,2.58-.89l1.92,3.21c-1.59,1.22-3.62,1.99-5.8,1.99-4.25,0-6.13-2.07-6.13-6.61Z" style="fill: #fff;"/>
      <path d="M472.08,665.41l2.03-3.73c1.85,1,4.03,1.7,6.06,1.7s2.99-.7,2.99-1.88c0-1.48-1.74-1.88-3.8-2.4-2.99-.7-6.87-1.7-6.87-6.2,0-4.02,3.62-6.17,7.9-6.17,2.14,0,4.54,.44,7.27,1.7l-1.88,3.66c-1.85-.89-4.03-1.29-5.32-1.29-1.81,0-2.73,.74-2.73,1.88,0,1.44,1.7,1.85,3.73,2.33,2.99,.7,6.87,1.62,6.87,6.17,0,4.03-3.29,6.28-8.05,6.28-3.03,0-5.83-.78-8.2-2.03Z" style="fill: #fff;"/>
      <path d="M491.88,647.21h4.88l.44,2.47c1.44-1.77,3.4-2.92,5.72-2.92,4.58,0,7.64,3.43,7.64,10.12s-3.07,10.56-7.42,10.56c-2.47,0-4.36-1.07-5.87-2.58v9.53h-5.39v-27.18Zm13.26,9.71c0-3.8-1.33-6.06-3.91-6.06-1.59,0-2.88,.81-3.95,1.99v8.57c1.11,1.26,2.44,1.92,3.95,1.92,2.62,0,3.91-2.66,3.91-6.42Z" style="fill: #fff;"/>
      <path d="M513.13,662.28c0-4.21,3.51-6.68,11.52-7.27v-1.59c0-1.51-.89-2.4-2.77-2.4s-3.84,.7-6.35,1.92l-1.92-3.91c2.73-1.37,5.8-2.29,8.53-2.29,5.69,0,7.94,2.81,7.94,6.87v8.38c0,1.03,.59,1.48,1.55,1.48v3.62c-3.69,0-5.32-.55-6.39-2.51-1.62,1.85-3.47,2.88-6.28,2.88-3.4,0-5.83-2.07-5.83-5.17Zm11.52-.41v-3.8c-3.21,.18-6.24,1.07-6.24,3.51,0,1.26,1,2.11,2.47,2.11,1.62,0,2.99-.81,3.77-1.81Z" style="fill: #fff;"/>
      <path d="M535.04,647.21h5.06l.37,2.95c1.51-2.7,3.51-3.54,5.69-3.54,.81,0,1.59,.15,2.25,.3l-.7,5.02c-.66-.22-1.55-.41-2.58-.41-2.03,0-3.47,1.15-4.62,3.29v12.19h-5.46v-19.79Z" style="fill: #fff;"/>
      <path d="M549.85,657.11c0-6.35,4.39-10.38,9.93-10.38s8.9,3.54,8.9,8.9c0,.85-.11,1.88-.22,2.58h-13.15c.33,3.32,1.92,4.99,4.91,4.99,1.99,0,3.88-.67,5.54-1.66l2.22,3.32c-2.36,1.74-5.13,2.62-8.12,2.62-5.76,0-10.01-3.88-10.01-10.38Zm5.61-2.1h8.05c0-2.55-1-4.47-3.62-4.47-2.1,0-3.91,1.51-4.43,4.47Z" style="fill: #fff;"/>
      <path d="M572.41,647.21h5.17l.26,2.36c1.51-1.55,3.62-2.84,6.17-2.84,4.47,0,6.17,2.62,6.17,7.09v13.18h-5.47v-13.33c0-1.74-.7-2.92-2.62-2.92-1.59,0-3.07,.85-4.21,2.29v13.96h-5.46v-19.79Z" style="fill: #fff;"/>
    </g>
    <rect x="327.87" y="620.02" width="304.26" height="70.69" rx="18.23" ry="18.23" style="fill: none; stroke: #fff; stroke-miterlimit: 10; stroke-width: 5px;"/>
  </g>
</svg>