<?xml version="1.0" encoding="UTF-8"?>
<svg id="headline-svg" xmlns="http://www.w3.org/2000/svg" viewBox="0 0 960 960">
  <g id="head">
    <g id="head-h">
      <path id="deals" d="M2.46,128.09H63.3c63.4,0,96.56,32.5,96.56,88.06s-30.93,91.11-96.56,91.11H2.46s0-179.17,0-179.17Zm65.13,141.31c30.44,0,45.49-19.96,45.49-52.71s-16.33-50.69-45.49-50.69h-18.6v103.45h18.6v-.04Zm109.18-31.55c0-45.58,30.93-73.75,69.67-73.75s63.11,24.34,63.11,63.23c0,6.89-.99,15.1-2.02,20.46h-84.72c2.27,18.15,11.34,26.36,27.39,26.36,13.08,0,25.41-4.08,36.71-11.01l17.82,28.17c-17.12,13.08-36.46,19.22-58.12,19.22-38.44,0-69.87-26.36-69.87-72.68h.04Zm46.48-15.38h43.52c.25-15.88-5.57-26.36-19.59-26.36-11.05,0-20.62,7.92-23.88,26.36h-.04Zm96.06,51.19c0-26.85,18.85-47.35,77.71-52.47v-7.42c0-8.95-5.57-13.28-15.84-13.28-12.04,0-24.67,4.37-43.27,13.57l-15.34-32.5c20.38-10.77,42.24-17.41,61.33-17.41,41.74,0,57.83,20.75,57.83,51.48v53.25c0,5.9,3.26,8.41,9.32,8.7v30.48c-28.67,0-40.5-3.05-49.54-17.94-11.05,13.28-22.89,20.46-41.74,20.46-23.1,0-40.5-14.6-40.5-36.87h0l.04-.04Zm77.71-4.58v-23.3c-19.59,1.03-33.66,7.67-33.66,20.99,0,7.18,5.28,12.04,13.57,12.04s15.59-4.37,20.13-9.73h-.04Zm74.24-155.13h45.49v193.28h-45.49V113.98h0v-.04Zm62.28,182.23l15.59-31.72c13.57,6.89,28.17,11.76,41.21,11.76,11.34,0,15.59-3.59,15.59-9.2,0-7.18-9.78-9.45-21.9-12.79-20.13-4.87-47.76-11.76-47.76-45.08,0-29.7,26.65-45.08,56.84-45.08,14.85,0,31.18,2.8,51.56,12.54l-15.1,30.48c-13.32-6.39-28.17-8.7-35.72-8.7-10.06,0-14.31,3.59-14.31,8.95,0,7.18,9.82,9.73,21.61,12.54,20.13,4.58,47.52,11.26,47.52,44.05,0,29.7-23.88,46.61-57.33,46.61-20.62,0-40.71-5.36-57.83-14.31h0l.04-.04Z" style="fill: #fff;"/>
    </g>
    <g id="head-h-2" data-name="head-h">
      <g id="tenk">
        <path d="M21.42,26.97H-2V8.99H65V26.97h-23.42v58.29H21.42V26.97Z" style="fill: #ffb0b0;"/>
        <path d="M67.83,70.98c0-11.44,8.17-20.16,33.67-22.33v-3.16c0-3.81-2.4-5.67-6.86-5.67-5.23,0-10.68,1.85-18.74,5.77l-6.65-13.84c8.83-4.58,18.3-7.41,26.58-7.41,18.09,0,25.06,8.82,25.06,21.9v22.66c0,2.51,1.42,3.59,4.03,3.7v12.96c-12.42,0-17.54-1.31-21.46-7.63-4.79,5.67-9.91,8.72-18.09,8.72-10.02,0-17.54-6.21-17.54-15.69Zm6.43-60.03c0-5.12,3.38-7.95,8.06-7.95s8.28,2.83,8.28,7.95-3.59,7.95-8.28,7.95-8.06-2.83-8.06-7.95Zm27.24,58.07v-9.91c-8.5,.44-14.6,3.27-14.6,8.93,0,3.05,2.29,5.12,5.88,5.12s6.75-1.85,8.72-4.14Zm-.65-58.07c0-5.12,3.27-7.95,8.06-7.95s8.17,2.83,8.17,7.95-3.49,7.95-8.17,7.95-8.06-2.83-8.06-7.95Z" style="fill: #ffb0b0;"/>
        <path d="M149.02,66.51c-.87,.65-1.42,1.53-1.42,2.51,0,2.18,2.62,3.16,12.86,3.49,18.96,.54,28.98,5.45,28.98,17.11s-10.02,18.52-31.16,18.52c-18.41,0-30.07-4.9-30.07-15.25,0-5.56,2.4-9.37,7.63-12.2-2.18-2.61-3.16-5.45-3.16-8.06,0-4.14,1.96-8.17,5.88-10.79-4.79-3.7-7.95-9.15-7.95-16.02,0-12.75,10.9-21.46,26.15-21.46,6.75,0,12.75,1.74,17.21,4.9,4.03-2.83,9.48-4.58,17-4.58v11.55c-3.7,0-7.08,.33-10.13,1.2,1.09,2.51,1.74,5.45,1.74,8.5,0,13.73-12.2,21.46-25.82,21.46-2.61,0-5.23-.33-7.74-.87Zm9.26,30.61c9.91,0,13.51-1.31,13.51-4.36,0-2.83-2.72-3.92-12.75-4.14-4.14-.11-7.63-.54-10.68-1.2-1.53,1.2-2.4,2.83-2.4,4.79,0,3.27,3.16,4.9,12.31,4.9Zm6.21-51.21c0-5.67-3.05-9.26-7.74-9.26s-7.63,3.7-7.63,9.26,3.05,9.26,7.63,9.26,7.74-3.7,7.74-9.26Z" style="fill: #ffb0b0;"/>
        <path d="M196.71,3h19.72V85.25h-19.72V3Z" style="fill: #ffb0b0;"/>
        <path d="M225.79,10.73c0-6.65,4.58-10.02,11.11-10.02s11.33,3.38,11.33,10.02-4.68,10.02-11.33,10.02-11.11-3.6-11.11-10.02Zm1.42,15.04h19.72v59.49h-19.72V25.77Z" style="fill: #ffb0b0;"/>
        <path d="M254.7,55.29c0-19.28,13.29-30.94,30.83-30.94,6.54,0,14.27,1.96,21.03,7.52l-9.37,12.42c-3.05-2.51-6.65-4.03-10.89-4.03-6.1,0-11.88,4.68-11.88,15.03s5.67,15.58,11.88,15.58c4.25,0,7.41-1.53,10.46-4.03l10.02,11.33c-6.21,5.67-13.29,8.5-21.25,8.5-17.21,0-30.83-11.66-30.83-31.38Z" style="fill: #ffb0b0;"/>
        <path d="M312.47,3h19.72v29.31c4.14-4.25,9.91-7.74,17.1-7.74,13.18,0,18.09,7.41,18.09,21.24v39.44h-19.61V45.27c0-3.92-1.74-6.54-5.99-6.54-3.49,0-6.97,2.07-9.59,5.34v41.18h-19.72V3Z" style="fill: #ffb0b0;"/>
        <path d="M404.43,25.77h18.63l.87,6.54c4.25-4.25,10.13-7.84,17.32-7.84,13.18,0,18.08,7.52,18.08,21.35v39.44h-19.5V45.27c0-3.92-1.74-6.54-6.1-6.54-3.38,0-6.97,2.07-9.7,5.34v41.18h-19.61V25.77Z" style="fill: #ffb0b0;"/>
        <path d="M467.07,55.73c0-19.39,13.4-31.38,30.18-31.38s27.35,10.35,27.35,26.91c0,2.94-.44,6.43-.87,8.71h-36.71c.98,7.74,4.9,11.22,11.88,11.22,5.67,0,11-1.74,15.91-4.68l7.74,11.98c-7.41,5.56-15.8,8.17-25.17,8.17-16.67,0-30.29-11.22-30.29-30.94Zm20.16-6.54h18.85c.11-6.75-2.4-11.22-8.5-11.22-4.79,0-8.93,3.38-10.35,11.22Z" style="fill: #ffb0b0;"/>
        <path d="M532.5,65.21V25.77h19.5v39.98c0,3.92,1.63,6.54,5.99,6.54,3.59,0,6.97-2.07,9.8-5.34V25.77h19.61v59.49h-18.41l-1.09-6.54c-4.03,4.25-10.46,7.95-17.32,7.95-13.07,0-18.08-7.63-18.08-21.46Z" style="fill: #ffb0b0;"/>
        <path d="M595.46,55.73c0-19.39,13.4-31.38,30.18-31.38s27.35,10.35,27.35,26.91c0,2.94-.44,6.43-.87,8.71h-36.71c.98,7.74,4.9,11.22,11.88,11.22,5.67,0,11-1.74,15.91-4.68l7.74,11.98c-7.41,5.56-15.8,8.17-25.17,8.17-16.67,0-30.29-11.22-30.29-30.94Zm20.16-6.54h18.85c.11-6.75-2.4-11.22-8.5-11.22-4.79,0-8.93,3.38-10.35,11.22Z" style="fill: #ffb0b0;"/>
      </g>
    </g>
  </g>
</svg>