<?xml version="1.0" encoding="UTF-8"?>
<svg id="headline-svg" xmlns="http://www.w3.org/2000/svg" viewBox="0 0 960 960">
  <g id="teaser">
    <ellipse cx="122.59" cy="837.25" rx="122.59" ry="122.18" style="fill: #ffb0b0;"/>
    <path d="M75.4,809.59c0-15.28,10.73-23.8,22.92-23.8s22.48,8.52,22.48,23.8-10.28,24.1-22.48,24.1-22.92-8.67-22.92-24.1Zm75.37-22.19h12.78l-71.11,102.85h-12.93l71.26-102.85Zm-44.23,22.19c0-8.38-2.94-13.66-8.23-13.66s-8.52,5.29-8.52,13.66,2.94,13.81,8.52,13.81c5.29,0,8.23-5.44,8.23-13.81Zm16.02,58.33c0-15.43,10.73-23.8,22.92-23.8s22.48,8.38,22.48,23.8-10.14,24.1-22.48,24.1-22.92-8.82-22.92-24.1Zm31,0c0-8.38-2.94-13.66-8.08-13.66-5.44,0-8.67,5.29-8.67,13.66s3.08,13.81,8.67,13.81c5.14,0,8.08-5.29,8.08-13.81Z"/>
  </g>
  <g id="center-logo">
    <g id="friday-center">
      <path id="friday" d="M333.62,895.36l-36.6-42.45h71.39v31.73l-33.77-30.7v31.97h25.09v24.56l-25.09-23.54v55.8l-37.62-47.08,36.6-.25h0v-.04Zm41.71-24.6h19.44l1.51,9.46c2.58-4.34,5.12-7.16,8.19-8.92s6.14-2.58,9.74-2.58c.78,0,3.07,.25,6.92,.78l-2.29,19.69c-3.6-.78-6.67-1.27-9.21-1.27-5.61,0-10.23,3.32-13.3,9.74v37.62h-21.25l.25-64.47h0v-.04Zm55.26-23.87c2.29-1.8,5.12-2.82,8.68-2.82,3.85,0,6.67,.78,8.92,2.58,2.25,1.8,3.32,4.34,3.32,7.66s-1.02,6.14-3.32,7.94c-2.29,1.8-5.12,2.82-8.92,2.82-3.6,0-6.43-1.02-8.68-2.82-2.29-1.8-3.32-4.58-3.32-7.94,0-3.07,1.02-5.61,3.32-7.41h0Zm-1.51,23.78h21.25v64.72h-21.25v-64.72Zm36.84,6.92c4.34-5.61,10.23-8.43,17.68-8.43,3.32,0,6.43,.78,9.46,2.29,3.03,1.51,5.61,3.6,7.41,6.14v-31.19h21.25v89.04h-18.42l-1.27-7.41c-5.36,5.61-11.5,8.68-19.2,8.68-7.16,0-12.77-2.82-16.87-8.68-4.34-5.89-6.43-14.33-6.43-25.34,.25-11.26,2.29-19.44,6.43-25.09h-.04Zm17.4,38.11c1.51,3.32,4.09,4.83,7.16,4.83,4.09,0,7.41-1.51,9.99-4.34v-26.61c-2.58-3.07-5.89-4.34-9.99-4.34-6.43,0-9.46,5.61-9.46,16.87,0,5.89,.78,10.23,2.29,13.55h0v.04Zm56.53-12.53c5.61-4.09,14.86-6.67,27.88-7.66v-3.6c0-4.09-2.58-6.14-7.66-6.14-2.82,0-5.61,.49-8.68,1.51s-6.92,2.58-11.5,4.83l-7.16-15.11c9.74-5.36,19.44-8.19,28.41-8.19s16.37,2.05,20.71,6.43c4.58,4.34,6.67,9.99,6.67,17.15v24.81c0,2.58,1.27,3.85,4.09,3.85v14.33c-6.92,0-12.04-.49-15.11-1.51-3.32-1.02-5.89-3.32-8.19-6.67-2.58,3.07-5.36,5.36-8.43,6.92s-6.92,2.29-11.01,2.29c-5.61,0-9.99-1.51-13.55-4.58s-5.36-7.16-5.36-12.28c.78-6.67,3.32-12.28,8.92-16.37h-.04Zm13.84,17.4c1.02,1.02,2.82,1.51,4.58,1.51,3.85,0,6.92-1.51,9.46-4.34v-11.26c-4.83,.25-8.68,1.27-11.75,3.07s-4.34,4.09-4.34,7.16c.25,1.51,.78,3.07,2.05,3.85h0Zm63.21-49.86l11.5,37.87h.25l11.75-37.87h20.71l-21.49,63.21c-3.6,10.23-7.41,17.15-11.75,20.71s-9.74,5.36-16.37,5.36c-5.36,0-10.77-.78-15.84-2.29l5.12-15.84c2.82,1.02,5.89,1.51,9.21,1.51,2.05,0,3.85-.49,4.83-1.27s2.05-2.58,2.82-4.83l1.02-2.82-23.01-63.7h21.2l.04-.04Z" style="fill: #ffb0b0;"/>
    </g>
    <g id="black-center">
      <path id="black" d="M305.45,825.48c4.58,3.07,11.75,4.58,21.25,4.58,15.6,0,27.35-3.07,35.04-9.46,7.94-6.43,11.75-14.57,11.75-24.81,0-5.36-1.27-9.21-4.09-12.04s-6.92-4.09-12.04-4.09c-1.8,0-3.85,.25-5.89,.78s-3.32,.78-4.09,1.02c-3.32,1.02-5.36,1.51-6.67,1.51-1.02,0-1.51-.49-1.51-1.27s.49-1.51,1.8-2.29c1.02-.78,2.58-1.8,3.85-2.58,4.58-3.07,8.19-5.61,10.77-8.19,2.58-2.58,3.85-5.61,3.85-9.74,0-4.83-1.8-8.68-5.12-11.75-3.32-2.82-8.19-4.34-14.86-4.34s-13.3,1.27-19.2,4.09c-5.89,2.82-10.48,5.89-14.08,9.46s-5.12,6.67-5.12,9.21c0,2.29,1.02,3.32,3.07,3.32,1.51,0,5.89-1.02,13.06-3.07,7.94-2.58,13.3-3.85,16.62-3.85,3.07,0,4.58,1.27,4.58,4.09,0,3.07-1.02,6.43-3.07,10.23-1.51,2.29-2.29,4.09-2.29,5.36,0,2.58,1.27,3.85,3.85,3.85,1.27,0,2.58-.25,3.32-.25,1.02-.25,2.05-.25,3.07-.25,2.05,0,3.07,1.51,3.07,4.83,0,9.74-1.8,18.42-5.36,25.83-3.6,7.66-8.19,11.5-14.08,11.5-5.12,0-7.66-2.58-7.66-7.41,0-1.8,.49-3.85,1.27-6.43s1.8-4.83,2.82-7.16c1.51-3.32,2.58-6.43,3.32-9.21,.78-2.58,1.02-5.36,1.02-7.94,0-5.61-.78-9.99-2.82-13.55-1.8-3.6-3.6-5.36-5.61-5.36-1.02,0-1.8,.25-2.58,1.02s-1.02,1.51-1.02,2.58c0,2.05,1.27,4.09,4.09,6.14,1.51,1.51,2.82,2.82,3.6,3.85s1.27,2.29,1.27,3.85c0,1.8-.78,3.32-2.58,4.58-1.51,1.27-4.34,2.82-8.19,4.58-5.12,2.58-8.92,4.83-11.75,7.16-2.82,2.33-4.09,5.36-4.09,9.46,.49,4.83,2.82,8.92,7.41,12.04h.08v.04l-.04,.04Zm92.35-88.01c3.07,0,5.61,.49,8.19,1.27-4.09,27.88-6.14,52.44-6.14,72.91-6.67-2.58-11.26-6.67-14.33-12.28-3.07-5.61-4.58-15.11-4.58-28.12-.25-22.76,5.36-34.02,16.87-33.77h0Zm-1.51,76.47c4.83,1.51,10.48,2.58,16.37,2.82-.25,3.85-1.51,6.92-3.85,9.46-2.33,2.54-5.89,3.6-10.48,3.6-5.12,0-9.21-1.51-12.28-4.83-3.07-3.07-4.58-7.66-4.58-13.55,0-2.82,.25-4.83,.49-6.43,4.58,4.34,9.46,7.41,14.33,8.92h0Zm27.88-17.93c5.61-4.09,14.86-6.92,27.88-7.94v-3.07c0-4.09-2.58-6.14-7.41-6.14-2.82,0-5.61,.49-8.92,1.51-3.07,1.02-6.92,2.58-11.5,4.58l-7.16-15.11c10.77-5.36,20.47-8.19,28.66-8.19,9.21,0,16.09,2.05,20.47,6.14,4.38,4.09,6.43,9.99,6.43,17.68v24.32c0,2.82,1.51,4.09,4.58,4.09v14.08c-7.16,0-12.53-.49-15.6-1.51-3.32-1.02-5.89-3.32-7.94-6.67-2.82,3.32-5.61,5.61-8.68,7.16-3.07,1.56-6.67,2.29-10.77,2.29-5.61,0-9.99-1.51-13.55-4.58-3.6-3.07-5.36-7.16-5.36-12.28,.78-6.67,3.6-12.04,8.92-16.37h-.04Zm13.84,17.19c1.27,1.02,2.82,1.51,4.58,1.51,3.6,0,6.92-1.27,9.46-4.09v-11.01c-4.83,.25-8.68,1.27-11.75,3.07-3.07,1.8-4.34,3.85-4.34,6.67,.25,1.27,1.02,2.58,2.05,3.85h0Zm55.26-42.21c6.43-6.14,14.33-9.21,24.03-9.21,3.85,0,7.66,.78,11.75,2.05s7.66,3.32,11.01,6.43l-9.74,13.55c-3.32-3.07-7.41-4.34-12.04-4.34-3.32,0-6.43,1.27-9.21,4.09s-3.85,6.92-3.85,12.04,1.27,9.46,3.85,12.53,5.61,4.34,9.21,4.34c4.09,0,7.94-1.51,11.26-4.58l11.01,12.28c-7.16,6.14-14.86,9.46-23.01,9.46-9.74,0-17.68-3.07-24.03-9.21-6.35-6.14-9.46-14.33-9.46-24.81-.25-10.23,2.82-18.18,9.21-24.56h0v-.04Zm54.73-32.3h21.25v50.92l21.49-26.12h21.25l-19.94,23.01,20.71,41.18h-24.32l-10.48-24.81-8.92,10.23v14.57h-21.25l.25-89.04h0v.04h-.04Z" style="fill: #ffb0b0;"/>
    </g>
  </g>
  <g id="button">
    <g>
      <path d="M364.08,845.28l4.14-2.77c.89,1.62,2.18,2.92,4.14,2.92,2.25,0,3.58-1.55,3.58-4.06v-17.32h5.61v17.39c0,5.83-3.51,8.9-8.79,8.9-3.95,0-6.79-1.88-8.68-5.06Z" style="fill: #fff;"/>
      <path d="M385.31,840c0-6.35,4.39-10.38,9.93-10.38s8.9,3.54,8.9,8.9c0,.85-.11,1.88-.22,2.58h-13.15c.33,3.32,1.92,4.99,4.91,4.99,1.99,0,3.88-.67,5.54-1.66l2.22,3.32c-2.36,1.74-5.13,2.62-8.12,2.62-5.76,0-10.01-3.88-10.01-10.38Zm5.61-2.1h8.05c0-2.55-1-4.47-3.62-4.47-2.1,0-3.91,1.51-4.43,4.47Z" style="fill: #fff;"/>
      <path d="M409.1,843.72v-9.9h-3.06v-3.73h3.06v-4.98h5.47v4.98h5.46v3.73h-5.46v9.79c0,1.59,.59,2.4,1.96,2.4,.96,0,1.88-.37,2.58-.89l1.92,3.21c-1.59,1.22-3.62,1.99-5.8,1.99-4.25,0-6.13-2.07-6.13-6.61Z" style="fill: #fff;"/>
      <path d="M423.28,846.38l9.42-12.22h-9.12v-4.06h15.69v3.66l-9.27,12.07h9.67v4.06h-16.4v-3.51Z" style="fill: #fff;"/>
      <path d="M444.77,843.72v-9.9h-3.06v-3.73h3.06v-4.98h5.47v4.98h5.46v3.73h-5.46v9.79c0,1.59,.59,2.4,1.96,2.4,.96,0,1.88-.37,2.58-.89l1.92,3.21c-1.59,1.22-3.62,1.99-5.8,1.99-4.25,0-6.13-2.07-6.13-6.61Z" style="fill: #fff;"/>
      <path d="M467.48,848.3l2.03-3.73c1.85,1,4.03,1.7,6.06,1.7s2.99-.7,2.99-1.88c0-1.48-1.74-1.88-3.8-2.4-2.99-.7-6.87-1.7-6.87-6.2,0-4.02,3.62-6.17,7.9-6.17,2.14,0,4.54,.44,7.27,1.7l-1.88,3.66c-1.85-.89-4.03-1.29-5.32-1.29-1.81,0-2.73,.74-2.73,1.88,0,1.44,1.7,1.85,3.73,2.33,2.99,.7,6.87,1.62,6.87,6.17,0,4.03-3.29,6.28-8.05,6.28-3.03,0-5.83-.78-8.2-2.03Z" style="fill: #fff;"/>
      <path d="M487.28,830.1h4.88l.44,2.47c1.44-1.77,3.4-2.92,5.72-2.92,4.58,0,7.64,3.43,7.64,10.12s-3.07,10.56-7.42,10.56c-2.47,0-4.36-1.07-5.87-2.58v9.53h-5.39v-27.18Zm13.26,9.71c0-3.8-1.33-6.06-3.91-6.06-1.59,0-2.88,.81-3.95,1.99v8.57c1.11,1.26,2.44,1.92,3.95,1.92,2.62,0,3.91-2.66,3.91-6.42Z" style="fill: #fff;"/>
      <path d="M508.53,845.17c0-4.21,3.51-6.68,11.52-7.27v-1.59c0-1.51-.89-2.4-2.77-2.4s-3.84,.7-6.35,1.92l-1.92-3.91c2.73-1.37,5.8-2.29,8.53-2.29,5.69,0,7.94,2.81,7.94,6.87v8.38c0,1.03,.59,1.48,1.55,1.48v3.62c-3.69,0-5.32-.55-6.39-2.51-1.62,1.85-3.47,2.88-6.28,2.88-3.4,0-5.83-2.07-5.83-5.17Zm11.52-.41v-3.8c-3.21,.18-6.24,1.07-6.24,3.51,0,1.26,1,2.11,2.47,2.11,1.62,0,2.99-.81,3.77-1.81Z" style="fill: #fff;"/>
      <path d="M530.44,830.1h5.06l.37,2.95c1.51-2.7,3.51-3.54,5.69-3.54,.81,0,1.59,.15,2.25,.3l-.7,5.02c-.66-.22-1.55-.41-2.58-.41-2.03,0-3.47,1.15-4.62,3.29v12.19h-5.46v-19.79Z" style="fill: #fff;"/>
      <path d="M545.25,840c0-6.35,4.39-10.38,9.93-10.38s8.9,3.54,8.9,8.9c0,.85-.11,1.88-.22,2.58h-13.15c.33,3.32,1.92,4.99,4.91,4.99,1.99,0,3.88-.67,5.54-1.66l2.22,3.32c-2.36,1.74-5.13,2.62-8.12,2.62-5.76,0-10.01-3.88-10.01-10.38Zm5.61-2.1h8.05c0-2.55-1-4.47-3.62-4.47-2.1,0-3.91,1.51-4.43,4.47Z" style="fill: #fff;"/>
      <path d="M567.81,830.1h5.17l.26,2.36c1.51-1.55,3.62-2.84,6.17-2.84,4.47,0,6.17,2.62,6.17,7.09v13.18h-5.47v-13.33c0-1.74-.7-2.92-2.62-2.92-1.59,0-3.07,.85-4.21,2.29v13.96h-5.46v-19.79Z" style="fill: #fff;"/>
    </g>
    <rect x="323.27" y="802.91" width="304.26" height="70.69" rx="18.23" ry="18.23" style="fill: none; stroke: #fff; stroke-miterlimit: 10; stroke-width: 5px;"/>
  </g>
</svg>