<?xml version="1.0" encoding="UTF-8"?>
<svg id="headline-svg" xmlns="http://www.w3.org/2000/svg" viewBox="0 0 960 960">
  <g id="head">
    <g id="head-h">
      <g id="tenk">
        <path d="M244.36,74.98l-17,6.87-7-16.25,30.74-13.12h16.75v87.48h-23.49V74.98Z" style="fill: #fffab0;"/>
        <path d="M283.23,96.23c0-28.12,13.25-45.36,36.12-45.36s36.24,17.25,36.24,45.36-13.25,45.36-36.24,45.36-36.12-17.37-36.12-45.36Zm50.11,0c0-18.5-5.25-26.37-14-26.37s-13.87,7.87-13.87,26.37,5.25,26.37,13.87,26.37,14-8,14-26.37Z" style="fill: #fffab0;"/>
        <path d="M364.21,128.72c0-7.37,5.37-12.75,12.87-12.75s12.87,5.37,12.87,12.75-5.5,12.87-12.87,12.87-12.87-5.37-12.87-12.87Z" style="fill: #fffab0;"/>
        <path d="M398.58,96.23c0-28.12,13.25-45.36,36.12-45.36s36.24,17.25,36.24,45.36-13.25,45.36-36.24,45.36-36.12-17.37-36.12-45.36Zm50.11,0c0-18.5-5.25-26.37-14-26.37s-13.87,7.87-13.87,26.37,5.25,26.37,13.87,26.37,14-8,14-26.37Z" style="fill: #fffab0;"/>
        <path d="M479.44,96.23c0-28.12,13.25-45.36,36.12-45.36s36.24,17.25,36.24,45.36-13.25,45.36-36.24,45.36-36.12-17.37-36.12-45.36Zm50.11,0c0-18.5-5.25-26.37-14-26.37s-13.87,7.87-13.87,26.37,5.25,26.37,13.87,26.37,14-8,14-26.37Z" style="fill: #fffab0;"/>
        <path d="M560.29,96.23c0-28.12,13.25-45.36,36.12-45.36s36.24,17.25,36.24,45.36-13.25,45.36-36.24,45.36-36.12-17.37-36.12-45.36Zm50.11,0c0-18.5-5.25-26.37-14-26.37s-13.87,7.87-13.87,26.37,5.25,26.37,13.87,26.37,14-8,14-26.37Z" style="fill: #fffab0;"/>
      </g>
    </g>
    <g id="head-h-2" data-name="head-h">
      <path id="deals" d="M222.51,173.85h48.12c50.14,0,76.37,25.71,76.37,69.65s-24.47,72.07-76.37,72.07h-48.12s0-141.72,0-141.72Zm51.51,111.77c24.08,0,35.98-15.79,35.98-41.69s-12.92-40.1-35.98-40.1h-14.71v81.82h14.71v-.03Zm86.36-24.96c0-36.05,24.47-58.33,55.1-58.33s49.92,19.25,49.92,50.01c0,5.45-.78,11.94-1.6,16.18h-67.01c1.79,14.35,8.97,20.85,21.66,20.85,10.34,0,20.1-3.23,29.04-8.71l14.09,22.28c-13.54,10.34-28.84,15.2-45.97,15.2-30.41,0-55.27-20.85-55.27-57.48h.03Zm36.77-12.17h34.42c.2-12.56-4.4-20.85-15.5-20.85-8.74,0-16.31,6.26-18.89,20.85h-.03Zm75.98,40.49c0-21.24,14.91-37.45,61.46-41.5v-5.87c0-7.08-4.4-10.51-12.53-10.51-9.53,0-19.51,3.46-34.22,10.73l-12.14-25.71c16.12-8.51,33.41-13.77,48.51-13.77,33.02,0,45.74,16.41,45.74,40.72v42.12c0,4.67,2.58,6.66,7.37,6.88v24.11c-22.67,0-32.04-2.41-39.18-14.19-8.74,10.51-18.11,16.18-33.02,16.18-18.27,0-32.04-11.55-32.04-29.17h0l.03-.03Zm61.46-3.62v-18.43c-15.5,.82-26.62,6.07-26.62,16.61,0,5.68,4.18,9.53,10.73,9.53s12.33-3.46,15.92-7.7h-.03Zm58.72-122.7h35.98v152.88h-35.98V162.69h0v-.03Zm49.26,144.13l12.33-25.09c10.73,5.45,22.28,9.3,32.59,9.3,8.97,0,12.33-2.84,12.33-7.28,0-5.68-7.73-7.47-17.32-10.11-15.92-3.85-37.78-9.3-37.78-35.66,0-23.49,21.08-35.66,44.96-35.66,11.74,0,24.66,2.22,40.78,9.92l-11.94,24.11c-10.54-5.06-22.28-6.88-28.25-6.88-7.96,0-11.32,2.84-11.32,7.08,0,5.68,7.76,7.7,17.1,9.92,15.92,3.62,37.58,8.91,37.58,34.84,0,23.49-18.89,36.87-45.35,36.87-16.31,0-32.2-4.24-45.74-11.32h0l.03-.03Z" style="fill: #fff;"/>
    </g>
  </g>
</svg>