<?xml version="1.0" encoding="UTF-8"?>
<svg id="headline-svg" xmlns="http://www.w3.org/2000/svg" viewBox="0 0 960 960">
  <g id="head">
    <g id="head-h">
      <path id="deals" d="M2.46,171.09H63.3c63.4,0,96.56,32.5,96.56,88.06s-30.93,91.11-96.56,91.11H2.46s0-179.17,0-179.17Zm65.13,141.31c30.44,0,45.49-19.96,45.49-52.71s-16.33-50.69-45.49-50.69h-18.6v103.45h18.6v-.04Zm109.18-31.55c0-45.58,30.93-73.75,69.67-73.75s63.11,24.34,63.11,63.23c0,6.89-.99,15.1-2.02,20.46h-84.72c2.27,18.15,11.34,26.36,27.39,26.36,13.08,0,25.41-4.08,36.71-11.01l17.82,28.17c-17.12,13.08-36.46,19.22-58.12,19.22-38.44,0-69.87-26.36-69.87-72.68h.04Zm46.48-15.38h43.52c.25-15.88-5.57-26.36-19.59-26.36-11.05,0-20.62,7.92-23.88,26.36h-.04Zm96.06,51.19c0-26.85,18.85-47.35,77.71-52.47v-7.42c0-8.95-5.57-13.28-15.84-13.28-12.04,0-24.67,4.37-43.27,13.57l-15.34-32.5c20.38-10.77,42.24-17.41,61.33-17.41,41.74,0,57.83,20.75,57.83,51.48v53.25c0,5.9,3.26,8.41,9.32,8.7v30.48c-28.67,0-40.5-3.05-49.54-17.94-11.05,13.28-22.89,20.46-41.74,20.46-23.1,0-40.5-14.6-40.5-36.87h0l.04-.04Zm77.71-4.58v-23.3c-19.59,1.03-33.66,7.67-33.66,20.99,0,7.18,5.28,12.04,13.57,12.04s15.59-4.37,20.13-9.73h-.04Zm74.24-155.13h45.49v193.28h-45.49V156.98h0v-.04Zm62.28,182.23l15.59-31.72c13.57,6.89,28.17,11.76,41.21,11.76,11.34,0,15.59-3.59,15.59-9.2,0-7.18-9.78-9.45-21.9-12.79-20.13-4.87-47.76-11.76-47.76-45.08,0-29.7,26.65-45.08,56.84-45.08,14.85,0,31.18,2.8,51.56,12.54l-15.1,30.48c-13.32-6.39-28.17-8.7-35.72-8.7-10.06,0-14.31,3.59-14.31,8.95,0,7.18,9.82,9.73,21.61,12.54,20.13,4.58,47.52,11.26,47.52,44.05,0,29.7-23.88,46.61-57.33,46.61-20.62,0-40.71-5.36-57.83-14.31h0l.04-.04Z" style="fill: #fff;"/>
    </g>
    <g id="head-h-2" data-name="head-h">
      <g id="tenk">
        <path d="M30.09,46.09l-21.49,8.69L-.24,34.24,38.63,17.65h21.17v110.6H30.09V46.09Z" style="fill: #fffab0;"/>
        <path d="M79.23,72.95c0-35.55,16.75-57.36,45.66-57.36s45.82,21.8,45.82,57.36-16.75,57.36-45.82,57.36-45.66-21.96-45.66-57.36Zm63.36,0c0-23.38-6.64-33.34-17.7-33.34s-17.54,9.95-17.54,33.34,6.64,33.34,17.54,33.34,17.7-10.11,17.7-33.34Z" style="fill: #fffab0;"/>
        <path d="M181.62,114.03c0-9.32,6.79-16.12,16.27-16.12s16.27,6.79,16.27,16.12-6.95,16.27-16.27,16.27-16.27-6.79-16.27-16.27Z" style="fill: #fffab0;"/>
        <path d="M225.07,72.95c0-35.55,16.75-57.36,45.66-57.36s45.82,21.8,45.82,57.36-16.75,57.36-45.82,57.36-45.66-21.96-45.66-57.36Zm63.36,0c0-23.38-6.64-33.34-17.7-33.34s-17.54,9.95-17.54,33.34,6.64,33.34,17.54,33.34,17.7-10.11,17.7-33.34Z" style="fill: #fffab0;"/>
        <path d="M327.29,72.95c0-35.55,16.75-57.36,45.66-57.36s45.82,21.8,45.82,57.36-16.75,57.36-45.82,57.36-45.66-21.96-45.66-57.36Zm63.36,0c0-23.38-6.64-33.34-17.7-33.34s-17.54,9.95-17.54,33.34,6.64,33.34,17.54,33.34,17.7-10.11,17.7-33.34Z" style="fill: #fffab0;"/>
        <path d="M429.52,72.95c0-35.55,16.75-57.36,45.66-57.36s45.82,21.8,45.82,57.36-16.75,57.36-45.82,57.36-45.66-21.96-45.66-57.36Zm63.36,0c0-23.38-6.64-33.34-17.7-33.34s-17.54,9.95-17.54,33.34,6.64,33.34,17.54,33.34,17.7-10.11,17.7-33.34Z" style="fill: #fffab0;"/>
      </g>
    </g>
  </g>
</svg>