<?xml version="1.0" encoding="UTF-8"?>
<svg id="headline-svg" xmlns="http://www.w3.org/2000/svg" viewBox="0 0 960 960">
  <path id="taeglich" d="M301.1,76.53h-26.01v-19.96h74.39v19.96h-26v64.71h-22.38V76.53Zm51.51,48.87c0-12.7,9.07-22.38,37.38-24.8v-3.51c0-4.23-2.66-6.29-7.62-6.29-5.81,0-11.85,2.06-20.8,6.41l-7.38-15.36c9.8-5.08,20.32-8.23,29.51-8.23,20.08,0,27.82,9.8,27.82,24.31v25.16c0,2.78,1.57,3.99,4.48,4.11v14.39c-13.79,0-19.47-1.45-23.83-8.47-5.32,6.29-11.01,9.68-20.08,9.68-11.13,0-19.47-6.89-19.47-17.42Zm7.14-66.65c0-5.69,3.75-8.83,8.95-8.83s9.19,3.15,9.19,8.83-3.99,8.83-9.19,8.83-8.95-3.14-8.95-8.83Zm30.24,64.47v-11.01c-9.43,.48-16.21,3.63-16.21,9.92,0,3.39,2.54,5.69,6.53,5.69s7.5-2.06,9.68-4.6Zm-.73-64.47c0-5.69,3.63-8.83,8.95-8.83s9.07,3.15,9.07,8.83-3.87,8.83-9.07,8.83-8.95-3.14-8.95-8.83Zm53.49,61.69c-.97,.73-1.57,1.69-1.57,2.78,0,2.42,2.9,3.51,14.27,3.87,21.05,.61,32.17,6.05,32.17,18.99s-11.13,20.56-34.59,20.56c-20.44,0-33.38-5.44-33.38-16.93,0-6.17,2.66-10.4,8.47-13.55-2.42-2.9-3.51-6.05-3.51-8.95,0-4.6,2.18-9.07,6.53-11.97-5.32-4.11-8.83-10.16-8.83-17.78,0-14.15,12.1-23.83,29.03-23.83,7.5,0,14.15,1.94,19.11,5.44,4.48-3.15,10.52-5.08,18.87-5.08v12.82c-4.11,0-7.86,.36-11.25,1.33,1.21,2.78,1.94,6.05,1.94,9.44,0,15.24-13.55,23.83-28.67,23.83-2.9,0-5.81-.36-8.59-.97Zm10.28,33.99c11.01,0,15-1.45,15-4.84,0-3.14-3.02-4.35-14.15-4.6-4.6-.12-8.47-.61-11.85-1.33-1.69,1.33-2.66,3.15-2.66,5.32,0,3.63,3.51,5.44,13.67,5.44Zm6.89-56.85c0-6.29-3.39-10.28-8.59-10.28s-8.47,4.11-8.47,10.28,3.39,10.28,8.47,10.28,8.59-4.11,8.59-10.28Zm35.77-47.66h21.89v91.32h-21.89V49.92Zm32.28,8.59c0-7.38,5.08-11.13,12.34-11.13s12.58,3.75,12.58,11.13-5.2,11.13-12.58,11.13-12.34-3.99-12.34-11.13Zm1.57,16.69h21.89v66.04h-21.89V75.2Zm30.53,32.78c0-21.41,14.76-34.35,34.23-34.35,7.26,0,15.85,2.18,23.34,8.35l-10.4,13.79c-3.39-2.78-7.38-4.48-12.1-4.48-6.77,0-13.18,5.2-13.18,16.69s6.29,17.3,13.18,17.3c4.72,0,8.22-1.69,11.61-4.48l11.13,12.58c-6.89,6.29-14.76,9.43-23.59,9.43-19.11,0-34.23-12.94-34.23-34.83Zm64.13-58.06h21.89v32.54c4.6-4.72,11.01-8.59,18.99-8.59,14.64,0,20.08,8.23,20.08,23.59v43.79h-21.77v-44.39c0-4.35-1.94-7.26-6.65-7.26-3.87,0-7.74,2.3-10.64,5.93v45.72h-21.89V49.92Z" style="fill: #ffb0b0;"/>
  <path id="neue" d="M278.48,183.75h20.68l.97,7.26c4.72-4.72,11.25-8.71,19.23-8.71,14.64,0,20.08,8.35,20.08,23.71v43.79h-21.65v-44.39c0-4.35-1.94-7.26-6.77-7.26-3.75,0-7.74,2.3-10.77,5.93v45.72h-21.77v-66.04Zm69.55,33.26c0-21.53,14.88-34.83,33.5-34.83s30.36,11.49,30.36,29.88c0,3.27-.48,7.14-.97,9.68h-40.76c1.09,8.59,5.44,12.46,13.18,12.46,6.29,0,12.22-1.94,17.66-5.2l8.59,13.31c-8.22,6.17-17.54,9.07-27.94,9.07-18.51,0-33.63-12.46-33.63-34.35Zm22.38-7.26h20.92c.12-7.5-2.66-12.46-9.43-12.46-5.32,0-9.92,3.75-11.49,12.46Zm50.25,17.78v-43.79h21.65v44.39c0,4.35,1.81,7.26,6.65,7.26,3.99,0,7.74-2.3,10.89-5.93v-45.72h21.77v66.04h-20.44l-1.21-7.26c-4.48,4.72-11.61,8.83-19.23,8.83-14.51,0-20.08-8.47-20.08-23.83Zm69.89-10.52c0-21.53,14.88-34.83,33.5-34.83s30.36,11.49,30.36,29.88c0,3.27-.48,7.14-.97,9.68h-40.76c1.09,8.59,5.44,12.46,13.18,12.46,6.29,0,12.22-1.94,17.66-5.2l8.59,13.31c-8.22,6.17-17.54,9.07-27.94,9.07-18.51,0-33.63-12.46-33.63-34.35Zm22.38-7.26h20.92c.12-7.5-2.66-12.46-9.43-12.46-5.32,0-9.92,3.75-11.49,12.46Z" style="fill: #ffb0b0;"/>
  <path id="deals" d="M279.21,273.68h29.27c30.48,0,46.45,15.36,46.45,41.61s-14.88,43.06-46.45,43.06h-29.27v-84.67Zm31.33,66.77c14.64,0,21.89-9.43,21.89-24.92s-7.86-23.95-21.89-23.95h-8.95v48.87h8.95Zm51.42-14.88c0-21.53,14.88-34.83,33.5-34.83s30.36,11.49,30.36,29.88c0,3.27-.48,7.14-.97,9.68h-40.76c1.09,8.59,5.44,12.46,13.18,12.46,6.29,0,12.22-1.94,17.66-5.2l8.59,13.31c-8.22,6.17-17.54,9.07-27.94,9.07-18.51,0-33.63-12.46-33.63-34.35Zm22.38-7.26h20.92c.12-7.5-2.66-12.46-9.43-12.46-5.32,0-9.92,3.75-11.49,12.46Zm46.69,24.19c0-12.7,9.07-22.38,37.38-24.8v-3.51c0-4.23-2.66-6.29-7.62-6.29-5.81,0-11.85,2.06-20.8,6.41l-7.38-15.36c9.8-5.08,20.32-8.22,29.51-8.22,20.08,0,27.82,9.8,27.82,24.31v25.16c0,2.78,1.57,3.99,4.48,4.11v14.39c-13.79,0-19.47-1.45-23.83-8.47-5.32,6.29-11.01,9.68-20.08,9.68-11.13,0-19.47-6.89-19.47-17.42Zm37.38-2.18v-11.01c-9.43,.48-16.21,3.63-16.21,9.92,0,3.39,2.54,5.69,6.53,5.69s7.5-2.06,9.68-4.6Zm34.97-73.3h21.89v91.32h-21.89v-91.32Zm30.35,86.12l7.5-15c6.53,3.27,13.55,5.56,19.84,5.56,5.44,0,7.5-1.69,7.5-4.35,0-3.39-4.72-4.48-10.52-6.05-9.68-2.3-22.98-5.56-22.98-21.29,0-14.03,12.82-21.29,27.34-21.29,7.14,0,15,1.33,24.8,5.93l-7.26,14.39c-6.41-3.02-13.55-4.11-17.18-4.11-4.84,0-6.89,1.69-6.89,4.23,0,3.39,4.72,4.6,10.4,5.93,9.68,2.18,22.86,5.32,22.86,20.8,0,14.03-11.49,22.01-27.58,22.01-9.92,0-19.59-2.54-27.82-6.77Z" style="fill: #fff;"/>
</svg>