<?xml version="1.0" encoding="UTF-8"?>
<svg id="headline-svg" xmlns="http://www.w3.org/2000/svg" viewBox="0 0 960 960">
  <path id="deals" d="M276.64,311.29h29.33c30.57,0,46.56,15.67,46.56,42.46s-14.92,43.93-46.56,43.93h-29.33v-86.39Zm31.4,68.13c14.68,0,21.94-9.63,21.94-25.42s-7.88-24.44-21.94-24.44h-8.97v49.88h8.97v-.02h0Zm52.64-15.22c0-21.97,14.92-35.56,33.59-35.56s30.43,11.73,30.43,30.48c0,3.32-.48,7.28-.98,9.87h-40.85c1.09,8.75,5.47,12.71,13.21,12.71,6.3,0,12.25-1.97,17.7-5.31l8.59,13.58c-8.25,6.3-17.58,9.27-28.02,9.27-18.53,0-33.69-12.71-33.69-35.04h.02Zm22.41-7.43h20.98c.12-7.65-2.68-12.71-9.44-12.71-5.33,0-9.94,3.82-11.52,12.71h-.02Zm46.32,24.68c0-12.95,9.09-22.83,37.47-25.3v-3.58c0-4.32-2.68-6.41-7.64-6.41-5.81,0-11.89,2.11-20.86,6.55l-7.4-15.67c9.82-5.19,20.37-8.39,29.57-8.39,20.12,0,27.88,10,27.88,24.82v25.67c0,2.84,1.57,4.06,4.5,4.19v14.69c-13.82,0-19.53-1.47-23.88-8.65-5.33,6.41-11.04,9.87-20.12,9.87-11.14,0-19.53-7.04-19.53-17.78h0l.02-.02h-.01Zm37.47-2.21v-11.23c-9.44,.49-16.23,3.7-16.23,10.13,0,3.46,2.54,5.81,6.55,5.81s7.52-2.11,9.7-4.7h-.02Zm35.79-74.8h21.94v93.19h-21.94v-93.17h0v-.02Zm30.03,87.86l7.52-15.29c6.55,3.32,13.58,5.67,19.86,5.67,5.47,0,7.52-1.73,7.52-4.44,0-3.46-4.71-4.56-10.56-6.17-9.7-2.34-23.03-5.67-23.03-21.74,0-14.32,12.85-21.74,27.4-21.74,7.16,0,15.04,1.35,24.86,6.05l-7.28,14.69c-6.42-3.08-13.58-4.19-17.23-4.19-4.85,0-6.9,1.73-6.9,4.32,0,3.46,4.73,4.7,10.42,6.05,9.7,2.21,22.91,5.43,22.91,21.24,0,14.32-11.52,22.47-27.65,22.47-9.94,0-19.63-2.59-27.88-6.9h0l.02-.02h.01Z" style="fill: #fff;"/>
  <path id="min" d="M275.72,184.08h23.12l22.11,31.28,22.21-31.28h22.98v87.22h-21.47v-52.7l-23.71,31.05-23.61-31.05v52.7h-21.61v-87.23h0Zm104.33,1.98c0-7.61,5.2-11.5,12.67-11.5s12.91,3.87,12.91,11.5-5.33,11.5-12.91,11.5-12.67-4.1-12.67-11.5Zm1.64,17.19h22.48v68.03h-22.48v-68.03h0Zm34.34,0h21.25l1.01,7.48c4.88-4.88,11.58-8.98,19.75-8.98,15.01,0,20.6,8.57,20.6,24.44v45.14h-22.21v-45.74c0-4.52-1.96-7.48-6.98-7.48-3.87,0-7.97,2.38-11.08,6.11v47.11h-22.34v-68.03h0v-.04h0Zm74.82,45.03v-45.09h22.21v45.74c0,4.52,1.87,7.48,6.84,7.48,4.1,0,7.97-2.38,11.16-6.11v-47.11h22.34v68.03h-20.98l-1.23-7.48c-4.6,4.88-11.9,9.08-19.75,9.08-14.91,0-20.6-8.71-20.6-24.58h0v.04h0Zm80.52,.36v-30.28h-9.8v-15.19h9.8v-15.55h22.34v15.55h17.87v15.19h-17.87v29.64c0,4.6,1.73,6.74,5.57,6.74,2.87,0,5.83-1.27,7.97-2.74l7.57,13.32c-5.83,4.52-13.27,7.48-21.61,7.48-15.14,0-21.85-7.48-21.85-24.17Zm45.68-11.22c0-22.16,15.27-35.89,34.42-35.89s31.19,11.81,31.19,30.77c0,3.37-.5,7.34-1.01,9.99h-41.81c1.13,8.84,5.57,12.81,13.54,12.81,6.48,0,12.53-1.96,18.14-5.33l8.8,13.72c-8.48,6.34-18,9.34-28.69,9.34-18.97,0-34.52-12.81-34.52-35.39h0l-.1-.04h.03Zm22.98-7.5h21.47c.14-7.75-2.74-12.81-9.67-12.81-5.47,0-10.17,3.87-11.76,12.81h-.04Z" style="fill: #98c9f1;"/>
  <path id="last" d="M276.44,55.27h22.48V120.98h38.28v19.63h-60.72V55.27h-.04Zm67.24,69.37c0-12.8,9.1-22.52,37.52-24.99v-3.53c0-4.29-2.68-6.34-7.68-6.34-5.84,0-11.91,2.06-20.93,6.46l-7.41-15.48c9.86-5.08,20.43-8.3,29.66-8.3,20.16,0,27.93,9.86,27.93,24.5v25.34c0,2.81,1.61,4.02,4.5,4.15v14.55c-13.87,0-19.54-1.47-23.96-8.52-5.35,6.34-11.06,9.78-20.16,9.78-11.19,0-19.54-6.96-19.54-17.58h.04v-.04h.01Zm37.52-2.23v-11.11c-9.46,.49-16.28,3.66-16.28,9.99,0,3.43,2.54,5.71,6.56,5.71s7.54-2.06,9.72-4.64h0v.04h0Zm32.26,12.95l7.54-15.13c6.56,3.3,13.6,5.62,19.94,5.62,5.45,0,7.54-1.69,7.54-4.42,0-3.43-4.77-4.5-10.57-6.11-9.72-2.33-23.11-5.62-23.11-21.46,0-14.14,12.9-21.46,27.49-21.46,7.18,0,15.03,1.34,24.89,5.98l-7.31,14.55c-6.42-3.03-13.6-4.15-17.27-4.15-4.87,0-6.91,1.69-6.91,4.29,0,3.43,4.77,4.64,10.44,5.98,9.72,2.19,22.97,5.35,22.97,20.97,0,14.14-11.51,22.17-27.7,22.17-9.95,0-19.67-2.54-27.93-6.83h-.01Zm69.47-16.86v-29.62h-9.59v-14.86h9.59v-15.21h21.86v15.21h17.48v14.86h-17.48v29c0,4.5,1.69,6.6,5.45,6.6,2.81,0,5.71-1.24,7.8-2.68l7.41,13.03c-5.71,4.42-12.98,7.31-21.15,7.31-14.82,0-21.38-7.31-21.38-23.65Z" style="fill: #98c9f1;"/>
</svg>