<?xml version="1.0" encoding="UTF-8"?>
<svg id="headline-svg" xmlns="http://www.w3.org/2000/svg" viewBox="0 0 960 960">
  <g id="button">
    <g id="button-scale">
      <g>
        <path d="M394.6,692.99l3.28-2.3c.7,1.34,1.73,2.42,3.28,2.42,1.78,0,2.83-1.28,2.83-3.37v-14.36h4.44v14.41c0,4.83-2.78,7.38-6.96,7.38-3.13,0-5.37-1.56-6.87-4.19h0Z" style="fill: #fff;"/>
        <path d="M411.4,688.61c0-5.26,3.47-8.6,7.86-8.6s7.04,2.93,7.04,7.38c0,.7-.09,1.56-.17,2.14h-10.41c.26,2.75,1.52,4.14,3.89,4.14,1.58,0,3.07-.56,4.38-1.38l1.76,2.75c-1.87,1.44-4.06,2.17-6.43,2.17-4.56,0-7.92-3.22-7.92-8.6h0Zm4.44-1.73h6.37c0-2.11-.79-3.71-2.87-3.71-1.66,0-3.09,1.25-3.51,3.71h.01Z" style="fill: #fff;"/>
        <path d="M430.23,691.7v-8.21h-2.42v-3.09h2.42v-4.13h4.33v4.13h4.32v3.09h-4.32v8.11c0,1.32,.47,1.99,1.55,1.99,.76,0,1.49-.31,2.04-.74l1.52,2.66c-1.26,1.01-2.87,1.65-4.59,1.65-3.36,0-4.85-1.72-4.85-5.48h0v.02Z" style="fill: #fff;"/>
        <path d="M441.45,693.9l7.46-10.13h-7.22v-3.37h12.42v3.03l-7.34,10h7.65v3.37h-12.98v-2.91h.01Z" style="fill: #fff;"/>
        <path d="M458.46,691.7v-8.21h-2.42v-3.09h2.42v-4.13h4.33v4.13h4.32v3.09h-4.32v8.11c0,1.32,.47,1.99,1.55,1.99,.76,0,1.49-.31,2.04-.74l1.52,2.66c-1.26,1.01-2.87,1.65-4.59,1.65-3.36,0-4.85-1.72-4.85-5.48h0v.02Z" style="fill: #fff;"/>
        <path d="M476.43,695.49l1.61-3.09c1.46,.83,3.19,1.41,4.8,1.41s2.37-.58,2.37-1.56c0-1.23-1.38-1.56-3.01-1.99-2.37-.58-5.44-1.41-5.44-5.14,0-3.33,2.87-5.11,6.25-5.11,1.69,0,3.59,.36,5.75,1.41l-1.49,3.03c-1.46-.74-3.19-1.07-4.21-1.07-1.43,0-2.16,.61-2.16,1.56,0,1.19,1.35,1.53,2.95,1.93,2.37,.58,5.44,1.34,5.44,5.11,0,3.34-2.6,5.21-6.37,5.21-2.4,0-4.61-.65-6.49-1.68v-.02h0Z" style="fill: #fff;"/>
        <path d="M492.1,680.41h3.86l.35,2.05c1.14-1.47,2.69-2.42,4.53-2.42,3.62,0,6.05,2.84,6.05,8.39s-2.43,8.75-5.87,8.75c-1.95,0-3.45-.89-4.65-2.14v7.9h-4.27v-22.53Zm10.49,8.05c0-3.15-1.05-5.02-3.09-5.02-1.26,0-2.28,.67-3.13,1.65v7.1c.88,1.04,1.93,1.59,3.13,1.59,2.07,0,3.09-2.2,3.09-5.32Z" style="fill: #fff;"/>
        <path d="M508.92,692.9c0-3.49,2.78-5.54,9.12-6.03v-1.32c0-1.25-.7-1.99-2.19-1.99s-3.04,.58-5.03,1.59l-1.52-3.24c2.16-1.14,4.59-1.9,6.75-1.9,4.5,0,6.28,2.33,6.28,5.69v6.95c0,.85,.47,1.23,1.23,1.23v3c-2.92,0-4.21-.46-5.06-2.08-1.28,1.53-2.75,2.39-4.97,2.39-2.69,0-4.61-1.72-4.61-4.29h0Zm9.12-.35v-3.15c-2.54,.15-4.94,.89-4.94,2.91,0,1.04,.79,1.75,1.95,1.75,1.28,0,2.37-.67,2.98-1.5h.01Z" style="fill: #fff;"/>
        <path d="M526.26,680.41h4l.29,2.45c1.2-2.24,2.78-2.93,4.5-2.93,.64,0,1.26,.12,1.78,.25l-.55,4.16c-.52-.18-1.23-.34-2.04-.34-1.61,0-2.75,.95-3.66,2.73v10.1h-4.32v-16.4h0v-.02Z" style="fill: #fff;"/>
        <path d="M537.99,688.61c0-5.26,3.47-8.6,7.86-8.6s7.04,2.93,7.04,7.38c0,.7-.09,1.56-.17,2.14h-10.41c.26,2.75,1.52,4.14,3.89,4.14,1.58,0,3.07-.56,4.38-1.38l1.76,2.75c-1.87,1.44-4.06,2.17-6.43,2.17-4.56,0-7.92-3.22-7.92-8.6h0Zm4.44-1.73h6.37c0-2.11-.79-3.71-2.87-3.71-1.66,0-3.09,1.25-3.51,3.71h.01Z" style="fill: #fff;"/>
        <path d="M555.84,680.41h4.09l.21,1.96c1.2-1.28,2.87-2.35,4.88-2.35,3.54,0,4.88,2.17,4.88,5.88v10.92h-4.33v-11.05c0-1.44-.55-2.42-2.07-2.42-1.26,0-2.43,.7-3.33,1.9v11.57h-4.32v-16.4h-.01Z" style="fill: #fff;"/>
      </g>
      <path d="M376.73,657.87h211.95c7.97,0,14.43,6.77,14.43,15.11v28.37c0,8.35-6.46,15.11-14.43,15.11h-211.95c-7.97,0-14.43-6.77-14.43-15.11v-28.37c0-8.35,6.46-15.11,14.43-15.11h0Z" style="fill: none; stroke: #fff; stroke-miterlimit: 10; stroke-width: 3px;"/>
    </g>
  </g>
  <g id="logo-cont">
    <g id="teaser">
      <ellipse id="teaser-bg" cx="347.31" cy="550.18" rx="70.56" ry="70.34" style="fill: #9ac9ec;"/>
      <path d="M318.19,531.9c0-10.37,7.1-15.55,15.17-15.55s14.97,5.18,14.97,15.55-6.82,15.84-14.97,15.84-15.17-5.47-15.17-15.84Zm49.44-14.59h9.31l-46.56,67.2h-9.5l46.75-67.2Zm-30.05,14.59c0-5.09-1.44-8.25-4.22-8.25s-4.42,3.17-4.42,8.25,1.44,8.35,4.42,8.35,4.22-3.26,4.22-8.35Zm12.1,37.82c0-10.37,7.1-15.55,15.17-15.55s15.07,5.18,15.07,15.55-6.91,15.84-15.07,15.84-15.17-5.47-15.17-15.84Zm19.29,0c0-4.99-1.34-8.16-4.13-8.16-2.98,0-4.42,3.17-4.42,8.16s1.44,8.45,4.42,8.45,4.13-3.36,4.13-8.45Z"/>
    </g>
    <g id="rotation1">
      <g id="friday-center">
        <path id="friday" d="M459.18,587.11l-24.66-28.61h48.11v21.39l-22.76-20.69v21.54h16.91v16.55l-16.91-15.86v37.6l-25.35-31.73,24.66-.17h0v-.03h0Zm28.11-16.57h13.1l1.01,6.37c1.74-2.93,3.45-4.82,5.52-6.01,2.06-1.19,4.14-1.74,6.57-1.74,.52,0,2.07,.17,4.67,.52l-1.55,13.27c-2.43-.52-4.5-.86-6.21-.86-3.78,0-6.89,2.24-8.96,6.57v25.35h-14.32l.17-43.45h0v-.03h0Zm37.24-16.1c1.55-1.21,3.45-1.9,5.85-1.9,2.6,0,4.5,.52,6.01,1.74s2.24,2.93,2.24,5.16-.69,4.14-2.24,5.35c-1.55,1.21-3.45,1.9-6.01,1.9-2.43,0-4.33-.69-5.85-1.9-1.55-1.21-2.24-3.09-2.24-5.35,0-2.07,.69-3.78,2.24-4.99h0Zm-1.01,16.01h14.32v43.62h-14.32v-43.62Zm24.83,4.67c2.93-3.78,6.89-5.68,11.91-5.68,2.24,0,4.33,.52,6.37,1.55,2.04,1.01,3.78,2.43,4.99,4.14v-21.02h14.32v60.01h-12.42l-.86-4.99c-3.61,3.78-7.75,5.85-12.94,5.85-4.82,0-8.61-1.9-11.37-5.85-2.93-3.97-4.33-9.66-4.33-17.08,.17-7.59,1.55-13.1,4.33-16.91h-.03v-.02Zm11.73,25.68c1.01,2.24,2.76,3.25,4.82,3.25,2.76,0,4.99-1.01,6.73-2.93v-17.93c-1.74-2.07-3.97-2.93-6.73-2.93-4.33,0-6.37,3.78-6.37,11.37,0,3.97,.52,6.89,1.55,9.13h0v.03h0Zm38.1-8.44c3.78-2.76,10.01-4.5,18.79-5.16v-2.43c0-2.76-1.74-4.14-5.16-4.14-1.9,0-3.78,.33-5.85,1.01s-4.67,1.74-7.75,3.25l-4.82-10.18c6.57-3.61,13.1-5.52,19.15-5.52s11.03,1.38,13.96,4.33c3.09,2.93,4.5,6.73,4.5,11.56v16.72c0,1.74,.86,2.6,2.76,2.6v9.66c-4.67,0-8.11-.33-10.18-1.01-2.24-.69-3.97-2.24-5.52-4.5-1.74,2.07-3.61,3.61-5.68,4.67s-4.67,1.55-7.42,1.55c-3.78,0-6.73-1.01-9.13-3.09s-3.61-4.82-3.61-8.28c.52-4.5,2.24-8.28,6.01-11.03h-.04Zm9.33,11.71c.69,.69,1.9,1.01,3.09,1.01,2.6,0,4.67-1.01,6.37-2.93v-7.59c-3.25,.17-5.85,.86-7.92,2.07s-2.93,2.76-2.93,4.82c.17,1.01,.52,2.07,1.38,2.6h0Zm42.6-33.59l7.75,25.52h.17l7.92-25.52h13.96l-14.48,42.6c-2.43,6.89-4.99,11.56-7.92,13.96-2.93,2.4-6.57,3.61-11.03,3.61-3.61,0-7.26-.52-10.67-1.55l3.45-10.67c1.9,.69,3.97,1.01,6.21,1.01,1.38,0,2.6-.33,3.25-.86s1.38-1.74,1.9-3.25l.69-1.9-15.51-42.93h14.29l.03-.03h0Z" style="fill: #98c9f1;"/>
      </g>
      <g id="black-center">
        <path id="black" d="M440.19,540.01c3.09,2.07,7.92,3.09,14.32,3.09,10.52,0,18.43-2.07,23.61-6.37,5.35-4.33,7.92-9.82,7.92-16.72,0-3.61-.86-6.21-2.76-8.11s-4.67-2.76-8.11-2.76c-1.21,0-2.6,.17-3.97,.52s-2.24,.52-2.76,.69c-2.24,.69-3.61,1.01-4.5,1.01-.69,0-1.01-.33-1.01-.86s.33-1.01,1.21-1.55c.69-.52,1.74-1.21,2.6-1.74,3.09-2.07,5.52-3.78,7.26-5.52s2.6-3.78,2.6-6.57c0-3.25-1.21-5.85-3.45-7.92-2.24-1.9-5.52-2.93-10.01-2.93s-8.96,.86-12.94,2.76c-3.97,1.9-7.06,3.97-9.49,6.37s-3.45,4.5-3.45,6.21c0,1.55,.69,2.24,2.07,2.24,1.01,0,3.97-.69,8.8-2.07,5.35-1.74,8.96-2.6,11.2-2.6,2.07,0,3.09,.86,3.09,2.76,0,2.07-.69,4.33-2.07,6.89-1.01,1.55-1.55,2.76-1.55,3.61,0,1.74,.86,2.6,2.6,2.6,.86,0,1.74-.17,2.24-.17,.69-.17,1.38-.17,2.07-.17,1.38,0,2.07,1.01,2.07,3.25,0,6.57-1.21,12.42-3.61,17.41-2.43,5.16-5.52,7.75-9.49,7.75-3.45,0-5.16-1.74-5.16-4.99,0-1.21,.33-2.6,.86-4.33s1.21-3.25,1.9-4.82c1.01-2.24,1.74-4.33,2.24-6.21,.52-1.74,.69-3.61,.69-5.35,0-3.78-.52-6.73-1.9-9.13-1.21-2.43-2.43-3.61-3.78-3.61-.69,0-1.21,.17-1.74,.69s-.69,1.01-.69,1.74c0,1.38,.86,2.76,2.76,4.14,1.01,1.01,1.9,1.9,2.43,2.6s.86,1.55,.86,2.6c0,1.21-.52,2.24-1.74,3.09-1.01,.86-2.93,1.9-5.52,3.09-3.45,1.74-6.01,3.25-7.92,4.82-1.9,1.57-2.76,3.61-2.76,6.37,.33,3.25,1.9,6.01,4.99,8.11h.05v.03l-.03,.03v.03s-.02,0-.02,0Zm62.24-59.31c2.07,0,3.78,.33,5.52,.86-2.76,18.79-4.14,35.34-4.14,49.13-4.5-1.74-7.59-4.5-9.66-8.28-2.07-3.78-3.09-10.18-3.09-18.95-.17-15.34,3.61-22.93,11.37-22.76h0Zm-1.01,51.53c3.25,1.01,7.06,1.74,11.03,1.9-.17,2.6-1.01,4.67-2.6,6.37-1.57,1.71-3.97,2.43-7.06,2.43-3.45,0-6.21-1.01-8.28-3.25-2.07-2.07-3.09-5.16-3.09-9.13,0-1.9,.17-3.25,.33-4.33,3.09,2.93,6.37,4.99,9.66,6.01h0Zm18.79-12.07c3.78-2.76,10.01-4.67,18.79-5.35v-2.07c0-2.76-1.74-4.14-4.99-4.14-1.9,0-3.78,.33-6.01,1.01-2.07,.69-4.67,1.74-7.75,3.09l-4.82-10.18c7.26-3.61,13.8-5.52,19.32-5.52,6.21,0,10.84,1.38,13.8,4.14s4.33,6.73,4.33,11.91v16.39c0,1.9,1.01,2.76,3.09,2.76v9.49c-4.82,0-8.44-.33-10.52-1.01-2.24-.69-3.97-2.24-5.35-4.5-1.9,2.24-3.78,3.78-5.85,4.82-2.07,1.05-4.5,1.55-7.26,1.55-3.78,0-6.73-1.01-9.13-3.09-2.43-2.07-3.61-4.82-3.61-8.28,.52-4.5,2.43-8.11,6.01-11.03h-.03Zm9.33,11.61c.86,.69,1.9,1.01,3.09,1.01,2.43,0,4.67-.86,6.37-2.76v-7.42c-3.25,.17-5.85,.86-7.92,2.07s-2.93,2.6-2.93,4.5c.17,.86,.69,1.74,1.38,2.6h0Zm37.24-28.45c4.33-4.14,9.66-6.21,16.2-6.21,2.6,0,5.16,.52,7.92,1.38s5.16,2.24,7.42,4.33l-6.57,9.13c-2.24-2.07-4.99-2.93-8.11-2.93-2.24,0-4.33,.86-6.21,2.76s-2.6,4.67-2.6,8.11,.86,6.37,2.6,8.44,3.78,2.93,6.21,2.93c2.76,0,5.35-1.01,7.59-3.09l7.42,8.28c-4.82,4.14-10.01,6.37-15.51,6.37-6.57,0-11.91-2.07-16.2-6.21-4.28-4.14-6.37-9.66-6.37-16.72-.17-6.89,1.9-12.25,6.21-16.55h0v-.04h.01Zm36.89-21.78h14.32v34.32l14.48-17.6h14.32l-13.44,15.51,13.96,27.75h-16.39l-7.06-16.72-6.01,6.89v9.82h-14.32l.17-60.01h0v.03h-.03s0,0,0,0Z" style="fill: #98c9f1;"/>
      </g>
    </g>
  </g>
</svg>