<?xml version="1.0" encoding="UTF-8"?>
<svg id="headline-svg" xmlns="http://www.w3.org/2000/svg" viewBox="0 0 960 960">
  <g id="deals">
    <path d="M277.83,174.45h30.07c31.32,0,47.72,17.02,47.72,46.09s-15.29,47.7-47.72,47.7h-30.07v-93.79Zm32.19,73.96c15.04,0,22.49-10.45,22.49-27.6s-8.08-26.53-22.49-26.53h-9.2v54.13h9.2Z" style="fill: #fff;"/>
    <path d="M363.44,231.93c0-23.85,15.28-38.59,34.42-38.59s31.19,12.73,31.19,33.09c0,3.62-.5,7.91-.99,10.72h-41.88c1.12,9.51,5.59,13.8,13.55,13.8,6.46,0,12.55-2.14,18.14-5.76l8.82,14.74c-8.45,6.83-18.02,10.05-28.71,10.05-19.01,0-34.55-13.8-34.55-38.05Zm22.99-8.04h21.5c.12-8.31-2.73-13.8-9.69-13.8-5.47,0-10.19,4.15-11.81,13.8Z" style="fill: #fff;"/>
    <path d="M435.02,250.69c0-14.07,9.32-24.79,38.4-27.47v-3.89c0-4.69-2.73-6.97-7.83-6.97-5.96,0-12.18,2.28-21.37,7.1l-7.58-17.02c10.07-5.63,20.88-9.11,30.32-9.11,20.63,0,28.58,10.85,28.58,26.93v27.87c0,3.08,1.62,4.42,4.6,4.56v15.94c-14.17,0-20.01-1.61-24.48-9.38-5.47,6.97-11.31,10.72-20.63,10.72-11.43,0-20.01-7.64-20.01-19.29Zm38.4-2.41v-12.19c-9.69,.54-16.65,4.02-16.65,10.99,0,3.75,2.61,6.3,6.71,6.3s7.71-2.28,9.94-5.09Z" style="fill: #fff;"/>
    <path d="M509.33,167.08h22.49v101.16h-22.49v-101.16Z" style="fill: #fff;"/>
    <path d="M541.14,262.48l7.7-16.61c6.71,3.62,13.92,6.16,20.38,6.16,5.59,0,7.7-1.88,7.7-4.82,0-3.75-4.85-4.96-10.81-6.7-9.94-2.55-23.61-6.16-23.61-23.58,0-15.54,13.17-23.58,28.08-23.58,7.33,0,15.41,1.47,25.48,6.57l-7.46,15.94c-6.59-3.35-13.92-4.56-17.65-4.56-4.97,0-7.08,1.88-7.08,4.69,0,3.75,4.85,5.09,10.69,6.56,9.94,2.41,23.49,5.9,23.49,23.05,0,15.54-11.81,24.39-28.33,24.39-10.19,0-20.13-2.81-28.58-7.5Z" style="fill: #fff;"/>
  </g>
  <g id="tenk">
    <path d="M297.96,80.56l-16.9,7.37-6.96-17.42,30.57-14.07h16.65v93.79h-23.36V80.56Z" style="fill: #fffab0;"/>
    <path d="M336.6,103.34c0-30.15,13.17-48.64,35.91-48.64s36.04,18.49,36.04,48.64-13.17,48.64-36.04,48.64-35.91-18.62-35.91-48.64Zm49.83,0c0-19.83-5.22-28.27-13.92-28.27s-13.79,8.44-13.79,28.27,5.22,28.27,13.79,28.27,13.92-8.58,13.92-28.27Z" style="fill: #fffab0;"/>
    <path d="M417.13,138.18c0-7.91,5.34-13.67,12.8-13.67s12.8,5.76,12.8,13.67-5.47,13.8-12.8,13.8-12.8-5.76-12.8-13.8Z" style="fill: #fffab0;"/>
    <path d="M451.3,103.34c0-30.15,13.17-48.64,35.91-48.64s36.04,18.49,36.04,48.64-13.17,48.64-36.04,48.64-35.91-18.62-35.91-48.64Zm49.83,0c0-19.83-5.22-28.27-13.92-28.27s-13.79,8.44-13.79,28.27,5.22,28.27,13.79,28.27,13.92-8.58,13.92-28.27Z" style="fill: #fffab0;"/>
    <path d="M531.7,103.34c0-30.15,13.17-48.64,35.91-48.64s36.04,18.49,36.04,48.64-13.17,48.64-36.04,48.64-35.91-18.62-35.91-48.64Zm49.83,0c0-19.83-5.22-28.27-13.92-28.27s-13.79,8.44-13.79,28.27,5.22,28.27,13.79,28.27,13.92-8.58,13.92-28.27Z" style="fill: #fffab0;"/>
    <path d="M612.1,103.34c0-30.15,13.17-48.64,35.91-48.64s36.04,18.49,36.04,48.64-13.17,48.64-36.04,48.64-35.91-18.62-35.91-48.64Zm49.83,0c0-19.83-5.22-28.27-13.92-28.27s-13.79,8.44-13.79,28.27,5.22,28.27,13.79,28.27,13.92-8.58,13.92-28.27Z" style="fill: #fffab0;"/>
  </g>
</svg>