<?xml version="1.0" encoding="UTF-8"?>
<svg id="headline-svg" xmlns="http://www.w3.org/2000/svg" viewBox="0 0 300 250">
  <path id="l1" d="m16.29,50.62h17.14c17.86,0,27.2,9.16,27.2,24.81s-8.71,25.67-27.2,25.67h-17.14s0-50.47,0-50.47Zm18.35,39.81c8.57,0,12.82-5.62,12.82-14.85s-4.6-14.28-12.82-14.28h-5.24v29.14h5.24Zm30.76-8.89c0-12.84,8.71-20.77,19.62-20.77s17.78,6.86,17.78,17.81c0,1.94-.28,4.25-.57,5.76h-23.87c.64,5.11,3.2,7.42,7.71,7.42,3.68,0,7.16-1.15,10.34-3.1l5.02,7.94c-4.82,3.68-10.27,5.41-16.37,5.41-10.83,0-19.68-7.42-19.68-20.47h.01Zm13.09-4.33h12.26c.07-4.47-1.57-7.42-5.52-7.42-3.11,0-5.81,2.23-6.73,7.42h-.01Zm27.06,14.42c0-7.56,5.31-13.34,21.89-14.78v-2.09c0-2.52-1.57-3.74-4.46-3.74-3.39,0-6.95,1.23-12.19,3.82l-4.32-9.16c5.74-3.03,11.9-4.9,17.28-4.9,11.76,0,16.29,5.84,16.29,14.5v15c0,1.66.92,2.37,2.63,2.45v8.59c-8.08,0-11.41-.86-13.95-5.05-3.11,3.74-6.45,5.76-11.76,5.76-6.51,0-11.41-4.11-11.41-10.39h.01Zm21.89-1.29v-6.56c-5.52.29-9.48,2.16-9.48,5.91,0,2.02,1.49,3.39,3.82,3.39s4.39-1.23,5.67-2.74h-.01Zm20.91-43.7h12.82v54.45h-12.82v-54.43h0Zm17.54,51.33l4.39-8.93c3.82,1.94,7.94,3.31,11.61,3.31,3.2,0,4.39-1.01,4.39-2.59,0-2.02-2.75-2.66-6.17-3.6-5.67-1.37-13.45-3.31-13.45-12.7,0-8.37,7.51-12.7,16.01-12.7,4.18,0,8.78.79,14.52,3.53l-4.25,8.59c-3.75-1.8-7.94-2.45-10.06-2.45-2.83,0-4.03,1.01-4.03,2.52,0,2.02,2.77,2.74,6.09,3.53,5.67,1.29,13.38,3.17,13.38,12.41,0,8.37-6.73,13.13-16.15,13.13-5.81,0-11.47-1.51-16.29-4.03h.01Z" style="fill: #fff; stroke-width: 0px;"/>
  <g id="l0">
    <path d="m23.59,22.13h-6.6v-5.06h18.87v5.06h-6.6v16.42h-5.68v-16.42Z" style="fill: #ffb0b0; stroke-width: 0px;"/>
    <path d="m37.02,34.53c0-3.22,2.3-5.68,9.48-6.29v-.89c0-1.07-.68-1.6-1.93-1.6-1.47,0-3.01.52-5.28,1.63l-1.87-3.9c2.49-1.29,5.16-2.09,7.49-2.09,5.09,0,7.06,2.49,7.06,6.17v6.38c0,.71.4,1.01,1.14,1.04v3.65c-3.5,0-4.94-.37-6.04-2.15-1.35,1.6-2.79,2.46-5.09,2.46-2.82,0-4.94-1.75-4.94-4.42Zm1.81-16.91c0-1.44.95-2.24,2.27-2.24s2.33.8,2.33,2.24-1.01,2.24-2.33,2.24-2.27-.8-2.27-2.24Zm7.67,16.35v-2.79c-2.39.12-4.11.92-4.11,2.52,0,.86.64,1.44,1.66,1.44s1.9-.52,2.45-1.17Zm-.18-16.35c0-1.44.92-2.24,2.27-2.24s2.3.8,2.3,2.24-.98,2.24-2.3,2.24-2.27-.8-2.27-2.24Z" style="fill: #ffb0b0; stroke-width: 0px;"/>
    <path d="m60.18,33.27c-.25.18-.4.43-.4.71,0,.61.74.89,3.62.98,5.34.15,8.16,1.53,8.16,4.82s-2.82,5.22-8.78,5.22c-5.19,0-8.47-1.38-8.47-4.3,0-1.56.67-2.64,2.15-3.44-.61-.74-.89-1.53-.89-2.27,0-1.17.55-2.3,1.66-3.04-1.35-1.04-2.24-2.58-2.24-4.51,0-3.59,3.07-6.05,7.36-6.05,1.9,0,3.59.49,4.85,1.38,1.14-.8,2.67-1.29,4.79-1.29v3.25c-1.04,0-1.99.09-2.85.34.31.71.49,1.53.49,2.39,0,3.87-3.44,6.05-7.27,6.05-.74,0-1.47-.09-2.18-.25Zm2.61,8.62c2.79,0,3.8-.37,3.8-1.23,0-.8-.77-1.1-3.59-1.17-1.17-.03-2.15-.15-3.01-.34-.43.34-.68.8-.68,1.35,0,.92.89,1.38,3.47,1.38Zm1.75-14.42c0-1.6-.86-2.61-2.18-2.61s-2.15,1.04-2.15,2.61.86,2.61,2.15,2.61,2.18-1.04,2.18-2.61Z" style="fill: #ffb0b0; stroke-width: 0px;"/>
    <path d="m73.94,15.38h5.55v23.17h-5.55V15.38Z" style="fill: #ffb0b0; stroke-width: 0px;"/>
    <path d="m82.43,17.56c0-1.87,1.29-2.82,3.13-2.82s3.19.95,3.19,2.82-1.32,2.82-3.19,2.82-3.13-1.01-3.13-2.82Zm.4,4.23h5.55v16.75h-5.55v-16.75Z" style="fill: #ffb0b0; stroke-width: 0px;"/>
    <path d="m90.89,30.11c0-5.43,3.74-8.71,8.68-8.71,1.84,0,4.02.55,5.92,2.12l-2.64,3.5c-.86-.71-1.87-1.14-3.07-1.14-1.72,0-3.34,1.32-3.34,4.23s1.6,4.39,3.34,4.39c1.2,0,2.09-.43,2.95-1.14l2.82,3.19c-1.75,1.6-3.74,2.39-5.98,2.39-4.85,0-8.68-3.28-8.68-8.84Z" style="fill: #ffb0b0; stroke-width: 0px;"/>
    <path d="m107.49,15.38h5.55v8.25c1.17-1.2,2.79-2.18,4.82-2.18,3.71,0,5.09,2.09,5.09,5.98v11.11h-5.52v-11.26c0-1.1-.49-1.84-1.69-1.84-.98,0-1.96.58-2.7,1.5v11.6h-5.55V15.38Z" style="fill: #ffb0b0; stroke-width: 0px;"/>
    <path d="m133.39,21.8h5.25l.25,1.84c1.2-1.2,2.85-2.21,4.88-2.21,3.71,0,5.09,2.12,5.09,6.01v11.11h-5.49v-11.26c0-1.1-.49-1.84-1.72-1.84-.95,0-1.96.58-2.73,1.5v11.6h-5.52v-16.75Z" style="fill: #ffb0b0; stroke-width: 0px;"/>
    <path d="m151.34,30.23c0-5.46,3.77-8.84,8.5-8.84s7.7,2.92,7.7,7.58c0,.83-.12,1.81-.25,2.45h-10.34c.28,2.18,1.38,3.16,3.34,3.16,1.6,0,3.1-.49,4.48-1.32l2.18,3.38c-2.09,1.56-4.45,2.3-7.09,2.3-4.7,0-8.53-3.16-8.53-8.71Zm5.68-1.84h5.31c.03-1.9-.68-3.16-2.39-3.16-1.35,0-2.52.95-2.92,3.16Z" style="fill: #ffb0b0; stroke-width: 0px;"/>
    <path d="m170.08,32.9v-11.11h5.49v11.26c0,1.1.46,1.84,1.69,1.84,1.01,0,1.96-.58,2.76-1.5v-11.6h5.52v16.75h-5.19l-.31-1.84c-1.13,1.2-2.95,2.24-4.88,2.24-3.68,0-5.09-2.15-5.09-6.04Z" style="fill: #ffb0b0; stroke-width: 0px;"/>
    <path d="m188.12,30.23c0-5.46,3.77-8.84,8.5-8.84s7.7,2.92,7.7,7.58c0,.83-.12,1.81-.25,2.45h-10.34c.28,2.18,1.38,3.16,3.34,3.16,1.6,0,3.1-.49,4.48-1.32l2.18,3.38c-2.09,1.56-4.45,2.3-7.09,2.3-4.7,0-8.53-3.16-8.53-8.71Zm5.68-1.84h5.31c.03-1.9-.68-3.16-2.39-3.16-1.35,0-2.52.95-2.92,3.16Z" style="fill: #ffb0b0; stroke-width: 0px;"/>
  </g>
</svg>