<?xml version="1.0" encoding="UTF-8"?>
<svg id="headline-svg" xmlns="http://www.w3.org/2000/svg" viewBox="0 0 320 480">
  <path id="l1" d="m31.12,73.95h24.25c25.27,0,38.49,12.96,38.49,35.11s-12.33,36.32-38.49,36.32h-24.25s0-71.43,0-71.43Zm25.96,56.34c12.14,0,18.14-7.96,18.14-21.01s-6.51-20.21-18.14-20.21h-7.42v41.24h7.42v-.02Zm43.53-12.58c0-18.17,12.33-29.4,27.77-29.4s25.16,9.7,25.16,25.21c0,2.75-.39,6.02-.81,8.16h-33.78c.9,7.24,4.52,10.51,10.92,10.51,5.21,0,10.13-1.63,14.63-4.39l7.1,11.23c-6.82,5.21-14.54,7.66-23.17,7.66-15.33,0-27.86-10.51-27.86-28.97h.02Zm18.53-6.13h17.35c.1-6.33-2.22-10.51-7.81-10.51-4.41,0-8.22,3.16-9.52,10.51h-.02Zm38.3,20.41c0-10.7,7.51-18.88,30.98-20.92v-2.96c0-3.57-2.22-5.29-6.31-5.29-4.8,0-9.83,1.74-17.25,5.41l-6.12-12.96c8.12-4.29,16.84-6.94,24.45-6.94,16.64,0,23.05,8.27,23.05,20.52v21.23c0,2.35,1.3,3.35,3.72,3.47v12.15c-11.43,0-16.15-1.22-19.75-7.15-4.41,5.29-9.13,8.16-16.64,8.16-9.21,0-16.15-5.82-16.15-14.7h0l.02-.02Zm30.98-1.83v-9.29c-7.81.41-13.42,3.06-13.42,8.37,0,2.86,2.1,4.8,5.41,4.8s6.22-1.74,8.02-3.88h-.02Zm29.6-61.84h18.14v77.05h-18.14v-77.04h0v-.02Zm24.83,72.65l6.22-12.65c5.41,2.75,11.23,4.69,16.43,4.69,4.52,0,6.22-1.43,6.22-3.67,0-2.86-3.9-3.77-8.73-5.1-8.02-1.94-19.04-4.69-19.04-17.97,0-11.84,10.62-17.97,22.66-17.97,5.92,0,12.43,1.12,20.55,5l-6.02,12.15c-5.31-2.55-11.23-3.47-14.24-3.47-4.01,0-5.71,1.43-5.71,3.57,0,2.86,3.91,3.88,8.62,5,8.02,1.83,18.94,4.49,18.94,17.56,0,11.84-9.52,18.58-22.86,18.58-8.22,0-16.23-2.14-23.05-5.71h0l.02-.02Z" style="fill: #fff; stroke-width: 0px;"/>
  <g id="l0">
    <path d="m38.45,33.32h-9.13v-7h26.11v7h-9.13v22.71h-7.85v-22.71Z" style="fill: #ffb0b0; stroke-width: 0px;"/>
    <path d="m56.88,50.47c0-4.46,3.18-7.85,13.12-8.7v-1.23c0-1.49-.93-2.21-2.67-2.21-2.04,0-4.16.72-7.3,2.25l-2.59-5.39c3.44-1.78,7.13-2.89,10.36-2.89,7.05,0,9.76,3.44,9.76,8.53v8.83c0,.98.55,1.4,1.57,1.44v5.05c-4.84,0-6.83-.51-8.36-2.97-1.87,2.21-3.86,3.4-7.05,3.4-3.91,0-6.83-2.42-6.83-6.11Zm2.5-23.39c0-2,1.32-3.1,3.14-3.1s3.23,1.1,3.23,3.1-1.4,3.1-3.23,3.1-3.14-1.1-3.14-3.1Zm10.61,22.63v-3.86c-3.31.17-5.69,1.27-5.69,3.48,0,1.19.89,2,2.29,2s2.63-.72,3.4-1.61Zm-.25-22.63c0-2,1.27-3.1,3.14-3.1s3.18,1.1,3.18,3.1-1.36,3.1-3.18,3.1-3.14-1.1-3.14-3.1Z" style="fill: #ffb0b0; stroke-width: 0px;"/>
    <path d="m88.79,48.73c-.34.25-.55.59-.55.98,0,.85,1.02,1.23,5.01,1.36,7.39.21,11.29,2.12,11.29,6.66s-3.91,7.22-12.14,7.22c-7.17,0-11.72-1.91-11.72-5.94,0-2.17.93-3.65,2.97-4.75-.85-1.02-1.23-2.12-1.23-3.14,0-1.61.76-3.18,2.29-4.2-1.87-1.44-3.1-3.57-3.1-6.24,0-4.97,4.25-8.36,10.19-8.36,2.63,0,4.97.68,6.71,1.91,1.57-1.1,3.69-1.78,6.62-1.78v4.5c-1.44,0-2.76.13-3.95.47.42.98.68,2.12.68,3.31,0,5.35-4.75,8.36-10.06,8.36-1.02,0-2.04-.13-3.01-.34Zm3.61,11.93c3.86,0,5.26-.51,5.26-1.7,0-1.1-1.06-1.53-4.97-1.61-1.61-.04-2.97-.21-4.16-.47-.59.47-.93,1.1-.93,1.87,0,1.27,1.23,1.91,4.8,1.91Zm2.42-19.95c0-2.21-1.19-3.61-3.01-3.61s-2.97,1.44-2.97,3.61,1.19,3.61,2.97,3.61,3.01-1.44,3.01-3.61Z" style="fill: #ffb0b0; stroke-width: 0px;"/>
    <path d="m107.69,23.98h7.68v32.05h-7.68V23.98Z" style="fill: #ffb0b0; stroke-width: 0px;"/>
    <path d="m119.32,27c0-2.59,1.78-3.91,4.33-3.91s4.42,1.32,4.42,3.91-1.83,3.91-4.42,3.91-4.33-1.4-4.33-3.91Zm.55,5.86h7.68v23.18h-7.68v-23.18Z" style="fill: #ffb0b0; stroke-width: 0px;"/>
    <path d="m130.89,44.36c0-7.51,5.18-12.06,12.01-12.06,2.55,0,5.56.76,8.19,2.93l-3.65,4.84c-1.19-.98-2.59-1.57-4.25-1.57-2.38,0-4.63,1.83-4.63,5.86s2.21,6.07,4.63,6.07c1.66,0,2.89-.59,4.08-1.57l3.91,4.41c-2.42,2.21-5.18,3.31-8.28,3.31-6.71,0-12.01-4.54-12.01-12.23Z" style="fill: #ffb0b0; stroke-width: 0px;"/>
    <path d="m153.72,23.98h7.68v11.42c1.61-1.66,3.86-3.01,6.66-3.01,5.14,0,7.05,2.89,7.05,8.28v15.37h-7.64v-15.58c0-1.53-.68-2.55-2.33-2.55-1.36,0-2.72.81-3.74,2.08v16.05h-7.68V23.98Z" style="fill: #ffb0b0; stroke-width: 0px;"/>
    <path d="m189.54,32.85h7.26l.34,2.55c1.66-1.66,3.95-3.06,6.75-3.06,5.14,0,7.05,2.93,7.05,8.32v15.37h-7.6v-15.58c0-1.53-.68-2.55-2.38-2.55-1.32,0-2.72.81-3.78,2.08v16.05h-7.64v-23.18Z" style="fill: #ffb0b0; stroke-width: 0px;"/>
    <path d="m214.25,44.53c0-7.56,5.22-12.23,11.76-12.23s10.66,4.03,10.66,10.48c0,1.15-.17,2.5-.34,3.4h-14.31c.38,3.01,1.91,4.37,4.63,4.37,2.21,0,4.29-.68,6.2-1.83l3.01,4.67c-2.89,2.17-6.16,3.18-9.81,3.18-6.49,0-11.8-4.37-11.8-12.06Zm7.85-2.55h7.34c.04-2.63-.93-4.37-3.31-4.37-1.87,0-3.48,1.32-4.03,4.37Z" style="fill: #ffb0b0; stroke-width: 0px;"/>
    <path d="m240.04,48.22v-15.37h7.6v15.58c0,1.53.64,2.55,2.33,2.55,1.4,0,2.72-.81,3.82-2.08v-16.05h7.64v23.18h-7.17l-.42-2.55c-1.57,1.66-4.08,3.1-6.75,3.1-5.09,0-7.05-2.97-7.05-8.36Z" style="fill: #ffb0b0; stroke-width: 0px;"/>
    <path d="m264.87,44.53c0-7.56,5.22-12.23,11.76-12.23s10.66,4.03,10.66,10.48c0,1.15-.17,2.5-.34,3.4h-14.31c.38,3.01,1.91,4.37,4.63,4.37,2.21,0,4.29-.68,6.2-1.83l3.01,4.67c-2.89,2.17-6.16,3.18-9.81,3.18-6.49,0-11.8-4.37-11.8-12.06Zm7.85-2.55h7.34c.04-2.63-.93-4.37-3.31-4.37-1.87,0-3.48,1.32-4.03,4.37Z" style="fill: #ffb0b0; stroke-width: 0px;"/>
  </g>
</svg>