<?xml version="1.0" encoding="UTF-8"?>
<svg id="intro-svg" xmlns="http://www.w3.org/2000/svg" xmlns:xlink="http://www.w3.org/1999/xlink" viewBox="0 0 1200 1800">
  <defs>
    <radialGradient id="radial-gradient" cx="600.05" cy="795.9" fx="600.05" fy="795.9" r="338.16" gradientTransform="translate(0 481.3) scale(1 .54)" gradientUnits="userSpaceOnUse">
      <stop offset=".8" stop-color="#130c0e"/>
      <stop offset=".8" stop-color="#130c0e" stop-opacity=".96"/>
      <stop offset=".91" stop-color="#130c0e" stop-opacity=".25"/>
      <stop offset="1" stop-color="#130c0e" stop-opacity="0"/>
    </radialGradient>
  </defs>
  <g id="rotation1">
    <g id="rotation0">
      <g id="left">
        <g id="line" style="opacity: .35;">
          <path id="logo0-0" d="M143.1,180.71l-12.07-14.01h23.57v10.45s-11.18-10.13-11.18-10.13v10.53s8.26,0,8.26,0v8.1s-8.26-7.78-8.26-7.78v18.39s-12.39-15.55-12.39-15.55h12.07Zm13.77-8.1h6.4s.49,3.08,.49,3.08c.81-1.4,1.7-2.38,2.67-2.92,.97-.54,2.05-.81,3.24-.81,.22,0,.97,.08,2.27,.24l-.73,6.48c-1.19-.27-2.19-.41-3-.41-1.89,0-3.35,1.08-4.37,3.24v12.39h-6.97v-21.3Zm18.18-7.86c.73-.59,1.69-.89,2.88-.89,1.24,0,2.23,.28,2.96,.85s1.09,1.42,1.09,2.55c0,1.13-.36,2.01-1.09,2.63-.73,.62-1.71,.93-2.96,.93s-2.15-.31-2.88-.93c-.73-.62-1.09-1.5-1.09-2.63,0-1.08,.36-1.92,1.09-2.51Zm-.53,7.86h6.97v21.3h-6.97v-21.3Zm12.23,2.35c1.4-1.84,3.35-2.75,5.83-2.75,1.08,0,2.12,.24,3.12,.73,1,.49,1.82,1.16,2.47,2.03v-10.37h6.97v29.32h-6.07s-.41-2.43-.41-2.43c-1.73,1.89-3.83,2.83-6.32,2.83-2.32,0-4.19-.96-5.59-2.88-1.41-1.92-2.11-4.71-2.11-8.38,0-3.56,.7-6.26,2.11-8.1Zm5.71,12.55c.51,1.08,1.31,1.62,2.39,1.62,1.35,0,2.46-.49,3.32-1.46v-8.75c-.86-.97-1.97-1.46-3.32-1.46-2.11,0-3.16,1.86-3.16,5.59,0,1.89,.26,3.38,.77,4.46Zm18.64-4.13c1.84-1.35,4.91-2.19,9.23-2.51v-1.22c0-1.35-.84-2.02-2.51-2.02-.92,0-1.88,.16-2.88,.49-1,.32-2.26,.86-3.77,1.62l-2.35-4.94c3.24-1.78,6.37-2.67,9.4-2.67,3.08,0,5.36,.7,6.84,2.11,1.48,1.4,2.23,3.29,2.23,5.67v8.18c0,.86,.46,1.3,1.38,1.3v4.7c-2.27,0-3.94-.17-5.02-.53-1.08-.35-1.97-1.09-2.67-2.23-.81,1.03-1.73,1.8-2.75,2.31-1.03,.51-2.24,.77-3.64,.77-1.84,0-3.33-.51-4.5-1.54-1.16-1.03-1.74-2.38-1.74-4.05,0-2.27,.92-4.08,2.75-5.43Zm4.54,5.75c.38,.32,.89,.49,1.54,.49,1.24,0,2.29-.49,3.16-1.46v-3.73c-1.62,.11-2.9,.45-3.85,1.01-.95,.57-1.42,1.36-1.42,2.39,0,.54,.19,.97,.57,1.3Zm20.82-16.52l3.81,12.47h.08s3.89-12.47,3.89-12.47h6.8s-7.13,20.82-7.13,20.82c-1.19,3.35-2.48,5.62-3.89,6.8-1.41,1.19-3.21,1.78-5.43,1.78-1.78,0-3.54-.24-5.27-.73l1.7-5.27c.97,.32,1.97,.49,3,.49,.7,0,1.24-.15,1.62-.45,.38-.3,.67-.82,.89-1.58l.32-.89-7.61-20.98h7.21Zm-102.67-14.9c1.51,1.03,3.86,1.54,7.05,1.54,5.13,0,8.99-1.04,11.58-3.12,2.59-2.08,3.89-4.82,3.89-8.22,0-1.73-.46-3.05-1.38-3.97-.92-.92-2.24-1.38-3.97-1.38-.59,0-1.23,.08-1.9,.24-.68,.16-1.12,.27-1.34,.32-1.08,.32-1.81,.49-2.19,.49-.32,0-.49-.13-.49-.4,0-.22,.19-.47,.57-.77,.38-.3,.81-.58,1.3-.85,1.51-.97,2.69-1.86,3.52-2.67,.84-.81,1.26-1.89,1.26-3.24,0-1.62-.55-2.9-1.66-3.85-1.11-.94-2.74-1.42-4.9-1.42-2.27,0-4.37,.45-6.32,1.34s-3.5,1.94-4.66,3.16c-1.16,1.21-1.74,2.23-1.74,3.04,0,.76,.32,1.13,.97,1.13,.49,0,1.92-.32,4.29-.97,2.59-.86,4.43-1.3,5.51-1.3,1.03,0,1.54,.46,1.54,1.38,0,.97-.35,2.11-1.05,3.4-.49,.76-.73,1.35-.73,1.78,0,.86,.43,1.3,1.3,1.3,.43,0,.81-.04,1.13-.12,.32-.08,.65-.12,.97-.12,.7,0,1.05,.54,1.05,1.62,0,3.19-.59,6.03-1.78,8.55-1.19,2.51-2.73,3.77-4.62,3.77-1.67,0-2.51-.81-2.51-2.43,0-.59,.13-1.3,.4-2.11,.27-.81,.57-1.59,.89-2.35,.49-1.13,.85-2.13,1.09-3,.24-.86,.36-1.73,.36-2.59,0-1.84-.3-3.33-.89-4.5-.59-1.16-1.21-1.74-1.86-1.74-.32,0-.61,.11-.85,.32-.24,.22-.36,.49-.36,.81,0,.65,.46,1.32,1.38,2.02,.54,.49,.94,.91,1.22,1.26,.27,.35,.4,.77,.4,1.26,0,.59-.27,1.09-.81,1.5-.54,.41-1.43,.91-2.67,1.5-1.67,.81-2.97,1.59-3.89,2.35-.92,.76-1.38,1.78-1.38,3.08,0,1.62,.76,2.94,2.27,3.97Zm30.46-29.08c.97,0,1.86,.14,2.67,.4-1.35,9.23-2.03,17.25-2.03,24.06-2.16-.81-3.74-2.16-4.74-4.05-1-1.89-1.5-4.99-1.5-9.31,0-7.4,1.86-11.1,5.59-11.1Zm-.45,25.27c1.65,.54,3.44,.84,5.39,.89-.05,1.24-.47,2.27-1.26,3.08-.78,.81-1.93,1.21-3.44,1.21-1.67,0-3.01-.53-4.01-1.58-1-1.05-1.5-2.55-1.5-4.5,0-.92,.05-1.62,.16-2.11,1.46,1.46,3.01,2.46,4.66,3Zm9.19-5.87c1.84-1.38,4.91-2.25,9.23-2.63v-1.05c0-1.35-.81-2.02-2.43-2.02-.92,0-1.89,.16-2.92,.49-1.03,.32-2.3,.84-3.81,1.54l-2.35-4.94c3.56-1.78,6.72-2.67,9.48-2.67,3.08,0,5.33,.69,6.76,2.07,1.43,1.38,2.15,3.31,2.15,5.79v8.02c0,.92,.51,1.38,1.54,1.38v4.62c-2.38,0-4.1-.17-5.18-.53-1.08-.35-1.94-1.09-2.59-2.23-.92,1.08-1.86,1.88-2.83,2.39-.97,.51-2.16,.77-3.56,.77-1.84,0-3.33-.51-4.5-1.54-1.16-1.03-1.74-2.38-1.74-4.05,0-2.21,.92-4.01,2.75-5.39Zm4.58,5.59c.4,.35,.9,.53,1.5,.53,1.19,0,2.24-.46,3.16-1.38v-3.65c-1.62,.11-2.9,.43-3.85,.97-.95,.54-1.42,1.27-1.42,2.19,0,.54,.2,.99,.61,1.34Zm18.14-13.85c2.08-2.02,4.71-3.04,7.9-3.04,1.24,0,2.52,.22,3.85,.65,1.32,.43,2.52,1.13,3.6,2.11l-3.24,4.46c-1.13-.97-2.46-1.46-3.97-1.46-1.13,0-2.13,.46-3,1.38-.86,.92-1.3,2.24-1.3,3.97,0,1.78,.43,3.16,1.3,4.13,.86,.97,1.86,1.46,3,1.46,1.35,0,2.59-.51,3.73-1.54l3.64,4.05c-2.32,2.05-4.86,3.08-7.61,3.08-3.19,0-5.82-1.01-7.9-3.04-2.08-2.02-3.12-4.74-3.12-8.14,0-3.35,1.04-6.03,3.12-8.06Zm18.1-10.65h6.97v16.77s7.13-8.59,7.13-8.59h6.97s-6.56,7.61-6.56,7.61l6.8,13.61h-7.94s-3.48-8.18-3.48-8.18l-2.92,3.4v4.78h-6.97v-29.4Z" style="fill: #ffb0b0;"/>
          <path id="logo0-1" d="M684.51,180.71l-12.07-14.01h23.57v10.45s-11.18-10.13-11.18-10.13v10.53s8.26,0,8.26,0v8.1s-8.26-7.78-8.26-7.78v18.39s-12.39-15.55-12.39-15.55h12.07Zm13.77-8.1h6.4s.49,3.08,.49,3.08c.81-1.4,1.7-2.38,2.67-2.92,.97-.54,2.05-.81,3.24-.81,.22,0,.97,.08,2.27,.24l-.73,6.48c-1.19-.27-2.19-.41-3-.41-1.89,0-3.35,1.08-4.37,3.24v12.39h-6.97v-21.3Zm18.18-7.86c.73-.59,1.69-.89,2.88-.89,1.24,0,2.23,.28,2.96,.85,.73,.57,1.09,1.42,1.09,2.55,0,1.13-.36,2.01-1.09,2.63-.73,.62-1.71,.93-2.96,.93-1.19,0-2.15-.31-2.88-.93-.73-.62-1.09-1.5-1.09-2.63,0-1.08,.36-1.92,1.09-2.51Zm-.53,7.86h6.97v21.3h-6.97v-21.3Zm12.23,2.35c1.4-1.84,3.35-2.75,5.83-2.75,1.08,0,2.12,.24,3.12,.73,1,.49,1.82,1.16,2.47,2.03v-10.37h6.97v29.32h-6.07s-.41-2.43-.41-2.43c-1.73,1.89-3.83,2.83-6.32,2.83-2.32,0-4.19-.96-5.59-2.88-1.41-1.92-2.11-4.71-2.11-8.38,0-3.56,.7-6.26,2.11-8.1Zm5.71,12.55c.51,1.08,1.31,1.62,2.39,1.62,1.35,0,2.46-.49,3.32-1.46v-8.75c-.86-.97-1.97-1.46-3.32-1.46-2.11,0-3.16,1.86-3.16,5.59,0,1.89,.26,3.38,.77,4.46Zm18.64-4.13c1.84-1.35,4.91-2.19,9.23-2.51v-1.22c0-1.35-.84-2.02-2.51-2.02-.92,0-1.88,.16-2.88,.49-1,.32-2.26,.86-3.77,1.62l-2.35-4.94c3.24-1.78,6.37-2.67,9.4-2.67,3.08,0,5.36,.7,6.84,2.11,1.48,1.4,2.23,3.29,2.23,5.67v8.18c0,.86,.46,1.3,1.38,1.3v4.7c-2.27,0-3.94-.17-5.02-.53-1.08-.35-1.97-1.09-2.67-2.23-.81,1.03-1.73,1.8-2.75,2.31-1.03,.51-2.24,.77-3.64,.77-1.84,0-3.33-.51-4.5-1.54-1.16-1.03-1.74-2.38-1.74-4.05,0-2.27,.92-4.08,2.75-5.43Zm4.54,5.75c.38,.32,.89,.49,1.54,.49,1.24,0,2.29-.49,3.16-1.46v-3.73c-1.62,.11-2.9,.45-3.85,1.01-.95,.57-1.42,1.36-1.42,2.39,0,.54,.19,.97,.57,1.3Zm20.82-16.52l3.81,12.47h.08s3.89-12.47,3.89-12.47h6.8s-7.13,20.82-7.13,20.82c-1.19,3.35-2.48,5.62-3.89,6.8-1.41,1.19-3.21,1.78-5.43,1.78-1.78,0-3.54-.24-5.27-.73l1.7-5.27c.97,.32,1.97,.49,3,.49,.7,0,1.24-.15,1.62-.45,.38-.3,.67-.82,.89-1.58l.32-.89-7.61-20.98h7.21Zm-102.67-14.9c1.51,1.03,3.86,1.54,7.05,1.54,5.13,0,8.99-1.04,11.58-3.12,2.59-2.08,3.89-4.82,3.89-8.22,0-1.73-.46-3.05-1.38-3.97-.92-.92-2.24-1.38-3.97-1.38-.59,0-1.23,.08-1.9,.24-.68,.16-1.12,.27-1.34,.32-1.08,.32-1.81,.49-2.19,.49-.32,0-.49-.13-.49-.4,0-.22,.19-.47,.57-.77,.38-.3,.81-.58,1.3-.85,1.51-.97,2.69-1.86,3.52-2.67,.84-.81,1.26-1.89,1.26-3.24,0-1.62-.55-2.9-1.66-3.85-1.11-.94-2.74-1.42-4.9-1.42-2.27,0-4.37,.45-6.32,1.34-1.94,.89-3.5,1.94-4.66,3.16-1.16,1.21-1.74,2.23-1.74,3.04,0,.76,.32,1.13,.97,1.13,.49,0,1.92-.32,4.29-.97,2.59-.86,4.43-1.3,5.51-1.3,1.03,0,1.54,.46,1.54,1.38s-.35,2.11-1.05,3.4c-.49,.76-.73,1.35-.73,1.78,0,.86,.43,1.3,1.3,1.3,.43,0,.81-.04,1.13-.12,.32-.08,.65-.12,.97-.12,.7,0,1.05,.54,1.05,1.62,0,3.19-.59,6.03-1.78,8.55-1.19,2.51-2.73,3.77-4.62,3.77-1.67,0-2.51-.81-2.51-2.43,0-.59,.13-1.3,.4-2.11,.27-.81,.57-1.59,.89-2.35,.49-1.13,.85-2.13,1.09-3,.24-.86,.36-1.73,.36-2.59,0-1.84-.3-3.33-.89-4.5-.59-1.16-1.21-1.74-1.86-1.74-.32,0-.61,.11-.85,.32-.24,.22-.36,.49-.36,.81,0,.65,.46,1.32,1.38,2.02,.54,.49,.94,.91,1.22,1.26,.27,.35,.4,.77,.4,1.26s-.27,1.09-.81,1.5c-.54,.41-1.43,.91-2.67,1.5-1.67,.81-2.97,1.59-3.89,2.35-.92,.76-1.38,1.78-1.38,3.08,0,1.62,.76,2.94,2.27,3.97Zm30.46-29.08c.97,0,1.86,.14,2.67,.4-1.35,9.23-2.03,17.25-2.03,24.06-2.16-.81-3.74-2.16-4.74-4.05-1-1.89-1.5-4.99-1.5-9.31,0-7.4,1.86-11.1,5.59-11.1Zm-.45,25.27c1.65,.54,3.44,.84,5.39,.89-.05,1.24-.47,2.27-1.26,3.08-.78,.81-1.93,1.21-3.44,1.21-1.67,0-3.01-.53-4.01-1.58-1-1.05-1.5-2.55-1.5-4.5,0-.92,.05-1.62,.16-2.11,1.46,1.46,3.01,2.46,4.66,3Zm9.19-5.87c1.84-1.38,4.91-2.25,9.23-2.63v-1.05c0-1.35-.81-2.02-2.43-2.02-.92,0-1.89,.16-2.92,.49-1.03,.32-2.3,.84-3.81,1.54l-2.35-4.94c3.56-1.78,6.72-2.67,9.48-2.67,3.08,0,5.33,.69,6.76,2.07,1.43,1.38,2.15,3.31,2.15,5.79v8.02c0,.92,.51,1.38,1.54,1.38v4.62c-2.38,0-4.1-.17-5.18-.53-1.08-.35-1.94-1.09-2.59-2.23-.92,1.08-1.86,1.88-2.83,2.39-.97,.51-2.16,.77-3.56,.77-1.84,0-3.33-.51-4.5-1.54-1.16-1.03-1.74-2.38-1.74-4.05,0-2.21,.92-4.01,2.75-5.39Zm4.58,5.59c.4,.35,.9,.53,1.5,.53,1.19,0,2.24-.46,3.16-1.38v-3.65c-1.62,.11-2.9,.43-3.85,.97-.95,.54-1.42,1.27-1.42,2.19,0,.54,.2,.99,.61,1.34Zm18.14-13.85c2.08-2.02,4.71-3.04,7.9-3.04,1.24,0,2.52,.22,3.85,.65,1.32,.43,2.52,1.13,3.6,2.11l-3.24,4.46c-1.13-.97-2.46-1.46-3.97-1.46-1.13,0-2.13,.46-3,1.38-.86,.92-1.3,2.24-1.3,3.97,0,1.78,.43,3.16,1.3,4.13,.86,.97,1.86,1.46,3,1.46,1.35,0,2.59-.51,3.73-1.54l3.64,4.05c-2.32,2.05-4.86,3.08-7.61,3.08-3.19,0-5.82-1.01-7.9-3.04-2.08-2.02-3.12-4.74-3.12-8.14,0-3.35,1.04-6.03,3.12-8.06Zm18.1-10.65h6.97v16.77s7.13-8.59,7.13-8.59h6.97s-6.56,7.61-6.56,7.61l6.8,13.61h-7.94s-3.48-8.18-3.48-8.18l-2.92,3.4v4.78h-6.97v-29.4Z" style="fill: #fffab0;"/>
          <path id="logo0-2" d="M1004.97,180.71l-12.07-14.01h23.57v10.45s-11.18-10.13-11.18-10.13v10.53s8.26,0,8.26,0v8.1s-8.26-7.78-8.26-7.78v18.39s-12.39-15.55-12.39-15.55h12.07Zm13.77-8.1h6.4s.49,3.08,.49,3.08c.81-1.4,1.7-2.38,2.67-2.92,.97-.54,2.05-.81,3.24-.81,.22,0,.97,.08,2.27,.24l-.73,6.48c-1.19-.27-2.19-.41-3-.41-1.89,0-3.35,1.08-4.37,3.24v12.39h-6.97v-21.3Zm18.18-7.86c.73-.59,1.69-.89,2.88-.89,1.24,0,2.23,.28,2.96,.85s1.09,1.42,1.09,2.55-.36,2.01-1.09,2.63c-.73,.62-1.71,.93-2.96,.93-1.19,0-2.15-.31-2.88-.93-.73-.62-1.09-1.5-1.09-2.63,0-1.08,.36-1.92,1.09-2.51Zm-.53,7.86h6.97v21.3h-6.97v-21.3Zm12.23,2.35c1.4-1.84,3.35-2.75,5.83-2.75,1.08,0,2.12,.24,3.12,.73,1,.49,1.82,1.16,2.47,2.03v-10.37h6.97v29.32h-6.07s-.41-2.43-.41-2.43c-1.73,1.89-3.83,2.83-6.32,2.83-2.32,0-4.19-.96-5.59-2.88-1.41-1.92-2.11-4.71-2.11-8.38,0-3.56,.7-6.26,2.11-8.1Zm5.71,12.55c.51,1.08,1.31,1.62,2.39,1.62,1.35,0,2.46-.49,3.32-1.46v-8.75c-.86-.97-1.97-1.46-3.32-1.46-2.11,0-3.16,1.86-3.16,5.59,0,1.89,.26,3.38,.77,4.46Zm18.64-4.13c1.84-1.35,4.91-2.19,9.23-2.51v-1.22c0-1.35-.84-2.02-2.51-2.02-.92,0-1.88,.16-2.88,.49-1,.32-2.26,.86-3.77,1.62l-2.35-4.94c3.24-1.78,6.37-2.67,9.4-2.67,3.08,0,5.36,.7,6.84,2.11,1.48,1.4,2.23,3.29,2.23,5.67v8.18c0,.86,.46,1.3,1.38,1.3v4.7c-2.27,0-3.94-.17-5.02-.53-1.08-.35-1.97-1.09-2.67-2.23-.81,1.03-1.73,1.8-2.75,2.31-1.03,.51-2.24,.77-3.64,.77-1.84,0-3.33-.51-4.5-1.54-1.16-1.03-1.74-2.38-1.74-4.05,0-2.27,.92-4.08,2.75-5.43Zm4.54,5.75c.38,.32,.89,.49,1.54,.49,1.24,0,2.29-.49,3.16-1.46v-3.73c-1.62,.11-2.9,.45-3.85,1.01-.95,.57-1.42,1.36-1.42,2.39,0,.54,.19,.97,.57,1.3Zm20.82-16.52l3.81,12.47h.08l3.89-12.47h6.8s-7.13,20.82-7.13,20.82c-1.19,3.35-2.48,5.62-3.89,6.8-1.41,1.19-3.21,1.78-5.43,1.78-1.78,0-3.54-.24-5.27-.73l1.7-5.27c.97,.32,1.97,.49,3,.49,.7,0,1.24-.15,1.62-.45,.38-.3,.67-.82,.89-1.58l.32-.89-7.61-20.98h7.21Zm-102.67-14.9c1.51,1.03,3.86,1.54,7.05,1.54,5.13,0,8.99-1.04,11.58-3.12,2.59-2.08,3.89-4.82,3.89-8.22,0-1.73-.46-3.05-1.38-3.97-.92-.92-2.24-1.38-3.97-1.38-.59,0-1.23,.08-1.9,.24-.68,.16-1.12,.27-1.34,.32-1.08,.32-1.81,.49-2.19,.49-.32,0-.49-.13-.49-.4,0-.22,.19-.47,.57-.77,.38-.3,.81-.58,1.3-.85,1.51-.97,2.69-1.86,3.52-2.67,.84-.81,1.26-1.89,1.26-3.24,0-1.62-.55-2.9-1.66-3.85-1.11-.94-2.74-1.42-4.9-1.42-2.27,0-4.37,.45-6.32,1.34-1.94,.89-3.5,1.94-4.66,3.16-1.16,1.21-1.74,2.23-1.74,3.04s.32,1.13,.97,1.13c.49,0,1.92-.32,4.29-.97,2.59-.86,4.43-1.3,5.51-1.3,1.03,0,1.54,.46,1.54,1.38,0,.97-.35,2.11-1.05,3.4-.49,.76-.73,1.35-.73,1.78,0,.86,.43,1.3,1.3,1.3,.43,0,.81-.04,1.13-.12,.32-.08,.65-.12,.97-.12,.7,0,1.05,.54,1.05,1.62,0,3.19-.59,6.03-1.78,8.55-1.19,2.51-2.73,3.77-4.62,3.77-1.67,0-2.51-.81-2.51-2.43,0-.59,.13-1.3,.4-2.11,.27-.81,.57-1.59,.89-2.35,.49-1.13,.85-2.13,1.09-3,.24-.86,.36-1.73,.36-2.59,0-1.84-.3-3.33-.89-4.5-.59-1.16-1.21-1.74-1.86-1.74-.32,0-.61,.11-.85,.32-.24,.22-.36,.49-.36,.81,0,.65,.46,1.32,1.38,2.02,.54,.49,.94,.91,1.22,1.26,.27,.35,.4,.77,.4,1.26,0,.59-.27,1.09-.81,1.5-.54,.41-1.43,.91-2.67,1.5-1.67,.81-2.97,1.59-3.89,2.35-.92,.76-1.38,1.78-1.38,3.08,0,1.62,.76,2.94,2.27,3.97Zm30.46-29.08c.97,0,1.86,.14,2.67,.4-1.35,9.23-2.03,17.25-2.03,24.06-2.16-.81-3.74-2.16-4.74-4.05-1-1.89-1.5-4.99-1.5-9.31,0-7.4,1.86-11.1,5.59-11.1Zm-.45,25.27c1.65,.54,3.44,.84,5.39,.89-.05,1.24-.47,2.27-1.26,3.08-.78,.81-1.93,1.21-3.44,1.21-1.67,0-3.01-.53-4.01-1.58-1-1.05-1.5-2.55-1.5-4.5,0-.92,.05-1.62,.16-2.11,1.46,1.46,3.01,2.46,4.66,3Zm9.19-5.87c1.84-1.38,4.91-2.25,9.23-2.63v-1.05c0-1.35-.81-2.02-2.43-2.02-.92,0-1.89,.16-2.92,.49-1.03,.32-2.3,.84-3.81,1.54l-2.35-4.94c3.56-1.78,6.72-2.67,9.48-2.67,3.08,0,5.33,.69,6.76,2.07,1.43,1.38,2.15,3.31,2.15,5.79v8.02c0,.92,.51,1.38,1.54,1.38v4.62c-2.38,0-4.1-.17-5.18-.53-1.08-.35-1.94-1.09-2.59-2.23-.92,1.08-1.86,1.88-2.83,2.39-.97,.51-2.16,.77-3.56,.77-1.84,0-3.33-.51-4.5-1.54-1.16-1.03-1.74-2.38-1.74-4.05,0-2.21,.92-4.01,2.75-5.39Zm4.58,5.59c.4,.35,.9,.53,1.5,.53,1.19,0,2.24-.46,3.16-1.38v-3.65c-1.62,.11-2.9,.43-3.85,.97-.95,.54-1.42,1.27-1.42,2.19,0,.54,.2,.99,.61,1.34Zm18.14-13.85c2.08-2.02,4.71-3.04,7.9-3.04,1.24,0,2.52,.22,3.85,.65,1.32,.43,2.52,1.13,3.6,2.11l-3.24,4.46c-1.13-.97-2.46-1.46-3.97-1.46-1.13,0-2.13,.46-3,1.38-.86,.92-1.3,2.24-1.3,3.97,0,1.78,.43,3.16,1.3,4.13,.86,.97,1.86,1.46,3,1.46,1.35,0,2.59-.51,3.73-1.54l3.64,4.05c-2.32,2.05-4.86,3.08-7.61,3.08-3.19,0-5.82-1.01-7.9-3.04-2.08-2.02-3.12-4.74-3.12-8.14,0-3.35,1.04-6.03,3.12-8.06Zm18.1-10.65h6.97v16.77s7.13-8.59,7.13-8.59h6.97s-6.56,7.61-6.56,7.61l6.8,13.61h-7.94s-3.48-8.18-3.48-8.18l-2.92,3.4v4.78h-6.97v-29.4Z" style="fill: #b5e0d6;"/>
        </g>
        <g id="line-2" data-name="line">
          <path id="logo0-0-2" data-name="logo0-0" d="M154.54,556.62l-12.07-14.01h23.57v10.45s-11.18-10.13-11.18-10.13v10.53s8.26,0,8.26,0v8.1s-8.26-7.78-8.26-7.78v18.39s-12.39-15.55-12.39-15.55h12.07Zm13.77-8.1h6.4s.49,3.08,.49,3.08c.81-1.4,1.7-2.38,2.67-2.92,.97-.54,2.05-.81,3.24-.81,.22,0,.97,.08,2.27,.24l-.73,6.48c-1.19-.27-2.19-.41-3-.41-1.89,0-3.35,1.08-4.37,3.24v12.39h-6.97v-21.3Zm18.18-7.86c.73-.59,1.69-.89,2.88-.89,1.24,0,2.23,.28,2.96,.85s1.09,1.42,1.09,2.55c0,1.13-.36,2.01-1.09,2.63-.73,.62-1.71,.93-2.96,.93-1.19,0-2.15-.31-2.88-.93-.73-.62-1.09-1.5-1.09-2.63,0-1.08,.36-1.92,1.09-2.51Zm-.53,7.86h6.97v21.3h-6.97v-21.3Zm12.23,2.35c1.4-1.84,3.35-2.75,5.83-2.75,1.08,0,2.12,.24,3.12,.73,1,.49,1.82,1.16,2.47,2.03v-10.37h6.97v29.32h-6.07s-.41-2.43-.41-2.43c-1.73,1.89-3.83,2.83-6.32,2.83-2.32,0-4.19-.96-5.59-2.88-1.41-1.92-2.11-4.71-2.11-8.38,0-3.56,.7-6.26,2.11-8.1Zm5.71,12.55c.51,1.08,1.31,1.62,2.39,1.62,1.35,0,2.46-.49,3.32-1.46v-8.75c-.86-.97-1.97-1.46-3.32-1.46-2.11,0-3.16,1.86-3.16,5.59,0,1.89,.26,3.38,.77,4.46Zm18.64-4.13c1.84-1.35,4.91-2.19,9.23-2.51v-1.22c0-1.35-.84-2.02-2.51-2.02-.92,0-1.88,.16-2.88,.49-1,.32-2.26,.86-3.77,1.62l-2.35-4.94c3.24-1.78,6.37-2.67,9.4-2.67,3.08,0,5.36,.7,6.84,2.11,1.48,1.4,2.23,3.29,2.23,5.67v8.18c0,.86,.46,1.3,1.38,1.3v4.7c-2.27,0-3.94-.17-5.02-.53-1.08-.35-1.97-1.09-2.67-2.23-.81,1.03-1.73,1.8-2.75,2.31-1.03,.51-2.24,.77-3.64,.77-1.84,0-3.33-.51-4.5-1.54-1.16-1.03-1.74-2.38-1.74-4.05,0-2.27,.92-4.08,2.75-5.43Zm4.54,5.75c.38,.32,.89,.49,1.54,.49,1.24,0,2.29-.49,3.16-1.46v-3.73c-1.62,.11-2.9,.45-3.85,1.01-.95,.57-1.42,1.36-1.42,2.39,0,.54,.19,.97,.57,1.3Zm20.82-16.52l3.81,12.47h.08s3.89-12.47,3.89-12.47h6.8s-7.13,20.82-7.13,20.82c-1.19,3.35-2.48,5.62-3.89,6.8-1.41,1.19-3.21,1.78-5.43,1.78-1.78,0-3.54-.24-5.27-.73l1.7-5.27c.97,.32,1.97,.49,3,.49,.7,0,1.24-.15,1.62-.45,.38-.3,.67-.82,.89-1.58l.32-.89-7.61-20.98h7.21Zm-102.67-14.9c1.51,1.03,3.86,1.54,7.05,1.54,5.13,0,8.99-1.04,11.58-3.12,2.59-2.08,3.89-4.82,3.89-8.22,0-1.73-.46-3.05-1.38-3.97-.92-.92-2.24-1.38-3.97-1.38-.59,0-1.23,.08-1.9,.24-.68,.16-1.12,.27-1.34,.32-1.08,.32-1.81,.49-2.19,.49-.32,0-.49-.13-.49-.4,0-.22,.19-.47,.57-.77,.38-.3,.81-.58,1.3-.85,1.51-.97,2.69-1.86,3.52-2.67,.84-.81,1.26-1.89,1.26-3.24,0-1.62-.55-2.9-1.66-3.85-1.11-.94-2.74-1.42-4.9-1.42-2.27,0-4.37,.45-6.32,1.34-1.94,.89-3.5,1.94-4.66,3.16-1.16,1.21-1.74,2.23-1.74,3.04,0,.76,.32,1.13,.97,1.13,.49,0,1.92-.32,4.29-.97,2.59-.86,4.43-1.3,5.51-1.3,1.03,0,1.54,.46,1.54,1.38,0,.97-.35,2.11-1.05,3.4-.49,.76-.73,1.35-.73,1.78,0,.86,.43,1.3,1.3,1.3,.43,0,.81-.04,1.13-.12,.32-.08,.65-.12,.97-.12,.7,0,1.05,.54,1.05,1.62,0,3.19-.59,6.03-1.78,8.55-1.19,2.51-2.73,3.77-4.62,3.77-1.67,0-2.51-.81-2.51-2.43,0-.59,.13-1.3,.4-2.11,.27-.81,.57-1.59,.89-2.35,.49-1.13,.85-2.13,1.09-3,.24-.86,.36-1.73,.36-2.59,0-1.84-.3-3.33-.89-4.5-.59-1.16-1.21-1.74-1.86-1.74-.32,0-.61,.11-.85,.32-.24,.22-.36,.49-.36,.81,0,.65,.46,1.32,1.38,2.02,.54,.49,.94,.91,1.22,1.26,.27,.35,.4,.77,.4,1.26,0,.59-.27,1.09-.81,1.5-.54,.41-1.43,.91-2.67,1.5-1.67,.81-2.97,1.59-3.89,2.35-.92,.76-1.38,1.78-1.38,3.08,0,1.62,.76,2.94,2.27,3.97Zm30.46-29.08c.97,0,1.86,.14,2.67,.4-1.35,9.23-2.03,17.25-2.03,24.06-2.16-.81-3.74-2.16-4.74-4.05-1-1.89-1.5-4.99-1.5-9.31,0-7.4,1.86-11.1,5.59-11.1Zm-.45,25.27c1.65,.54,3.44,.84,5.39,.89-.05,1.24-.47,2.27-1.26,3.08-.78,.81-1.93,1.21-3.44,1.21-1.67,0-3.01-.53-4.01-1.58-1-1.05-1.5-2.55-1.5-4.5,0-.92,.05-1.62,.16-2.11,1.46,1.46,3.01,2.46,4.66,3Zm9.19-5.87c1.84-1.38,4.91-2.25,9.23-2.63v-1.05c0-1.35-.81-2.02-2.43-2.02-.92,0-1.89,.16-2.92,.49-1.03,.32-2.3,.84-3.81,1.54l-2.35-4.94c3.56-1.78,6.72-2.67,9.48-2.67,3.08,0,5.33,.69,6.76,2.07,1.43,1.38,2.15,3.31,2.15,5.79v8.02c0,.92,.51,1.38,1.54,1.38v4.62c-2.38,0-4.1-.17-5.18-.53-1.08-.35-1.94-1.09-2.59-2.23-.92,1.08-1.86,1.88-2.83,2.39-.97,.51-2.16,.77-3.56,.77-1.84,0-3.33-.51-4.5-1.54-1.16-1.03-1.74-2.38-1.74-4.05,0-2.21,.92-4.01,2.75-5.39Zm4.58,5.59c.4,.35,.9,.53,1.5,.53,1.19,0,2.24-.46,3.16-1.38v-3.65c-1.62,.11-2.9,.43-3.85,.97-.95,.54-1.42,1.27-1.42,2.19,0,.54,.2,.99,.61,1.34Zm18.14-13.85c2.08-2.02,4.71-3.04,7.9-3.04,1.24,0,2.52,.22,3.85,.65,1.32,.43,2.52,1.13,3.6,2.11l-3.24,4.46c-1.13-.97-2.46-1.46-3.97-1.46-1.13,0-2.13,.46-3,1.38-.86,.92-1.3,2.24-1.3,3.97,0,1.78,.43,3.16,1.3,4.13,.86,.97,1.86,1.46,3,1.46,1.35,0,2.59-.51,3.73-1.54l3.64,4.05c-2.32,2.05-4.86,3.08-7.61,3.08-3.19,0-5.82-1.01-7.9-3.04-2.08-2.02-3.12-4.74-3.12-8.14s1.04-6.03,3.12-8.06Zm18.1-10.65h6.97v16.77s7.13-8.59,7.13-8.59h6.97s-6.56,7.61-6.56,7.61l6.8,13.61h-7.94s-3.48-8.18-3.48-8.18l-2.92,3.4v4.78h-6.97v-29.4Z" style="fill: #98c9f1;"/>
          <path id="logo0-2-2" data-name="logo0-2" d="M804.86,556.62l-12.07-14.01h23.57v10.45s-11.18-10.13-11.18-10.13v10.53s8.26,0,8.26,0v8.1s-8.26-7.78-8.26-7.78v18.39s-12.39-15.55-12.39-15.55h12.07Zm13.77-8.1h6.4s.49,3.08,.49,3.08c.81-1.4,1.7-2.38,2.67-2.92,.97-.54,2.05-.81,3.24-.81,.22,0,.97,.08,2.27,.24l-.73,6.48c-1.19-.27-2.19-.41-3-.41-1.89,0-3.35,1.08-4.37,3.24v12.39h-6.97v-21.3Zm18.18-7.86c.73-.59,1.69-.89,2.88-.89s2.23,.28,2.96,.85c.73,.57,1.09,1.42,1.09,2.55s-.36,2.01-1.09,2.63c-.73,.62-1.71,.93-2.96,.93-1.19,0-2.15-.31-2.88-.93-.73-.62-1.09-1.5-1.09-2.63,0-1.08,.36-1.92,1.09-2.51Zm-.53,7.86h6.97v21.3h-6.97v-21.3Zm12.23,2.35c1.4-1.84,3.35-2.75,5.83-2.75,1.08,0,2.12,.24,3.12,.73,1,.49,1.82,1.16,2.47,2.03v-10.37h6.97v29.32h-6.07s-.41-2.43-.41-2.43c-1.73,1.89-3.83,2.83-6.32,2.83-2.32,0-4.19-.96-5.59-2.88-1.41-1.92-2.11-4.71-2.11-8.38,0-3.56,.7-6.26,2.11-8.1Zm5.71,12.55c.51,1.08,1.31,1.62,2.39,1.62,1.35,0,2.46-.49,3.32-1.46v-8.75c-.86-.97-1.97-1.46-3.32-1.46-2.11,0-3.16,1.86-3.16,5.59,0,1.89,.26,3.38,.77,4.46Zm18.64-4.13c1.84-1.35,4.91-2.19,9.23-2.51v-1.22c0-1.35-.84-2.02-2.51-2.02-.92,0-1.88,.16-2.88,.49-1,.32-2.26,.86-3.77,1.62l-2.35-4.94c3.24-1.78,6.37-2.67,9.4-2.67,3.08,0,5.36,.7,6.84,2.11,1.48,1.4,2.23,3.29,2.23,5.67v8.18c0,.86,.46,1.3,1.38,1.3v4.7c-2.27,0-3.94-.17-5.02-.53-1.08-.35-1.97-1.09-2.67-2.23-.81,1.03-1.73,1.8-2.75,2.31-1.03,.51-2.24,.77-3.64,.77-1.84,0-3.33-.51-4.5-1.54-1.16-1.03-1.74-2.38-1.74-4.05,0-2.27,.92-4.08,2.75-5.43Zm4.54,5.75c.38,.32,.89,.49,1.54,.49,1.24,0,2.29-.49,3.16-1.46v-3.73c-1.62,.11-2.9,.45-3.85,1.01-.95,.57-1.42,1.36-1.42,2.39,0,.54,.19,.97,.57,1.3Zm20.82-16.52l3.81,12.47h.08l3.89-12.47h6.8s-7.13,20.82-7.13,20.82c-1.19,3.35-2.48,5.62-3.89,6.8-1.41,1.19-3.21,1.78-5.43,1.78-1.78,0-3.54-.24-5.27-.73l1.7-5.27c.97,.32,1.97,.49,3,.49,.7,0,1.24-.15,1.62-.45,.38-.3,.67-.82,.89-1.58l.32-.89-7.61-20.98h7.21Zm-102.67-14.9c1.51,1.03,3.86,1.54,7.05,1.54,5.13,0,8.99-1.04,11.58-3.12,2.59-2.08,3.89-4.82,3.89-8.22,0-1.73-.46-3.05-1.38-3.97-.92-.92-2.24-1.38-3.97-1.38-.59,0-1.23,.08-1.9,.24-.68,.16-1.12,.27-1.34,.32-1.08,.32-1.81,.49-2.19,.49-.32,0-.49-.13-.49-.4,0-.22,.19-.47,.57-.77,.38-.3,.81-.58,1.3-.85,1.51-.97,2.69-1.86,3.52-2.67,.84-.81,1.26-1.89,1.26-3.24,0-1.62-.55-2.9-1.66-3.85-1.11-.94-2.74-1.42-4.9-1.42-2.27,0-4.37,.45-6.32,1.34-1.94,.89-3.5,1.94-4.66,3.16-1.16,1.21-1.74,2.23-1.74,3.04,0,.76,.32,1.13,.97,1.13,.49,0,1.92-.32,4.29-.97,2.59-.86,4.43-1.3,5.51-1.3,1.03,0,1.54,.46,1.54,1.38s-.35,2.11-1.05,3.4c-.49,.76-.73,1.35-.73,1.78,0,.86,.43,1.3,1.3,1.3,.43,0,.81-.04,1.13-.12,.32-.08,.65-.12,.97-.12,.7,0,1.05,.54,1.05,1.62,0,3.19-.59,6.03-1.78,8.55-1.19,2.51-2.73,3.77-4.62,3.77-1.67,0-2.51-.81-2.51-2.43,0-.59,.13-1.3,.4-2.11,.27-.81,.57-1.59,.89-2.35,.49-1.13,.85-2.13,1.09-3,.24-.86,.36-1.73,.36-2.59,0-1.84-.3-3.33-.89-4.5-.59-1.16-1.21-1.74-1.86-1.74-.32,0-.61,.11-.85,.32-.24,.22-.36,.49-.36,.81,0,.65,.46,1.32,1.38,2.02,.54,.49,.94,.91,1.22,1.26,.27,.35,.4,.77,.4,1.26,0,.59-.27,1.09-.81,1.5-.54,.41-1.43,.91-2.67,1.5-1.67,.81-2.97,1.59-3.89,2.35-.92,.76-1.38,1.78-1.38,3.08,0,1.62,.76,2.94,2.27,3.97Zm30.46-29.08c.97,0,1.86,.14,2.67,.4-1.35,9.23-2.03,17.25-2.03,24.06-2.16-.81-3.74-2.16-4.74-4.05-1-1.89-1.5-4.99-1.5-9.31,0-7.4,1.86-11.1,5.59-11.1Zm-.45,25.27c1.65,.54,3.44,.84,5.39,.89-.05,1.24-.47,2.27-1.26,3.08-.78,.81-1.93,1.21-3.44,1.21-1.67,0-3.01-.53-4.01-1.58-1-1.05-1.5-2.55-1.5-4.5,0-.92,.05-1.62,.16-2.11,1.46,1.46,3.01,2.46,4.66,3Zm9.19-5.87c1.84-1.38,4.91-2.25,9.23-2.63v-1.05c0-1.35-.81-2.02-2.43-2.02-.92,0-1.89,.16-2.92,.49-1.03,.32-2.3,.84-3.81,1.54l-2.35-4.94c3.56-1.78,6.72-2.67,9.48-2.67,3.08,0,5.33,.69,6.76,2.07,1.43,1.38,2.15,3.31,2.15,5.79v8.02c0,.92,.51,1.38,1.54,1.38v4.62c-2.38,0-4.1-.17-5.18-.53-1.08-.35-1.94-1.09-2.59-2.23-.92,1.08-1.86,1.88-2.83,2.39-.97,.51-2.16,.77-3.56,.77-1.84,0-3.33-.51-4.5-1.54-1.16-1.03-1.74-2.38-1.74-4.05,0-2.21,.92-4.01,2.75-5.39Zm4.58,5.59c.4,.35,.9,.53,1.5,.53,1.19,0,2.24-.46,3.16-1.38v-3.65c-1.62,.11-2.9,.43-3.85,.97-.95,.54-1.42,1.27-1.42,2.19,0,.54,.2,.99,.61,1.34Zm18.14-13.85c2.08-2.02,4.71-3.04,7.9-3.04,1.24,0,2.52,.22,3.85,.65,1.32,.43,2.52,1.13,3.6,2.11l-3.24,4.46c-1.13-.97-2.46-1.46-3.97-1.46-1.13,0-2.13,.46-3,1.38-.86,.92-1.3,2.24-1.3,3.97,0,1.78,.43,3.16,1.3,4.13,.86,.97,1.86,1.46,3,1.46,1.35,0,2.59-.51,3.73-1.54l3.64,4.05c-2.32,2.05-4.86,3.08-7.61,3.08-3.19,0-5.82-1.01-7.9-3.04-2.08-2.02-3.12-4.74-3.12-8.14,0-3.35,1.04-6.03,3.12-8.06Zm18.1-10.65h6.97v16.77s7.13-8.59,7.13-8.59h6.97s-6.56,7.61-6.56,7.61l6.8,13.61h-7.94s-3.48-8.18-3.48-8.18l-2.92,3.4v4.78h-6.97v-29.4Z" style="fill: #b5e0d6;"/>
        </g>
        <g id="line-3" data-name="line">
          <polygon id="l3-0" points="213.6 1125.68 201.54 1111.67 225.11 1111.67 225.11 1122.12 213.93 1111.99 213.93 1122.52 222.19 1122.52 222.19 1130.62 213.93 1122.85 213.93 1141.23 201.54 1125.68 213.6 1125.68" style="fill: #fff9b0;"/>
          <path id="l3-1" d="M751.53,1130.94c1.13,.77,2.9,1.15,5.29,1.15,3.85,0,6.74-.78,8.69-2.34,1.94-1.56,2.92-3.61,2.92-6.17,0-1.3-.34-2.29-1.03-2.98-.69-.69-1.68-1.03-2.98-1.03-.45,0-.92,.06-1.43,.18-.51,.12-.84,.2-1,.24-.81,.24-1.36,.36-1.64,.36-.24,0-.36-.1-.36-.3,0-.16,.14-.35,.43-.58,.28-.22,.61-.43,.97-.64,1.13-.73,2.01-1.4,2.64-2,.63-.61,.94-1.42,.94-2.43,0-1.22-.42-2.18-1.25-2.89-.83-.71-2.06-1.06-3.68-1.06-1.7,0-3.28,.33-4.74,1-1.46,.67-2.62,1.46-3.49,2.37-.87,.91-1.31,1.67-1.31,2.28,0,.57,.24,.85,.73,.85,.36,0,1.44-.24,3.22-.73,1.94-.65,3.32-.97,4.13-.97,.77,0,1.15,.34,1.15,1.03s-.26,1.58-.79,2.55c-.36,.57-.55,1.01-.55,1.34,0,.65,.32,.97,.97,.97,.32,0,.61-.03,.85-.09,.24-.06,.49-.09,.73-.09,.53,0,.79,.41,.79,1.22,0,2.39-.45,4.53-1.34,6.41-.89,1.88-2.05,2.82-3.46,2.82-1.26,0-1.88-.61-1.88-1.82,0-.45,.1-.97,.3-1.58,.2-.61,.43-1.19,.67-1.76,.36-.85,.64-1.6,.82-2.25,.18-.65,.27-1.3,.27-1.94,0-1.38-.22-2.5-.67-3.37-.45-.87-.91-1.31-1.4-1.31-.24,0-.46,.08-.64,.24-.18,.16-.27,.36-.27,.61,0,.49,.34,.99,1.03,1.52,.4,.36,.71,.68,.91,.94,.2,.26,.3,.58,.3,.94,0,.45-.2,.82-.61,1.12-.41,.3-1.07,.68-2,1.12-1.26,.61-2.23,1.2-2.92,1.76-.69,.57-1.03,1.34-1.03,2.31,0,1.22,.57,2.21,1.7,2.98Z" style="fill: #daf0f9;"/>
          <path id="l3-2" d="M988.06,1134.16c1.51,1.03,3.86,1.54,7.05,1.54,5.13,0,8.99-1.04,11.58-3.12,2.59-2.08,3.89-4.82,3.89-8.22,0-1.73-.46-3.05-1.38-3.97-.92-.92-2.24-1.38-3.97-1.38-.59,0-1.23,.08-1.9,.24-.68,.16-1.12,.27-1.34,.32-1.08,.32-1.81,.49-2.19,.49-.32,0-.49-.13-.49-.4,0-.22,.19-.47,.57-.77,.38-.3,.81-.58,1.3-.85,1.51-.97,2.69-1.86,3.52-2.67,.84-.81,1.26-1.89,1.26-3.24,0-1.62-.55-2.9-1.66-3.85-1.11-.94-2.74-1.42-4.9-1.42-2.27,0-4.37,.45-6.32,1.34s-3.5,1.94-4.66,3.16c-1.16,1.21-1.74,2.23-1.74,3.04,0,.76,.32,1.13,.97,1.13,.49,0,1.92-.32,4.29-.97,2.59-.86,4.43-1.3,5.51-1.3,1.03,0,1.54,.46,1.54,1.38,0,.97-.35,2.11-1.05,3.4-.49,.76-.73,1.35-.73,1.78,0,.86,.43,1.3,1.3,1.3,.43,0,.81-.04,1.13-.12,.32-.08,.65-.12,.97-.12,.7,0,1.05,.54,1.05,1.62,0,3.19-.59,6.03-1.78,8.55-1.19,2.51-2.73,3.77-4.62,3.77-1.67,0-2.51-.81-2.51-2.43,0-.59,.13-1.3,.4-2.11,.27-.81,.57-1.59,.89-2.35,.49-1.13,.85-2.13,1.09-3,.24-.86,.36-1.73,.36-2.59,0-1.84-.3-3.33-.89-4.5-.59-1.16-1.21-1.74-1.86-1.74-.32,0-.61,.11-.85,.32-.24,.22-.36,.49-.36,.81,0,.65,.46,1.32,1.38,2.02,.54,.49,.94,.91,1.22,1.26,.27,.35,.4,.77,.4,1.26,0,.59-.27,1.09-.81,1.5-.54,.41-1.43,.91-2.67,1.5-1.67,.81-2.97,1.59-3.89,2.35-.92,.76-1.38,1.78-1.38,3.08,0,1.62,.76,2.94,2.27,3.97Z" style="fill: #ffafb0;"/>
        </g>
        <g id="line-4" data-name="line">
          <polygon id="l3-0-2" data-name="l3-0" points="246.66 1428.49 234.59 1414.48 258.16 1414.48 258.16 1424.93 246.98 1414.81 246.98 1425.34 255.24 1425.34 255.24 1433.44 246.98 1425.66 246.98 1444.05 234.59 1428.49 246.66 1428.49" style="fill: #fff9b0;"/>
          <path id="l3-1-2" data-name="l3-1" d="M658.01,1433.75c1.13,.77,2.9,1.15,5.29,1.15,3.85,0,6.74-.78,8.69-2.34,1.94-1.56,2.92-3.61,2.92-6.17,0-1.3-.34-2.29-1.03-2.98-.69-.69-1.68-1.03-2.98-1.03-.45,0-.92,.06-1.43,.18-.51,.12-.84,.2-1,.24-.81,.24-1.36,.36-1.64,.36-.24,0-.36-.1-.36-.3,0-.16,.14-.35,.43-.58,.28-.22,.61-.43,.97-.64,1.13-.73,2.01-1.4,2.64-2,.63-.61,.94-1.42,.94-2.43,0-1.22-.42-2.18-1.25-2.89-.83-.71-2.06-1.06-3.68-1.06-1.7,0-3.28,.33-4.74,1-1.46,.67-2.62,1.46-3.49,2.37-.87,.91-1.31,1.67-1.31,2.28,0,.57,.24,.85,.73,.85,.36,0,1.44-.24,3.22-.73,1.94-.65,3.32-.97,4.13-.97,.77,0,1.15,.34,1.15,1.03s-.26,1.58-.79,2.55c-.36,.57-.55,1.01-.55,1.34,0,.65,.32,.97,.97,.97,.32,0,.61-.03,.85-.09,.24-.06,.49-.09,.73-.09,.53,0,.79,.41,.79,1.22,0,2.39-.45,4.53-1.34,6.41-.89,1.88-2.05,2.82-3.46,2.82-1.26,0-1.88-.61-1.88-1.82,0-.45,.1-.97,.3-1.58,.2-.61,.43-1.19,.67-1.76,.36-.85,.64-1.6,.82-2.25,.18-.65,.27-1.3,.27-1.94,0-1.38-.22-2.5-.67-3.37-.45-.87-.91-1.31-1.4-1.31-.24,0-.46,.08-.64,.24-.18,.16-.27,.36-.27,.61,0,.49,.34,.99,1.03,1.52,.4,.36,.71,.68,.91,.94,.2,.26,.3,.58,.3,.94,0,.45-.2,.82-.61,1.12-.41,.3-1.07,.68-2,1.12-1.26,.61-2.23,1.2-2.92,1.76-.69,.57-1.03,1.34-1.03,2.31,0,1.22,.57,2.21,1.7,2.98Z" style="fill: #daf0f9;"/>
          <path id="l3-2-2" data-name="l3-2" d="M1021.12,1436.97c1.51,1.03,3.86,1.54,7.05,1.54,5.13,0,8.99-1.04,11.58-3.12,2.59-2.08,3.89-4.82,3.89-8.22,0-1.73-.46-3.05-1.38-3.97-.92-.92-2.24-1.38-3.97-1.38-.59,0-1.23,.08-1.9,.24-.68,.16-1.12,.27-1.34,.32-1.08,.32-1.81,.49-2.19,.49-.32,0-.49-.13-.49-.4,0-.22,.19-.47,.57-.77,.38-.3,.81-.58,1.3-.85,1.51-.97,2.69-1.86,3.52-2.67,.84-.81,1.26-1.89,1.26-3.24,0-1.62-.55-2.9-1.66-3.85-1.11-.94-2.74-1.42-4.9-1.42-2.27,0-4.37,.45-6.32,1.34s-3.5,1.94-4.66,3.16c-1.16,1.21-1.74,2.23-1.74,3.04,0,.76,.32,1.13,.97,1.13,.49,0,1.92-.32,4.29-.97,2.59-.86,4.43-1.3,5.51-1.3,1.03,0,1.54,.46,1.54,1.38,0,.97-.35,2.11-1.05,3.4-.49,.76-.73,1.35-.73,1.78,0,.86,.43,1.3,1.3,1.3,.43,0,.81-.04,1.13-.12,.32-.08,.65-.12,.97-.12,.7,0,1.05,.54,1.05,1.62,0,3.19-.59,6.03-1.78,8.55-1.19,2.51-2.73,3.77-4.62,3.77-1.67,0-2.51-.81-2.51-2.43,0-.59,.13-1.3,.4-2.11,.27-.81,.57-1.59,.89-2.35,.49-1.13,.85-2.13,1.09-3,.24-.86,.36-1.73,.36-2.59,0-1.84-.3-3.33-.89-4.5-.59-1.16-1.21-1.74-1.86-1.74-.32,0-.61,.11-.85,.32-.24,.22-.36,.49-.36,.81,0,.65,.46,1.32,1.38,2.02,.54,.49,.94,.91,1.22,1.26,.27,.35,.4,.77,.4,1.26,0,.59-.27,1.09-.81,1.5-.54,.41-1.43,.91-2.67,1.5-1.67,.81-2.97,1.59-3.89,2.35-.92,.76-1.38,1.78-1.38,3.08,0,1.62,.76,2.94,2.27,3.97Z" style="fill: #ffafb0;"/>
        </g>
        <g id="line-5" data-name="line" style="opacity: .35;">
          <polygon id="l3-0-3" data-name="l3-0" points="154.54 1736.56 142.47 1722.55 166.04 1722.55 166.04 1733 154.86 1722.88 154.86 1733.41 163.13 1733.41 163.13 1741.51 154.86 1733.73 154.86 1752.12 142.47 1736.56 154.54 1736.56" style="fill: #fff9b0;"/>
          <path id="l3-1-3" data-name="l3-1" d="M565.89,1741.83c1.13,.77,2.9,1.15,5.29,1.15,3.85,0,6.74-.78,8.69-2.34,1.94-1.56,2.92-3.61,2.92-6.17,0-1.3-.34-2.29-1.03-2.98-.69-.69-1.68-1.03-2.98-1.03-.45,0-.92,.06-1.43,.18-.51,.12-.84,.2-1,.24-.81,.24-1.36,.36-1.64,.36-.24,0-.36-.1-.36-.3,0-.16,.14-.35,.43-.58,.28-.22,.61-.43,.97-.64,1.13-.73,2.01-1.4,2.64-2,.63-.61,.94-1.42,.94-2.43,0-1.22-.42-2.18-1.25-2.89-.83-.71-2.06-1.06-3.68-1.06-1.7,0-3.28,.33-4.74,1-1.46,.67-2.62,1.46-3.49,2.37-.87,.91-1.31,1.67-1.31,2.28,0,.57,.24,.85,.73,.85,.36,0,1.44-.24,3.22-.73,1.94-.65,3.32-.97,4.13-.97,.77,0,1.15,.34,1.15,1.03s-.26,1.58-.79,2.55c-.36,.57-.55,1.01-.55,1.34,0,.65,.32,.97,.97,.97,.32,0,.61-.03,.85-.09,.24-.06,.49-.09,.73-.09,.53,0,.79,.41,.79,1.22,0,2.39-.45,4.53-1.34,6.41-.89,1.88-2.05,2.82-3.46,2.82-1.26,0-1.88-.61-1.88-1.82,0-.45,.1-.97,.3-1.58,.2-.61,.43-1.19,.67-1.76,.36-.85,.64-1.6,.82-2.25,.18-.65,.27-1.3,.27-1.94,0-1.38-.22-2.5-.67-3.37-.45-.87-.91-1.31-1.4-1.31-.24,0-.46,.08-.64,.24-.18,.16-.27,.36-.27,.61,0,.49,.34,.99,1.03,1.52,.4,.36,.71,.68,.91,.94,.2,.26,.3,.58,.3,.94,0,.45-.2,.82-.61,1.12-.41,.3-1.07,.68-2,1.12-1.26,.61-2.23,1.2-2.92,1.76-.69,.57-1.03,1.34-1.03,2.31,0,1.22,.57,2.21,1.7,2.98Z" style="fill: #daf0f9;"/>
          <path id="l3-2-3" data-name="l3-2" d="M929,1745.05c1.51,1.03,3.86,1.54,7.05,1.54,5.13,0,8.99-1.04,11.58-3.12,2.59-2.08,3.89-4.82,3.89-8.22,0-1.73-.46-3.05-1.38-3.97-.92-.92-2.24-1.38-3.97-1.38-.59,0-1.23,.08-1.9,.24-.68,.16-1.12,.27-1.34,.32-1.08,.32-1.81,.49-2.19,.49-.32,0-.49-.13-.49-.4,0-.22,.19-.47,.57-.77,.38-.3,.81-.58,1.3-.85,1.51-.97,2.69-1.86,3.52-2.67,.84-.81,1.26-1.89,1.26-3.24,0-1.62-.55-2.9-1.66-3.85-1.11-.94-2.74-1.42-4.9-1.42-2.27,0-4.37,.45-6.32,1.34s-3.5,1.94-4.66,3.16c-1.16,1.21-1.74,2.23-1.74,3.04,0,.76,.32,1.13,.97,1.13,.49,0,1.92-.32,4.29-.97,2.59-.86,4.43-1.3,5.51-1.3,1.03,0,1.54,.46,1.54,1.38,0,.97-.35,2.11-1.05,3.4-.49,.76-.73,1.35-.73,1.78,0,.86,.43,1.3,1.3,1.3,.43,0,.81-.04,1.13-.12,.32-.08,.65-.12,.97-.12,.7,0,1.05,.54,1.05,1.62,0,3.19-.59,6.03-1.78,8.55-1.19,2.51-2.73,3.77-4.62,3.77-1.67,0-2.51-.81-2.51-2.43,0-.59,.13-1.3,.4-2.11,.27-.81,.57-1.59,.89-2.35,.49-1.13,.85-2.13,1.09-3,.24-.86,.36-1.73,.36-2.59,0-1.84-.3-3.33-.89-4.5-.59-1.16-1.21-1.74-1.86-1.74-.32,0-.61,.11-.85,.32-.24,.22-.36,.49-.36,.81,0,.65,.46,1.32,1.38,2.02,.54,.49,.94,.91,1.22,1.26,.27,.35,.4,.77,.4,1.26,0,.59-.27,1.09-.81,1.5-.54,.41-1.43,.91-2.67,1.5-1.67,.81-2.97,1.59-3.89,2.35-.92,.76-1.38,1.78-1.38,3.08,0,1.62,.76,2.94,2.27,3.97Z" style="fill: #ffafb0;"/>
        </g>
      </g>
      <g id="right">
        <g id="line-6" data-name="line" style="opacity: .5;">
          <path id="l2-0" d="M147.76,394.37c1.13,.77,2.9,1.15,5.29,1.15,3.85,0,6.74-.78,8.69-2.34,1.94-1.56,2.92-3.61,2.92-6.17,0-1.3-.34-2.29-1.03-2.98-.69-.69-1.68-1.03-2.98-1.03-.45,0-.92,.06-1.43,.18-.51,.12-.84,.2-1,.24-.81,.24-1.36,.36-1.64,.36-.24,0-.36-.1-.36-.3,0-.16,.14-.35,.43-.58,.28-.22,.61-.43,.97-.64,1.13-.73,2.01-1.4,2.64-2,.63-.61,.94-1.42,.94-2.43,0-1.22-.42-2.18-1.25-2.89-.83-.71-2.06-1.06-3.68-1.06-1.7,0-3.28,.33-4.74,1s-2.62,1.46-3.49,2.37c-.87,.91-1.31,1.67-1.31,2.28s.24,.85,.73,.85c.36,0,1.44-.24,3.22-.73,1.94-.65,3.32-.97,4.13-.97,.77,0,1.15,.34,1.15,1.03,0,.73-.26,1.58-.79,2.55-.36,.57-.55,1.01-.55,1.34,0,.65,.32,.97,.97,.97,.32,0,.61-.03,.85-.09,.24-.06,.49-.09,.73-.09,.53,0,.79,.41,.79,1.22,0,2.39-.45,4.53-1.34,6.41-.89,1.88-2.05,2.82-3.46,2.82-1.26,0-1.88-.61-1.88-1.82,0-.45,.1-.97,.3-1.58,.2-.61,.43-1.19,.67-1.76,.36-.85,.64-1.6,.82-2.25,.18-.65,.27-1.3,.27-1.94,0-1.38-.22-2.5-.67-3.37-.45-.87-.91-1.31-1.4-1.31-.24,0-.46,.08-.64,.24-.18,.16-.27,.36-.27,.61,0,.49,.34,.99,1.03,1.52,.4,.36,.71,.68,.91,.94,.2,.26,.3,.58,.3,.94,0,.45-.2,.82-.61,1.12-.41,.3-1.07,.68-2,1.12-1.26,.61-2.23,1.2-2.92,1.76-.69,.57-1.03,1.34-1.03,2.31,0,1.22,.57,2.21,1.7,2.98Z" style="fill: #ffd6f5;"/>
          <polygon id="l2-1" points="647.29 383.94 635.22 369.93 658.79 369.93 658.79 380.38 647.61 370.25 647.61 380.78 655.87 380.78 655.87 388.88 647.61 381.11 647.61 399.49 635.22 383.94 647.29 383.94" style="fill: #b6e0d6;"/>
          <polygon id="l2-2" points="1053.12 384.13 1044.07 373.63 1061.75 373.63 1061.75 381.46 1053.36 373.87 1053.36 381.77 1059.56 381.77 1059.56 387.84 1053.36 382.01 1053.36 395.8 1044.07 384.13 1053.12 384.13" style="fill: #fff9b0;"/>
        </g>
        <g id="line-7" data-name="line">
          <path id="l1-2" d="M145.22,733.29c1.51,1.03,3.86,1.54,7.05,1.54,5.13,0,8.99-1.04,11.58-3.12,2.59-2.08,3.89-4.82,3.89-8.22,0-1.73-.46-3.05-1.38-3.97-.92-.92-2.24-1.38-3.97-1.38-.59,0-1.23,.08-1.9,.24-.68,.16-1.12,.27-1.34,.32-1.08,.32-1.81,.49-2.19,.49-.32,0-.49-.13-.49-.4,0-.22,.19-.47,.57-.77,.38-.3,.81-.58,1.3-.85,1.51-.97,2.69-1.86,3.52-2.67,.84-.81,1.26-1.89,1.26-3.24,0-1.62-.55-2.9-1.66-3.85-1.11-.94-2.74-1.42-4.9-1.42-2.27,0-4.37,.45-6.32,1.34-1.94,.89-3.5,1.94-4.66,3.16-1.16,1.21-1.74,2.23-1.74,3.04,0,.76,.32,1.13,.97,1.13,.49,0,1.92-.32,4.29-.97,2.59-.86,4.43-1.3,5.51-1.3,1.03,0,1.54,.46,1.54,1.38,0,.97-.35,2.11-1.05,3.4-.49,.76-.73,1.35-.73,1.78,0,.86,.43,1.3,1.3,1.3,.43,0,.81-.04,1.13-.12,.32-.08,.65-.12,.97-.12,.7,0,1.05,.54,1.05,1.62,0,3.19-.59,6.03-1.78,8.55-1.19,2.51-2.73,3.77-4.62,3.77-1.67,0-2.51-.81-2.51-2.43,0-.59,.13-1.3,.4-2.11,.27-.81,.57-1.59,.89-2.35,.49-1.13,.85-2.13,1.09-3,.24-.86,.36-1.73,.36-2.59,0-1.84-.3-3.33-.89-4.5-.59-1.16-1.21-1.74-1.86-1.74-.32,0-.61,.11-.85,.32-.24,.22-.36,.49-.36,.81,0,.65,.46,1.32,1.38,2.02,.54,.49,.94,.91,1.22,1.26,.27,.35,.4,.77,.4,1.26,0,.59-.27,1.09-.81,1.5-.54,.41-1.43,.91-2.67,1.5-1.67,.81-2.97,1.59-3.89,2.35-.92,.76-1.38,1.78-1.38,3.08,0,1.62,.76,2.94,2.27,3.97Z" style="fill: #feb0b0;"/>
          <polygon id="l1-1" points="424.77 719.83 415.72 709.32 433.4 709.32 433.4 717.16 425.02 709.57 425.02 717.46 431.21 717.46 431.21 723.54 425.02 717.71 425.02 731.5 415.72 719.83 424.77 719.83" style="fill: #b5e0d5;"/>
          <polygon id="l1-0" points="1014.95 719.64 1002.88 705.63 1026.46 705.63 1026.46 716.08 1015.28 705.95 1015.28 716.48 1023.54 716.48 1023.54 724.58 1015.28 716.8 1015.28 735.19 1002.88 719.64 1014.95 719.64" style="fill: #fffab0;"/>
        </g>
        <g id="line-8" data-name="line">
          <path id="logo0-0-3" data-name="logo0-0" d="M143.1,1266.88l-12.07-14.01h23.57v10.45s-11.18-10.13-11.18-10.13v10.53s8.26,0,8.26,0v8.1s-8.26-7.78-8.26-7.78v18.39s-12.39-15.55-12.39-15.55h12.07Zm13.77-8.1h6.4s.49,3.08,.49,3.08c.81-1.4,1.7-2.38,2.67-2.92,.97-.54,2.05-.81,3.24-.81,.22,0,.97,.08,2.27,.24l-.73,6.48c-1.19-.27-2.19-.41-3-.41-1.89,0-3.35,1.08-4.37,3.24v12.39h-6.97v-21.3Zm18.18-7.86c.73-.59,1.69-.89,2.88-.89,1.24,0,2.23,.28,2.96,.85s1.09,1.42,1.09,2.55c0,1.13-.36,2.01-1.09,2.63-.73,.62-1.71,.93-2.96,.93s-2.15-.31-2.88-.93c-.73-.62-1.09-1.5-1.09-2.63,0-1.08,.36-1.92,1.09-2.51Zm-.53,7.86h6.97v21.3h-6.97v-21.3Zm12.23,2.35c1.4-1.84,3.35-2.75,5.83-2.75,1.08,0,2.12,.24,3.12,.73,1,.49,1.82,1.16,2.47,2.03v-10.37h6.97v29.32h-6.07s-.41-2.43-.41-2.43c-1.73,1.89-3.83,2.83-6.32,2.83-2.32,0-4.19-.96-5.59-2.88-1.41-1.92-2.11-4.71-2.11-8.38,0-3.56,.7-6.26,2.11-8.1Zm5.71,12.55c.51,1.08,1.31,1.62,2.39,1.62,1.35,0,2.46-.49,3.32-1.46v-8.75c-.86-.97-1.97-1.46-3.32-1.46-2.11,0-3.16,1.86-3.16,5.59,0,1.89,.26,3.38,.77,4.46Zm18.64-4.13c1.84-1.35,4.91-2.19,9.23-2.51v-1.22c0-1.35-.84-2.02-2.51-2.02-.92,0-1.88,.16-2.88,.49-1,.32-2.26,.86-3.77,1.62l-2.35-4.94c3.24-1.78,6.37-2.67,9.4-2.67,3.08,0,5.36,.7,6.84,2.11,1.48,1.4,2.23,3.29,2.23,5.67v8.18c0,.86,.46,1.3,1.38,1.3v4.7c-2.27,0-3.94-.17-5.02-.53-1.08-.35-1.97-1.09-2.67-2.23-.81,1.03-1.73,1.8-2.75,2.31-1.03,.51-2.24,.77-3.64,.77-1.84,0-3.33-.51-4.5-1.54-1.16-1.03-1.74-2.38-1.74-4.05,0-2.27,.92-4.08,2.75-5.43Zm4.54,5.75c.38,.32,.89,.49,1.54,.49,1.24,0,2.29-.49,3.16-1.46v-3.73c-1.62,.11-2.9,.45-3.85,1.01-.95,.57-1.42,1.36-1.42,2.39,0,.54,.19,.97,.57,1.3Zm20.82-16.52l3.81,12.47h.08s3.89-12.47,3.89-12.47h6.8s-7.13,20.82-7.13,20.82c-1.19,3.35-2.48,5.62-3.89,6.8-1.41,1.19-3.21,1.78-5.43,1.78-1.78,0-3.54-.24-5.27-.73l1.7-5.27c.97,.32,1.97,.49,3,.49,.7,0,1.24-.15,1.62-.45,.38-.3,.67-.82,.89-1.58l.32-.89-7.61-20.98h7.21Zm-102.67-14.9c1.51,1.03,3.86,1.54,7.05,1.54,5.13,0,8.99-1.04,11.58-3.12,2.59-2.08,3.89-4.82,3.89-8.22,0-1.73-.46-3.05-1.38-3.97-.92-.92-2.24-1.38-3.97-1.38-.59,0-1.23,.08-1.9,.24-.68,.16-1.12,.27-1.34,.32-1.08,.32-1.81,.49-2.19,.49-.32,0-.49-.13-.49-.4,0-.22,.19-.47,.57-.77,.38-.3,.81-.58,1.3-.85,1.51-.97,2.69-1.86,3.52-2.67,.84-.81,1.26-1.89,1.26-3.24,0-1.62-.55-2.9-1.66-3.85-1.11-.94-2.74-1.42-4.9-1.42-2.27,0-4.37,.45-6.32,1.34s-3.5,1.94-4.66,3.16c-1.16,1.21-1.74,2.23-1.74,3.04,0,.76,.32,1.13,.97,1.13,.49,0,1.92-.32,4.29-.97,2.59-.86,4.43-1.3,5.51-1.3,1.03,0,1.54,.46,1.54,1.38,0,.97-.35,2.11-1.05,3.4-.49,.76-.73,1.35-.73,1.78,0,.86,.43,1.3,1.3,1.3,.43,0,.81-.04,1.13-.12,.32-.08,.65-.12,.97-.12,.7,0,1.05,.54,1.05,1.62,0,3.19-.59,6.03-1.78,8.55-1.19,2.51-2.73,3.77-4.62,3.77-1.67,0-2.51-.81-2.51-2.43,0-.59,.13-1.3,.4-2.11,.27-.81,.57-1.59,.89-2.35,.49-1.13,.85-2.13,1.09-3,.24-.86,.36-1.73,.36-2.59,0-1.84-.3-3.33-.89-4.5-.59-1.16-1.21-1.74-1.86-1.74-.32,0-.61,.11-.85,.32-.24,.22-.36,.49-.36,.81,0,.65,.46,1.32,1.38,2.02,.54,.49,.94,.91,1.22,1.26,.27,.35,.4,.77,.4,1.26,0,.59-.27,1.09-.81,1.5-.54,.41-1.43,.91-2.67,1.5-1.67,.81-2.97,1.59-3.89,2.35-.92,.76-1.38,1.78-1.38,3.08,0,1.62,.76,2.94,2.27,3.97Zm30.46-29.08c.97,0,1.86,.14,2.67,.4-1.35,9.23-2.03,17.25-2.03,24.06-2.16-.81-3.74-2.16-4.74-4.05-1-1.89-1.5-4.99-1.5-9.31,0-7.4,1.86-11.1,5.59-11.1Zm-.45,25.27c1.65,.54,3.44,.84,5.39,.89-.05,1.24-.47,2.27-1.26,3.08-.78,.81-1.93,1.21-3.44,1.21-1.67,0-3.01-.53-4.01-1.58-1-1.05-1.5-2.55-1.5-4.5,0-.92,.05-1.62,.16-2.11,1.46,1.46,3.01,2.46,4.66,3Zm9.19-5.87c1.84-1.38,4.91-2.25,9.23-2.63v-1.05c0-1.35-.81-2.02-2.43-2.02-.92,0-1.89,.16-2.92,.49-1.03,.32-2.3,.84-3.81,1.54l-2.35-4.94c3.56-1.78,6.72-2.67,9.48-2.67,3.08,0,5.33,.69,6.76,2.07,1.43,1.38,2.15,3.31,2.15,5.79v8.02c0,.92,.51,1.38,1.54,1.38v4.62c-2.38,0-4.1-.17-5.18-.53-1.08-.35-1.94-1.09-2.59-2.23-.92,1.08-1.86,1.88-2.83,2.39-.97,.51-2.16,.77-3.56,.77-1.84,0-3.33-.51-4.5-1.54-1.16-1.03-1.74-2.38-1.74-4.05,0-2.21,.92-4.01,2.75-5.39Zm4.58,5.59c.4,.35,.9,.53,1.5,.53,1.19,0,2.24-.46,3.16-1.38v-3.65c-1.62,.11-2.9,.43-3.85,.97-.95,.54-1.42,1.27-1.42,2.19,0,.54,.2,.99,.61,1.34Zm18.14-13.85c2.08-2.02,4.71-3.04,7.9-3.04,1.24,0,2.52,.22,3.85,.65,1.32,.43,2.52,1.13,3.6,2.11l-3.24,4.46c-1.13-.97-2.46-1.46-3.97-1.46-1.13,0-2.13,.46-3,1.38-.86,.92-1.3,2.24-1.3,3.97,0,1.78,.43,3.16,1.3,4.13,.86,.97,1.86,1.46,3,1.46,1.35,0,2.59-.51,3.73-1.54l3.64,4.05c-2.32,2.05-4.86,3.08-7.61,3.08-3.19,0-5.82-1.01-7.9-3.04-2.08-2.02-3.12-4.74-3.12-8.14,0-3.35,1.04-6.03,3.12-8.06Zm18.1-10.65h6.97v16.77s7.13-8.59,7.13-8.59h6.97s-6.56,7.61-6.56,7.61l6.8,13.61h-7.94s-3.48-8.18-3.48-8.18l-2.92,3.4v4.78h-6.97v-29.4Z" style="fill: #ffb0b0;"/>
          <path id="logo0-1-2" data-name="logo0-1" d="M444.98,1266.88l-12.07-14.01h23.57v10.45s-11.18-10.13-11.18-10.13v10.53s8.26,0,8.26,0v8.1s-8.26-7.78-8.26-7.78v18.39s-12.39-15.55-12.39-15.55h12.07Zm13.77-8.1h6.4s.49,3.08,.49,3.08c.81-1.4,1.7-2.38,2.67-2.92,.97-.54,2.05-.81,3.24-.81,.22,0,.97,.08,2.27,.24l-.73,6.48c-1.19-.27-2.19-.41-3-.41-1.89,0-3.35,1.08-4.37,3.24v12.39h-6.97v-21.3Zm18.18-7.86c.73-.59,1.69-.89,2.88-.89,1.24,0,2.23,.28,2.96,.85,.73,.57,1.09,1.42,1.09,2.55,0,1.13-.36,2.01-1.09,2.63-.73,.62-1.71,.93-2.96,.93-1.19,0-2.15-.31-2.88-.93-.73-.62-1.09-1.5-1.09-2.63,0-1.08,.36-1.92,1.09-2.51Zm-.53,7.86h6.97v21.3h-6.97v-21.3Zm12.23,2.35c1.4-1.84,3.35-2.75,5.83-2.75,1.08,0,2.12,.24,3.12,.73,1,.49,1.82,1.16,2.47,2.03v-10.37h6.97v29.32h-6.07s-.41-2.43-.41-2.43c-1.73,1.89-3.83,2.83-6.32,2.83-2.32,0-4.19-.96-5.59-2.88-1.41-1.92-2.11-4.71-2.11-8.38,0-3.56,.7-6.26,2.11-8.1Zm5.71,12.55c.51,1.08,1.31,1.62,2.39,1.62,1.35,0,2.46-.49,3.32-1.46v-8.75c-.86-.97-1.97-1.46-3.32-1.46-2.11,0-3.16,1.86-3.16,5.59,0,1.89,.26,3.38,.77,4.46Zm18.64-4.13c1.84-1.35,4.91-2.19,9.23-2.51v-1.22c0-1.35-.84-2.02-2.51-2.02-.92,0-1.88,.16-2.88,.49-1,.32-2.26,.86-3.77,1.62l-2.35-4.94c3.24-1.78,6.37-2.67,9.4-2.67,3.08,0,5.36,.7,6.84,2.11,1.48,1.4,2.23,3.29,2.23,5.67v8.18c0,.86,.46,1.3,1.38,1.3v4.7c-2.27,0-3.94-.17-5.02-.53-1.08-.35-1.97-1.09-2.67-2.23-.81,1.03-1.73,1.8-2.75,2.31-1.03,.51-2.24,.77-3.64,.77-1.84,0-3.33-.51-4.5-1.54-1.16-1.03-1.74-2.38-1.74-4.05,0-2.27,.92-4.08,2.75-5.43Zm4.54,5.75c.38,.32,.89,.49,1.54,.49,1.24,0,2.29-.49,3.16-1.46v-3.73c-1.62,.11-2.9,.45-3.85,1.01-.95,.57-1.42,1.36-1.42,2.39,0,.54,.19,.97,.57,1.3Zm20.82-16.52l3.81,12.47h.08s3.89-12.47,3.89-12.47h6.8s-7.13,20.82-7.13,20.82c-1.19,3.35-2.48,5.62-3.89,6.8-1.41,1.19-3.21,1.78-5.43,1.78-1.78,0-3.54-.24-5.27-.73l1.7-5.27c.97,.32,1.97,.49,3,.49,.7,0,1.24-.15,1.62-.45,.38-.3,.67-.82,.89-1.58l.32-.89-7.61-20.98h7.21Zm-102.67-14.9c1.51,1.03,3.86,1.54,7.05,1.54,5.13,0,8.99-1.04,11.58-3.12,2.59-2.08,3.89-4.82,3.89-8.22,0-1.73-.46-3.05-1.38-3.97-.92-.92-2.24-1.38-3.97-1.38-.59,0-1.23,.08-1.9,.24-.68,.16-1.12,.27-1.34,.32-1.08,.32-1.81,.49-2.19,.49-.32,0-.49-.13-.49-.4,0-.22,.19-.47,.57-.77,.38-.3,.81-.58,1.3-.85,1.51-.97,2.69-1.86,3.52-2.67,.84-.81,1.26-1.89,1.26-3.24,0-1.62-.55-2.9-1.66-3.85-1.11-.94-2.74-1.42-4.9-1.42-2.27,0-4.37,.45-6.32,1.34-1.94,.89-3.5,1.94-4.66,3.16-1.16,1.21-1.74,2.23-1.74,3.04,0,.76,.32,1.13,.97,1.13,.49,0,1.92-.32,4.29-.97,2.59-.86,4.43-1.3,5.51-1.3,1.03,0,1.54,.46,1.54,1.38s-.35,2.11-1.05,3.4c-.49,.76-.73,1.35-.73,1.78,0,.86,.43,1.3,1.3,1.3,.43,0,.81-.04,1.13-.12,.32-.08,.65-.12,.97-.12,.7,0,1.05,.54,1.05,1.62,0,3.19-.59,6.03-1.78,8.55-1.19,2.51-2.73,3.77-4.62,3.77-1.67,0-2.51-.81-2.51-2.43,0-.59,.13-1.3,.4-2.11,.27-.81,.57-1.59,.89-2.35,.49-1.13,.85-2.13,1.09-3,.24-.86,.36-1.73,.36-2.59,0-1.84-.3-3.33-.89-4.5-.59-1.16-1.21-1.74-1.86-1.74-.32,0-.61,.11-.85,.32-.24,.22-.36,.49-.36,.81,0,.65,.46,1.32,1.38,2.02,.54,.49,.94,.91,1.22,1.26,.27,.35,.4,.77,.4,1.26s-.27,1.09-.81,1.5c-.54,.41-1.43,.91-2.67,1.5-1.67,.81-2.97,1.59-3.89,2.35-.92,.76-1.38,1.78-1.38,3.08,0,1.62,.76,2.94,2.27,3.97Zm30.46-29.08c.97,0,1.86,.14,2.67,.4-1.35,9.23-2.03,17.25-2.03,24.06-2.16-.81-3.74-2.16-4.74-4.05-1-1.89-1.5-4.99-1.5-9.31,0-7.4,1.86-11.1,5.59-11.1Zm-.45,25.27c1.65,.54,3.44,.84,5.39,.89-.05,1.24-.47,2.27-1.26,3.08-.78,.81-1.93,1.21-3.44,1.21-1.67,0-3.01-.53-4.01-1.58-1-1.05-1.5-2.55-1.5-4.5,0-.92,.05-1.62,.16-2.11,1.46,1.46,3.01,2.46,4.66,3Zm9.19-5.87c1.84-1.38,4.91-2.25,9.23-2.63v-1.05c0-1.35-.81-2.02-2.43-2.02-.92,0-1.89,.16-2.92,.49-1.03,.32-2.3,.84-3.81,1.54l-2.35-4.94c3.56-1.78,6.72-2.67,9.48-2.67,3.08,0,5.33,.69,6.76,2.07,1.43,1.38,2.15,3.31,2.15,5.79v8.02c0,.92,.51,1.38,1.54,1.38v4.62c-2.38,0-4.1-.17-5.18-.53-1.08-.35-1.94-1.09-2.59-2.23-.92,1.08-1.86,1.88-2.83,2.39-.97,.51-2.16,.77-3.56,.77-1.84,0-3.33-.51-4.5-1.54-1.16-1.03-1.74-2.38-1.74-4.05,0-2.21,.92-4.01,2.75-5.39Zm4.58,5.59c.4,.35,.9,.53,1.5,.53,1.19,0,2.24-.46,3.16-1.38v-3.65c-1.62,.11-2.9,.43-3.85,.97-.95,.54-1.42,1.27-1.42,2.19,0,.54,.2,.99,.61,1.34Zm18.14-13.85c2.08-2.02,4.71-3.04,7.9-3.04,1.24,0,2.52,.22,3.85,.65,1.32,.43,2.52,1.13,3.6,2.11l-3.24,4.46c-1.13-.97-2.46-1.46-3.97-1.46-1.13,0-2.13,.46-3,1.38-.86,.92-1.3,2.24-1.3,3.97,0,1.78,.43,3.16,1.3,4.13,.86,.97,1.86,1.46,3,1.46,1.35,0,2.59-.51,3.73-1.54l3.64,4.05c-2.32,2.05-4.86,3.08-7.61,3.08-3.19,0-5.82-1.01-7.9-3.04-2.08-2.02-3.12-4.74-3.12-8.14,0-3.35,1.04-6.03,3.12-8.06Zm18.1-10.65h6.97v16.77s7.13-8.59,7.13-8.59h6.97s-6.56,7.61-6.56,7.61l6.8,13.61h-7.94s-3.48-8.18-3.48-8.18l-2.92,3.4v4.78h-6.97v-29.4Z" style="fill: #fffab0;"/>
          <path id="logo0-2-3" data-name="logo0-2" d="M955.86,1266.88l-12.07-14.01h23.57v10.45s-11.18-10.13-11.18-10.13v10.53s8.26,0,8.26,0v8.1s-8.26-7.78-8.26-7.78v18.39s-12.39-15.55-12.39-15.55h12.07Zm13.77-8.1h6.4s.49,3.08,.49,3.08c.81-1.4,1.7-2.38,2.67-2.92,.97-.54,2.05-.81,3.24-.81,.22,0,.97,.08,2.27,.24l-.73,6.48c-1.19-.27-2.19-.41-3-.41-1.89,0-3.35,1.08-4.37,3.24v12.39h-6.97v-21.3Zm18.18-7.86c.73-.59,1.69-.89,2.88-.89,1.24,0,2.23,.28,2.96,.85s1.09,1.42,1.09,2.55-.36,2.01-1.09,2.63c-.73,.62-1.71,.93-2.96,.93-1.19,0-2.15-.31-2.88-.93-.73-.62-1.09-1.5-1.09-2.63,0-1.08,.36-1.92,1.09-2.51Zm-.53,7.86h6.97v21.3h-6.97v-21.3Zm12.23,2.35c1.4-1.84,3.35-2.75,5.83-2.75,1.08,0,2.12,.24,3.12,.73,1,.49,1.82,1.16,2.47,2.03v-10.37h6.97v29.32h-6.07s-.41-2.43-.41-2.43c-1.73,1.89-3.83,2.83-6.32,2.83-2.32,0-4.19-.96-5.59-2.88-1.41-1.92-2.11-4.71-2.11-8.38,0-3.56,.7-6.26,2.11-8.1Zm5.71,12.55c.51,1.08,1.31,1.62,2.39,1.62,1.35,0,2.46-.49,3.32-1.46v-8.75c-.86-.97-1.97-1.46-3.32-1.46-2.11,0-3.16,1.86-3.16,5.59,0,1.89,.26,3.38,.77,4.46Zm18.64-4.13c1.84-1.35,4.91-2.19,9.23-2.51v-1.22c0-1.35-.84-2.02-2.51-2.02-.92,0-1.88,.16-2.88,.49-1,.32-2.26,.86-3.77,1.62l-2.35-4.94c3.24-1.78,6.37-2.67,9.4-2.67,3.08,0,5.36,.7,6.84,2.11,1.48,1.4,2.23,3.29,2.23,5.67v8.18c0,.86,.46,1.3,1.38,1.3v4.7c-2.27,0-3.94-.17-5.02-.53-1.08-.35-1.97-1.09-2.67-2.23-.81,1.03-1.73,1.8-2.75,2.31-1.03,.51-2.24,.77-3.64,.77-1.84,0-3.33-.51-4.5-1.54-1.16-1.03-1.74-2.38-1.74-4.05,0-2.27,.92-4.08,2.75-5.43Zm4.54,5.75c.38,.32,.89,.49,1.54,.49,1.24,0,2.29-.49,3.16-1.46v-3.73c-1.62,.11-2.9,.45-3.85,1.01-.95,.57-1.42,1.36-1.42,2.39,0,.54,.19,.97,.57,1.3Zm20.82-16.52l3.81,12.47h.08l3.89-12.47h6.8s-7.13,20.82-7.13,20.82c-1.19,3.35-2.48,5.62-3.89,6.8-1.41,1.19-3.21,1.78-5.43,1.78-1.78,0-3.54-.24-5.27-.73l1.7-5.27c.97,.32,1.97,.49,3,.49,.7,0,1.24-.15,1.62-.45,.38-.3,.67-.82,.89-1.58l.32-.89-7.61-20.98h7.21Zm-102.67-14.9c1.51,1.03,3.86,1.54,7.05,1.54,5.13,0,8.99-1.04,11.58-3.12,2.59-2.08,3.89-4.82,3.89-8.22,0-1.73-.46-3.05-1.38-3.97-.92-.92-2.24-1.38-3.97-1.38-.59,0-1.23,.08-1.9,.24-.68,.16-1.12,.27-1.34,.32-1.08,.32-1.81,.49-2.19,.49-.32,0-.49-.13-.49-.4,0-.22,.19-.47,.57-.77,.38-.3,.81-.58,1.3-.85,1.51-.97,2.69-1.86,3.52-2.67,.84-.81,1.26-1.89,1.26-3.24,0-1.62-.55-2.9-1.66-3.85-1.11-.94-2.74-1.42-4.9-1.42-2.27,0-4.37,.45-6.32,1.34-1.94,.89-3.5,1.94-4.66,3.16-1.16,1.21-1.74,2.23-1.74,3.04s.32,1.13,.97,1.13c.49,0,1.92-.32,4.29-.97,2.59-.86,4.43-1.3,5.51-1.3,1.03,0,1.54,.46,1.54,1.38,0,.97-.35,2.11-1.05,3.4-.49,.76-.73,1.35-.73,1.78,0,.86,.43,1.3,1.3,1.3,.43,0,.81-.04,1.13-.12,.32-.08,.65-.12,.97-.12,.7,0,1.05,.54,1.05,1.62,0,3.19-.59,6.03-1.78,8.55-1.19,2.51-2.73,3.77-4.62,3.77-1.67,0-2.51-.81-2.51-2.43,0-.59,.13-1.3,.4-2.11,.27-.81,.57-1.59,.89-2.35,.49-1.13,.85-2.13,1.09-3,.24-.86,.36-1.73,.36-2.59,0-1.84-.3-3.33-.89-4.5-.59-1.16-1.21-1.74-1.86-1.74-.32,0-.61,.11-.85,.32-.24,.22-.36,.49-.36,.81,0,.65,.46,1.32,1.38,2.02,.54,.49,.94,.91,1.22,1.26,.27,.35,.4,.77,.4,1.26,0,.59-.27,1.09-.81,1.5-.54,.41-1.43,.91-2.67,1.5-1.67,.81-2.97,1.59-3.89,2.35-.92,.76-1.38,1.78-1.38,3.08,0,1.62,.76,2.94,2.27,3.97Zm30.46-29.08c.97,0,1.86,.14,2.67,.4-1.35,9.23-2.03,17.25-2.03,24.06-2.16-.81-3.74-2.16-4.74-4.05-1-1.89-1.5-4.99-1.5-9.31,0-7.4,1.86-11.1,5.59-11.1Zm-.45,25.27c1.65,.54,3.44,.84,5.39,.89-.05,1.24-.47,2.27-1.26,3.08-.78,.81-1.93,1.21-3.44,1.21-1.67,0-3.01-.53-4.01-1.58-1-1.05-1.5-2.55-1.5-4.5,0-.92,.05-1.62,.16-2.11,1.46,1.46,3.01,2.46,4.66,3Zm9.19-5.87c1.84-1.38,4.91-2.25,9.23-2.63v-1.05c0-1.35-.81-2.02-2.43-2.02-.92,0-1.89,.16-2.92,.49-1.03,.32-2.3,.84-3.81,1.54l-2.35-4.94c3.56-1.78,6.72-2.67,9.48-2.67,3.08,0,5.33,.69,6.76,2.07,1.43,1.38,2.15,3.31,2.15,5.79v8.02c0,.92,.51,1.38,1.54,1.38v4.62c-2.38,0-4.1-.17-5.18-.53-1.08-.35-1.94-1.09-2.59-2.23-.92,1.08-1.86,1.88-2.83,2.39-.97,.51-2.16,.77-3.56,.77-1.84,0-3.33-.51-4.5-1.54-1.16-1.03-1.74-2.38-1.74-4.05,0-2.21,.92-4.01,2.75-5.39Zm4.58,5.59c.4,.35,.9,.53,1.5,.53,1.19,0,2.24-.46,3.16-1.38v-3.65c-1.62,.11-2.9,.43-3.85,.97-.95,.54-1.42,1.27-1.42,2.19,0,.54,.2,.99,.61,1.34Zm18.14-13.85c2.08-2.02,4.71-3.04,7.9-3.04,1.24,0,2.52,.22,3.85,.65,1.32,.43,2.52,1.13,3.6,2.11l-3.24,4.46c-1.13-.97-2.46-1.46-3.97-1.46-1.13,0-2.13,.46-3,1.38-.86,.92-1.3,2.24-1.3,3.97,0,1.78,.43,3.16,1.3,4.13,.86,.97,1.86,1.46,3,1.46,1.35,0,2.59-.51,3.73-1.54l3.64,4.05c-2.32,2.05-4.86,3.08-7.61,3.08-3.19,0-5.82-1.01-7.9-3.04-2.08-2.02-3.12-4.74-3.12-8.14,0-3.35,1.04-6.03,3.12-8.06Zm18.1-10.65h6.97v16.77s7.13-8.59,7.13-8.59h6.97s-6.56,7.61-6.56,7.61l6.8,13.61h-7.94s-3.48-8.18-3.48-8.18l-2.92,3.4v4.78h-6.97v-29.4Z" style="fill: #b5e0d6;"/>
        </g>
        <g id="line-9" data-name="line" style="opacity: .5;">
          <path id="logo0-0-4" data-name="logo0-0" d="M154.54,1592.57l-12.07-14.01h23.57v10.45s-11.18-10.13-11.18-10.13v10.53s8.26,0,8.26,0v8.1s-8.26-7.78-8.26-7.78v18.39s-12.39-15.55-12.39-15.55h12.07Zm13.77-8.1h6.4s.49,3.08,.49,3.08c.81-1.4,1.7-2.38,2.67-2.92,.97-.54,2.05-.81,3.24-.81,.22,0,.97,.08,2.27,.24l-.73,6.48c-1.19-.27-2.19-.41-3-.41-1.89,0-3.35,1.08-4.37,3.24v12.39h-6.97v-21.3Zm18.18-7.86c.73-.59,1.69-.89,2.88-.89,1.24,0,2.23,.28,2.96,.85s1.09,1.42,1.09,2.55c0,1.13-.36,2.01-1.09,2.63-.73,.62-1.71,.93-2.96,.93-1.19,0-2.15-.31-2.88-.93-.73-.62-1.09-1.5-1.09-2.63,0-1.08,.36-1.92,1.09-2.51Zm-.53,7.86h6.97v21.3h-6.97v-21.3Zm12.23,2.35c1.4-1.84,3.35-2.75,5.83-2.75,1.08,0,2.12,.24,3.12,.73,1,.49,1.82,1.16,2.47,2.03v-10.37h6.97v29.32h-6.07s-.41-2.43-.41-2.43c-1.73,1.89-3.83,2.83-6.32,2.83-2.32,0-4.19-.96-5.59-2.88-1.41-1.92-2.11-4.71-2.11-8.38,0-3.56,.7-6.26,2.11-8.1Zm5.71,12.55c.51,1.08,1.31,1.62,2.39,1.62,1.35,0,2.46-.49,3.32-1.46v-8.75c-.86-.97-1.97-1.46-3.32-1.46-2.11,0-3.16,1.86-3.16,5.59,0,1.89,.26,3.38,.77,4.46Zm18.64-4.13c1.84-1.35,4.91-2.19,9.23-2.51v-1.22c0-1.35-.84-2.02-2.51-2.02-.92,0-1.88,.16-2.88,.49-1,.32-2.26,.86-3.77,1.62l-2.35-4.94c3.24-1.78,6.37-2.67,9.4-2.67,3.08,0,5.36,.7,6.84,2.11,1.48,1.4,2.23,3.29,2.23,5.67v8.18c0,.86,.46,1.3,1.38,1.3v4.7c-2.27,0-3.94-.17-5.02-.53-1.08-.35-1.97-1.09-2.67-2.23-.81,1.03-1.73,1.8-2.75,2.31-1.03,.51-2.24,.77-3.64,.77-1.84,0-3.33-.51-4.5-1.54-1.16-1.03-1.74-2.38-1.74-4.05,0-2.27,.92-4.08,2.75-5.43Zm4.54,5.75c.38,.32,.89,.49,1.54,.49,1.24,0,2.29-.49,3.16-1.46v-3.73c-1.62,.11-2.9,.45-3.85,1.01-.95,.57-1.42,1.36-1.42,2.39,0,.54,.19,.97,.57,1.3Zm20.82-16.52l3.81,12.47h.08s3.89-12.47,3.89-12.47h6.8s-7.13,20.82-7.13,20.82c-1.19,3.35-2.48,5.62-3.89,6.8-1.41,1.19-3.21,1.78-5.43,1.78-1.78,0-3.54-.24-5.27-.73l1.7-5.27c.97,.32,1.97,.49,3,.49,.7,0,1.24-.15,1.62-.45,.38-.3,.67-.82,.89-1.58l.32-.89-7.61-20.98h7.21Zm-102.67-14.9c1.51,1.03,3.86,1.54,7.05,1.54,5.13,0,8.99-1.04,11.58-3.12,2.59-2.08,3.89-4.82,3.89-8.22,0-1.73-.46-3.05-1.38-3.97-.92-.92-2.24-1.38-3.97-1.38-.59,0-1.23,.08-1.9,.24-.68,.16-1.12,.27-1.34,.32-1.08,.32-1.81,.49-2.19,.49-.32,0-.49-.13-.49-.4,0-.22,.19-.47,.57-.77,.38-.3,.81-.58,1.3-.85,1.51-.97,2.69-1.86,3.52-2.67,.84-.81,1.26-1.89,1.26-3.24,0-1.62-.55-2.9-1.66-3.85-1.11-.94-2.74-1.42-4.9-1.42-2.27,0-4.37,.45-6.32,1.34-1.94,.89-3.5,1.94-4.66,3.16-1.16,1.21-1.74,2.23-1.74,3.04,0,.76,.32,1.13,.97,1.13,.49,0,1.92-.32,4.29-.97,2.59-.86,4.43-1.3,5.51-1.3,1.03,0,1.54,.46,1.54,1.38,0,.97-.35,2.11-1.05,3.4-.49,.76-.73,1.35-.73,1.78,0,.86,.43,1.3,1.3,1.3,.43,0,.81-.04,1.13-.12,.32-.08,.65-.12,.97-.12,.7,0,1.05,.54,1.05,1.62,0,3.19-.59,6.03-1.78,8.55-1.19,2.51-2.73,3.77-4.62,3.77-1.67,0-2.51-.81-2.51-2.43,0-.59,.13-1.3,.4-2.11,.27-.81,.57-1.59,.89-2.35,.49-1.13,.85-2.13,1.09-3,.24-.86,.36-1.73,.36-2.59,0-1.84-.3-3.33-.89-4.5-.59-1.16-1.21-1.74-1.86-1.74-.32,0-.61,.11-.85,.32-.24,.22-.36,.49-.36,.81,0,.65,.46,1.32,1.38,2.02,.54,.49,.94,.91,1.22,1.26,.27,.35,.4,.77,.4,1.26,0,.59-.27,1.09-.81,1.5-.54,.41-1.43,.91-2.67,1.5-1.67,.81-2.97,1.59-3.89,2.35-.92,.76-1.38,1.78-1.38,3.08,0,1.62,.76,2.94,2.27,3.97Zm30.46-29.08c.97,0,1.86,.14,2.67,.4-1.35,9.23-2.03,17.25-2.03,24.06-2.16-.81-3.74-2.16-4.74-4.05-1-1.89-1.5-4.99-1.5-9.31,0-7.4,1.86-11.1,5.59-11.1Zm-.45,25.27c1.65,.54,3.44,.84,5.39,.89-.05,1.24-.47,2.27-1.26,3.08-.78,.81-1.93,1.21-3.44,1.21-1.67,0-3.01-.53-4.01-1.58-1-1.05-1.5-2.55-1.5-4.5,0-.92,.05-1.62,.16-2.11,1.46,1.46,3.01,2.46,4.66,3Zm9.19-5.87c1.84-1.38,4.91-2.25,9.23-2.63v-1.05c0-1.35-.81-2.02-2.43-2.02-.92,0-1.89,.16-2.92,.49-1.03,.32-2.3,.84-3.81,1.54l-2.35-4.94c3.56-1.78,6.72-2.67,9.48-2.67,3.08,0,5.33,.69,6.76,2.07,1.43,1.38,2.15,3.31,2.15,5.79v8.02c0,.92,.51,1.38,1.54,1.38v4.62c-2.38,0-4.1-.17-5.18-.53-1.08-.35-1.94-1.09-2.59-2.23-.92,1.08-1.86,1.88-2.83,2.39-.97,.51-2.16,.77-3.56,.77-1.84,0-3.33-.51-4.5-1.54-1.16-1.03-1.74-2.38-1.74-4.05,0-2.21,.92-4.01,2.75-5.39Zm4.58,5.59c.4,.35,.9,.53,1.5,.53,1.19,0,2.24-.46,3.16-1.38v-3.65c-1.62,.11-2.9,.43-3.85,.97-.95,.54-1.42,1.27-1.42,2.19,0,.54,.2,.99,.61,1.34Zm18.14-13.85c2.08-2.02,4.71-3.04,7.9-3.04,1.24,0,2.52,.22,3.85,.65,1.32,.43,2.52,1.13,3.6,2.11l-3.24,4.46c-1.13-.97-2.46-1.46-3.97-1.46-1.13,0-2.13,.46-3,1.38-.86,.92-1.3,2.24-1.3,3.97,0,1.78,.43,3.16,1.3,4.13,.86,.97,1.86,1.46,3,1.46,1.35,0,2.59-.51,3.73-1.54l3.64,4.05c-2.32,2.05-4.86,3.08-7.61,3.08-3.19,0-5.82-1.01-7.9-3.04-2.08-2.02-3.12-4.74-3.12-8.14s1.04-6.03,3.12-8.06Zm18.1-10.65h6.97v16.77s7.13-8.59,7.13-8.59h6.97s-6.56,7.61-6.56,7.61l6.8,13.61h-7.94s-3.48-8.18-3.48-8.18l-2.92,3.4v4.78h-6.97v-29.4Z" style="fill: #98c9f1;"/>
          <path id="logo0-2-4" data-name="logo0-2" d="M772.8,1592.57l-12.07-14.01h23.57v10.45s-11.18-10.13-11.18-10.13v10.53s8.26,0,8.26,0v8.1s-8.26-7.78-8.26-7.78v18.39s-12.39-15.55-12.39-15.55h12.07Zm13.77-8.1h6.4s.49,3.08,.49,3.08c.81-1.4,1.7-2.38,2.67-2.92,.97-.54,2.05-.81,3.24-.81,.22,0,.97,.08,2.27,.24l-.73,6.48c-1.19-.27-2.19-.41-3-.41-1.89,0-3.35,1.08-4.37,3.24v12.39h-6.97v-21.3Zm18.18-7.86c.73-.59,1.69-.89,2.88-.89s2.23,.28,2.96,.85c.73,.57,1.09,1.42,1.09,2.55s-.36,2.01-1.09,2.63c-.73,.62-1.71,.93-2.96,.93-1.19,0-2.15-.31-2.88-.93-.73-.62-1.09-1.5-1.09-2.63,0-1.08,.36-1.92,1.09-2.51Zm-.53,7.86h6.97v21.3h-6.97v-21.3Zm12.23,2.35c1.4-1.84,3.35-2.75,5.83-2.75,1.08,0,2.12,.24,3.12,.73,1,.49,1.82,1.16,2.47,2.03v-10.37h6.97v29.32h-6.07s-.41-2.43-.41-2.43c-1.73,1.89-3.83,2.83-6.32,2.83-2.32,0-4.19-.96-5.59-2.88-1.41-1.92-2.11-4.71-2.11-8.38,0-3.56,.7-6.26,2.11-8.1Zm5.71,12.55c.51,1.08,1.31,1.62,2.39,1.62,1.35,0,2.46-.49,3.32-1.46v-8.75c-.86-.97-1.97-1.46-3.32-1.46-2.11,0-3.16,1.86-3.16,5.59,0,1.89,.26,3.38,.77,4.46Zm18.64-4.13c1.84-1.35,4.91-2.19,9.23-2.51v-1.22c0-1.35-.84-2.02-2.51-2.02-.92,0-1.88,.16-2.88,.49-1,.32-2.26,.86-3.77,1.62l-2.35-4.94c3.24-1.78,6.37-2.67,9.4-2.67,3.08,0,5.36,.7,6.84,2.11,1.48,1.4,2.23,3.29,2.23,5.67v8.18c0,.86,.46,1.3,1.38,1.3v4.7c-2.27,0-3.94-.17-5.02-.53-1.08-.35-1.97-1.09-2.67-2.23-.81,1.03-1.73,1.8-2.75,2.31-1.03,.51-2.24,.77-3.64,.77-1.84,0-3.33-.51-4.5-1.54-1.16-1.03-1.74-2.38-1.74-4.05,0-2.27,.92-4.08,2.75-5.43Zm4.54,5.75c.38,.32,.89,.49,1.54,.49,1.24,0,2.29-.49,3.16-1.46v-3.73c-1.62,.11-2.9,.45-3.85,1.01-.95,.57-1.42,1.36-1.42,2.39,0,.54,.19,.97,.57,1.3Zm20.82-16.52l3.81,12.47h.08l3.89-12.47h6.8s-7.13,20.82-7.13,20.82c-1.19,3.35-2.48,5.62-3.89,6.8-1.41,1.19-3.21,1.78-5.43,1.78-1.78,0-3.54-.24-5.27-.73l1.7-5.27c.97,.32,1.97,.49,3,.49,.7,0,1.24-.15,1.62-.45,.38-.3,.67-.82,.89-1.58l.32-.89-7.61-20.98h7.21Zm-102.67-14.9c1.51,1.03,3.86,1.54,7.05,1.54,5.13,0,8.99-1.04,11.58-3.12,2.59-2.08,3.89-4.82,3.89-8.22,0-1.73-.46-3.05-1.38-3.97-.92-.92-2.24-1.38-3.97-1.38-.59,0-1.23,.08-1.9,.24-.68,.16-1.12,.27-1.34,.32-1.08,.32-1.81,.49-2.19,.49-.32,0-.49-.13-.49-.4,0-.22,.19-.47,.57-.77,.38-.3,.81-.58,1.3-.85,1.51-.97,2.69-1.86,3.52-2.67,.84-.81,1.26-1.89,1.26-3.24,0-1.62-.55-2.9-1.66-3.85-1.11-.94-2.74-1.42-4.9-1.42-2.27,0-4.37,.45-6.32,1.34-1.94,.89-3.5,1.94-4.66,3.16-1.16,1.21-1.74,2.23-1.74,3.04,0,.76,.32,1.13,.97,1.13,.49,0,1.92-.32,4.29-.97,2.59-.86,4.43-1.3,5.51-1.3,1.03,0,1.54,.46,1.54,1.38s-.35,2.11-1.05,3.4c-.49,.76-.73,1.35-.73,1.78,0,.86,.43,1.3,1.3,1.3,.43,0,.81-.04,1.13-.12,.32-.08,.65-.12,.97-.12,.7,0,1.05,.54,1.05,1.62,0,3.19-.59,6.03-1.78,8.55-1.19,2.51-2.73,3.77-4.62,3.77-1.67,0-2.51-.81-2.51-2.43,0-.59,.13-1.3,.4-2.11,.27-.81,.57-1.59,.89-2.35,.49-1.13,.85-2.13,1.09-3,.24-.86,.36-1.73,.36-2.59,0-1.84-.3-3.33-.89-4.5-.59-1.16-1.21-1.74-1.86-1.74-.32,0-.61,.11-.85,.32-.24,.22-.36,.49-.36,.81,0,.65,.46,1.32,1.38,2.02,.54,.49,.94,.91,1.22,1.26,.27,.35,.4,.77,.4,1.26,0,.59-.27,1.09-.81,1.5-.54,.41-1.43,.91-2.67,1.5-1.67,.81-2.97,1.59-3.89,2.35-.92,.76-1.38,1.78-1.38,3.08,0,1.62,.76,2.94,2.27,3.97Zm30.46-29.08c.97,0,1.86,.14,2.67,.4-1.35,9.23-2.03,17.25-2.03,24.06-2.16-.81-3.74-2.16-4.74-4.05-1-1.89-1.5-4.99-1.5-9.31,0-7.4,1.86-11.1,5.59-11.1Zm-.45,25.27c1.65,.54,3.44,.84,5.39,.89-.05,1.24-.47,2.27-1.26,3.08-.78,.81-1.93,1.21-3.44,1.21-1.67,0-3.01-.53-4.01-1.58-1-1.05-1.5-2.55-1.5-4.5,0-.92,.05-1.62,.16-2.11,1.46,1.46,3.01,2.46,4.66,3Zm9.19-5.87c1.84-1.38,4.91-2.25,9.23-2.63v-1.05c0-1.35-.81-2.02-2.43-2.02-.92,0-1.89,.16-2.92,.49-1.03,.32-2.3,.84-3.81,1.54l-2.35-4.94c3.56-1.78,6.72-2.67,9.48-2.67,3.08,0,5.33,.69,6.76,2.07,1.43,1.38,2.15,3.31,2.15,5.79v8.02c0,.92,.51,1.38,1.54,1.38v4.62c-2.38,0-4.1-.17-5.18-.53-1.08-.35-1.94-1.09-2.59-2.23-.92,1.08-1.86,1.88-2.83,2.39-.97,.51-2.16,.77-3.56,.77-1.84,0-3.33-.51-4.5-1.54-1.16-1.03-1.74-2.38-1.74-4.05,0-2.21,.92-4.01,2.75-5.39Zm4.58,5.59c.4,.35,.9,.53,1.5,.53,1.19,0,2.24-.46,3.16-1.38v-3.65c-1.62,.11-2.9,.43-3.85,.97-.95,.54-1.42,1.27-1.42,2.19,0,.54,.2,.99,.61,1.34Zm18.14-13.85c2.08-2.02,4.71-3.04,7.9-3.04,1.24,0,2.52,.22,3.85,.65,1.32,.43,2.52,1.13,3.6,2.11l-3.24,4.46c-1.13-.97-2.46-1.46-3.97-1.46-1.13,0-2.13,.46-3,1.38-.86,.92-1.3,2.24-1.3,3.97,0,1.78,.43,3.16,1.3,4.13,.86,.97,1.86,1.46,3,1.46,1.35,0,2.59-.51,3.73-1.54l3.64,4.05c-2.32,2.05-4.86,3.08-7.61,3.08-3.19,0-5.82-1.01-7.9-3.04-2.08-2.02-3.12-4.74-3.12-8.14,0-3.35,1.04-6.03,3.12-8.06Zm18.1-10.65h6.97v16.77s7.13-8.59,7.13-8.59h6.97s-6.56,7.61-6.56,7.61l6.8,13.61h-7.94s-3.48-8.18-3.48-8.18l-2.92,3.4v4.78h-6.97v-29.4Z" style="fill: #b5e0d6;"/>
        </g>
      </g>
      <g id="center-logo">
        <ellipse id="blend" cx="600.05" cy="912.35" rx="338.16" ry="183.14" style="fill: url(#radial-gradient);"/>
        <g id="friday-center">
          <path id="friday" d="M409.86,976.83l-48.28-56.05h94.28v41.8s-44.71-40.5-44.71-40.5v42.12s33.05,0,33.05,0v32.4s-33.05-31.1-33.05-31.1v73.55s-49.57-62.21-49.57-62.21h48.28Zm55.08-32.4h25.6s1.94,12.31,1.94,12.31c3.24-5.61,6.81-9.5,10.69-11.66,3.89-2.16,8.2-3.24,12.96-3.24,.86,0,3.89,.32,9.07,.97l-2.91,25.92c-4.75-1.08-8.75-1.62-11.99-1.62-7.56,0-13.4,4.32-17.5,12.96v49.57h-27.86v-85.21Zm72.74-31.43c2.91-2.37,6.75-3.56,11.5-3.56,4.97,0,8.91,1.13,11.83,3.4,2.92,2.27,4.37,5.67,4.37,10.21,0,4.54-1.46,8.05-4.37,10.53-2.92,2.49-6.86,3.73-11.83,3.73-4.75,0-8.59-1.24-11.5-3.73-2.92-2.48-4.38-5.99-4.38-10.53,0-4.32,1.46-7.66,4.38-10.04Zm-2.11,31.43h27.86v85.21h-27.86v-85.21Zm48.92,9.4c5.61-7.34,13.39-11.02,23.33-11.02,4.32,0,8.47,.97,12.47,2.92,3.99,1.94,7.29,4.65,9.88,8.1v-41.47h27.86v117.29h-24.3s-1.62-9.72-1.62-9.72c-6.91,7.56-15.34,11.34-25.27,11.34-9.29,0-16.74-3.83-22.36-11.5-5.62-7.66-8.42-18.84-8.42-33.53,0-14.26,2.8-25.05,8.42-32.4Zm22.84,50.22c2.05,4.32,5.24,6.48,9.56,6.48,5.4,0,9.83-1.94,13.28-5.83v-34.99c-3.46-3.89-7.89-5.83-13.28-5.83-8.42,0-12.64,7.45-12.64,22.35,0,7.56,1.02,13.5,3.08,17.82Zm74.55-16.52c7.34-5.4,19.65-8.75,36.94-10.04v-4.86c0-5.4-3.35-8.1-10.04-8.1-3.68,0-7.51,.65-11.5,1.94-4,1.3-9.02,3.46-15.07,6.48l-9.4-19.76c12.96-7.13,25.49-10.69,37.58-10.69,12.31,0,21.44,2.81,27.38,8.42,5.94,5.62,8.91,13.18,8.91,22.68v32.72c0,3.46,1.83,5.18,5.51,5.18v18.79c-9.07,0-15.77-.7-20.09-2.11-4.32-1.4-7.89-4.37-10.69-8.91-3.24,4.11-6.92,7.18-11.02,9.23-4.11,2.05-8.97,3.08-14.58,3.08-7.35,0-13.34-2.05-17.98-6.16-4.65-4.1-6.97-9.5-6.97-16.2,0-9.07,3.67-16.31,11.01-21.71Zm18.14,23c1.51,1.3,3.56,1.94,6.16,1.94,4.97,0,9.18-1.94,12.64-5.83v-14.9c-6.48,.44-11.61,1.78-15.39,4.05-3.78,2.27-5.67,5.46-5.67,9.56,0,2.16,.75,3.89,2.27,5.18Zm83.27-66.1l15.23,49.9h.32s15.55-49.9,15.55-49.9h27.22s-28.51,83.27-28.51,83.27c-4.75,13.39-9.94,22.46-15.55,27.22-5.62,4.75-12.85,7.13-21.71,7.13-7.13,0-14.15-.97-21.06-2.92l6.81-21.06c3.89,1.3,7.88,1.94,11.99,1.94,2.81,0,4.97-.6,6.48-1.78,1.51-1.19,2.7-3.3,3.56-6.32l1.3-3.56-30.46-83.92h28.84Z" style="fill: #98c9f1;"/>
          <circle id="rotation-bounds" cx="600" cy="900" r="587.01" style="fill: none;"/>
        </g>
        <g id="black-center">
          <path id="black" d="M372.6,884.81c6.04,4.11,15.44,6.16,28.19,6.16,20.52,0,35.96-4.16,46.33-12.47,10.37-8.31,15.55-19.28,15.55-32.89,0-6.91-1.84-12.2-5.51-15.88-3.68-3.67-8.97-5.51-15.88-5.51-2.38,0-4.92,.32-7.61,.97-2.7,.65-4.49,1.08-5.35,1.3-4.32,1.3-7.24,1.94-8.75,1.94-1.3,0-1.94-.54-1.94-1.62,0-.86,.75-1.89,2.27-3.08,1.51-1.18,3.24-2.32,5.18-3.4,6.04-3.89,10.74-7.45,14.09-10.69,3.35-3.24,5.02-7.56,5.02-12.96,0-6.48-2.22-11.61-6.64-15.39-4.43-3.78-10.97-5.67-19.6-5.67-9.07,0-17.5,1.78-25.27,5.35-7.78,3.56-13.99,7.78-18.63,12.64-4.65,4.86-6.97,8.91-6.97,12.15,0,3.03,1.3,4.54,3.89,4.54,1.94,0,7.66-1.3,17.17-3.89,10.37-3.45,17.71-5.18,22.03-5.18,4.1,0,6.16,1.84,6.16,5.51,0,3.89-1.41,8.42-4.21,13.61-1.94,3.03-2.92,5.4-2.92,7.13,0,3.46,1.73,5.18,5.18,5.18,1.73,0,3.24-.16,4.54-.49,1.3-.32,2.59-.49,3.89-.49,2.8,0,4.21,2.16,4.21,6.48,0,12.75-2.38,24.14-7.13,34.18-4.75,10.04-10.91,15.07-18.47,15.07-6.7,0-10.04-3.24-10.04-9.72,0-2.37,.54-5.18,1.62-8.42,1.08-3.24,2.27-6.37,3.56-9.4,1.94-4.54,3.4-8.53,4.37-11.99,.97-3.45,1.46-6.91,1.46-10.37,0-7.34-1.19-13.33-3.56-17.98-2.38-4.64-4.86-6.97-7.45-6.97-1.3,0-2.43,.44-3.4,1.3-.97,.87-1.46,1.94-1.46,3.24,0,2.59,1.83,5.3,5.51,8.1,2.16,1.94,3.78,3.62,4.86,5.02,1.08,1.41,1.62,3.08,1.62,5.02,0,2.38-1.08,4.37-3.24,5.99-2.16,1.62-5.73,3.62-10.69,5.99-6.7,3.24-11.88,6.37-15.55,9.4-3.68,3.03-5.51,7.13-5.51,12.31,0,6.48,3.02,11.78,9.07,15.88Zm121.83-116.32c3.89,0,7.45,.54,10.69,1.62-5.4,36.94-8.1,69.01-8.1,96.23-8.64-3.24-14.96-8.64-18.95-16.2-4-7.56-5.99-19.98-5.99-37.26,0-29.59,7.45-44.39,22.36-44.39Zm-1.78,101.09c6.59,2.16,13.77,3.35,21.55,3.56-.22,4.97-1.89,9.07-5.02,12.31-3.13,3.24-7.72,4.86-13.77,4.86-6.7,0-12.04-2.11-16.04-6.32-4-4.21-5.99-10.21-5.99-17.98,0-3.67,.21-6.48,.65-8.42,5.83,5.83,12.04,9.83,18.63,11.99Zm36.77-23.49c7.34-5.51,19.65-9.02,36.94-10.53v-4.21c0-5.4-3.24-8.1-9.72-8.1-3.67,0-7.56,.65-11.66,1.94-4.11,1.3-9.18,3.35-15.23,6.16l-9.4-19.76c14.26-7.13,26.89-10.69,37.91-10.69,12.31,0,21.33,2.75,27.05,8.26,5.72,5.51,8.59,13.23,8.59,23.17v32.08c0,3.68,2.05,5.51,6.16,5.51v18.47c-9.51,0-16.42-.7-20.74-2.11-4.32-1.4-7.77-4.37-10.37-8.91-3.68,4.32-7.45,7.51-11.34,9.56-3.89,2.06-8.64,3.08-14.26,3.08-7.34,0-13.34-2.05-17.98-6.16-4.65-4.1-6.97-9.5-6.97-16.2,0-8.85,3.67-16.04,11.01-21.55Zm18.31,22.36c1.62,1.41,3.61,2.11,5.99,2.11,4.75,0,8.96-1.83,12.64-5.51v-14.58c-6.48,.44-11.62,1.73-15.39,3.89-3.78,2.16-5.67,5.08-5.67,8.75,0,2.16,.81,3.94,2.43,5.35Zm72.58-55.4c8.31-8.1,18.84-12.15,31.59-12.15,4.97,0,10.09,.87,15.39,2.59,5.29,1.73,10.1,4.54,14.42,8.42l-12.96,17.82c-4.54-3.89-9.83-5.83-15.87-5.83-4.54,0-8.54,1.84-11.99,5.51-3.46,3.68-5.18,8.97-5.18,15.88,0,7.13,1.73,12.64,5.18,16.52,3.45,3.89,7.45,5.83,11.99,5.83,5.4,0,10.37-2.05,14.9-6.16l14.58,16.2c-9.29,8.21-19.44,12.31-30.45,12.31-12.75,0-23.28-4.05-31.59-12.15-8.32-8.1-12.47-18.95-12.47-32.56,0-13.39,4.16-24.14,12.47-32.24Zm72.42-42.61h27.86v67.07s28.51-34.34,28.51-34.34h27.86s-26.24,30.46-26.24,30.46l27.22,54.43h-31.75s-13.93-32.72-13.93-32.72l-11.66,13.61v19.12h-27.86v-117.61Z" style="fill: #98c9f1;"/>
          <circle id="rotation-bounds-2" data-name="rotation-bounds" cx="600" cy="900" r="587.01" style="fill: none;"/>
        </g>
      </g>
      <circle id="rotation-bounds-3" data-name="rotation-bounds" cx="600" cy="900" r="587.01" style="fill: none;"/>
    </g>
  </g>
</svg>